<?xml version="1.0" encoding="utf-8" standalone="no"?>
<!DOCTYPE svg PUBLIC "-//W3C//DTD SVG 1.1//EN"
  "http://www.w3.org/Graphics/SVG/1.1/DTD/svg11.dtd">
<!-- Created with matplotlib (https://matplotlib.org/) -->
<svg height="382.793766pt" version="1.1" viewBox="0 0 736.608231 382.793766" width="736.608231pt" xmlns="http://www.w3.org/2000/svg" xmlns:xlink="http://www.w3.org/1999/xlink">
 <defs>
  <style type="text/css">
*{stroke-linecap:butt;stroke-linejoin:round;}
  </style>
 </defs>
 <g id="figure_1">
  <g id="patch_1">
   <path d="M 0 382.793766 
L 736.608231 382.793766 
L 736.608231 0 
L 0 0 
z
" style="fill:none;"/>
  </g>
  <g id="axes_1">
   <g id="patch_2">
    <path d="M 87.499219 326.544 
L 508.434841 326.544 
L 508.434841 16.2 
L 87.499219 16.2 
z
" style="fill:none;"/>
   </g>
   <g id="line2d_1">
    <path clip-path="url(#peb10a9e0a4)" d="M 87.499219 30.306545 
L 508.434841 30.306545 
" style="fill:none;stroke:#b2b2b2;stroke-dasharray:2,2;stroke-dashoffset:0;"/>
   </g>
   <g id="matplotlib.axis_1">
    <g id="xtick_1">
     <g id="line2d_2">
      <defs>
       <path d="M 0 0 
L 0 9 
" id="m9e46246344" style="stroke:#262626;stroke-width:1.875;"/>
      </defs>
      <g>
       <use style="fill:#262626;stroke:#262626;stroke-width:1.875;" x="120.982734" xlink:href="#m9e46246344" y="326.544"/>
      </g>
     </g>
     <g id="text_1">
      <!-- 3 -->
      <defs>
       <path d="M 4.203125 18.890625 
L 12.984375 20.0625 
Q 14.5 12.59375 18.140625 9.296875 
Q 21.78125 6 27 6 
Q 33.203125 6 37.46875 10.296875 
Q 41.75 14.59375 41.75 20.953125 
Q 41.75 27 37.796875 30.921875 
Q 33.84375 34.859375 27.734375 34.859375 
Q 25.25 34.859375 21.53125 33.890625 
L 22.515625 41.609375 
Q 23.390625 41.5 23.921875 41.5 
Q 29.546875 41.5 34.03125 44.421875 
Q 38.53125 47.359375 38.53125 53.46875 
Q 38.53125 58.296875 35.25 61.46875 
Q 31.984375 64.65625 26.8125 64.65625 
Q 21.6875 64.65625 18.265625 61.421875 
Q 14.84375 58.203125 13.875 51.765625 
L 5.078125 53.328125 
Q 6.6875 62.15625 12.390625 67.015625 
Q 18.109375 71.875 26.609375 71.875 
Q 32.46875 71.875 37.390625 69.359375 
Q 42.328125 66.84375 44.9375 62.5 
Q 47.5625 58.15625 47.5625 53.265625 
Q 47.5625 48.640625 45.0625 44.828125 
Q 42.578125 41.015625 37.703125 38.765625 
Q 44.046875 37.3125 47.5625 32.6875 
Q 51.078125 28.078125 51.078125 21.140625 
Q 51.078125 11.765625 44.234375 5.25 
Q 37.40625 -1.265625 26.953125 -1.265625 
Q 17.53125 -1.265625 11.296875 4.34375 
Q 5.078125 9.96875 4.203125 18.890625 
z
" id="ArialMT-51"/>
      </defs>
      <g style="fill:#262626;" transform="translate(116.394961 350.854391)scale(0.165 -0.165)">
       <use xlink:href="#ArialMT-51"/>
      </g>
     </g>
    </g>
    <g id="xtick_2">
     <g id="line2d_3">
      <g>
       <use style="fill:#262626;stroke:#262626;stroke-width:1.875;" x="221.43328" xlink:href="#m9e46246344" y="326.544"/>
      </g>
     </g>
     <g id="text_2">
      <!-- 4 -->
      <defs>
       <path d="M 32.328125 0 
L 32.328125 17.140625 
L 1.265625 17.140625 
L 1.265625 25.203125 
L 33.9375 71.578125 
L 41.109375 71.578125 
L 41.109375 25.203125 
L 50.78125 25.203125 
L 50.78125 17.140625 
L 41.109375 17.140625 
L 41.109375 0 
z
M 32.328125 25.203125 
L 32.328125 57.46875 
L 9.90625 25.203125 
z
" id="ArialMT-52"/>
      </defs>
      <g style="fill:#262626;" transform="translate(216.845507 350.854391)scale(0.165 -0.165)">
       <use xlink:href="#ArialMT-52"/>
      </g>
     </g>
    </g>
    <g id="xtick_3">
     <g id="line2d_4">
      <g>
       <use style="fill:#262626;stroke:#262626;stroke-width:1.875;" x="321.883826" xlink:href="#m9e46246344" y="326.544"/>
      </g>
     </g>
     <g id="text_3">
      <!-- 5 -->
      <defs>
       <path d="M 4.15625 18.75 
L 13.375 19.53125 
Q 14.40625 12.796875 18.140625 9.390625 
Q 21.875 6 27.15625 6 
Q 33.5 6 37.890625 10.78125 
Q 42.28125 15.578125 42.28125 23.484375 
Q 42.28125 31 38.0625 35.34375 
Q 33.84375 39.703125 27 39.703125 
Q 22.75 39.703125 19.328125 37.765625 
Q 15.921875 35.84375 13.96875 32.765625 
L 5.71875 33.84375 
L 12.640625 70.609375 
L 48.25 70.609375 
L 48.25 62.203125 
L 19.671875 62.203125 
L 15.828125 42.96875 
Q 22.265625 47.46875 29.34375 47.46875 
Q 38.71875 47.46875 45.15625 40.96875 
Q 51.609375 34.46875 51.609375 24.265625 
Q 51.609375 14.546875 45.953125 7.46875 
Q 39.0625 -1.21875 27.15625 -1.21875 
Q 17.390625 -1.21875 11.203125 4.25 
Q 5.03125 9.71875 4.15625 18.75 
z
" id="ArialMT-53"/>
      </defs>
      <g style="fill:#262626;" transform="translate(317.296053 350.854391)scale(0.165 -0.165)">
       <use xlink:href="#ArialMT-53"/>
      </g>
     </g>
    </g>
    <g id="xtick_4">
     <g id="line2d_5">
      <g>
       <use style="fill:#262626;stroke:#262626;stroke-width:1.875;" x="422.334373" xlink:href="#m9e46246344" y="326.544"/>
      </g>
     </g>
     <g id="text_4">
      <!-- 6 -->
      <defs>
       <path d="M 49.75 54.046875 
L 41.015625 53.375 
Q 39.84375 58.546875 37.703125 60.890625 
Q 34.125 64.65625 28.90625 64.65625 
Q 24.703125 64.65625 21.53125 62.3125 
Q 17.390625 59.28125 14.984375 53.46875 
Q 12.59375 47.65625 12.5 36.921875 
Q 15.671875 41.75 20.265625 44.09375 
Q 24.859375 46.4375 29.890625 46.4375 
Q 38.671875 46.4375 44.84375 39.96875 
Q 51.03125 33.5 51.03125 23.25 
Q 51.03125 16.5 48.125 10.71875 
Q 45.21875 4.9375 40.140625 1.859375 
Q 35.0625 -1.21875 28.609375 -1.21875 
Q 17.625 -1.21875 10.6875 6.859375 
Q 3.765625 14.9375 3.765625 33.5 
Q 3.765625 54.25 11.421875 63.671875 
Q 18.109375 71.875 29.4375 71.875 
Q 37.890625 71.875 43.28125 67.140625 
Q 48.6875 62.40625 49.75 54.046875 
z
M 13.875 23.1875 
Q 13.875 18.65625 15.796875 14.5 
Q 17.71875 10.359375 21.1875 8.171875 
Q 24.65625 6 28.46875 6 
Q 34.03125 6 38.03125 10.484375 
Q 42.046875 14.984375 42.046875 22.703125 
Q 42.046875 30.125 38.078125 34.390625 
Q 34.125 38.671875 28.125 38.671875 
Q 22.171875 38.671875 18.015625 34.390625 
Q 13.875 30.125 13.875 23.1875 
z
" id="ArialMT-54"/>
      </defs>
      <g style="fill:#262626;" transform="translate(417.746599 350.854391)scale(0.165 -0.165)">
       <use xlink:href="#ArialMT-54"/>
      </g>
     </g>
    </g>
    <g id="text_5">
     <!-- Hair diameter, $D_h$ $(\mu m)$ -->
     <defs>
      <path d="M 8.015625 0 
L 8.015625 71.578125 
L 17.484375 71.578125 
L 17.484375 42.1875 
L 54.6875 42.1875 
L 54.6875 71.578125 
L 64.15625 71.578125 
L 64.15625 0 
L 54.6875 0 
L 54.6875 33.734375 
L 17.484375 33.734375 
L 17.484375 0 
z
" id="ArialMT-72"/>
      <path d="M 40.4375 6.390625 
Q 35.546875 2.25 31.03125 0.53125 
Q 26.515625 -1.171875 21.34375 -1.171875 
Q 12.796875 -1.171875 8.203125 3 
Q 3.609375 7.171875 3.609375 13.671875 
Q 3.609375 17.484375 5.34375 20.625 
Q 7.078125 23.78125 9.890625 25.6875 
Q 12.703125 27.59375 16.21875 28.5625 
Q 18.796875 29.25 24.03125 29.890625 
Q 34.671875 31.15625 39.703125 32.90625 
Q 39.75 34.71875 39.75 35.203125 
Q 39.75 40.578125 37.25 42.78125 
Q 33.890625 45.75 27.25 45.75 
Q 21.046875 45.75 18.09375 43.578125 
Q 15.140625 41.40625 13.71875 35.890625 
L 5.125 37.0625 
Q 6.296875 42.578125 8.984375 45.96875 
Q 11.671875 49.359375 16.75 51.1875 
Q 21.828125 53.03125 28.515625 53.03125 
Q 35.15625 53.03125 39.296875 51.46875 
Q 43.453125 49.90625 45.40625 47.53125 
Q 47.359375 45.171875 48.140625 41.546875 
Q 48.578125 39.3125 48.578125 33.453125 
L 48.578125 21.734375 
Q 48.578125 9.46875 49.140625 6.21875 
Q 49.703125 2.984375 51.375 0 
L 42.1875 0 
Q 40.828125 2.734375 40.4375 6.390625 
z
M 39.703125 26.03125 
Q 34.90625 24.078125 25.34375 22.703125 
Q 19.921875 21.921875 17.671875 20.9375 
Q 15.4375 19.96875 14.203125 18.09375 
Q 12.984375 16.21875 12.984375 13.921875 
Q 12.984375 10.40625 15.640625 8.0625 
Q 18.3125 5.71875 23.4375 5.71875 
Q 28.515625 5.71875 32.46875 7.9375 
Q 36.421875 10.15625 38.28125 14.015625 
Q 39.703125 17 39.703125 22.796875 
z
" id="ArialMT-97"/>
      <path d="M 6.640625 61.46875 
L 6.640625 71.578125 
L 15.4375 71.578125 
L 15.4375 61.46875 
z
M 6.640625 0 
L 6.640625 51.859375 
L 15.4375 51.859375 
L 15.4375 0 
z
" id="ArialMT-105"/>
      <path d="M 6.5 0 
L 6.5 51.859375 
L 14.40625 51.859375 
L 14.40625 44 
Q 17.4375 49.515625 20 51.265625 
Q 22.5625 53.03125 25.640625 53.03125 
Q 30.078125 53.03125 34.671875 50.203125 
L 31.640625 42.046875 
Q 28.421875 43.953125 25.203125 43.953125 
Q 22.3125 43.953125 20.015625 42.21875 
Q 17.71875 40.484375 16.75 37.40625 
Q 15.28125 32.71875 15.28125 27.15625 
L 15.28125 0 
z
" id="ArialMT-114"/>
      <path id="ArialMT-32"/>
      <path d="M 40.234375 0 
L 40.234375 6.546875 
Q 35.296875 -1.171875 25.734375 -1.171875 
Q 19.53125 -1.171875 14.328125 2.25 
Q 9.125 5.671875 6.265625 11.796875 
Q 3.421875 17.921875 3.421875 25.875 
Q 3.421875 33.640625 6 39.96875 
Q 8.59375 46.296875 13.765625 49.65625 
Q 18.953125 53.03125 25.34375 53.03125 
Q 30.03125 53.03125 33.6875 51.046875 
Q 37.359375 49.078125 39.65625 45.90625 
L 39.65625 71.578125 
L 48.390625 71.578125 
L 48.390625 0 
z
M 12.453125 25.875 
Q 12.453125 15.921875 16.640625 10.984375 
Q 20.84375 6.0625 26.5625 6.0625 
Q 32.328125 6.0625 36.34375 10.765625 
Q 40.375 15.484375 40.375 25.140625 
Q 40.375 35.796875 36.265625 40.765625 
Q 32.171875 45.75 26.171875 45.75 
Q 20.3125 45.75 16.375 40.96875 
Q 12.453125 36.1875 12.453125 25.875 
z
" id="ArialMT-100"/>
      <path d="M 6.59375 0 
L 6.59375 51.859375 
L 14.453125 51.859375 
L 14.453125 44.578125 
Q 16.890625 48.390625 20.9375 50.703125 
Q 25 53.03125 30.171875 53.03125 
Q 35.9375 53.03125 39.625 50.640625 
Q 43.3125 48.25 44.828125 43.953125 
Q 50.984375 53.03125 60.84375 53.03125 
Q 68.5625 53.03125 72.703125 48.75 
Q 76.859375 44.484375 76.859375 35.59375 
L 76.859375 0 
L 68.109375 0 
L 68.109375 32.671875 
Q 68.109375 37.9375 67.25 40.25 
Q 66.40625 42.578125 64.15625 43.984375 
Q 61.921875 45.40625 58.890625 45.40625 
Q 53.421875 45.40625 49.796875 41.765625 
Q 46.1875 38.140625 46.1875 30.125 
L 46.1875 0 
L 37.40625 0 
L 37.40625 33.6875 
Q 37.40625 39.546875 35.25 42.46875 
Q 33.109375 45.40625 28.21875 45.40625 
Q 24.515625 45.40625 21.359375 43.453125 
Q 18.21875 41.5 16.796875 37.734375 
Q 15.375 33.984375 15.375 26.90625 
L 15.375 0 
z
" id="ArialMT-109"/>
      <path d="M 42.09375 16.703125 
L 51.171875 15.578125 
Q 49.03125 7.625 43.21875 3.21875 
Q 37.40625 -1.171875 28.375 -1.171875 
Q 17 -1.171875 10.328125 5.828125 
Q 3.65625 12.84375 3.65625 25.484375 
Q 3.65625 38.578125 10.390625 45.796875 
Q 17.140625 53.03125 27.875 53.03125 
Q 38.28125 53.03125 44.875 45.953125 
Q 51.46875 38.875 51.46875 26.03125 
Q 51.46875 25.25 51.421875 23.6875 
L 12.75 23.6875 
Q 13.234375 15.140625 17.578125 10.59375 
Q 21.921875 6.0625 28.421875 6.0625 
Q 33.25 6.0625 36.671875 8.59375 
Q 40.09375 11.140625 42.09375 16.703125 
z
M 13.234375 30.90625 
L 42.1875 30.90625 
Q 41.609375 37.453125 38.875 40.71875 
Q 34.671875 45.796875 27.984375 45.796875 
Q 21.921875 45.796875 17.796875 41.75 
Q 13.671875 37.703125 13.234375 30.90625 
z
" id="ArialMT-101"/>
      <path d="M 25.78125 7.859375 
L 27.046875 0.09375 
Q 23.34375 -0.6875 20.40625 -0.6875 
Q 15.625 -0.6875 12.984375 0.828125 
Q 10.359375 2.34375 9.28125 4.8125 
Q 8.203125 7.28125 8.203125 15.1875 
L 8.203125 45.015625 
L 1.765625 45.015625 
L 1.765625 51.859375 
L 8.203125 51.859375 
L 8.203125 64.703125 
L 16.9375 69.96875 
L 16.9375 51.859375 
L 25.78125 51.859375 
L 25.78125 45.015625 
L 16.9375 45.015625 
L 16.9375 14.703125 
Q 16.9375 10.9375 17.40625 9.859375 
Q 17.875 8.796875 18.921875 8.15625 
Q 19.96875 7.515625 21.921875 7.515625 
Q 23.390625 7.515625 25.78125 7.859375 
z
" id="ArialMT-116"/>
      <path d="M 8.890625 0 
L 8.890625 10.015625 
L 18.890625 10.015625 
L 18.890625 0 
Q 18.890625 -5.515625 16.9375 -8.90625 
Q 14.984375 -12.3125 10.75 -14.15625 
L 8.296875 -10.40625 
Q 11.078125 -9.1875 12.390625 -6.8125 
Q 13.71875 -4.4375 13.875 0 
z
" id="ArialMT-44"/>
      <path d="M 16.890625 72.90625 
L 38.09375 72.90625 
Q 54.984375 72.90625 63.59375 65.75 
Q 72.21875 58.59375 72.21875 44.484375 
Q 72.21875 35.15625 68.9375 26.53125 
Q 65.671875 17.921875 59.90625 12.015625 
Q 54.109375 5.953125 45.171875 2.96875 
Q 36.234375 0 24.03125 0 
L 2.6875 0 
z
M 25.203125 64.796875 
L 14.203125 8.109375 
L 27.09375 8.109375 
Q 43.65625 8.109375 52.734375 17.625 
Q 61.8125 27.15625 61.8125 44.484375 
Q 61.8125 54.984375 55.953125 59.890625 
Q 50.09375 64.796875 37.59375 64.796875 
z
" id="DejaVuSans-Oblique-68"/>
      <path d="M 55.71875 33.015625 
L 49.3125 0 
L 40.28125 0 
L 46.6875 32.671875 
Q 47.125 34.96875 47.359375 36.71875 
Q 47.609375 38.484375 47.609375 39.5 
Q 47.609375 43.609375 45.015625 45.890625 
Q 42.4375 48.1875 37.796875 48.1875 
Q 30.5625 48.1875 25.265625 43.296875 
Q 19.96875 38.421875 18.40625 30.328125 
L 12.5 0 
L 3.515625 0 
L 18.3125 75.984375 
L 27.296875 75.984375 
L 21.484375 46.09375 
Q 24.90625 50.6875 30.21875 53.34375 
Q 35.546875 56 41.40625 56 
Q 48.640625 56 52.609375 52.09375 
Q 56.59375 48.1875 56.59375 41.109375 
Q 56.59375 39.359375 56.375 37.359375 
Q 56.15625 35.359375 55.71875 33.015625 
z
" id="DejaVuSans-Oblique-104"/>
      <path d="M 31 75.875 
Q 24.46875 64.65625 21.28125 53.65625 
Q 18.109375 42.671875 18.109375 31.390625 
Q 18.109375 20.125 21.3125 9.0625 
Q 24.515625 -2 31 -13.1875 
L 23.1875 -13.1875 
Q 15.875 -1.703125 12.234375 9.375 
Q 8.59375 20.453125 8.59375 31.390625 
Q 8.59375 42.28125 12.203125 53.3125 
Q 15.828125 64.359375 23.1875 75.875 
z
" id="DejaVuSans-40"/>
      <path d="M -1.3125 -20.796875 
L 13.375 54.6875 
L 22.40625 54.6875 
L 15.765625 20.65625 
Q 15.578125 19.625 15.421875 18.359375 
Q 15.28125 17.09375 15.28125 15.828125 
Q 15.28125 11.28125 18.140625 8.828125 
Q 21 6.390625 26.3125 6.390625 
Q 33.546875 6.390625 37.984375 10.484375 
Q 42.4375 14.59375 44 22.796875 
L 50.203125 54.6875 
L 59.1875 54.6875 
L 51.03125 12.640625 
Q 50.828125 11.71875 50.75 11.03125 
Q 50.6875 10.359375 50.6875 9.8125 
Q 50.6875 8.296875 51.296875 7.59375 
Q 51.90625 6.890625 53.21875 6.890625 
Q 53.71875 6.890625 54.5625 7.125 
Q 55.421875 7.375 56.984375 8.015625 
L 55.609375 0.78125 
Q 53.46875 -0.296875 51.515625 -0.859375 
Q 49.5625 -1.421875 47.703125 -1.421875 
Q 44.484375 -1.421875 42.65625 0.625 
Q 40.828125 2.6875 40.828125 6.296875 
Q 38.09375 2.390625 34.296875 0.484375 
Q 30.515625 -1.421875 25.390625 -1.421875 
Q 20.84375 -1.421875 17.453125 0.671875 
Q 14.0625 2.78125 12.984375 6.203125 
L 7.71875 -20.796875 
z
" id="DejaVuSans-Oblique-956"/>
      <path d="M 89.796875 33.015625 
L 83.40625 0 
L 74.421875 0 
L 80.71875 32.71875 
Q 81.109375 34.8125 81.296875 36.328125 
Q 81.5 37.84375 81.5 38.921875 
Q 81.5 43.3125 79.046875 45.75 
Q 76.609375 48.1875 72.21875 48.1875 
Q 65.671875 48.1875 60.546875 43.28125 
Q 55.421875 38.375 53.90625 30.515625 
L 47.90625 0 
L 38.921875 0 
L 45.3125 32.71875 
Q 45.703125 34.515625 45.890625 36.046875 
Q 46.09375 37.59375 46.09375 38.8125 
Q 46.09375 43.265625 43.65625 45.71875 
Q 41.21875 48.1875 36.921875 48.1875 
Q 30.28125 48.1875 25.140625 43.28125 
Q 20.015625 38.375 18.5 30.515625 
L 12.5 0 
L 3.515625 0 
L 14.203125 54.6875 
L 23.1875 54.6875 
L 21.484375 46.1875 
Q 25.140625 50.984375 30.046875 53.484375 
Q 34.96875 56 40.578125 56 
Q 46.53125 56 50.359375 52.875 
Q 54.203125 49.75 54.984375 44.1875 
Q 59.078125 49.953125 64.46875 52.96875 
Q 69.875 56 75.875 56 
Q 82.90625 56 86.734375 51.953125 
Q 90.578125 47.90625 90.578125 40.484375 
Q 90.578125 38.875 90.375 36.9375 
Q 90.1875 35.015625 89.796875 33.015625 
z
" id="DejaVuSans-Oblique-109"/>
      <path d="M 8.015625 75.875 
L 15.828125 75.875 
Q 23.140625 64.359375 26.78125 53.3125 
Q 30.421875 42.28125 30.421875 31.390625 
Q 30.421875 20.453125 26.78125 9.375 
Q 23.140625 -1.703125 15.828125 -13.1875 
L 8.015625 -13.1875 
Q 14.5 -2 17.703125 9.0625 
Q 20.90625 20.125 20.90625 31.390625 
Q 20.90625 42.671875 17.703125 53.65625 
Q 14.5 64.65625 8.015625 75.875 
z
" id="DejaVuSans-41"/>
     </defs>
     <g style="fill:#262626;" transform="translate(203.73703 371.813766)scale(0.18 -0.18)">
      <use transform="translate(0 0.125)" xlink:href="#ArialMT-72"/>
      <use transform="translate(72.216797 0.125)" xlink:href="#ArialMT-97"/>
      <use transform="translate(127.832031 0.125)" xlink:href="#ArialMT-105"/>
      <use transform="translate(150.048828 0.125)" xlink:href="#ArialMT-114"/>
      <use transform="translate(183.349609 0.125)" xlink:href="#ArialMT-32"/>
      <use transform="translate(211.132812 0.125)" xlink:href="#ArialMT-100"/>
      <use transform="translate(266.748047 0.125)" xlink:href="#ArialMT-105"/>
      <use transform="translate(288.964844 0.125)" xlink:href="#ArialMT-97"/>
      <use transform="translate(344.580078 0.125)" xlink:href="#ArialMT-109"/>
      <use transform="translate(427.880859 0.125)" xlink:href="#ArialMT-101"/>
      <use transform="translate(483.496094 0.125)" xlink:href="#ArialMT-116"/>
      <use transform="translate(511.279297 0.125)" xlink:href="#ArialMT-101"/>
      <use transform="translate(566.894531 0.125)" xlink:href="#ArialMT-114"/>
      <use transform="translate(600.195312 0.125)" xlink:href="#ArialMT-44"/>
      <use transform="translate(627.978516 0.125)" xlink:href="#ArialMT-32"/>
      <use transform="translate(655.761719 0.125)" xlink:href="#DejaVuSans-Oblique-68"/>
      <use transform="translate(732.763672 -16.28125)scale(0.7)" xlink:href="#DejaVuSans-Oblique-104"/>
      <use transform="translate(779.863281 0.125)" xlink:href="#ArialMT-32"/>
      <use transform="translate(807.646484 0.125)" xlink:href="#DejaVuSans-40"/>
      <use transform="translate(846.660156 0.125)" xlink:href="#DejaVuSans-Oblique-956"/>
      <use transform="translate(910.283203 0.125)" xlink:href="#DejaVuSans-Oblique-109"/>
      <use transform="translate(1007.695312 0.125)" xlink:href="#DejaVuSans-41"/>
     </g>
    </g>
   </g>
   <g id="matplotlib.axis_2">
    <g id="ytick_1">
     <g id="line2d_6">
      <defs>
       <path d="M 0 0 
L -9 0 
" id="m4117c6d164" style="stroke:#262626;stroke-width:1.875;"/>
      </defs>
      <g>
       <use style="fill:#262626;stroke:#262626;stroke-width:1.875;" x="87.499219" xlink:href="#m4117c6d164" y="323.218455"/>
      </g>
     </g>
     <g id="text_6">
      <!-- −1600 -->
      <defs>
       <path d="M 52.828125 31.203125 
L 5.5625 31.203125 
L 5.5625 39.40625 
L 52.828125 39.40625 
z
" id="ArialMT-8722"/>
       <path d="M 37.25 0 
L 28.46875 0 
L 28.46875 56 
Q 25.296875 52.984375 20.140625 49.953125 
Q 14.984375 46.921875 10.890625 45.40625 
L 10.890625 53.90625 
Q 18.265625 57.375 23.78125 62.296875 
Q 29.296875 67.234375 31.59375 71.875 
L 37.25 71.875 
z
" id="ArialMT-49"/>
       <path d="M 4.15625 35.296875 
Q 4.15625 48 6.765625 55.734375 
Q 9.375 63.484375 14.515625 67.671875 
Q 19.671875 71.875 27.484375 71.875 
Q 33.25 71.875 37.59375 69.546875 
Q 41.9375 67.234375 44.765625 62.859375 
Q 47.609375 58.5 49.21875 52.21875 
Q 50.828125 45.953125 50.828125 35.296875 
Q 50.828125 22.703125 48.234375 14.96875 
Q 45.65625 7.234375 40.5 3 
Q 35.359375 -1.21875 27.484375 -1.21875 
Q 17.140625 -1.21875 11.234375 6.203125 
Q 4.15625 15.140625 4.15625 35.296875 
z
M 13.1875 35.296875 
Q 13.1875 17.671875 17.3125 11.828125 
Q 21.4375 6 27.484375 6 
Q 33.546875 6 37.671875 11.859375 
Q 41.796875 17.71875 41.796875 35.296875 
Q 41.796875 52.984375 37.671875 58.78125 
Q 33.546875 64.59375 27.390625 64.59375 
Q 21.34375 64.59375 17.71875 59.46875 
Q 13.1875 52.9375 13.1875 35.296875 
z
" id="ArialMT-48"/>
      </defs>
      <g style="fill:#262626;" transform="translate(28.66 329.123651)scale(0.165 -0.165)">
       <use xlink:href="#ArialMT-8722"/>
       <use x="58.398438" xlink:href="#ArialMT-49"/>
       <use x="114.013672" xlink:href="#ArialMT-54"/>
       <use x="169.628906" xlink:href="#ArialMT-48"/>
       <use x="225.244141" xlink:href="#ArialMT-48"/>
      </g>
     </g>
    </g>
    <g id="ytick_2">
     <g id="line2d_7">
      <g>
       <use style="fill:#262626;stroke:#262626;stroke-width:1.875;" x="87.499219" xlink:href="#m4117c6d164" y="286.604467"/>
      </g>
     </g>
     <g id="text_7">
      <!-- −1400 -->
      <g style="fill:#262626;" transform="translate(28.66 292.509662)scale(0.165 -0.165)">
       <use xlink:href="#ArialMT-8722"/>
       <use x="58.398438" xlink:href="#ArialMT-49"/>
       <use x="114.013672" xlink:href="#ArialMT-52"/>
       <use x="169.628906" xlink:href="#ArialMT-48"/>
       <use x="225.244141" xlink:href="#ArialMT-48"/>
      </g>
     </g>
    </g>
    <g id="ytick_3">
     <g id="line2d_8">
      <g>
       <use style="fill:#262626;stroke:#262626;stroke-width:1.875;" x="87.499219" xlink:href="#m4117c6d164" y="249.990478"/>
      </g>
     </g>
     <g id="text_8">
      <!-- −1200 -->
      <defs>
       <path d="M 50.34375 8.453125 
L 50.34375 0 
L 3.03125 0 
Q 2.9375 3.171875 4.046875 6.109375 
Q 5.859375 10.9375 9.828125 15.625 
Q 13.8125 20.3125 21.34375 26.46875 
Q 33.015625 36.03125 37.109375 41.625 
Q 41.21875 47.21875 41.21875 52.203125 
Q 41.21875 57.421875 37.46875 61 
Q 33.734375 64.59375 27.734375 64.59375 
Q 21.390625 64.59375 17.578125 60.78125 
Q 13.765625 56.984375 13.71875 50.25 
L 4.6875 51.171875 
Q 5.609375 61.28125 11.65625 66.578125 
Q 17.71875 71.875 27.9375 71.875 
Q 38.234375 71.875 44.234375 66.15625 
Q 50.25 60.453125 50.25 52 
Q 50.25 47.703125 48.484375 43.546875 
Q 46.734375 39.40625 42.65625 34.8125 
Q 38.578125 30.21875 29.109375 22.21875 
Q 21.1875 15.578125 18.9375 13.203125 
Q 16.703125 10.84375 15.234375 8.453125 
z
" id="ArialMT-50"/>
      </defs>
      <g style="fill:#262626;" transform="translate(28.66 255.895673)scale(0.165 -0.165)">
       <use xlink:href="#ArialMT-8722"/>
       <use x="58.398438" xlink:href="#ArialMT-49"/>
       <use x="114.013672" xlink:href="#ArialMT-50"/>
       <use x="169.628906" xlink:href="#ArialMT-48"/>
       <use x="225.244141" xlink:href="#ArialMT-48"/>
      </g>
     </g>
    </g>
    <g id="ytick_4">
     <g id="line2d_9">
      <g>
       <use style="fill:#262626;stroke:#262626;stroke-width:1.875;" x="87.499219" xlink:href="#m4117c6d164" y="213.376489"/>
      </g>
     </g>
     <g id="text_9">
      <!-- −1000 -->
      <g style="fill:#262626;" transform="translate(28.66 219.281684)scale(0.165 -0.165)">
       <use xlink:href="#ArialMT-8722"/>
       <use x="58.398438" xlink:href="#ArialMT-49"/>
       <use x="114.013672" xlink:href="#ArialMT-48"/>
       <use x="169.628906" xlink:href="#ArialMT-48"/>
       <use x="225.244141" xlink:href="#ArialMT-48"/>
      </g>
     </g>
    </g>
    <g id="ytick_5">
     <g id="line2d_10">
      <g>
       <use style="fill:#262626;stroke:#262626;stroke-width:1.875;" x="87.499219" xlink:href="#m4117c6d164" y="176.7625"/>
      </g>
     </g>
     <g id="text_10">
      <!-- −800 -->
      <defs>
       <path d="M 17.671875 38.8125 
Q 12.203125 40.828125 9.5625 44.53125 
Q 6.9375 48.25 6.9375 53.421875 
Q 6.9375 61.234375 12.546875 66.546875 
Q 18.171875 71.875 27.484375 71.875 
Q 36.859375 71.875 42.578125 66.421875 
Q 48.296875 60.984375 48.296875 53.171875 
Q 48.296875 48.1875 45.671875 44.5 
Q 43.0625 40.828125 37.75 38.8125 
Q 44.34375 36.671875 47.78125 31.875 
Q 51.21875 27.09375 51.21875 20.453125 
Q 51.21875 11.28125 44.71875 5.03125 
Q 38.234375 -1.21875 27.640625 -1.21875 
Q 17.046875 -1.21875 10.546875 5.046875 
Q 4.046875 11.328125 4.046875 20.703125 
Q 4.046875 27.6875 7.59375 32.390625 
Q 11.140625 37.109375 17.671875 38.8125 
z
M 15.921875 53.71875 
Q 15.921875 48.640625 19.1875 45.40625 
Q 22.46875 42.1875 27.6875 42.1875 
Q 32.765625 42.1875 36.015625 45.375 
Q 39.265625 48.578125 39.265625 53.21875 
Q 39.265625 58.0625 35.90625 61.359375 
Q 32.5625 64.65625 27.59375 64.65625 
Q 22.5625 64.65625 19.234375 61.421875 
Q 15.921875 58.203125 15.921875 53.71875 
z
M 13.09375 20.65625 
Q 13.09375 16.890625 14.875 13.375 
Q 16.65625 9.859375 20.171875 7.921875 
Q 23.6875 6 27.734375 6 
Q 34.03125 6 38.125 10.046875 
Q 42.234375 14.109375 42.234375 20.359375 
Q 42.234375 26.703125 38.015625 30.859375 
Q 33.796875 35.015625 27.4375 35.015625 
Q 21.234375 35.015625 17.15625 30.90625 
Q 13.09375 26.8125 13.09375 20.65625 
z
" id="ArialMT-56"/>
      </defs>
      <g style="fill:#262626;" transform="translate(37.835547 182.667696)scale(0.165 -0.165)">
       <use xlink:href="#ArialMT-8722"/>
       <use x="58.398438" xlink:href="#ArialMT-56"/>
       <use x="114.013672" xlink:href="#ArialMT-48"/>
       <use x="169.628906" xlink:href="#ArialMT-48"/>
      </g>
     </g>
    </g>
    <g id="ytick_6">
     <g id="line2d_11">
      <g>
       <use style="fill:#262626;stroke:#262626;stroke-width:1.875;" x="87.499219" xlink:href="#m4117c6d164" y="140.148512"/>
      </g>
     </g>
     <g id="text_11">
      <!-- −600 -->
      <g style="fill:#262626;" transform="translate(37.835547 146.053707)scale(0.165 -0.165)">
       <use xlink:href="#ArialMT-8722"/>
       <use x="58.398438" xlink:href="#ArialMT-54"/>
       <use x="114.013672" xlink:href="#ArialMT-48"/>
       <use x="169.628906" xlink:href="#ArialMT-48"/>
      </g>
     </g>
    </g>
    <g id="ytick_7">
     <g id="line2d_12">
      <g>
       <use style="fill:#262626;stroke:#262626;stroke-width:1.875;" x="87.499219" xlink:href="#m4117c6d164" y="103.534523"/>
      </g>
     </g>
     <g id="text_12">
      <!-- −400 -->
      <g style="fill:#262626;" transform="translate(37.835547 109.439718)scale(0.165 -0.165)">
       <use xlink:href="#ArialMT-8722"/>
       <use x="58.398438" xlink:href="#ArialMT-52"/>
       <use x="114.013672" xlink:href="#ArialMT-48"/>
       <use x="169.628906" xlink:href="#ArialMT-48"/>
      </g>
     </g>
    </g>
    <g id="ytick_8">
     <g id="line2d_13">
      <g>
       <use style="fill:#262626;stroke:#262626;stroke-width:1.875;" x="87.499219" xlink:href="#m4117c6d164" y="66.920534"/>
      </g>
     </g>
     <g id="text_13">
      <!-- −200 -->
      <g style="fill:#262626;" transform="translate(37.835547 72.82573)scale(0.165 -0.165)">
       <use xlink:href="#ArialMT-8722"/>
       <use x="58.398438" xlink:href="#ArialMT-50"/>
       <use x="114.013672" xlink:href="#ArialMT-48"/>
       <use x="169.628906" xlink:href="#ArialMT-48"/>
      </g>
     </g>
    </g>
    <g id="ytick_9">
     <g id="line2d_14">
      <g>
       <use style="fill:#262626;stroke:#262626;stroke-width:1.875;" x="87.499219" xlink:href="#m4117c6d164" y="30.306545"/>
      </g>
     </g>
     <g id="text_14">
      <!-- 0 -->
      <g style="fill:#262626;" transform="translate(65.823672 36.211741)scale(0.165 -0.165)">
       <use xlink:href="#ArialMT-48"/>
      </g>
     </g>
    </g>
    <g id="text_15">
     <!-- Adhesion force, $F_{min}$ $(\mu N)$ -->
     <defs>
      <path d="M -0.140625 0 
L 27.34375 71.578125 
L 37.546875 71.578125 
L 66.84375 0 
L 56.0625 0 
L 47.703125 21.6875 
L 17.78125 21.6875 
L 9.90625 0 
z
M 20.515625 29.390625 
L 44.78125 29.390625 
L 37.3125 49.21875 
Q 33.890625 58.25 32.234375 64.0625 
Q 30.859375 57.171875 28.375 50.390625 
z
" id="ArialMT-65"/>
      <path d="M 6.59375 0 
L 6.59375 71.578125 
L 15.375 71.578125 
L 15.375 45.90625 
Q 21.53125 53.03125 30.90625 53.03125 
Q 36.671875 53.03125 40.921875 50.75 
Q 45.171875 48.484375 47 44.484375 
Q 48.828125 40.484375 48.828125 32.859375 
L 48.828125 0 
L 40.046875 0 
L 40.046875 32.859375 
Q 40.046875 39.453125 37.1875 42.453125 
Q 34.328125 45.453125 29.109375 45.453125 
Q 25.203125 45.453125 21.75 43.421875 
Q 18.3125 41.40625 16.84375 37.9375 
Q 15.375 34.46875 15.375 28.375 
L 15.375 0 
z
" id="ArialMT-104"/>
      <path d="M 3.078125 15.484375 
L 11.765625 16.84375 
Q 12.5 11.625 15.84375 8.84375 
Q 19.1875 6.0625 25.203125 6.0625 
Q 31.25 6.0625 34.171875 8.515625 
Q 37.109375 10.984375 37.109375 14.3125 
Q 37.109375 17.28125 34.515625 19 
Q 32.71875 20.171875 25.53125 21.96875 
Q 15.875 24.421875 12.140625 26.203125 
Q 8.40625 27.984375 6.46875 31.125 
Q 4.546875 34.28125 4.546875 38.09375 
Q 4.546875 41.546875 6.125 44.5 
Q 7.71875 47.46875 10.453125 49.421875 
Q 12.5 50.921875 16.03125 51.96875 
Q 19.578125 53.03125 23.640625 53.03125 
Q 29.734375 53.03125 34.34375 51.265625 
Q 38.96875 49.515625 41.15625 46.5 
Q 43.359375 43.5 44.1875 38.484375 
L 35.59375 37.3125 
Q 35.015625 41.3125 32.203125 43.546875 
Q 29.390625 45.796875 24.265625 45.796875 
Q 18.21875 45.796875 15.625 43.796875 
Q 13.03125 41.796875 13.03125 39.109375 
Q 13.03125 37.40625 14.109375 36.03125 
Q 15.1875 34.625 17.484375 33.6875 
Q 18.796875 33.203125 25.25 31.453125 
Q 34.578125 28.953125 38.25 27.359375 
Q 41.9375 25.78125 44.03125 22.75 
Q 46.140625 19.734375 46.140625 15.234375 
Q 46.140625 10.84375 43.578125 6.953125 
Q 41.015625 3.078125 36.171875 0.953125 
Q 31.34375 -1.171875 25.25 -1.171875 
Q 15.140625 -1.171875 9.84375 3.03125 
Q 4.546875 7.234375 3.078125 15.484375 
z
" id="ArialMT-115"/>
      <path d="M 3.328125 25.921875 
Q 3.328125 40.328125 11.328125 47.265625 
Q 18.015625 53.03125 27.640625 53.03125 
Q 38.328125 53.03125 45.109375 46.015625 
Q 51.90625 39.015625 51.90625 26.65625 
Q 51.90625 16.65625 48.90625 10.90625 
Q 45.90625 5.171875 40.15625 2 
Q 34.421875 -1.171875 27.640625 -1.171875 
Q 16.75 -1.171875 10.03125 5.8125 
Q 3.328125 12.796875 3.328125 25.921875 
z
M 12.359375 25.921875 
Q 12.359375 15.96875 16.703125 11.015625 
Q 21.046875 6.0625 27.640625 6.0625 
Q 34.1875 6.0625 38.53125 11.03125 
Q 42.875 16.015625 42.875 26.21875 
Q 42.875 35.84375 38.5 40.796875 
Q 34.125 45.75 27.640625 45.75 
Q 21.046875 45.75 16.703125 40.8125 
Q 12.359375 35.890625 12.359375 25.921875 
z
" id="ArialMT-111"/>
      <path d="M 6.59375 0 
L 6.59375 51.859375 
L 14.5 51.859375 
L 14.5 44.484375 
Q 20.21875 53.03125 31 53.03125 
Q 35.6875 53.03125 39.625 51.34375 
Q 43.5625 49.65625 45.515625 46.921875 
Q 47.46875 44.1875 48.25 40.4375 
Q 48.734375 37.984375 48.734375 31.890625 
L 48.734375 0 
L 39.9375 0 
L 39.9375 31.546875 
Q 39.9375 36.921875 38.90625 39.578125 
Q 37.890625 42.234375 35.28125 43.8125 
Q 32.671875 45.40625 29.15625 45.40625 
Q 23.53125 45.40625 19.453125 41.84375 
Q 15.375 38.28125 15.375 28.328125 
L 15.375 0 
z
" id="ArialMT-110"/>
      <path d="M 8.6875 0 
L 8.6875 45.015625 
L 0.921875 45.015625 
L 0.921875 51.859375 
L 8.6875 51.859375 
L 8.6875 57.375 
Q 8.6875 62.59375 9.625 65.140625 
Q 10.890625 68.5625 14.078125 70.671875 
Q 17.28125 72.796875 23.046875 72.796875 
Q 26.765625 72.796875 31.25 71.921875 
L 29.9375 64.265625 
Q 27.203125 64.75 24.75 64.75 
Q 20.75 64.75 19.09375 63.03125 
Q 17.4375 61.328125 17.4375 56.640625 
L 17.4375 51.859375 
L 27.546875 51.859375 
L 27.546875 45.015625 
L 17.4375 45.015625 
L 17.4375 0 
z
" id="ArialMT-102"/>
      <path d="M 40.4375 19 
L 49.078125 17.875 
Q 47.65625 8.9375 41.8125 3.875 
Q 35.984375 -1.171875 27.484375 -1.171875 
Q 16.84375 -1.171875 10.375 5.78125 
Q 3.90625 12.75 3.90625 25.734375 
Q 3.90625 34.125 6.6875 40.421875 
Q 9.46875 46.734375 15.15625 49.875 
Q 20.84375 53.03125 27.546875 53.03125 
Q 35.984375 53.03125 41.359375 48.75 
Q 46.734375 44.484375 48.25 36.625 
L 39.703125 35.296875 
Q 38.484375 40.53125 35.375 43.15625 
Q 32.28125 45.796875 27.875 45.796875 
Q 21.234375 45.796875 17.078125 41.03125 
Q 12.9375 36.28125 12.9375 25.984375 
Q 12.9375 15.53125 16.9375 10.796875 
Q 20.953125 6.0625 27.390625 6.0625 
Q 32.5625 6.0625 36.03125 9.234375 
Q 39.5 12.40625 40.4375 19 
z
" id="ArialMT-99"/>
      <path d="M 16.890625 72.90625 
L 58.6875 72.90625 
L 57.078125 64.59375 
L 25.09375 64.59375 
L 20.90625 43.109375 
L 49.8125 43.109375 
L 48.1875 34.8125 
L 19.28125 34.8125 
L 12.5 0 
L 2.6875 0 
z
" id="DejaVuSans-Oblique-70"/>
      <path d="M 18.3125 75.984375 
L 27.296875 75.984375 
L 25.09375 64.59375 
L 16.109375 64.59375 
z
M 14.203125 54.6875 
L 23.1875 54.6875 
L 12.5 0 
L 3.515625 0 
z
" id="DejaVuSans-Oblique-105"/>
      <path d="M 55.71875 33.015625 
L 49.3125 0 
L 40.28125 0 
L 46.6875 32.671875 
Q 47.125 34.96875 47.359375 36.71875 
Q 47.609375 38.484375 47.609375 39.5 
Q 47.609375 43.609375 45.015625 45.890625 
Q 42.4375 48.1875 37.796875 48.1875 
Q 30.5625 48.1875 25.34375 43.375 
Q 20.125 38.578125 18.5 30.328125 
L 12.5 0 
L 3.515625 0 
L 14.109375 54.6875 
L 23.09375 54.6875 
L 21.296875 46.09375 
Q 25.046875 50.828125 30.3125 53.40625 
Q 35.59375 56 41.40625 56 
Q 48.640625 56 52.609375 52.09375 
Q 56.59375 48.1875 56.59375 41.109375 
Q 56.59375 39.359375 56.375 37.359375 
Q 56.15625 35.359375 55.71875 33.015625 
z
" id="DejaVuSans-Oblique-110"/>
      <path d="M 16.890625 72.90625 
L 30.171875 72.90625 
L 50.296875 10.40625 
L 62.5 72.90625 
L 72.125 72.90625 
L 57.90625 0 
L 44.578125 0 
L 24.515625 62.890625 
L 12.3125 0 
L 2.6875 0 
z
" id="DejaVuSans-Oblique-78"/>
     </defs>
     <g style="fill:#262626;" transform="translate(20.88 275.772)rotate(-90)scale(0.18 -0.18)">
      <use transform="translate(0 0.125)" xlink:href="#ArialMT-65"/>
      <use transform="translate(66.699219 0.125)" xlink:href="#ArialMT-100"/>
      <use transform="translate(122.314453 0.125)" xlink:href="#ArialMT-104"/>
      <use transform="translate(177.929688 0.125)" xlink:href="#ArialMT-101"/>
      <use transform="translate(233.544922 0.125)" xlink:href="#ArialMT-115"/>
      <use transform="translate(283.544922 0.125)" xlink:href="#ArialMT-105"/>
      <use transform="translate(305.761719 0.125)" xlink:href="#ArialMT-111"/>
      <use transform="translate(361.376953 0.125)" xlink:href="#ArialMT-110"/>
      <use transform="translate(416.992188 0.125)" xlink:href="#ArialMT-32"/>
      <use transform="translate(444.775391 0.125)" xlink:href="#ArialMT-102"/>
      <use transform="translate(472.558594 0.125)" xlink:href="#ArialMT-111"/>
      <use transform="translate(528.173828 0.125)" xlink:href="#ArialMT-114"/>
      <use transform="translate(561.474609 0.125)" xlink:href="#ArialMT-99"/>
      <use transform="translate(611.474609 0.125)" xlink:href="#ArialMT-101"/>
      <use transform="translate(667.089844 0.125)" xlink:href="#ArialMT-44"/>
      <use transform="translate(694.873047 0.125)" xlink:href="#ArialMT-32"/>
      <use transform="translate(722.65625 0.125)" xlink:href="#DejaVuSans-Oblique-70"/>
      <use transform="translate(780.175781 -16.28125)scale(0.7)" xlink:href="#DejaVuSans-Oblique-109"/>
      <use transform="translate(848.364258 -16.28125)scale(0.7)" xlink:href="#DejaVuSans-Oblique-105"/>
      <use transform="translate(867.8125 -16.28125)scale(0.7)" xlink:href="#DejaVuSans-Oblique-110"/>
      <use transform="translate(914.912109 0.125)" xlink:href="#ArialMT-32"/>
      <use transform="translate(942.695312 0.125)" xlink:href="#DejaVuSans-40"/>
      <use transform="translate(981.708984 0.125)" xlink:href="#DejaVuSans-Oblique-956"/>
      <use transform="translate(1045.332031 0.125)" xlink:href="#DejaVuSans-Oblique-78"/>
      <use transform="translate(1120.136719 0.125)" xlink:href="#DejaVuSans-41"/>
     </g>
    </g>
   </g>
   <g id="line2d_15">
    <path clip-path="url(#peb10a9e0a4)" d="M 106.632656 258.965968 
L 126.090389 244.44791 
L 148.378338 229.929851 
L 174.162435 215.411792 
L 204.335315 200.893734 
L 240.121754 186.375675 
L 283.249001 171.857617 
L 336.233904 157.339558 
L 402.892331 142.8215 
L 489.301403 128.303441 
" style="fill:none;stroke:#55a868;stroke-linecap:round;stroke-opacity:0.8;stroke-width:2.25;"/>
    <defs>
     <path d="M 0 4.5 
C 1.193414 4.5 2.338109 4.025852 3.181981 3.181981 
C 4.025852 2.338109 4.5 1.193414 4.5 0 
C 4.5 -1.193414 4.025852 -2.338109 3.181981 -3.181981 
C 2.338109 -4.025852 1.193414 -4.5 0 -4.5 
C -1.193414 -4.5 -2.338109 -4.025852 -3.181981 -3.181981 
C -4.025852 -2.338109 -4.5 -1.193414 -4.5 0 
C -4.5 1.193414 -4.025852 2.338109 -3.181981 3.181981 
C -2.338109 4.025852 -1.193414 4.5 0 4.5 
z
" id="m12c8527a9d" style="stroke:#ffffff;stroke-opacity:0.8;stroke-width:0.75;"/>
    </defs>
    <g clip-path="url(#peb10a9e0a4)">
     <use style="fill:#55a868;fill-opacity:0.8;stroke:#ffffff;stroke-opacity:0.8;stroke-width:0.75;" x="106.632656" xlink:href="#m12c8527a9d" y="258.965968"/>
     <use style="fill:#55a868;fill-opacity:0.8;stroke:#ffffff;stroke-opacity:0.8;stroke-width:0.75;" x="126.090389" xlink:href="#m12c8527a9d" y="244.44791"/>
     <use style="fill:#55a868;fill-opacity:0.8;stroke:#ffffff;stroke-opacity:0.8;stroke-width:0.75;" x="148.378338" xlink:href="#m12c8527a9d" y="229.929851"/>
     <use style="fill:#55a868;fill-opacity:0.8;stroke:#ffffff;stroke-opacity:0.8;stroke-width:0.75;" x="174.162435" xlink:href="#m12c8527a9d" y="215.411792"/>
     <use style="fill:#55a868;fill-opacity:0.8;stroke:#ffffff;stroke-opacity:0.8;stroke-width:0.75;" x="204.335315" xlink:href="#m12c8527a9d" y="200.893734"/>
     <use style="fill:#55a868;fill-opacity:0.8;stroke:#ffffff;stroke-opacity:0.8;stroke-width:0.75;" x="240.121754" xlink:href="#m12c8527a9d" y="186.375675"/>
     <use style="fill:#55a868;fill-opacity:0.8;stroke:#ffffff;stroke-opacity:0.8;stroke-width:0.75;" x="283.249001" xlink:href="#m12c8527a9d" y="171.857617"/>
     <use style="fill:#55a868;fill-opacity:0.8;stroke:#ffffff;stroke-opacity:0.8;stroke-width:0.75;" x="336.233904" xlink:href="#m12c8527a9d" y="157.339558"/>
     <use style="fill:#55a868;fill-opacity:0.8;stroke:#ffffff;stroke-opacity:0.8;stroke-width:0.75;" x="402.892331" xlink:href="#m12c8527a9d" y="142.8215"/>
     <use style="fill:#55a868;fill-opacity:0.8;stroke:#ffffff;stroke-opacity:0.8;stroke-width:0.75;" x="489.301403" xlink:href="#m12c8527a9d" y="128.303441"/>
    </g>
   </g>
   <g id="line2d_16">
    <path clip-path="url(#peb10a9e0a4)" d="M 106.632656 197.942001 
L 126.090389 187.29848 
L 148.378338 176.654959 
L 174.162435 166.011438 
L 204.335315 155.367917 
L 240.121754 144.724396 
L 283.249001 134.080875 
L 336.233904 123.437354 
L 402.892331 112.793833 
L 489.301403 102.150312 
" style="fill:none;stroke:#55a868;stroke-dasharray:9,3.375;stroke-dashoffset:0;stroke-opacity:0.8;stroke-width:2.25;"/>
    <defs>
     <path d="M -2.25 4.5 
L 0 2.25 
L 2.25 4.5 
L 4.5 2.25 
L 2.25 0 
L 4.5 -2.25 
L 2.25 -4.5 
L 0 -2.25 
L -2.25 -4.5 
L -4.5 -2.25 
L -2.25 0 
L -4.5 2.25 
z
" id="meb0a4320a1" style="stroke:#ffffff;stroke-linejoin:miter;stroke-opacity:0.8;stroke-width:0.75;"/>
    </defs>
    <g clip-path="url(#peb10a9e0a4)">
     <use style="fill:#55a868;fill-opacity:0.8;stroke:#ffffff;stroke-linejoin:miter;stroke-opacity:0.8;stroke-width:0.75;" x="106.632656" xlink:href="#meb0a4320a1" y="197.942001"/>
     <use style="fill:#55a868;fill-opacity:0.8;stroke:#ffffff;stroke-linejoin:miter;stroke-opacity:0.8;stroke-width:0.75;" x="126.090389" xlink:href="#meb0a4320a1" y="187.29848"/>
     <use style="fill:#55a868;fill-opacity:0.8;stroke:#ffffff;stroke-linejoin:miter;stroke-opacity:0.8;stroke-width:0.75;" x="148.378338" xlink:href="#meb0a4320a1" y="176.654959"/>
     <use style="fill:#55a868;fill-opacity:0.8;stroke:#ffffff;stroke-linejoin:miter;stroke-opacity:0.8;stroke-width:0.75;" x="174.162435" xlink:href="#meb0a4320a1" y="166.011438"/>
     <use style="fill:#55a868;fill-opacity:0.8;stroke:#ffffff;stroke-linejoin:miter;stroke-opacity:0.8;stroke-width:0.75;" x="204.335315" xlink:href="#meb0a4320a1" y="155.367917"/>
     <use style="fill:#55a868;fill-opacity:0.8;stroke:#ffffff;stroke-linejoin:miter;stroke-opacity:0.8;stroke-width:0.75;" x="240.121754" xlink:href="#meb0a4320a1" y="144.724396"/>
     <use style="fill:#55a868;fill-opacity:0.8;stroke:#ffffff;stroke-linejoin:miter;stroke-opacity:0.8;stroke-width:0.75;" x="283.249001" xlink:href="#meb0a4320a1" y="134.080875"/>
     <use style="fill:#55a868;fill-opacity:0.8;stroke:#ffffff;stroke-linejoin:miter;stroke-opacity:0.8;stroke-width:0.75;" x="336.233904" xlink:href="#meb0a4320a1" y="123.437354"/>
     <use style="fill:#55a868;fill-opacity:0.8;stroke:#ffffff;stroke-linejoin:miter;stroke-opacity:0.8;stroke-width:0.75;" x="402.892331" xlink:href="#meb0a4320a1" y="112.793833"/>
     <use style="fill:#55a868;fill-opacity:0.8;stroke:#ffffff;stroke-linejoin:miter;stroke-opacity:0.8;stroke-width:0.75;" x="489.301403" xlink:href="#meb0a4320a1" y="102.150312"/>
    </g>
   </g>
   <g id="line2d_17">
    <path clip-path="url(#peb10a9e0a4)" d="M 106.632656 64.965486 
L 126.090389 62.764918 
L 148.378338 60.564351 
L 174.162435 58.363783 
L 204.335315 56.163215 
L 240.121754 53.962648 
L 283.249001 51.76208 
L 336.233904 49.561512 
L 402.892331 47.360945 
L 489.301403 45.160377 
" style="fill:none;stroke:#4c72b0;stroke-linecap:round;stroke-opacity:0.8;stroke-width:2.25;"/>
    <defs>
     <path d="M 0 4.5 
C 1.193414 4.5 2.338109 4.025852 3.181981 3.181981 
C 4.025852 2.338109 4.5 1.193414 4.5 0 
C 4.5 -1.193414 4.025852 -2.338109 3.181981 -3.181981 
C 2.338109 -4.025852 1.193414 -4.5 0 -4.5 
C -1.193414 -4.5 -2.338109 -4.025852 -3.181981 -3.181981 
C -4.025852 -2.338109 -4.5 -1.193414 -4.5 0 
C -4.5 1.193414 -4.025852 2.338109 -3.181981 3.181981 
C -2.338109 4.025852 -1.193414 4.5 0 4.5 
z
" id="ma56b46b3c7" style="stroke:#ffffff;stroke-opacity:0.8;stroke-width:0.75;"/>
    </defs>
    <g clip-path="url(#peb10a9e0a4)">
     <use style="fill:#4c72b0;fill-opacity:0.8;stroke:#ffffff;stroke-opacity:0.8;stroke-width:0.75;" x="106.632656" xlink:href="#ma56b46b3c7" y="64.965486"/>
     <use style="fill:#4c72b0;fill-opacity:0.8;stroke:#ffffff;stroke-opacity:0.8;stroke-width:0.75;" x="126.090389" xlink:href="#ma56b46b3c7" y="62.764918"/>
     <use style="fill:#4c72b0;fill-opacity:0.8;stroke:#ffffff;stroke-opacity:0.8;stroke-width:0.75;" x="148.378338" xlink:href="#ma56b46b3c7" y="60.564351"/>
     <use style="fill:#4c72b0;fill-opacity:0.8;stroke:#ffffff;stroke-opacity:0.8;stroke-width:0.75;" x="174.162435" xlink:href="#ma56b46b3c7" y="58.363783"/>
     <use style="fill:#4c72b0;fill-opacity:0.8;stroke:#ffffff;stroke-opacity:0.8;stroke-width:0.75;" x="204.335315" xlink:href="#ma56b46b3c7" y="56.163215"/>
     <use style="fill:#4c72b0;fill-opacity:0.8;stroke:#ffffff;stroke-opacity:0.8;stroke-width:0.75;" x="240.121754" xlink:href="#ma56b46b3c7" y="53.962648"/>
     <use style="fill:#4c72b0;fill-opacity:0.8;stroke:#ffffff;stroke-opacity:0.8;stroke-width:0.75;" x="283.249001" xlink:href="#ma56b46b3c7" y="51.76208"/>
     <use style="fill:#4c72b0;fill-opacity:0.8;stroke:#ffffff;stroke-opacity:0.8;stroke-width:0.75;" x="336.233904" xlink:href="#ma56b46b3c7" y="49.561512"/>
     <use style="fill:#4c72b0;fill-opacity:0.8;stroke:#ffffff;stroke-opacity:0.8;stroke-width:0.75;" x="402.892331" xlink:href="#ma56b46b3c7" y="47.360945"/>
     <use style="fill:#4c72b0;fill-opacity:0.8;stroke:#ffffff;stroke-opacity:0.8;stroke-width:0.75;" x="489.301403" xlink:href="#ma56b46b3c7" y="45.160377"/>
    </g>
   </g>
   <g id="line2d_18">
    <path clip-path="url(#peb10a9e0a4)" d="M 106.632656 312.437455 
L 126.090389 294.524381 
L 148.378338 276.611307 
L 174.162435 258.698234 
L 204.335315 240.78516 
L 240.121754 222.872087 
L 283.249001 204.959013 
L 336.233904 187.045939 
L 402.892331 169.132866 
L 489.301403 151.219792 
" style="fill:none;stroke:#4c72b0;stroke-dasharray:9,3.375;stroke-dashoffset:0;stroke-opacity:0.8;stroke-width:2.25;"/>
    <defs>
     <path d="M -2.25 4.5 
L 0 2.25 
L 2.25 4.5 
L 4.5 2.25 
L 2.25 0 
L 4.5 -2.25 
L 2.25 -4.5 
L 0 -2.25 
L -2.25 -4.5 
L -4.5 -2.25 
L -2.25 0 
L -4.5 2.25 
z
" id="me5c26d3e66" style="stroke:#ffffff;stroke-linejoin:miter;stroke-opacity:0.8;stroke-width:0.75;"/>
    </defs>
    <g clip-path="url(#peb10a9e0a4)">
     <use style="fill:#4c72b0;fill-opacity:0.8;stroke:#ffffff;stroke-linejoin:miter;stroke-opacity:0.8;stroke-width:0.75;" x="106.632656" xlink:href="#me5c26d3e66" y="312.437455"/>
     <use style="fill:#4c72b0;fill-opacity:0.8;stroke:#ffffff;stroke-linejoin:miter;stroke-opacity:0.8;stroke-width:0.75;" x="126.090389" xlink:href="#me5c26d3e66" y="294.524381"/>
     <use style="fill:#4c72b0;fill-opacity:0.8;stroke:#ffffff;stroke-linejoin:miter;stroke-opacity:0.8;stroke-width:0.75;" x="148.378338" xlink:href="#me5c26d3e66" y="276.611307"/>
     <use style="fill:#4c72b0;fill-opacity:0.8;stroke:#ffffff;stroke-linejoin:miter;stroke-opacity:0.8;stroke-width:0.75;" x="174.162435" xlink:href="#me5c26d3e66" y="258.698234"/>
     <use style="fill:#4c72b0;fill-opacity:0.8;stroke:#ffffff;stroke-linejoin:miter;stroke-opacity:0.8;stroke-width:0.75;" x="204.335315" xlink:href="#me5c26d3e66" y="240.78516"/>
     <use style="fill:#4c72b0;fill-opacity:0.8;stroke:#ffffff;stroke-linejoin:miter;stroke-opacity:0.8;stroke-width:0.75;" x="240.121754" xlink:href="#me5c26d3e66" y="222.872087"/>
     <use style="fill:#4c72b0;fill-opacity:0.8;stroke:#ffffff;stroke-linejoin:miter;stroke-opacity:0.8;stroke-width:0.75;" x="283.249001" xlink:href="#me5c26d3e66" y="204.959013"/>
     <use style="fill:#4c72b0;fill-opacity:0.8;stroke:#ffffff;stroke-linejoin:miter;stroke-opacity:0.8;stroke-width:0.75;" x="336.233904" xlink:href="#me5c26d3e66" y="187.045939"/>
     <use style="fill:#4c72b0;fill-opacity:0.8;stroke:#ffffff;stroke-linejoin:miter;stroke-opacity:0.8;stroke-width:0.75;" x="402.892331" xlink:href="#me5c26d3e66" y="169.132866"/>
     <use style="fill:#4c72b0;fill-opacity:0.8;stroke:#ffffff;stroke-linejoin:miter;stroke-opacity:0.8;stroke-width:0.75;" x="489.301403" xlink:href="#me5c26d3e66" y="151.219792"/>
    </g>
   </g>
   <g id="line2d_19">
    <path clip-path="url(#peb10a9e0a4)" d="M 106.632656 116.184096 
L 126.090389 110.537573 
L 148.378338 104.89105 
L 174.162435 99.244527 
L 204.335315 93.598004 
L 240.121754 87.951481 
L 283.249001 82.304958 
L 336.233904 76.658435 
L 402.892331 71.011911 
L 489.301403 65.365388 
" style="fill:none;stroke:#c44e52;stroke-linecap:round;stroke-opacity:0.8;stroke-width:2.25;"/>
    <defs>
     <path d="M 0 4.5 
C 1.193414 4.5 2.338109 4.025852 3.181981 3.181981 
C 4.025852 2.338109 4.5 1.193414 4.5 0 
C 4.5 -1.193414 4.025852 -2.338109 3.181981 -3.181981 
C 2.338109 -4.025852 1.193414 -4.5 0 -4.5 
C -1.193414 -4.5 -2.338109 -4.025852 -3.181981 -3.181981 
C -4.025852 -2.338109 -4.5 -1.193414 -4.5 0 
C -4.5 1.193414 -4.025852 2.338109 -3.181981 3.181981 
C -2.338109 4.025852 -1.193414 4.5 0 4.5 
z
" id="mfdcdf3208c" style="stroke:#ffffff;stroke-opacity:0.8;stroke-width:0.75;"/>
    </defs>
    <g clip-path="url(#peb10a9e0a4)">
     <use style="fill:#c44e52;fill-opacity:0.8;stroke:#ffffff;stroke-opacity:0.8;stroke-width:0.75;" x="106.632656" xlink:href="#mfdcdf3208c" y="116.184096"/>
     <use style="fill:#c44e52;fill-opacity:0.8;stroke:#ffffff;stroke-opacity:0.8;stroke-width:0.75;" x="126.090389" xlink:href="#mfdcdf3208c" y="110.537573"/>
     <use style="fill:#c44e52;fill-opacity:0.8;stroke:#ffffff;stroke-opacity:0.8;stroke-width:0.75;" x="148.378338" xlink:href="#mfdcdf3208c" y="104.89105"/>
     <use style="fill:#c44e52;fill-opacity:0.8;stroke:#ffffff;stroke-opacity:0.8;stroke-width:0.75;" x="174.162435" xlink:href="#mfdcdf3208c" y="99.244527"/>
     <use style="fill:#c44e52;fill-opacity:0.8;stroke:#ffffff;stroke-opacity:0.8;stroke-width:0.75;" x="204.335315" xlink:href="#mfdcdf3208c" y="93.598004"/>
     <use style="fill:#c44e52;fill-opacity:0.8;stroke:#ffffff;stroke-opacity:0.8;stroke-width:0.75;" x="240.121754" xlink:href="#mfdcdf3208c" y="87.951481"/>
     <use style="fill:#c44e52;fill-opacity:0.8;stroke:#ffffff;stroke-opacity:0.8;stroke-width:0.75;" x="283.249001" xlink:href="#mfdcdf3208c" y="82.304958"/>
     <use style="fill:#c44e52;fill-opacity:0.8;stroke:#ffffff;stroke-opacity:0.8;stroke-width:0.75;" x="336.233904" xlink:href="#mfdcdf3208c" y="76.658435"/>
     <use style="fill:#c44e52;fill-opacity:0.8;stroke:#ffffff;stroke-opacity:0.8;stroke-width:0.75;" x="402.892331" xlink:href="#mfdcdf3208c" y="71.011911"/>
     <use style="fill:#c44e52;fill-opacity:0.8;stroke:#ffffff;stroke-opacity:0.8;stroke-width:0.75;" x="489.301403" xlink:href="#mfdcdf3208c" y="65.365388"/>
    </g>
   </g>
   <g id="line2d_20">
    <path clip-path="url(#peb10a9e0a4)" d="M 106.632656 239.625689 
L 126.090389 226.916299 
L 148.378338 214.206908 
L 174.162435 201.497518 
L 204.335315 188.788127 
L 240.121754 176.078736 
L 283.249001 163.369346 
L 336.233904 150.659955 
L 402.892331 137.950565 
L 489.301403 125.241174 
" style="fill:none;stroke:#c44e52;stroke-dasharray:9,3.375;stroke-dashoffset:0;stroke-opacity:0.8;stroke-width:2.25;"/>
    <defs>
     <path d="M -2.25 4.5 
L 0 2.25 
L 2.25 4.5 
L 4.5 2.25 
L 2.25 0 
L 4.5 -2.25 
L 2.25 -4.5 
L 0 -2.25 
L -2.25 -4.5 
L -4.5 -2.25 
L -2.25 0 
L -4.5 2.25 
z
" id="m8a1e3232c9" style="stroke:#ffffff;stroke-linejoin:miter;stroke-opacity:0.8;stroke-width:0.75;"/>
    </defs>
    <g clip-path="url(#peb10a9e0a4)">
     <use style="fill:#c44e52;fill-opacity:0.8;stroke:#ffffff;stroke-linejoin:miter;stroke-opacity:0.8;stroke-width:0.75;" x="106.632656" xlink:href="#m8a1e3232c9" y="239.625689"/>
     <use style="fill:#c44e52;fill-opacity:0.8;stroke:#ffffff;stroke-linejoin:miter;stroke-opacity:0.8;stroke-width:0.75;" x="126.090389" xlink:href="#m8a1e3232c9" y="226.916299"/>
     <use style="fill:#c44e52;fill-opacity:0.8;stroke:#ffffff;stroke-linejoin:miter;stroke-opacity:0.8;stroke-width:0.75;" x="148.378338" xlink:href="#m8a1e3232c9" y="214.206908"/>
     <use style="fill:#c44e52;fill-opacity:0.8;stroke:#ffffff;stroke-linejoin:miter;stroke-opacity:0.8;stroke-width:0.75;" x="174.162435" xlink:href="#m8a1e3232c9" y="201.497518"/>
     <use style="fill:#c44e52;fill-opacity:0.8;stroke:#ffffff;stroke-linejoin:miter;stroke-opacity:0.8;stroke-width:0.75;" x="204.335315" xlink:href="#m8a1e3232c9" y="188.788127"/>
     <use style="fill:#c44e52;fill-opacity:0.8;stroke:#ffffff;stroke-linejoin:miter;stroke-opacity:0.8;stroke-width:0.75;" x="240.121754" xlink:href="#m8a1e3232c9" y="176.078736"/>
     <use style="fill:#c44e52;fill-opacity:0.8;stroke:#ffffff;stroke-linejoin:miter;stroke-opacity:0.8;stroke-width:0.75;" x="283.249001" xlink:href="#m8a1e3232c9" y="163.369346"/>
     <use style="fill:#c44e52;fill-opacity:0.8;stroke:#ffffff;stroke-linejoin:miter;stroke-opacity:0.8;stroke-width:0.75;" x="336.233904" xlink:href="#m8a1e3232c9" y="150.659955"/>
     <use style="fill:#c44e52;fill-opacity:0.8;stroke:#ffffff;stroke-linejoin:miter;stroke-opacity:0.8;stroke-width:0.75;" x="402.892331" xlink:href="#m8a1e3232c9" y="137.950565"/>
     <use style="fill:#c44e52;fill-opacity:0.8;stroke:#ffffff;stroke-linejoin:miter;stroke-opacity:0.8;stroke-width:0.75;" x="489.301403" xlink:href="#m8a1e3232c9" y="125.241174"/>
    </g>
   </g>
   <g id="line2d_21"/>
   <g id="line2d_22"/>
   <g id="line2d_23"/>
   <g id="line2d_24"/>
   <g id="line2d_25"/>
   <g id="patch_3">
    <path d="M 87.499219 326.544 
L 87.499219 16.2 
" style="fill:none;stroke:#262626;stroke-linecap:square;stroke-linejoin:miter;stroke-width:1.875;"/>
   </g>
   <g id="patch_4">
    <path d="M 87.499219 326.544 
L 508.434841 326.544 
" style="fill:none;stroke:#262626;stroke-linecap:square;stroke-linejoin:miter;stroke-width:1.875;"/>
   </g>
   <g id="legend_1">
    <g id="patch_5">
     <path d="M 506.379794 282.429539 
L 726.108231 282.429539 
Q 729.408231 282.429539 729.408231 279.129539 
L 729.408231 117.014461 
Q 729.408231 113.714461 726.108231 113.714461 
L 506.379794 113.714461 
Q 503.079794 113.714461 503.079794 117.014461 
L 503.079794 279.129539 
Q 503.079794 282.429539 506.379794 282.429539 
z
" style="fill:none;opacity:0;"/>
    </g>
    <g id="text_16">
     <!-- Contact mode -->
     <defs>
      <path d="M 58.796875 25.09375 
L 68.265625 22.703125 
Q 65.28125 11.03125 57.546875 4.90625 
Q 49.8125 -1.21875 38.625 -1.21875 
Q 27.046875 -1.21875 19.796875 3.484375 
Q 12.546875 8.203125 8.765625 17.140625 
Q 4.984375 26.078125 4.984375 36.328125 
Q 4.984375 47.515625 9.25 55.828125 
Q 13.53125 64.15625 21.40625 68.46875 
Q 29.296875 72.796875 38.765625 72.796875 
Q 49.515625 72.796875 56.828125 67.328125 
Q 64.15625 61.859375 67.046875 51.953125 
L 57.71875 49.75 
Q 55.21875 57.5625 50.484375 61.125 
Q 45.75 64.703125 38.578125 64.703125 
Q 30.328125 64.703125 24.78125 60.734375 
Q 19.234375 56.78125 16.984375 50.109375 
Q 14.75 43.453125 14.75 36.375 
Q 14.75 27.25 17.40625 20.4375 
Q 20.0625 13.625 25.671875 10.25 
Q 31.296875 6.890625 37.84375 6.890625 
Q 45.796875 6.890625 51.3125 11.46875 
Q 56.84375 16.0625 58.796875 25.09375 
z
" id="ArialMT-67"/>
     </defs>
     <g style="fill:#262626;" transform="translate(555.879794 132.124852)scale(0.165 -0.165)">
      <use xlink:href="#ArialMT-67"/>
      <use x="72.216797" xlink:href="#ArialMT-111"/>
      <use x="127.832031" xlink:href="#ArialMT-110"/>
      <use x="183.447266" xlink:href="#ArialMT-116"/>
      <use x="211.230469" xlink:href="#ArialMT-97"/>
      <use x="266.845703" xlink:href="#ArialMT-99"/>
      <use x="316.845703" xlink:href="#ArialMT-116"/>
      <use x="344.628906" xlink:href="#ArialMT-32"/>
      <use x="372.412109" xlink:href="#ArialMT-109"/>
      <use x="455.712891" xlink:href="#ArialMT-111"/>
      <use x="511.328125" xlink:href="#ArialMT-100"/>
      <use x="566.943359" xlink:href="#ArialMT-101"/>
     </g>
    </g>
    <g id="line2d_26">
     <path d="M 509.679794 149.689617 
L 542.679794 149.689617 
" style="fill:none;stroke:#55a868;stroke-linecap:round;stroke-width:2.25;"/>
    </g>
    <g id="line2d_27"/>
    <g id="text_17">
     <!-- In air -->
     <defs>
      <path d="M 9.328125 0 
L 9.328125 71.578125 
L 18.796875 71.578125 
L 18.796875 0 
z
" id="ArialMT-73"/>
     </defs>
     <g style="fill:#262626;" transform="translate(555.879794 155.464617)scale(0.165 -0.165)">
      <use xlink:href="#ArialMT-73"/>
      <use x="27.783203" xlink:href="#ArialMT-110"/>
      <use x="83.398438" xlink:href="#ArialMT-32"/>
      <use x="111.181641" xlink:href="#ArialMT-97"/>
      <use x="166.796875" xlink:href="#ArialMT-105"/>
      <use x="189.013672" xlink:href="#ArialMT-114"/>
     </g>
    </g>
    <g id="line2d_28">
     <path d="M 509.679794 173.029383 
L 542.679794 173.029383 
" style="fill:none;stroke:#4c72b0;stroke-linecap:round;stroke-width:2.25;"/>
    </g>
    <g id="line2d_29"/>
    <g id="text_18">
     <!-- Underwater: no bubble -->
     <defs>
      <path d="M 54.6875 71.578125 
L 64.15625 71.578125 
L 64.15625 30.21875 
Q 64.15625 19.4375 61.71875 13.078125 
Q 59.28125 6.734375 52.90625 2.75 
Q 46.53125 -1.21875 36.1875 -1.21875 
Q 26.125 -1.21875 19.71875 2.25 
Q 13.328125 5.71875 10.59375 12.28125 
Q 7.859375 18.84375 7.859375 30.21875 
L 7.859375 71.578125 
L 17.328125 71.578125 
L 17.328125 30.28125 
Q 17.328125 20.953125 19.0625 16.53125 
Q 20.796875 12.109375 25.015625 9.71875 
Q 29.25 7.328125 35.359375 7.328125 
Q 45.796875 7.328125 50.234375 12.0625 
Q 54.6875 16.796875 54.6875 30.28125 
z
" id="ArialMT-85"/>
      <path d="M 16.15625 0 
L 0.296875 51.859375 
L 9.375 51.859375 
L 17.625 21.921875 
L 20.703125 10.796875 
Q 20.90625 11.625 23.390625 21.484375 
L 31.640625 51.859375 
L 40.671875 51.859375 
L 48.4375 21.78125 
L 51.03125 11.859375 
L 54 21.875 
L 62.890625 51.859375 
L 71.4375 51.859375 
L 55.21875 0 
L 46.09375 0 
L 37.84375 31.0625 
L 35.84375 39.890625 
L 25.34375 0 
z
" id="ArialMT-119"/>
      <path d="M 9.03125 41.84375 
L 9.03125 51.859375 
L 19.046875 51.859375 
L 19.046875 41.84375 
z
M 9.03125 0 
L 9.03125 10.015625 
L 19.046875 10.015625 
L 19.046875 0 
z
" id="ArialMT-58"/>
      <path d="M 14.703125 0 
L 6.546875 0 
L 6.546875 71.578125 
L 15.328125 71.578125 
L 15.328125 46.046875 
Q 20.90625 53.03125 29.546875 53.03125 
Q 34.328125 53.03125 38.59375 51.09375 
Q 42.875 49.171875 45.625 45.671875 
Q 48.390625 42.1875 49.953125 37.25 
Q 51.515625 32.328125 51.515625 26.703125 
Q 51.515625 13.375 44.921875 6.09375 
Q 38.328125 -1.171875 29.109375 -1.171875 
Q 19.921875 -1.171875 14.703125 6.5 
z
M 14.59375 26.3125 
Q 14.59375 17 17.140625 12.84375 
Q 21.296875 6.0625 28.375 6.0625 
Q 34.125 6.0625 38.328125 11.0625 
Q 42.53125 16.0625 42.53125 25.984375 
Q 42.53125 36.140625 38.5 40.96875 
Q 34.46875 45.796875 28.765625 45.796875 
Q 23 45.796875 18.796875 40.796875 
Q 14.59375 35.796875 14.59375 26.3125 
z
" id="ArialMT-98"/>
      <path d="M 40.578125 0 
L 40.578125 7.625 
Q 34.515625 -1.171875 24.125 -1.171875 
Q 19.53125 -1.171875 15.546875 0.578125 
Q 11.578125 2.34375 9.640625 5 
Q 7.71875 7.671875 6.9375 11.53125 
Q 6.390625 14.109375 6.390625 19.734375 
L 6.390625 51.859375 
L 15.1875 51.859375 
L 15.1875 23.09375 
Q 15.1875 16.21875 15.71875 13.8125 
Q 16.546875 10.359375 19.234375 8.375 
Q 21.921875 6.390625 25.875 6.390625 
Q 29.828125 6.390625 33.296875 8.421875 
Q 36.765625 10.453125 38.203125 13.9375 
Q 39.65625 17.4375 39.65625 24.078125 
L 39.65625 51.859375 
L 48.4375 51.859375 
L 48.4375 0 
z
" id="ArialMT-117"/>
      <path d="M 6.390625 0 
L 6.390625 71.578125 
L 15.1875 71.578125 
L 15.1875 0 
z
" id="ArialMT-108"/>
     </defs>
     <g style="fill:#262626;" transform="translate(555.879794 178.804383)scale(0.165 -0.165)">
      <use xlink:href="#ArialMT-85"/>
      <use x="72.216797" xlink:href="#ArialMT-110"/>
      <use x="127.832031" xlink:href="#ArialMT-100"/>
      <use x="183.447266" xlink:href="#ArialMT-101"/>
      <use x="239.0625" xlink:href="#ArialMT-114"/>
      <use x="272.363281" xlink:href="#ArialMT-119"/>
      <use x="344.580078" xlink:href="#ArialMT-97"/>
      <use x="400.195312" xlink:href="#ArialMT-116"/>
      <use x="427.978516" xlink:href="#ArialMT-101"/>
      <use x="483.59375" xlink:href="#ArialMT-114"/>
      <use x="516.894531" xlink:href="#ArialMT-58"/>
      <use x="544.677734" xlink:href="#ArialMT-32"/>
      <use x="572.460938" xlink:href="#ArialMT-110"/>
      <use x="628.076172" xlink:href="#ArialMT-111"/>
      <use x="683.691406" xlink:href="#ArialMT-32"/>
      <use x="711.474609" xlink:href="#ArialMT-98"/>
      <use x="767.089844" xlink:href="#ArialMT-117"/>
      <use x="822.705078" xlink:href="#ArialMT-98"/>
      <use x="878.320312" xlink:href="#ArialMT-98"/>
      <use x="933.935547" xlink:href="#ArialMT-108"/>
      <use x="956.152344" xlink:href="#ArialMT-101"/>
     </g>
    </g>
    <g id="line2d_30">
     <path d="M 509.679794 196.369148 
L 542.679794 196.369148 
" style="fill:none;stroke:#c44e52;stroke-linecap:round;stroke-width:2.25;"/>
    </g>
    <g id="line2d_31"/>
    <g id="text_19">
     <!-- Underwater: bubble -->
     <g style="fill:#262626;" transform="translate(555.879794 202.144148)scale(0.165 -0.165)">
      <use xlink:href="#ArialMT-85"/>
      <use x="72.216797" xlink:href="#ArialMT-110"/>
      <use x="127.832031" xlink:href="#ArialMT-100"/>
      <use x="183.447266" xlink:href="#ArialMT-101"/>
      <use x="239.0625" xlink:href="#ArialMT-114"/>
      <use x="272.363281" xlink:href="#ArialMT-119"/>
      <use x="344.580078" xlink:href="#ArialMT-97"/>
      <use x="400.195312" xlink:href="#ArialMT-116"/>
      <use x="427.978516" xlink:href="#ArialMT-101"/>
      <use x="483.59375" xlink:href="#ArialMT-114"/>
      <use x="516.894531" xlink:href="#ArialMT-58"/>
      <use x="544.677734" xlink:href="#ArialMT-32"/>
      <use x="572.460938" xlink:href="#ArialMT-98"/>
      <use x="628.076172" xlink:href="#ArialMT-117"/>
      <use x="683.691406" xlink:href="#ArialMT-98"/>
      <use x="739.306641" xlink:href="#ArialMT-98"/>
      <use x="794.921875" xlink:href="#ArialMT-108"/>
      <use x="817.138672" xlink:href="#ArialMT-101"/>
     </g>
    </g>
    <g id="text_20">
     <!-- Surface -->
     <defs>
      <path d="M 4.5 23 
L 13.421875 23.78125 
Q 14.0625 18.40625 16.375 14.96875 
Q 18.703125 11.53125 23.578125 9.40625 
Q 28.46875 7.28125 34.578125 7.28125 
Q 39.984375 7.28125 44.140625 8.890625 
Q 48.296875 10.5 50.3125 13.296875 
Q 52.34375 16.109375 52.34375 19.4375 
Q 52.34375 22.796875 50.390625 25.3125 
Q 48.4375 27.828125 43.953125 29.546875 
Q 41.0625 30.671875 31.203125 33.03125 
Q 21.34375 35.40625 17.390625 37.5 
Q 12.25 40.1875 9.734375 44.15625 
Q 7.234375 48.140625 7.234375 53.078125 
Q 7.234375 58.5 10.296875 63.203125 
Q 13.375 67.921875 19.28125 70.359375 
Q 25.203125 72.796875 32.421875 72.796875 
Q 40.375 72.796875 46.453125 70.234375 
Q 52.546875 67.671875 55.8125 62.6875 
Q 59.078125 57.71875 59.328125 51.421875 
L 50.25 50.734375 
Q 49.515625 57.515625 45.28125 60.984375 
Q 41.0625 64.453125 32.8125 64.453125 
Q 24.21875 64.453125 20.28125 61.296875 
Q 16.359375 58.15625 16.359375 53.71875 
Q 16.359375 49.859375 19.140625 47.359375 
Q 21.875 44.875 33.421875 42.265625 
Q 44.96875 39.65625 49.265625 37.703125 
Q 55.515625 34.8125 58.484375 30.390625 
Q 61.46875 25.984375 61.46875 20.21875 
Q 61.46875 14.5 58.203125 9.4375 
Q 54.9375 4.390625 48.796875 1.578125 
Q 42.671875 -1.21875 35.015625 -1.21875 
Q 25.296875 -1.21875 18.71875 1.609375 
Q 12.15625 4.4375 8.421875 10.125 
Q 4.6875 15.828125 4.5 23 
z
" id="ArialMT-83"/>
     </defs>
     <g style="fill:#262626;" transform="translate(555.879794 225.483914)scale(0.165 -0.165)">
      <use xlink:href="#ArialMT-83"/>
      <use x="66.699219" xlink:href="#ArialMT-117"/>
      <use x="122.314453" xlink:href="#ArialMT-114"/>
      <use x="155.615234" xlink:href="#ArialMT-102"/>
      <use x="183.398438" xlink:href="#ArialMT-97"/>
      <use x="239.013672" xlink:href="#ArialMT-99"/>
      <use x="289.013672" xlink:href="#ArialMT-101"/>
     </g>
    </g>
    <g id="line2d_32">
     <path d="M 509.679794 243.04868 
L 542.679794 243.04868 
" style="fill:none;stroke:#333333;stroke-linecap:round;stroke-width:2.25;"/>
    </g>
    <g id="line2d_33">
     <defs>
      <path d="M 0 4.5 
C 1.193414 4.5 2.338109 4.025852 3.181981 3.181981 
C 4.025852 2.338109 4.5 1.193414 4.5 0 
C 4.5 -1.193414 4.025852 -2.338109 3.181981 -3.181981 
C 2.338109 -4.025852 1.193414 -4.5 0 -4.5 
C -1.193414 -4.5 -2.338109 -4.025852 -3.181981 -3.181981 
C -4.025852 -2.338109 -4.5 -1.193414 -4.5 0 
C -4.5 1.193414 -4.025852 2.338109 -3.181981 3.181981 
C -2.338109 4.025852 -1.193414 4.5 0 4.5 
z
" id="mfce3edb993" style="stroke:#333333;"/>
     </defs>
     <g>
      <use style="fill:#333333;stroke:#333333;" x="526.179794" xlink:href="#mfce3edb993" y="243.04868"/>
     </g>
    </g>
    <g id="text_21">
     <!-- Hydrophilic -->
     <defs>
      <path d="M 6.203125 -19.96875 
L 5.21875 -11.71875 
Q 8.109375 -12.5 10.25 -12.5 
Q 13.1875 -12.5 14.9375 -11.515625 
Q 16.703125 -10.546875 17.828125 -8.796875 
Q 18.65625 -7.46875 20.515625 -2.25 
Q 20.75 -1.515625 21.296875 -0.09375 
L 1.609375 51.859375 
L 11.078125 51.859375 
L 21.875 21.828125 
Q 23.96875 16.109375 25.640625 9.8125 
Q 27.15625 15.875 29.25 21.625 
L 40.328125 51.859375 
L 49.125 51.859375 
L 29.390625 -0.875 
Q 26.21875 -9.421875 24.46875 -12.640625 
Q 22.125 -17 19.09375 -19.015625 
Q 16.0625 -21.046875 11.859375 -21.046875 
Q 9.328125 -21.046875 6.203125 -19.96875 
z
" id="ArialMT-121"/>
      <path d="M 6.59375 -19.875 
L 6.59375 51.859375 
L 14.59375 51.859375 
L 14.59375 45.125 
Q 17.4375 49.078125 21 51.046875 
Q 24.5625 53.03125 29.640625 53.03125 
Q 36.28125 53.03125 41.359375 49.609375 
Q 46.4375 46.1875 49.015625 39.953125 
Q 51.609375 33.734375 51.609375 26.3125 
Q 51.609375 18.359375 48.75 11.984375 
Q 45.90625 5.609375 40.453125 2.21875 
Q 35.015625 -1.171875 29 -1.171875 
Q 24.609375 -1.171875 21.109375 0.6875 
Q 17.625 2.546875 15.375 5.375 
L 15.375 -19.875 
z
M 14.546875 25.640625 
Q 14.546875 15.625 18.59375 10.84375 
Q 22.65625 6.0625 28.421875 6.0625 
Q 34.28125 6.0625 38.453125 11.015625 
Q 42.625 15.96875 42.625 26.375 
Q 42.625 36.28125 38.546875 41.203125 
Q 34.46875 46.140625 28.8125 46.140625 
Q 23.1875 46.140625 18.859375 40.890625 
Q 14.546875 35.640625 14.546875 25.640625 
z
" id="ArialMT-112"/>
     </defs>
     <g style="fill:#262626;" transform="translate(555.879794 248.82368)scale(0.165 -0.165)">
      <use xlink:href="#ArialMT-72"/>
      <use x="72.216797" xlink:href="#ArialMT-121"/>
      <use x="122.216797" xlink:href="#ArialMT-100"/>
      <use x="177.832031" xlink:href="#ArialMT-114"/>
      <use x="211.132812" xlink:href="#ArialMT-111"/>
      <use x="266.748047" xlink:href="#ArialMT-112"/>
      <use x="322.363281" xlink:href="#ArialMT-104"/>
      <use x="377.978516" xlink:href="#ArialMT-105"/>
      <use x="400.195312" xlink:href="#ArialMT-108"/>
      <use x="422.412109" xlink:href="#ArialMT-105"/>
      <use x="444.628906" xlink:href="#ArialMT-99"/>
     </g>
    </g>
    <g id="line2d_34">
     <path d="M 509.679794 266.581805 
L 542.679794 266.581805 
" style="fill:none;stroke:#333333;stroke-dasharray:9,3.375;stroke-dashoffset:0;stroke-width:2.25;"/>
    </g>
    <g id="line2d_35">
     <defs>
      <path d="M -2.25 4.5 
L 0 2.25 
L 2.25 4.5 
L 4.5 2.25 
L 2.25 0 
L 4.5 -2.25 
L 2.25 -4.5 
L 0 -2.25 
L -2.25 -4.5 
L -4.5 -2.25 
L -2.25 0 
L -4.5 2.25 
z
" id="mb932c57bd9" style="stroke:#333333;stroke-linejoin:miter;"/>
     </defs>
     <g>
      <use style="fill:#333333;stroke:#333333;stroke-linejoin:miter;" x="526.179794" xlink:href="#mb932c57bd9" y="266.581805"/>
     </g>
    </g>
    <g id="text_22">
     <!-- Hydrophobic -->
     <g style="fill:#262626;" transform="translate(555.879794 272.356805)scale(0.165 -0.165)">
      <use xlink:href="#ArialMT-72"/>
      <use x="72.216797" xlink:href="#ArialMT-121"/>
      <use x="122.216797" xlink:href="#ArialMT-100"/>
      <use x="177.832031" xlink:href="#ArialMT-114"/>
      <use x="211.132812" xlink:href="#ArialMT-111"/>
      <use x="266.748047" xlink:href="#ArialMT-112"/>
      <use x="322.363281" xlink:href="#ArialMT-104"/>
      <use x="377.978516" xlink:href="#ArialMT-111"/>
      <use x="433.59375" xlink:href="#ArialMT-98"/>
      <use x="489.208984" xlink:href="#ArialMT-105"/>
      <use x="511.425781" xlink:href="#ArialMT-99"/>
     </g>
    </g>
   </g>
  </g>
  <g id="axes_2">
   <g id="patch_6">
    <path d="M 398.965949 271.512 
L 490.765949 271.512 
L 490.765949 198.072 
L 398.965949 198.072 
z
" style="fill:none;"/>
   </g>
   <g id="matplotlib.axis_3">
    <g id="xtick_5">
     <g id="line2d_36">
      <g>
       <use style="fill:#262626;stroke:#262626;stroke-width:1.875;" x="428.17504" xlink:href="#m9e46246344" y="271.512"/>
      </g>
     </g>
     <g id="text_23">
      <!-- 4 -->
      <g style="fill:#262626;" transform="translate(423.587267 295.822391)scale(0.165 -0.165)">
       <use xlink:href="#ArialMT-52"/>
      </g>
     </g>
    </g>
    <g id="xtick_6">
     <g id="line2d_37">
      <g>
       <use style="fill:#262626;stroke:#262626;stroke-width:1.875;" x="471.988676" xlink:href="#m9e46246344" y="271.512"/>
      </g>
     </g>
     <g id="text_24">
      <!-- 6 -->
      <g style="fill:#262626;" transform="translate(467.400903 295.822391)scale(0.165 -0.165)">
       <use xlink:href="#ArialMT-54"/>
      </g>
     </g>
    </g>
    <g id="text_25">
     <!-- $D_h$ -->
     <g style="fill:#262626;" transform="translate(433.615949 315.985828)scale(0.18 -0.18)">
      <use transform="translate(0 0.09375)" xlink:href="#DejaVuSans-Oblique-68"/>
      <use transform="translate(77.001953 -16.3125)scale(0.7)" xlink:href="#DejaVuSans-Oblique-104"/>
     </g>
    </g>
   </g>
   <g id="matplotlib.axis_4">
    <g id="ytick_10">
     <g id="line2d_38">
      <g>
       <use style="fill:#262626;stroke:#262626;stroke-width:1.875;" x="398.965949" xlink:href="#m4117c6d164" y="241.468364"/>
      </g>
     </g>
     <g id="text_26">
      <!-- 500 -->
      <g style="fill:#262626;" transform="translate(358.939309 247.373559)scale(0.165 -0.165)">
       <use xlink:href="#ArialMT-53"/>
       <use x="55.615234" xlink:href="#ArialMT-48"/>
       <use x="111.230469" xlink:href="#ArialMT-48"/>
      </g>
     </g>
    </g>
    <g id="ytick_11">
     <g id="line2d_39">
      <g>
       <use style="fill:#262626;stroke:#262626;stroke-width:1.875;" x="398.965949" xlink:href="#m4117c6d164" y="199.741091"/>
      </g>
     </g>
     <g id="text_27">
      <!-- 1000 -->
      <g style="fill:#262626;" transform="translate(349.763762 205.646286)scale(0.165 -0.165)">
       <use xlink:href="#ArialMT-49"/>
       <use x="55.615234" xlink:href="#ArialMT-48"/>
       <use x="111.230469" xlink:href="#ArialMT-48"/>
       <use x="166.845703" xlink:href="#ArialMT-48"/>
      </g>
     </g>
    </g>
    <g id="text_28">
     <!-- $N$ -->
     <g style="fill:#262626;" transform="translate(342.186262 241.542)rotate(-90)scale(0.18 -0.18)">
      <use transform="translate(0 0.09375)" xlink:href="#DejaVuSans-Oblique-78"/>
     </g>
    </g>
   </g>
   <g id="line2d_40">
    <path clip-path="url(#p251ecd0b63)" d="M 486.593222 268.173818 
L 467.748647 263.393212 
L 453.211404 257.953212 
L 441.656159 251.853818 
L 432.250727 245.09503 
L 424.44622 237.676848 
L 417.865949 229.599273 
L 412.242809 220.862303 
L 407.382128 211.465939 
L 403.138676 201.410182 
" style="fill:none;stroke:#1a1a1a;stroke-linecap:round;stroke-width:2.25;"/>
   </g>
   <g id="patch_7">
    <path d="M 398.965949 271.512 
L 398.965949 198.072 
" style="fill:none;stroke:#262626;stroke-linecap:square;stroke-linejoin:miter;stroke-width:1.875;"/>
   </g>
   <g id="patch_8">
    <path d="M 490.765949 271.512 
L 490.765949 198.072 
" style="fill:none;stroke:#262626;stroke-linecap:square;stroke-linejoin:miter;stroke-width:1.875;"/>
   </g>
   <g id="patch_9">
    <path d="M 398.965949 271.512 
L 490.765949 271.512 
" style="fill:none;stroke:#262626;stroke-linecap:square;stroke-linejoin:miter;stroke-width:1.875;"/>
   </g>
   <g id="patch_10">
    <path d="M 398.965949 198.072 
L 490.765949 198.072 
" style="fill:none;stroke:#262626;stroke-linecap:square;stroke-linejoin:miter;stroke-width:1.875;"/>
   </g>
  </g>
 </g>
 <defs>
  <clipPath id="peb10a9e0a4">
   <rect height="310.344" width="420.935622" x="87.499219" y="16.2"/>
  </clipPath>
  <clipPath id="p251ecd0b63">
   <rect height="73.44" width="91.8" x="398.965949" y="198.072"/>
  </clipPath>
 </defs>
</svg>
