<?xml version="1.0" encoding="utf-8" standalone="no"?>
<!DOCTYPE svg PUBLIC "-//W3C//DTD SVG 1.1//EN"
  "http://www.w3.org/Graphics/SVG/1.1/DTD/svg11.dtd">
<!-- Created with matplotlib (https://matplotlib.org/) -->
<svg height="715.677244pt" version="1.1" viewBox="0 0 871.924687 715.677244" width="871.924687pt" xmlns="http://www.w3.org/2000/svg" xmlns:xlink="http://www.w3.org/1999/xlink">
 <defs>
  <style type="text/css">
*{stroke-linecap:butt;stroke-linejoin:round;}
  </style>
 </defs>
 <g id="figure_1">
  <g id="patch_1">
   <path d="M 0 715.677244 
L 871.924687 715.677244 
L 871.924687 0 
L 0 0 
z
" style="fill:none;"/>
  </g>
  <g id="axes_1">
   <g id="patch_2">
    <path d="M 78.724688 87.039375 
L 859.924688 87.039375 
L 859.924688 27.737557 
L 78.724688 27.737557 
z
" style="fill:none;"/>
   </g>
   <g id="matplotlib.axis_1">
    <g id="xtick_1">
     <g id="line2d_1"/>
    </g>
    <g id="xtick_2">
     <g id="line2d_2"/>
    </g>
    <g id="xtick_3">
     <g id="line2d_3"/>
    </g>
   </g>
   <g id="matplotlib.axis_2">
    <g id="ytick_1">
     <g id="line2d_4">
      <defs>
       <path d="M 0 0 
L -4.8 0 
" id="m0852b1b9ed" style="stroke:#262626;"/>
      </defs>
      <g>
       <use style="fill:#262626;stroke:#262626;" x="78.724688" xlink:href="#m0852b1b9ed" y="87.039375"/>
      </g>
     </g>
     <g id="text_1">
      <!-- 1600 -->
      <defs>
       <path d="M 37.25 0 
L 28.46875 0 
L 28.46875 56 
Q 25.296875 52.984375 20.140625 49.953125 
Q 14.984375 46.921875 10.890625 45.40625 
L 10.890625 53.90625 
Q 18.265625 57.375 23.78125 62.296875 
Q 29.296875 67.234375 31.59375 71.875 
L 37.25 71.875 
z
" id="ArialMT-49"/>
       <path d="M 49.75 54.046875 
L 41.015625 53.375 
Q 39.84375 58.546875 37.703125 60.890625 
Q 34.125 64.65625 28.90625 64.65625 
Q 24.703125 64.65625 21.53125 62.3125 
Q 17.390625 59.28125 14.984375 53.46875 
Q 12.59375 47.65625 12.5 36.921875 
Q 15.671875 41.75 20.265625 44.09375 
Q 24.859375 46.4375 29.890625 46.4375 
Q 38.671875 46.4375 44.84375 39.96875 
Q 51.03125 33.5 51.03125 23.25 
Q 51.03125 16.5 48.125 10.71875 
Q 45.21875 4.9375 40.140625 1.859375 
Q 35.0625 -1.21875 28.609375 -1.21875 
Q 17.625 -1.21875 10.6875 6.859375 
Q 3.765625 14.9375 3.765625 33.5 
Q 3.765625 54.25 11.421875 63.671875 
Q 18.109375 71.875 29.4375 71.875 
Q 37.890625 71.875 43.28125 67.140625 
Q 48.6875 62.40625 49.75 54.046875 
z
M 13.875 23.1875 
Q 13.875 18.65625 15.796875 14.5 
Q 17.71875 10.359375 21.1875 8.171875 
Q 24.65625 6 28.46875 6 
Q 34.03125 6 38.03125 10.484375 
Q 42.046875 14.984375 42.046875 22.703125 
Q 42.046875 30.125 38.078125 34.390625 
Q 34.125 38.671875 28.125 38.671875 
Q 22.171875 38.671875 18.015625 34.390625 
Q 13.875 30.125 13.875 23.1875 
z
" id="ArialMT-54"/>
       <path d="M 4.15625 35.296875 
Q 4.15625 48 6.765625 55.734375 
Q 9.375 63.484375 14.515625 67.671875 
Q 19.671875 71.875 27.484375 71.875 
Q 33.25 71.875 37.59375 69.546875 
Q 41.9375 67.234375 44.765625 62.859375 
Q 47.609375 58.5 49.21875 52.21875 
Q 50.828125 45.953125 50.828125 35.296875 
Q 50.828125 22.703125 48.234375 14.96875 
Q 45.65625 7.234375 40.5 3 
Q 35.359375 -1.21875 27.484375 -1.21875 
Q 17.140625 -1.21875 11.234375 6.203125 
Q 4.15625 15.140625 4.15625 35.296875 
z
M 13.1875 35.296875 
Q 13.1875 17.671875 17.3125 11.828125 
Q 21.4375 6 27.484375 6 
Q 33.546875 6 37.671875 11.859375 
Q 41.796875 17.71875 41.796875 35.296875 
Q 41.796875 52.984375 37.671875 58.78125 
Q 33.546875 64.59375 27.390625 64.59375 
Q 21.34375 64.59375 17.71875 59.46875 
Q 13.1875 52.9375 13.1875 35.296875 
z
" id="ArialMT-48"/>
      </defs>
      <g style="fill:#262626;" transform="translate(21.488438 94.912969)scale(0.22 -0.22)">
       <use xlink:href="#ArialMT-49"/>
       <use x="55.615234" xlink:href="#ArialMT-54"/>
       <use x="111.230469" xlink:href="#ArialMT-48"/>
       <use x="166.845703" xlink:href="#ArialMT-48"/>
      </g>
     </g>
    </g>
    <g id="ytick_2">
     <g id="line2d_5">
      <g>
       <use style="fill:#262626;stroke:#262626;" x="78.724688" xlink:href="#m0852b1b9ed" y="27.737557"/>
      </g>
     </g>
     <g id="text_2">
      <!-- 1700 -->
      <defs>
       <path d="M 4.734375 62.203125 
L 4.734375 70.65625 
L 51.078125 70.65625 
L 51.078125 63.8125 
Q 44.234375 56.546875 37.515625 44.484375 
Q 30.8125 32.421875 27.15625 19.671875 
Q 24.515625 10.6875 23.78125 0 
L 14.75 0 
Q 14.890625 8.453125 18.0625 20.40625 
Q 21.234375 32.375 27.171875 43.484375 
Q 33.109375 54.59375 39.796875 62.203125 
z
" id="ArialMT-55"/>
      </defs>
      <g style="fill:#262626;" transform="translate(21.488438 35.611151)scale(0.22 -0.22)">
       <use xlink:href="#ArialMT-49"/>
       <use x="55.615234" xlink:href="#ArialMT-55"/>
       <use x="111.230469" xlink:href="#ArialMT-48"/>
       <use x="166.845703" xlink:href="#ArialMT-48"/>
      </g>
     </g>
    </g>
   </g>
   <g id="PathCollection_1"/>
   <g id="PathCollection_2"/>
   <g id="line2d_6">
    <path d="M 78.724688 87.039375 
L 94.348688 76.365048 
" style="fill:none;stroke:#1a1a1a;stroke-linecap:round;stroke-width:1.2;"/>
   </g>
   <g id="patch_3">
    <path d="M 78.724688 87.039375 
L 78.724688 27.737557 
" style="fill:none;stroke:#262626;stroke-linecap:square;stroke-linejoin:miter;"/>
   </g>
   <g id="PathCollection_3">
    <defs>
     <path d="M -5 10 
L 0 5 
L 5 10 
L 10 5 
L 5 0 
L 10 -5 
L 5 -10 
L 0 -5 
L -5 -10 
L -10 -5 
L -5 0 
L -10 5 
z
" id="mff00e7bcb7" style="stroke:#1a1a1a;stroke-opacity:0.8;stroke-width:0.5;"/>
    </defs>
    <g clip-path="url(#p193f85c314)">
     <use style="fill:#8da0cb;fill-opacity:0.8;stroke:#1a1a1a;stroke-opacity:0.8;stroke-width:0.5;" x="156.844688" xlink:href="#mff00e7bcb7" y="557.320047"/>
    </g>
   </g>
   <g id="PathCollection_4">
    <defs>
     <path d="M -5 10 
L 0 5 
L 5 10 
L 10 5 
L 5 0 
L 10 -5 
L 5 -10 
L 0 -5 
L -5 -10 
L -10 -5 
L -5 0 
L -10 5 
z
" id="mc88d0809fe" style="stroke:#1a1a1a;stroke-opacity:0.8;stroke-width:0.5;"/>
    </defs>
    <g clip-path="url(#p193f85c314)">
     <use style="fill:#fc8d62;fill-opacity:0.8;stroke:#1a1a1a;stroke-opacity:0.8;stroke-width:0.5;" x="261.004687" xlink:href="#mc88d0809fe" y="668.807667"/>
    </g>
   </g>
   <g id="PathCollection_5">
    <g clip-path="url(#p193f85c314)">
     <use style="fill:#8da0cb;fill-opacity:0.8;stroke:#1a1a1a;stroke-opacity:0.8;stroke-width:0.5;" x="417.244687" xlink:href="#mff00e7bcb7" y="782.811102"/>
    </g>
   </g>
   <g id="PathCollection_6">
    <g clip-path="url(#p193f85c314)">
     <use style="fill:#fc8d62;fill-opacity:0.8;stroke:#1a1a1a;stroke-opacity:0.8;stroke-width:0.5;" x="521.404687" xlink:href="#mc88d0809fe" y="629.033936"/>
    </g>
   </g>
   <g id="PathCollection_7">
    <g clip-path="url(#p193f85c314)">
     <use style="fill:#8da0cb;fill-opacity:0.8;stroke:#1a1a1a;stroke-opacity:0.8;stroke-width:0.5;" x="677.644687" xlink:href="#mff00e7bcb7" y="1007.350823"/>
    </g>
   </g>
   <g id="PathCollection_8">
    <g clip-path="url(#p193f85c314)">
     <use style="fill:#fc8d62;fill-opacity:0.8;stroke:#1a1a1a;stroke-opacity:0.8;stroke-width:0.5;" x="781.804687" xlink:href="#mc88d0809fe" y="75.248831"/>
    </g>
   </g>
   <g id="legend_1">
    <g id="patch_4">
     <path d="M 94.124688 76.039375 
L 237.860313 76.039375 
Q 242.260313 76.039375 242.260313 71.639375 
L 242.260313 11.6 
Q 242.260313 7.2 237.860313 7.2 
L 94.124688 7.2 
Q 89.724688 7.2 89.724688 11.6 
L 89.724688 71.639375 
Q 89.724688 76.039375 94.124688 76.039375 
z
" style="fill:#ffffff;opacity:0.8;stroke:#cccccc;stroke-linejoin:miter;stroke-width:0.8;"/>
    </g>
    <g id="patch_5">
     <path d="M 98.524688 31.747187 
L 142.524688 31.747187 
L 142.524688 16.347187 
L 98.524688 16.347187 
z
" style="fill:#95a3c3;stroke:#676767;stroke-linejoin:miter;stroke-width:0.6;"/>
    </g>
    <g id="text_3">
     <!-- Glass -->
     <defs>
      <path d="M 41.21875 28.078125 
L 41.21875 36.46875 
L 71.53125 36.53125 
L 71.53125 9.96875 
Q 64.546875 4.390625 57.125 1.578125 
Q 49.703125 -1.21875 41.890625 -1.21875 
Q 31.34375 -1.21875 22.71875 3.296875 
Q 14.109375 7.8125 9.71875 16.359375 
Q 5.328125 24.90625 5.328125 35.453125 
Q 5.328125 45.90625 9.6875 54.953125 
Q 14.0625 64.015625 22.265625 68.40625 
Q 30.46875 72.796875 41.15625 72.796875 
Q 48.921875 72.796875 55.1875 70.28125 
Q 61.46875 67.78125 65.03125 63.28125 
Q 68.609375 58.796875 70.453125 51.5625 
L 61.921875 49.21875 
Q 60.296875 54.6875 57.90625 57.8125 
Q 55.515625 60.9375 51.0625 62.8125 
Q 46.625 64.703125 41.21875 64.703125 
Q 34.71875 64.703125 29.984375 62.71875 
Q 25.25 60.75 22.34375 57.515625 
Q 19.4375 54.296875 17.828125 50.4375 
Q 15.09375 43.796875 15.09375 36.03125 
Q 15.09375 26.46875 18.390625 20.015625 
Q 21.6875 13.578125 27.984375 10.453125 
Q 34.28125 7.328125 41.359375 7.328125 
Q 47.515625 7.328125 53.375 9.6875 
Q 59.234375 12.0625 62.25 14.75 
L 62.25 28.078125 
z
" id="ArialMT-71"/>
      <path d="M 6.390625 0 
L 6.390625 71.578125 
L 15.1875 71.578125 
L 15.1875 0 
z
" id="ArialMT-108"/>
      <path d="M 40.4375 6.390625 
Q 35.546875 2.25 31.03125 0.53125 
Q 26.515625 -1.171875 21.34375 -1.171875 
Q 12.796875 -1.171875 8.203125 3 
Q 3.609375 7.171875 3.609375 13.671875 
Q 3.609375 17.484375 5.34375 20.625 
Q 7.078125 23.78125 9.890625 25.6875 
Q 12.703125 27.59375 16.21875 28.5625 
Q 18.796875 29.25 24.03125 29.890625 
Q 34.671875 31.15625 39.703125 32.90625 
Q 39.75 34.71875 39.75 35.203125 
Q 39.75 40.578125 37.25 42.78125 
Q 33.890625 45.75 27.25 45.75 
Q 21.046875 45.75 18.09375 43.578125 
Q 15.140625 41.40625 13.71875 35.890625 
L 5.125 37.0625 
Q 6.296875 42.578125 8.984375 45.96875 
Q 11.671875 49.359375 16.75 51.1875 
Q 21.828125 53.03125 28.515625 53.03125 
Q 35.15625 53.03125 39.296875 51.46875 
Q 43.453125 49.90625 45.40625 47.53125 
Q 47.359375 45.171875 48.140625 41.546875 
Q 48.578125 39.3125 48.578125 33.453125 
L 48.578125 21.734375 
Q 48.578125 9.46875 49.140625 6.21875 
Q 49.703125 2.984375 51.375 0 
L 42.1875 0 
Q 40.828125 2.734375 40.4375 6.390625 
z
M 39.703125 26.03125 
Q 34.90625 24.078125 25.34375 22.703125 
Q 19.921875 21.921875 17.671875 20.9375 
Q 15.4375 19.96875 14.203125 18.09375 
Q 12.984375 16.21875 12.984375 13.921875 
Q 12.984375 10.40625 15.640625 8.0625 
Q 18.3125 5.71875 23.4375 5.71875 
Q 28.515625 5.71875 32.46875 7.9375 
Q 36.421875 10.15625 38.28125 14.015625 
Q 39.703125 17 39.703125 22.796875 
z
" id="ArialMT-97"/>
      <path d="M 3.078125 15.484375 
L 11.765625 16.84375 
Q 12.5 11.625 15.84375 8.84375 
Q 19.1875 6.0625 25.203125 6.0625 
Q 31.25 6.0625 34.171875 8.515625 
Q 37.109375 10.984375 37.109375 14.3125 
Q 37.109375 17.28125 34.515625 19 
Q 32.71875 20.171875 25.53125 21.96875 
Q 15.875 24.421875 12.140625 26.203125 
Q 8.40625 27.984375 6.46875 31.125 
Q 4.546875 34.28125 4.546875 38.09375 
Q 4.546875 41.546875 6.125 44.5 
Q 7.71875 47.46875 10.453125 49.421875 
Q 12.5 50.921875 16.03125 51.96875 
Q 19.578125 53.03125 23.640625 53.03125 
Q 29.734375 53.03125 34.34375 51.265625 
Q 38.96875 49.515625 41.15625 46.5 
Q 43.359375 43.5 44.1875 38.484375 
L 35.59375 37.3125 
Q 35.015625 41.3125 32.203125 43.546875 
Q 29.390625 45.796875 24.265625 45.796875 
Q 18.21875 45.796875 15.625 43.796875 
Q 13.03125 41.796875 13.03125 39.109375 
Q 13.03125 37.40625 14.109375 36.03125 
Q 15.1875 34.625 17.484375 33.6875 
Q 18.796875 33.203125 25.25 31.453125 
Q 34.578125 28.953125 38.25 27.359375 
Q 41.9375 25.78125 44.03125 22.75 
Q 46.140625 19.734375 46.140625 15.234375 
Q 46.140625 10.84375 43.578125 6.953125 
Q 41.015625 3.078125 36.171875 0.953125 
Q 31.34375 -1.171875 25.25 -1.171875 
Q 15.140625 -1.171875 9.84375 3.03125 
Q 4.546875 7.234375 3.078125 15.484375 
z
" id="ArialMT-115"/>
     </defs>
     <g style="fill:#262626;" transform="translate(160.124688 31.747187)scale(0.22 -0.22)">
      <use xlink:href="#ArialMT-71"/>
      <use x="77.783203" xlink:href="#ArialMT-108"/>
      <use x="100" xlink:href="#ArialMT-97"/>
      <use x="155.615234" xlink:href="#ArialMT-115"/>
      <use x="205.615234" xlink:href="#ArialMT-115"/>
     </g>
    </g>
    <g id="patch_6">
     <path d="M 98.524688 62.866875 
L 142.524688 62.866875 
L 142.524688 47.466875 
L 98.524688 47.466875 
z
" style="fill:#e99675;stroke:#676767;stroke-linejoin:miter;stroke-width:0.6;"/>
    </g>
    <g id="text_4">
     <!-- PFOTS -->
     <defs>
      <path d="M 7.71875 0 
L 7.71875 71.578125 
L 34.71875 71.578125 
Q 41.84375 71.578125 45.609375 70.90625 
Q 50.875 70.015625 54.4375 67.546875 
Q 58.015625 65.09375 60.1875 60.640625 
Q 62.359375 56.203125 62.359375 50.875 
Q 62.359375 41.75 56.546875 35.421875 
Q 50.734375 29.109375 35.546875 29.109375 
L 17.1875 29.109375 
L 17.1875 0 
z
M 17.1875 37.546875 
L 35.6875 37.546875 
Q 44.875 37.546875 48.734375 40.96875 
Q 52.59375 44.390625 52.59375 50.59375 
Q 52.59375 55.078125 50.3125 58.265625 
Q 48.046875 61.46875 44.34375 62.5 
Q 41.9375 63.140625 35.5 63.140625 
L 17.1875 63.140625 
z
" id="ArialMT-80"/>
      <path d="M 8.203125 0 
L 8.203125 71.578125 
L 56.5 71.578125 
L 56.5 63.140625 
L 17.671875 63.140625 
L 17.671875 40.96875 
L 51.265625 40.96875 
L 51.265625 32.515625 
L 17.671875 32.515625 
L 17.671875 0 
z
" id="ArialMT-70"/>
      <path d="M 4.828125 34.859375 
Q 4.828125 52.6875 14.390625 62.765625 
Q 23.96875 72.859375 39.109375 72.859375 
Q 49.03125 72.859375 56.984375 68.109375 
Q 64.9375 63.375 69.109375 54.90625 
Q 73.296875 46.4375 73.296875 35.6875 
Q 73.296875 24.8125 68.890625 16.21875 
Q 64.5 7.625 56.4375 3.203125 
Q 48.390625 -1.21875 39.0625 -1.21875 
Q 28.953125 -1.21875 20.984375 3.65625 
Q 13.03125 8.546875 8.921875 16.984375 
Q 4.828125 25.4375 4.828125 34.859375 
z
M 14.59375 34.71875 
Q 14.59375 21.78125 21.546875 14.328125 
Q 28.515625 6.890625 39.015625 6.890625 
Q 49.703125 6.890625 56.609375 14.40625 
Q 63.53125 21.921875 63.53125 35.75 
Q 63.53125 44.484375 60.578125 51 
Q 57.625 57.515625 51.921875 61.109375 
Q 46.234375 64.703125 39.15625 64.703125 
Q 29.109375 64.703125 21.84375 57.78125 
Q 14.59375 50.875 14.59375 34.71875 
z
" id="ArialMT-79"/>
      <path d="M 25.921875 0 
L 25.921875 63.140625 
L 2.34375 63.140625 
L 2.34375 71.578125 
L 59.078125 71.578125 
L 59.078125 63.140625 
L 35.40625 63.140625 
L 35.40625 0 
z
" id="ArialMT-84"/>
      <path d="M 4.5 23 
L 13.421875 23.78125 
Q 14.0625 18.40625 16.375 14.96875 
Q 18.703125 11.53125 23.578125 9.40625 
Q 28.46875 7.28125 34.578125 7.28125 
Q 39.984375 7.28125 44.140625 8.890625 
Q 48.296875 10.5 50.3125 13.296875 
Q 52.34375 16.109375 52.34375 19.4375 
Q 52.34375 22.796875 50.390625 25.3125 
Q 48.4375 27.828125 43.953125 29.546875 
Q 41.0625 30.671875 31.203125 33.03125 
Q 21.34375 35.40625 17.390625 37.5 
Q 12.25 40.1875 9.734375 44.15625 
Q 7.234375 48.140625 7.234375 53.078125 
Q 7.234375 58.5 10.296875 63.203125 
Q 13.375 67.921875 19.28125 70.359375 
Q 25.203125 72.796875 32.421875 72.796875 
Q 40.375 72.796875 46.453125 70.234375 
Q 52.546875 67.671875 55.8125 62.6875 
Q 59.078125 57.71875 59.328125 51.421875 
L 50.25 50.734375 
Q 49.515625 57.515625 45.28125 60.984375 
Q 41.0625 64.453125 32.8125 64.453125 
Q 24.21875 64.453125 20.28125 61.296875 
Q 16.359375 58.15625 16.359375 53.71875 
Q 16.359375 49.859375 19.140625 47.359375 
Q 21.875 44.875 33.421875 42.265625 
Q 44.96875 39.65625 49.265625 37.703125 
Q 55.515625 34.8125 58.484375 30.390625 
Q 61.46875 25.984375 61.46875 20.21875 
Q 61.46875 14.5 58.203125 9.4375 
Q 54.9375 4.390625 48.796875 1.578125 
Q 42.671875 -1.21875 35.015625 -1.21875 
Q 25.296875 -1.21875 18.71875 1.609375 
Q 12.15625 4.4375 8.421875 10.125 
Q 4.6875 15.828125 4.5 23 
z
" id="ArialMT-83"/>
     </defs>
     <g style="fill:#262626;" transform="translate(160.124688 62.866875)scale(0.22 -0.22)">
      <use xlink:href="#ArialMT-80"/>
      <use x="66.699219" xlink:href="#ArialMT-70"/>
      <use x="127.783203" xlink:href="#ArialMT-79"/>
      <use x="205.566406" xlink:href="#ArialMT-84"/>
      <use x="266.650391" xlink:href="#ArialMT-83"/>
     </g>
    </g>
   </g>
  </g>
  <g id="axes_2">
   <g id="patch_7">
    <path d="M 78.724688 680.057557 
L 859.924688 680.057557 
L 859.924688 146.341193 
L 78.724688 146.341193 
z
" style="fill:none;"/>
   </g>
   <g id="matplotlib.axis_3">
    <g id="xtick_4">
     <g id="line2d_7">
      <defs>
       <path d="M 0 0 
L 0 4.8 
" id="ma165f55e27" style="stroke:#262626;"/>
      </defs>
      <g>
       <use style="fill:#262626;stroke:#262626;" x="208.924688" xlink:href="#ma165f55e27" y="680.057557"/>
      </g>
     </g>
     <g id="text_5">
      <!-- In air -->
      <defs>
       <path d="M 9.328125 0 
L 9.328125 71.578125 
L 18.796875 71.578125 
L 18.796875 0 
z
" id="ArialMT-73"/>
       <path d="M 6.59375 0 
L 6.59375 51.859375 
L 14.5 51.859375 
L 14.5 44.484375 
Q 20.21875 53.03125 31 53.03125 
Q 35.6875 53.03125 39.625 51.34375 
Q 43.5625 49.65625 45.515625 46.921875 
Q 47.46875 44.1875 48.25 40.4375 
Q 48.734375 37.984375 48.734375 31.890625 
L 48.734375 0 
L 39.9375 0 
L 39.9375 31.546875 
Q 39.9375 36.921875 38.90625 39.578125 
Q 37.890625 42.234375 35.28125 43.8125 
Q 32.671875 45.40625 29.15625 45.40625 
Q 23.53125 45.40625 19.453125 41.84375 
Q 15.375 38.28125 15.375 28.328125 
L 15.375 0 
z
" id="ArialMT-110"/>
       <path id="ArialMT-32"/>
       <path d="M 6.640625 61.46875 
L 6.640625 71.578125 
L 15.4375 71.578125 
L 15.4375 61.46875 
z
M 6.640625 0 
L 6.640625 51.859375 
L 15.4375 51.859375 
L 15.4375 0 
z
" id="ArialMT-105"/>
       <path d="M 6.5 0 
L 6.5 51.859375 
L 14.40625 51.859375 
L 14.40625 44 
Q 17.4375 49.515625 20 51.265625 
Q 22.5625 53.03125 25.640625 53.03125 
Q 30.078125 53.03125 34.671875 50.203125 
L 31.640625 42.046875 
Q 28.421875 43.953125 25.203125 43.953125 
Q 22.3125 43.953125 20.015625 42.21875 
Q 17.71875 40.484375 16.75 37.40625 
Q 15.28125 32.71875 15.28125 27.15625 
L 15.28125 0 
z
" id="ArialMT-114"/>
      </defs>
      <g style="fill:#262626;" transform="translate(184.472031 704.104744)scale(0.22 -0.22)">
       <use xlink:href="#ArialMT-73"/>
       <use x="27.783203" xlink:href="#ArialMT-110"/>
       <use x="83.398438" xlink:href="#ArialMT-32"/>
       <use x="111.181641" xlink:href="#ArialMT-97"/>
       <use x="166.796875" xlink:href="#ArialMT-105"/>
       <use x="189.013672" xlink:href="#ArialMT-114"/>
      </g>
     </g>
    </g>
    <g id="xtick_5">
     <g id="line2d_8">
      <g>
       <use style="fill:#262626;stroke:#262626;" x="469.324687" xlink:href="#ma165f55e27" y="680.057557"/>
      </g>
     </g>
     <g id="text_6">
      <!-- Underwater: bubble -->
      <defs>
       <path d="M 54.6875 71.578125 
L 64.15625 71.578125 
L 64.15625 30.21875 
Q 64.15625 19.4375 61.71875 13.078125 
Q 59.28125 6.734375 52.90625 2.75 
Q 46.53125 -1.21875 36.1875 -1.21875 
Q 26.125 -1.21875 19.71875 2.25 
Q 13.328125 5.71875 10.59375 12.28125 
Q 7.859375 18.84375 7.859375 30.21875 
L 7.859375 71.578125 
L 17.328125 71.578125 
L 17.328125 30.28125 
Q 17.328125 20.953125 19.0625 16.53125 
Q 20.796875 12.109375 25.015625 9.71875 
Q 29.25 7.328125 35.359375 7.328125 
Q 45.796875 7.328125 50.234375 12.0625 
Q 54.6875 16.796875 54.6875 30.28125 
z
" id="ArialMT-85"/>
       <path d="M 40.234375 0 
L 40.234375 6.546875 
Q 35.296875 -1.171875 25.734375 -1.171875 
Q 19.53125 -1.171875 14.328125 2.25 
Q 9.125 5.671875 6.265625 11.796875 
Q 3.421875 17.921875 3.421875 25.875 
Q 3.421875 33.640625 6 39.96875 
Q 8.59375 46.296875 13.765625 49.65625 
Q 18.953125 53.03125 25.34375 53.03125 
Q 30.03125 53.03125 33.6875 51.046875 
Q 37.359375 49.078125 39.65625 45.90625 
L 39.65625 71.578125 
L 48.390625 71.578125 
L 48.390625 0 
z
M 12.453125 25.875 
Q 12.453125 15.921875 16.640625 10.984375 
Q 20.84375 6.0625 26.5625 6.0625 
Q 32.328125 6.0625 36.34375 10.765625 
Q 40.375 15.484375 40.375 25.140625 
Q 40.375 35.796875 36.265625 40.765625 
Q 32.171875 45.75 26.171875 45.75 
Q 20.3125 45.75 16.375 40.96875 
Q 12.453125 36.1875 12.453125 25.875 
z
" id="ArialMT-100"/>
       <path d="M 42.09375 16.703125 
L 51.171875 15.578125 
Q 49.03125 7.625 43.21875 3.21875 
Q 37.40625 -1.171875 28.375 -1.171875 
Q 17 -1.171875 10.328125 5.828125 
Q 3.65625 12.84375 3.65625 25.484375 
Q 3.65625 38.578125 10.390625 45.796875 
Q 17.140625 53.03125 27.875 53.03125 
Q 38.28125 53.03125 44.875 45.953125 
Q 51.46875 38.875 51.46875 26.03125 
Q 51.46875 25.25 51.421875 23.6875 
L 12.75 23.6875 
Q 13.234375 15.140625 17.578125 10.59375 
Q 21.921875 6.0625 28.421875 6.0625 
Q 33.25 6.0625 36.671875 8.59375 
Q 40.09375 11.140625 42.09375 16.703125 
z
M 13.234375 30.90625 
L 42.1875 30.90625 
Q 41.609375 37.453125 38.875 40.71875 
Q 34.671875 45.796875 27.984375 45.796875 
Q 21.921875 45.796875 17.796875 41.75 
Q 13.671875 37.703125 13.234375 30.90625 
z
" id="ArialMT-101"/>
       <path d="M 16.15625 0 
L 0.296875 51.859375 
L 9.375 51.859375 
L 17.625 21.921875 
L 20.703125 10.796875 
Q 20.90625 11.625 23.390625 21.484375 
L 31.640625 51.859375 
L 40.671875 51.859375 
L 48.4375 21.78125 
L 51.03125 11.859375 
L 54 21.875 
L 62.890625 51.859375 
L 71.4375 51.859375 
L 55.21875 0 
L 46.09375 0 
L 37.84375 31.0625 
L 35.84375 39.890625 
L 25.34375 0 
z
" id="ArialMT-119"/>
       <path d="M 25.78125 7.859375 
L 27.046875 0.09375 
Q 23.34375 -0.6875 20.40625 -0.6875 
Q 15.625 -0.6875 12.984375 0.828125 
Q 10.359375 2.34375 9.28125 4.8125 
Q 8.203125 7.28125 8.203125 15.1875 
L 8.203125 45.015625 
L 1.765625 45.015625 
L 1.765625 51.859375 
L 8.203125 51.859375 
L 8.203125 64.703125 
L 16.9375 69.96875 
L 16.9375 51.859375 
L 25.78125 51.859375 
L 25.78125 45.015625 
L 16.9375 45.015625 
L 16.9375 14.703125 
Q 16.9375 10.9375 17.40625 9.859375 
Q 17.875 8.796875 18.921875 8.15625 
Q 19.96875 7.515625 21.921875 7.515625 
Q 23.390625 7.515625 25.78125 7.859375 
z
" id="ArialMT-116"/>
       <path d="M 9.03125 41.84375 
L 9.03125 51.859375 
L 19.046875 51.859375 
L 19.046875 41.84375 
z
M 9.03125 0 
L 9.03125 10.015625 
L 19.046875 10.015625 
L 19.046875 0 
z
" id="ArialMT-58"/>
       <path d="M 14.703125 0 
L 6.546875 0 
L 6.546875 71.578125 
L 15.328125 71.578125 
L 15.328125 46.046875 
Q 20.90625 53.03125 29.546875 53.03125 
Q 34.328125 53.03125 38.59375 51.09375 
Q 42.875 49.171875 45.625 45.671875 
Q 48.390625 42.1875 49.953125 37.25 
Q 51.515625 32.328125 51.515625 26.703125 
Q 51.515625 13.375 44.921875 6.09375 
Q 38.328125 -1.171875 29.109375 -1.171875 
Q 19.921875 -1.171875 14.703125 6.5 
z
M 14.59375 26.3125 
Q 14.59375 17 17.140625 12.84375 
Q 21.296875 6.0625 28.375 6.0625 
Q 34.125 6.0625 38.328125 11.0625 
Q 42.53125 16.0625 42.53125 25.984375 
Q 42.53125 36.140625 38.5 40.96875 
Q 34.46875 45.796875 28.765625 45.796875 
Q 23 45.796875 18.796875 40.796875 
Q 14.59375 35.796875 14.59375 26.3125 
z
" id="ArialMT-98"/>
       <path d="M 40.578125 0 
L 40.578125 7.625 
Q 34.515625 -1.171875 24.125 -1.171875 
Q 19.53125 -1.171875 15.546875 0.578125 
Q 11.578125 2.34375 9.640625 5 
Q 7.71875 7.671875 6.9375 11.53125 
Q 6.390625 14.109375 6.390625 19.734375 
L 6.390625 51.859375 
L 15.1875 51.859375 
L 15.1875 23.09375 
Q 15.1875 16.21875 15.71875 13.8125 
Q 16.546875 10.359375 19.234375 8.375 
Q 21.921875 6.390625 25.875 6.390625 
Q 29.828125 6.390625 33.296875 8.421875 
Q 36.765625 10.453125 38.203125 13.9375 
Q 39.65625 17.4375 39.65625 24.078125 
L 39.65625 51.859375 
L 48.4375 51.859375 
L 48.4375 0 
z
" id="ArialMT-117"/>
      </defs>
      <g style="fill:#262626;" transform="translate(373.329062 704.104744)scale(0.22 -0.22)">
       <use xlink:href="#ArialMT-85"/>
       <use x="72.216797" xlink:href="#ArialMT-110"/>
       <use x="127.832031" xlink:href="#ArialMT-100"/>
       <use x="183.447266" xlink:href="#ArialMT-101"/>
       <use x="239.0625" xlink:href="#ArialMT-114"/>
       <use x="272.363281" xlink:href="#ArialMT-119"/>
       <use x="344.580078" xlink:href="#ArialMT-97"/>
       <use x="400.195312" xlink:href="#ArialMT-116"/>
       <use x="427.978516" xlink:href="#ArialMT-101"/>
       <use x="483.59375" xlink:href="#ArialMT-114"/>
       <use x="516.894531" xlink:href="#ArialMT-58"/>
       <use x="544.677734" xlink:href="#ArialMT-32"/>
       <use x="572.460938" xlink:href="#ArialMT-98"/>
       <use x="628.076172" xlink:href="#ArialMT-117"/>
       <use x="683.691406" xlink:href="#ArialMT-98"/>
       <use x="739.306641" xlink:href="#ArialMT-98"/>
       <use x="794.921875" xlink:href="#ArialMT-108"/>
       <use x="817.138672" xlink:href="#ArialMT-101"/>
      </g>
     </g>
    </g>
    <g id="xtick_6">
     <g id="line2d_9">
      <g>
       <use style="fill:#262626;stroke:#262626;" x="729.724687" xlink:href="#ma165f55e27" y="680.057557"/>
      </g>
     </g>
     <g id="text_7">
      <!-- Underwater: no bubble -->
      <defs>
       <path d="M 3.328125 25.921875 
Q 3.328125 40.328125 11.328125 47.265625 
Q 18.015625 53.03125 27.640625 53.03125 
Q 38.328125 53.03125 45.109375 46.015625 
Q 51.90625 39.015625 51.90625 26.65625 
Q 51.90625 16.65625 48.90625 10.90625 
Q 45.90625 5.171875 40.15625 2 
Q 34.421875 -1.171875 27.640625 -1.171875 
Q 16.75 -1.171875 10.03125 5.8125 
Q 3.328125 12.796875 3.328125 25.921875 
z
M 12.359375 25.921875 
Q 12.359375 15.96875 16.703125 11.015625 
Q 21.046875 6.0625 27.640625 6.0625 
Q 34.1875 6.0625 38.53125 11.03125 
Q 42.875 16.015625 42.875 26.21875 
Q 42.875 35.84375 38.5 40.796875 
Q 34.125 45.75 27.640625 45.75 
Q 21.046875 45.75 16.703125 40.8125 
Q 12.359375 35.890625 12.359375 25.921875 
z
" id="ArialMT-111"/>
      </defs>
      <g style="fill:#262626;" transform="translate(618.439062 704.104744)scale(0.22 -0.22)">
       <use xlink:href="#ArialMT-85"/>
       <use x="72.216797" xlink:href="#ArialMT-110"/>
       <use x="127.832031" xlink:href="#ArialMT-100"/>
       <use x="183.447266" xlink:href="#ArialMT-101"/>
       <use x="239.0625" xlink:href="#ArialMT-114"/>
       <use x="272.363281" xlink:href="#ArialMT-119"/>
       <use x="344.580078" xlink:href="#ArialMT-97"/>
       <use x="400.195312" xlink:href="#ArialMT-116"/>
       <use x="427.978516" xlink:href="#ArialMT-101"/>
       <use x="483.59375" xlink:href="#ArialMT-114"/>
       <use x="516.894531" xlink:href="#ArialMT-58"/>
       <use x="544.677734" xlink:href="#ArialMT-32"/>
       <use x="572.460938" xlink:href="#ArialMT-110"/>
       <use x="628.076172" xlink:href="#ArialMT-111"/>
       <use x="683.691406" xlink:href="#ArialMT-32"/>
       <use x="711.474609" xlink:href="#ArialMT-98"/>
       <use x="767.089844" xlink:href="#ArialMT-117"/>
       <use x="822.705078" xlink:href="#ArialMT-98"/>
       <use x="878.320312" xlink:href="#ArialMT-98"/>
       <use x="933.935547" xlink:href="#ArialMT-108"/>
       <use x="956.152344" xlink:href="#ArialMT-101"/>
      </g>
     </g>
    </g>
   </g>
   <g id="matplotlib.axis_4">
    <g id="ytick_3">
     <g id="line2d_10">
      <g>
       <use style="fill:#262626;stroke:#262626;" x="78.724688" xlink:href="#m0852b1b9ed" y="644.476466"/>
      </g>
     </g>
     <g id="text_8">
      <!-- 0 -->
      <g style="fill:#262626;" transform="translate(58.190625 652.35006)scale(0.22 -0.22)">
       <use xlink:href="#ArialMT-48"/>
      </g>
     </g>
    </g>
    <g id="ytick_4">
     <g id="line2d_11">
      <g>
       <use style="fill:#262626;stroke:#262626;" x="78.724688" xlink:href="#m0852b1b9ed" y="585.174648"/>
      </g>
     </g>
     <g id="text_9">
      <!-- 100 -->
      <g style="fill:#262626;" transform="translate(33.7225 593.048241)scale(0.22 -0.22)">
       <use xlink:href="#ArialMT-49"/>
       <use x="55.615234" xlink:href="#ArialMT-48"/>
       <use x="111.230469" xlink:href="#ArialMT-48"/>
      </g>
     </g>
    </g>
    <g id="ytick_5">
     <g id="line2d_12">
      <g>
       <use style="fill:#262626;stroke:#262626;" x="78.724688" xlink:href="#m0852b1b9ed" y="525.87283"/>
      </g>
     </g>
     <g id="text_10">
      <!-- 200 -->
      <defs>
       <path d="M 50.34375 8.453125 
L 50.34375 0 
L 3.03125 0 
Q 2.9375 3.171875 4.046875 6.109375 
Q 5.859375 10.9375 9.828125 15.625 
Q 13.8125 20.3125 21.34375 26.46875 
Q 33.015625 36.03125 37.109375 41.625 
Q 41.21875 47.21875 41.21875 52.203125 
Q 41.21875 57.421875 37.46875 61 
Q 33.734375 64.59375 27.734375 64.59375 
Q 21.390625 64.59375 17.578125 60.78125 
Q 13.765625 56.984375 13.71875 50.25 
L 4.6875 51.171875 
Q 5.609375 61.28125 11.65625 66.578125 
Q 17.71875 71.875 27.9375 71.875 
Q 38.234375 71.875 44.234375 66.15625 
Q 50.25 60.453125 50.25 52 
Q 50.25 47.703125 48.484375 43.546875 
Q 46.734375 39.40625 42.65625 34.8125 
Q 38.578125 30.21875 29.109375 22.21875 
Q 21.1875 15.578125 18.9375 13.203125 
Q 16.703125 10.84375 15.234375 8.453125 
z
" id="ArialMT-50"/>
      </defs>
      <g style="fill:#262626;" transform="translate(33.7225 533.746423)scale(0.22 -0.22)">
       <use xlink:href="#ArialMT-50"/>
       <use x="55.615234" xlink:href="#ArialMT-48"/>
       <use x="111.230469" xlink:href="#ArialMT-48"/>
      </g>
     </g>
    </g>
    <g id="ytick_6">
     <g id="line2d_13">
      <g>
       <use style="fill:#262626;stroke:#262626;" x="78.724688" xlink:href="#m0852b1b9ed" y="466.571011"/>
      </g>
     </g>
     <g id="text_11">
      <!-- 300 -->
      <defs>
       <path d="M 4.203125 18.890625 
L 12.984375 20.0625 
Q 14.5 12.59375 18.140625 9.296875 
Q 21.78125 6 27 6 
Q 33.203125 6 37.46875 10.296875 
Q 41.75 14.59375 41.75 20.953125 
Q 41.75 27 37.796875 30.921875 
Q 33.84375 34.859375 27.734375 34.859375 
Q 25.25 34.859375 21.53125 33.890625 
L 22.515625 41.609375 
Q 23.390625 41.5 23.921875 41.5 
Q 29.546875 41.5 34.03125 44.421875 
Q 38.53125 47.359375 38.53125 53.46875 
Q 38.53125 58.296875 35.25 61.46875 
Q 31.984375 64.65625 26.8125 64.65625 
Q 21.6875 64.65625 18.265625 61.421875 
Q 14.84375 58.203125 13.875 51.765625 
L 5.078125 53.328125 
Q 6.6875 62.15625 12.390625 67.015625 
Q 18.109375 71.875 26.609375 71.875 
Q 32.46875 71.875 37.390625 69.359375 
Q 42.328125 66.84375 44.9375 62.5 
Q 47.5625 58.15625 47.5625 53.265625 
Q 47.5625 48.640625 45.0625 44.828125 
Q 42.578125 41.015625 37.703125 38.765625 
Q 44.046875 37.3125 47.5625 32.6875 
Q 51.078125 28.078125 51.078125 21.140625 
Q 51.078125 11.765625 44.234375 5.25 
Q 37.40625 -1.265625 26.953125 -1.265625 
Q 17.53125 -1.265625 11.296875 4.34375 
Q 5.078125 9.96875 4.203125 18.890625 
z
" id="ArialMT-51"/>
      </defs>
      <g style="fill:#262626;" transform="translate(33.7225 474.444605)scale(0.22 -0.22)">
       <use xlink:href="#ArialMT-51"/>
       <use x="55.615234" xlink:href="#ArialMT-48"/>
       <use x="111.230469" xlink:href="#ArialMT-48"/>
      </g>
     </g>
    </g>
    <g id="ytick_7">
     <g id="line2d_14">
      <g>
       <use style="fill:#262626;stroke:#262626;" x="78.724688" xlink:href="#m0852b1b9ed" y="407.269193"/>
      </g>
     </g>
     <g id="text_12">
      <!-- 400 -->
      <defs>
       <path d="M 32.328125 0 
L 32.328125 17.140625 
L 1.265625 17.140625 
L 1.265625 25.203125 
L 33.9375 71.578125 
L 41.109375 71.578125 
L 41.109375 25.203125 
L 50.78125 25.203125 
L 50.78125 17.140625 
L 41.109375 17.140625 
L 41.109375 0 
z
M 32.328125 25.203125 
L 32.328125 57.46875 
L 9.90625 25.203125 
z
" id="ArialMT-52"/>
      </defs>
      <g style="fill:#262626;" transform="translate(33.7225 415.142787)scale(0.22 -0.22)">
       <use xlink:href="#ArialMT-52"/>
       <use x="55.615234" xlink:href="#ArialMT-48"/>
       <use x="111.230469" xlink:href="#ArialMT-48"/>
      </g>
     </g>
    </g>
    <g id="ytick_8">
     <g id="line2d_15">
      <g>
       <use style="fill:#262626;stroke:#262626;" x="78.724688" xlink:href="#m0852b1b9ed" y="347.967375"/>
      </g>
     </g>
     <g id="text_13">
      <!-- 500 -->
      <defs>
       <path d="M 4.15625 18.75 
L 13.375 19.53125 
Q 14.40625 12.796875 18.140625 9.390625 
Q 21.875 6 27.15625 6 
Q 33.5 6 37.890625 10.78125 
Q 42.28125 15.578125 42.28125 23.484375 
Q 42.28125 31 38.0625 35.34375 
Q 33.84375 39.703125 27 39.703125 
Q 22.75 39.703125 19.328125 37.765625 
Q 15.921875 35.84375 13.96875 32.765625 
L 5.71875 33.84375 
L 12.640625 70.609375 
L 48.25 70.609375 
L 48.25 62.203125 
L 19.671875 62.203125 
L 15.828125 42.96875 
Q 22.265625 47.46875 29.34375 47.46875 
Q 38.71875 47.46875 45.15625 40.96875 
Q 51.609375 34.46875 51.609375 24.265625 
Q 51.609375 14.546875 45.953125 7.46875 
Q 39.0625 -1.21875 27.15625 -1.21875 
Q 17.390625 -1.21875 11.203125 4.25 
Q 5.03125 9.71875 4.15625 18.75 
z
" id="ArialMT-53"/>
      </defs>
      <g style="fill:#262626;" transform="translate(33.7225 355.840969)scale(0.22 -0.22)">
       <use xlink:href="#ArialMT-53"/>
       <use x="55.615234" xlink:href="#ArialMT-48"/>
       <use x="111.230469" xlink:href="#ArialMT-48"/>
      </g>
     </g>
    </g>
    <g id="ytick_9">
     <g id="line2d_16">
      <g>
       <use style="fill:#262626;stroke:#262626;" x="78.724688" xlink:href="#m0852b1b9ed" y="288.665557"/>
      </g>
     </g>
     <g id="text_14">
      <!-- 600 -->
      <g style="fill:#262626;" transform="translate(33.7225 296.539151)scale(0.22 -0.22)">
       <use xlink:href="#ArialMT-54"/>
       <use x="55.615234" xlink:href="#ArialMT-48"/>
       <use x="111.230469" xlink:href="#ArialMT-48"/>
      </g>
     </g>
    </g>
    <g id="ytick_10">
     <g id="line2d_17">
      <g>
       <use style="fill:#262626;stroke:#262626;" x="78.724688" xlink:href="#m0852b1b9ed" y="229.363739"/>
      </g>
     </g>
     <g id="text_15">
      <!-- 700 -->
      <g style="fill:#262626;" transform="translate(33.7225 237.237332)scale(0.22 -0.22)">
       <use xlink:href="#ArialMT-55"/>
       <use x="55.615234" xlink:href="#ArialMT-48"/>
       <use x="111.230469" xlink:href="#ArialMT-48"/>
      </g>
     </g>
    </g>
    <g id="ytick_11">
     <g id="line2d_18">
      <g>
       <use style="fill:#262626;stroke:#262626;" x="78.724688" xlink:href="#m0852b1b9ed" y="170.06192"/>
      </g>
     </g>
     <g id="text_16">
      <!-- 800 -->
      <defs>
       <path d="M 17.671875 38.8125 
Q 12.203125 40.828125 9.5625 44.53125 
Q 6.9375 48.25 6.9375 53.421875 
Q 6.9375 61.234375 12.546875 66.546875 
Q 18.171875 71.875 27.484375 71.875 
Q 36.859375 71.875 42.578125 66.421875 
Q 48.296875 60.984375 48.296875 53.171875 
Q 48.296875 48.1875 45.671875 44.5 
Q 43.0625 40.828125 37.75 38.8125 
Q 44.34375 36.671875 47.78125 31.875 
Q 51.21875 27.09375 51.21875 20.453125 
Q 51.21875 11.28125 44.71875 5.03125 
Q 38.234375 -1.21875 27.640625 -1.21875 
Q 17.046875 -1.21875 10.546875 5.046875 
Q 4.046875 11.328125 4.046875 20.703125 
Q 4.046875 27.6875 7.59375 32.390625 
Q 11.140625 37.109375 17.671875 38.8125 
z
M 15.921875 53.71875 
Q 15.921875 48.640625 19.1875 45.40625 
Q 22.46875 42.1875 27.6875 42.1875 
Q 32.765625 42.1875 36.015625 45.375 
Q 39.265625 48.578125 39.265625 53.21875 
Q 39.265625 58.0625 35.90625 61.359375 
Q 32.5625 64.65625 27.59375 64.65625 
Q 22.5625 64.65625 19.234375 61.421875 
Q 15.921875 58.203125 15.921875 53.71875 
z
M 13.09375 20.65625 
Q 13.09375 16.890625 14.875 13.375 
Q 16.65625 9.859375 20.171875 7.921875 
Q 23.6875 6 27.734375 6 
Q 34.03125 6 38.125 10.046875 
Q 42.234375 14.109375 42.234375 20.359375 
Q 42.234375 26.703125 38.015625 30.859375 
Q 33.796875 35.015625 27.4375 35.015625 
Q 21.234375 35.015625 17.15625 30.90625 
Q 13.09375 26.8125 13.09375 20.65625 
z
" id="ArialMT-56"/>
      </defs>
      <g style="fill:#262626;" transform="translate(33.7225 177.935514)scale(0.22 -0.22)">
       <use xlink:href="#ArialMT-56"/>
       <use x="55.615234" xlink:href="#ArialMT-48"/>
       <use x="111.230469" xlink:href="#ArialMT-48"/>
      </g>
     </g>
    </g>
    <g id="text_17">
     <!-- Adhesion Force (μN) -->
     <defs>
      <path d="M -0.140625 0 
L 27.34375 71.578125 
L 37.546875 71.578125 
L 66.84375 0 
L 56.0625 0 
L 47.703125 21.6875 
L 17.78125 21.6875 
L 9.90625 0 
z
M 20.515625 29.390625 
L 44.78125 29.390625 
L 37.3125 49.21875 
Q 33.890625 58.25 32.234375 64.0625 
Q 30.859375 57.171875 28.375 50.390625 
z
" id="ArialMT-65"/>
      <path d="M 6.59375 0 
L 6.59375 71.578125 
L 15.375 71.578125 
L 15.375 45.90625 
Q 21.53125 53.03125 30.90625 53.03125 
Q 36.671875 53.03125 40.921875 50.75 
Q 45.171875 48.484375 47 44.484375 
Q 48.828125 40.484375 48.828125 32.859375 
L 48.828125 0 
L 40.046875 0 
L 40.046875 32.859375 
Q 40.046875 39.453125 37.1875 42.453125 
Q 34.328125 45.453125 29.109375 45.453125 
Q 25.203125 45.453125 21.75 43.421875 
Q 18.3125 41.40625 16.84375 37.9375 
Q 15.375 34.46875 15.375 28.375 
L 15.375 0 
z
" id="ArialMT-104"/>
      <path d="M 40.4375 19 
L 49.078125 17.875 
Q 47.65625 8.9375 41.8125 3.875 
Q 35.984375 -1.171875 27.484375 -1.171875 
Q 16.84375 -1.171875 10.375 5.78125 
Q 3.90625 12.75 3.90625 25.734375 
Q 3.90625 34.125 6.6875 40.421875 
Q 9.46875 46.734375 15.15625 49.875 
Q 20.84375 53.03125 27.546875 53.03125 
Q 35.984375 53.03125 41.359375 48.75 
Q 46.734375 44.484375 48.25 36.625 
L 39.703125 35.296875 
Q 38.484375 40.53125 35.375 43.15625 
Q 32.28125 45.796875 27.875 45.796875 
Q 21.234375 45.796875 17.078125 41.03125 
Q 12.9375 36.28125 12.9375 25.984375 
Q 12.9375 15.53125 16.9375 10.796875 
Q 20.953125 6.0625 27.390625 6.0625 
Q 32.5625 6.0625 36.03125 9.234375 
Q 39.5 12.40625 40.4375 19 
z
" id="ArialMT-99"/>
      <path d="M 23.390625 -21.046875 
Q 16.109375 -11.859375 11.078125 0.4375 
Q 6.0625 12.75 6.0625 25.921875 
Q 6.0625 37.546875 9.8125 48.1875 
Q 14.203125 60.546875 23.390625 72.796875 
L 29.6875 72.796875 
Q 23.78125 62.640625 21.875 58.296875 
Q 18.890625 51.5625 17.1875 44.234375 
Q 15.09375 35.109375 15.09375 25.875 
Q 15.09375 2.390625 29.6875 -21.046875 
z
" id="ArialMT-40"/>
      <path d="M 49.703125 51.859375 
L 49.703125 0 
L 41.84375 0 
L 41.84375 6.15625 
Q 39.3125 2.25 36.8125 0.78125 
Q 33.40625 -1.21875 28.859375 -1.21875 
Q 24.8125 -1.21875 21.6875 0.390625 
Q 19.34375 1.609375 16.5 5.21875 
L 16.5 -19.875 
L 7.8125 -19.875 
L 7.8125 51.859375 
L 16.5 51.859375 
L 16.5 29.890625 
Q 16.5 17.921875 17.765625 14.375 
Q 19.046875 10.84375 21.890625 8.78125 
Q 24.75 6.734375 28.46875 6.734375 
Q 32.375 6.734375 35.453125 8.875 
Q 38.53125 11.03125 39.796875 14.421875 
Q 41.0625 17.828125 41.0625 29.734375 
L 41.0625 51.859375 
z
" id="ArialMT-956"/>
      <path d="M 7.625 0 
L 7.625 71.578125 
L 17.328125 71.578125 
L 54.9375 15.375 
L 54.9375 71.578125 
L 64.015625 71.578125 
L 64.015625 0 
L 54.296875 0 
L 16.703125 56.25 
L 16.703125 0 
z
" id="ArialMT-78"/>
      <path d="M 12.359375 -21.046875 
L 6.0625 -21.046875 
Q 20.65625 2.390625 20.65625 25.875 
Q 20.65625 35.0625 18.5625 44.09375 
Q 16.890625 51.421875 13.921875 58.15625 
Q 12.015625 62.546875 6.0625 72.796875 
L 12.359375 72.796875 
Q 21.53125 60.546875 25.921875 48.1875 
Q 29.6875 37.546875 29.6875 25.921875 
Q 29.6875 12.75 24.625 0.4375 
Q 19.578125 -11.859375 12.359375 -21.046875 
z
" id="ArialMT-41"/>
     </defs>
     <g style="fill:#262626;" transform="translate(24.67125 444.08942)rotate(-90)scale(0.24 -0.24)">
      <use xlink:href="#ArialMT-65"/>
      <use x="66.699219" xlink:href="#ArialMT-100"/>
      <use x="122.314453" xlink:href="#ArialMT-104"/>
      <use x="177.929688" xlink:href="#ArialMT-101"/>
      <use x="233.544922" xlink:href="#ArialMT-115"/>
      <use x="283.544922" xlink:href="#ArialMT-105"/>
      <use x="305.761719" xlink:href="#ArialMT-111"/>
      <use x="361.376953" xlink:href="#ArialMT-110"/>
      <use x="416.992188" xlink:href="#ArialMT-32"/>
      <use x="444.775391" xlink:href="#ArialMT-70"/>
      <use x="505.859375" xlink:href="#ArialMT-111"/>
      <use x="561.474609" xlink:href="#ArialMT-114"/>
      <use x="594.775391" xlink:href="#ArialMT-99"/>
      <use x="644.775391" xlink:href="#ArialMT-101"/>
      <use x="700.390625" xlink:href="#ArialMT-32"/>
      <use x="728.173828" xlink:href="#ArialMT-40"/>
      <use x="761.474609" xlink:href="#ArialMT-956"/>
      <use x="819.091797" xlink:href="#ArialMT-78"/>
      <use x="891.308594" xlink:href="#ArialMT-41"/>
     </g>
    </g>
   </g>
   <g id="patch_8">
    <path clip-path="url(#p17625cb1f4)" d="M 105.806288 417.273873 
L 207.883088 417.273873 
L 207.883088 356.54121 
L 105.806288 356.54121 
L 105.806288 417.273873 
z
" style="fill:#95a3c3;stroke:#676767;stroke-linejoin:miter;stroke-width:1.2;"/>
   </g>
   <g id="patch_9">
    <path clip-path="url(#p17625cb1f4)" d="M 209.966287 430.637438 
L 312.043088 430.637438 
L 312.043088 314.712455 
L 209.966287 314.712455 
L 209.966287 430.637438 
z
" style="fill:#e99675;stroke:#676767;stroke-linejoin:miter;stroke-width:1.2;"/>
   </g>
   <g id="patch_10">
    <path clip-path="url(#p17625cb1f4)" d="M 366.206288 590.794186 
L 468.283087 590.794186 
L 468.283087 533.800186 
L 366.206288 533.800186 
L 366.206288 590.794186 
z
" style="fill:#95a3c3;stroke:#676767;stroke-linejoin:miter;stroke-width:1.2;"/>
   </g>
   <g id="patch_11">
    <path clip-path="url(#p17625cb1f4)" d="M 470.366287 430.043171 
L 572.443087 430.043171 
L 572.443087 335.510925 
L 470.366287 335.510925 
L 470.366287 430.043171 
z
" style="fill:#e99675;stroke:#676767;stroke-linejoin:miter;stroke-width:1.2;"/>
   </g>
   <g id="patch_12">
    <path clip-path="url(#p17625cb1f4)" d="M 626.606288 612.18624 
L 728.683087 612.18624 
L 728.683087 587.259895 
L 626.606288 587.259895 
L 626.606288 612.18624 
z
" style="fill:#95a3c3;stroke:#676767;stroke-linejoin:miter;stroke-width:1.2;"/>
   </g>
   <g id="patch_13">
    <path clip-path="url(#p17625cb1f4)" d="M 730.766287 398.604987 
L 832.843088 398.604987 
L 832.843088 356.179958 
L 730.766287 356.179958 
L 730.766287 398.604987 
z
" style="fill:#e99675;stroke:#676767;stroke-linejoin:miter;stroke-width:1.2;"/>
   </g>
   <g id="PathCollection_9"/>
   <g id="PathCollection_10"/>
   <g id="PathCollection_11"/>
   <g id="PathCollection_12"/>
   <g id="patch_14">
    <path clip-path="url(#p17625cb1f4)" d="M 208.924688 644.476466 
L 208.924688 644.476466 
L 208.924688 644.476466 
L 208.924688 644.476466 
z
" style="fill:#95a3c3;stroke:#676767;stroke-linejoin:miter;stroke-width:0.6;"/>
   </g>
   <g id="patch_15">
    <path clip-path="url(#p17625cb1f4)" d="M 208.924688 644.476466 
L 208.924688 644.476466 
L 208.924688 644.476466 
L 208.924688 644.476466 
z
" style="fill:#e99675;stroke:#676767;stroke-linejoin:miter;stroke-width:0.6;"/>
   </g>
   <g id="line2d_19">
    <path clip-path="url(#p17625cb1f4)" d="M 156.844688 417.273873 
L 156.844688 433.836703 
" style="fill:none;stroke:#676767;stroke-linecap:round;stroke-width:1.2;"/>
   </g>
   <g id="line2d_20">
    <path clip-path="url(#p17625cb1f4)" d="M 156.844688 356.54121 
L 156.844688 353.713239 
" style="fill:none;stroke:#676767;stroke-linecap:round;stroke-width:1.2;"/>
   </g>
   <g id="line2d_21">
    <path clip-path="url(#p17625cb1f4)" d="M 131.325488 433.836703 
L 182.363888 433.836703 
" style="fill:none;stroke:#676767;stroke-linecap:round;stroke-width:1.2;"/>
   </g>
   <g id="line2d_22">
    <path clip-path="url(#p17625cb1f4)" d="M 131.325488 353.713239 
L 182.363888 353.713239 
" style="fill:none;stroke:#676767;stroke-linecap:round;stroke-width:1.2;"/>
   </g>
   <g id="line2d_23"/>
   <g id="line2d_24">
    <path clip-path="url(#p17625cb1f4)" d="M 261.004687 430.637438 
L 261.004687 462.49557 
" style="fill:none;stroke:#676767;stroke-linecap:round;stroke-width:1.2;"/>
   </g>
   <g id="line2d_25">
    <path clip-path="url(#p17625cb1f4)" d="M 261.004687 314.712455 
L 261.004687 309.469036 
" style="fill:none;stroke:#676767;stroke-linecap:round;stroke-width:1.2;"/>
   </g>
   <g id="line2d_26">
    <path clip-path="url(#p17625cb1f4)" d="M 235.485488 462.49557 
L 286.523888 462.49557 
" style="fill:none;stroke:#676767;stroke-linecap:round;stroke-width:1.2;"/>
   </g>
   <g id="line2d_27">
    <path clip-path="url(#p17625cb1f4)" d="M 235.485488 309.469036 
L 286.523888 309.469036 
" style="fill:none;stroke:#676767;stroke-linecap:round;stroke-width:1.2;"/>
   </g>
   <g id="line2d_28"/>
   <g id="line2d_29">
    <path clip-path="url(#p17625cb1f4)" d="M 417.244687 590.794186 
L 417.244687 598.963508 
" style="fill:none;stroke:#676767;stroke-linecap:round;stroke-width:1.2;"/>
   </g>
   <g id="line2d_30">
    <path clip-path="url(#p17625cb1f4)" d="M 417.244687 533.800186 
L 417.244687 533.800186 
" style="fill:none;stroke:#676767;stroke-linecap:round;stroke-width:1.2;"/>
   </g>
   <g id="line2d_31">
    <path clip-path="url(#p17625cb1f4)" d="M 391.725487 598.963508 
L 442.763888 598.963508 
" style="fill:none;stroke:#676767;stroke-linecap:round;stroke-width:1.2;"/>
   </g>
   <g id="line2d_32">
    <path clip-path="url(#p17625cb1f4)" d="M 391.725487 533.800186 
L 442.763888 533.800186 
" style="fill:none;stroke:#676767;stroke-linecap:round;stroke-width:1.2;"/>
   </g>
   <g id="line2d_33">
    <defs>
     <path d="M -0 3.535534 
L 2.12132 0 
L -0 -3.535534 
L -2.12132 -0 
z
" id="m287cf755c2" style="stroke:#676767;stroke-linejoin:miter;"/>
    </defs>
    <g clip-path="url(#p17625cb1f4)">
     <use style="fill:#676767;stroke:#676767;stroke-linejoin:miter;" x="417.244687" xlink:href="#m287cf755c2" y="438.360877"/>
    </g>
   </g>
   <g id="line2d_34">
    <path clip-path="url(#p17625cb1f4)" d="M 521.404687 430.043171 
L 521.404687 491.210315 
" style="fill:none;stroke:#676767;stroke-linecap:round;stroke-width:1.2;"/>
   </g>
   <g id="line2d_35">
    <path clip-path="url(#p17625cb1f4)" d="M 521.404687 335.510925 
L 521.404687 300.907763 
" style="fill:none;stroke:#676767;stroke-linecap:round;stroke-width:1.2;"/>
   </g>
   <g id="line2d_36">
    <path clip-path="url(#p17625cb1f4)" d="M 495.885487 491.210315 
L 546.923887 491.210315 
" style="fill:none;stroke:#676767;stroke-linecap:round;stroke-width:1.2;"/>
   </g>
   <g id="line2d_37">
    <path clip-path="url(#p17625cb1f4)" d="M 495.885487 300.907763 
L 546.923887 300.907763 
" style="fill:none;stroke:#676767;stroke-linecap:round;stroke-width:1.2;"/>
   </g>
   <g id="line2d_38"/>
   <g id="line2d_39">
    <path clip-path="url(#p17625cb1f4)" d="M 677.644687 612.18624 
L 677.644687 639.636279 
" style="fill:none;stroke:#676767;stroke-linecap:round;stroke-width:1.2;"/>
   </g>
   <g id="line2d_40">
    <path clip-path="url(#p17625cb1f4)" d="M 677.644687 587.259895 
L 677.644687 584.138883 
" style="fill:none;stroke:#676767;stroke-linecap:round;stroke-width:1.2;"/>
   </g>
   <g id="line2d_41">
    <path clip-path="url(#p17625cb1f4)" d="M 652.125487 639.636279 
L 703.163887 639.636279 
" style="fill:none;stroke:#676767;stroke-linecap:round;stroke-width:1.2;"/>
   </g>
   <g id="line2d_42">
    <path clip-path="url(#p17625cb1f4)" d="M 652.125487 584.138883 
L 703.163887 584.138883 
" style="fill:none;stroke:#676767;stroke-linecap:round;stroke-width:1.2;"/>
   </g>
   <g id="line2d_43"/>
   <g id="line2d_44">
    <path clip-path="url(#p17625cb1f4)" d="M 781.804688 398.604987 
L 781.804688 439.16953 
" style="fill:none;stroke:#676767;stroke-linecap:round;stroke-width:1.2;"/>
   </g>
   <g id="line2d_45">
    <path clip-path="url(#p17625cb1f4)" d="M 781.804688 356.179958 
L 781.804688 320.419795 
" style="fill:none;stroke:#676767;stroke-linecap:round;stroke-width:1.2;"/>
   </g>
   <g id="line2d_46">
    <path clip-path="url(#p17625cb1f4)" d="M 756.285488 439.16953 
L 807.323887 439.16953 
" style="fill:none;stroke:#676767;stroke-linecap:round;stroke-width:1.2;"/>
   </g>
   <g id="line2d_47">
    <path clip-path="url(#p17625cb1f4)" d="M 756.285488 320.419795 
L 807.323887 320.419795 
" style="fill:none;stroke:#676767;stroke-linecap:round;stroke-width:1.2;"/>
   </g>
   <g id="line2d_48"/>
   <g id="line2d_49">
    <path d="M 78.724688 170.35843 
L 94.348688 159.684102 
" style="fill:none;stroke:#1a1a1a;stroke-linecap:round;stroke-width:1.2;"/>
   </g>
   <g id="line2d_50">
    <path clip-path="url(#p17625cb1f4)" d="M 105.806288 371.329833 
L 207.883088 371.329833 
" style="fill:none;stroke:#676767;stroke-linecap:round;stroke-width:1.2;"/>
   </g>
   <g id="line2d_51">
    <path clip-path="url(#p17625cb1f4)" d="M 209.966287 424.908485 
L 312.043088 424.908485 
" style="fill:none;stroke:#676767;stroke-linecap:round;stroke-width:1.2;"/>
   </g>
   <g id="line2d_52">
    <path clip-path="url(#p17625cb1f4)" d="M 366.206288 545.244799 
L 468.283087 545.244799 
" style="fill:none;stroke:#676767;stroke-linecap:round;stroke-width:1.2;"/>
   </g>
   <g id="line2d_53">
    <path clip-path="url(#p17625cb1f4)" d="M 470.366287 415.693804 
L 572.443087 415.693804 
" style="fill:none;stroke:#676767;stroke-linecap:round;stroke-width:1.2;"/>
   </g>
   <g id="line2d_54">
    <path clip-path="url(#p17625cb1f4)" d="M 626.606288 600.826189 
L 728.683087 600.826189 
" style="fill:none;stroke:#676767;stroke-linecap:round;stroke-width:1.2;"/>
   </g>
   <g id="line2d_55">
    <path clip-path="url(#p17625cb1f4)" d="M 730.766287 385.767054 
L 832.843088 385.767054 
" style="fill:none;stroke:#676767;stroke-linecap:round;stroke-width:1.2;"/>
   </g>
   <g id="patch_16">
    <path d="M 78.724688 644.476466 
L 78.724688 170.06192 
" style="fill:none;stroke:#262626;stroke-linecap:square;stroke-linejoin:miter;"/>
   </g>
   <g id="patch_17">
    <path d="M 208.924688 680.057557 
L 729.724687 680.057557 
" style="fill:none;stroke:#262626;stroke-linecap:square;stroke-linejoin:miter;"/>
   </g>
   <g id="PathCollection_13">
    <g clip-path="url(#p17625cb1f4)">
     <use style="fill:#8da0cb;fill-opacity:0.8;stroke:#1a1a1a;stroke-opacity:0.8;stroke-width:0.5;" x="156.844688" xlink:href="#mff00e7bcb7" y="165.928047"/>
    </g>
   </g>
   <g id="PathCollection_14">
    <g clip-path="url(#p17625cb1f4)">
     <use style="fill:#fc8d62;fill-opacity:0.8;stroke:#1a1a1a;stroke-opacity:0.8;stroke-width:0.5;" x="261.004687" xlink:href="#mc88d0809fe" y="277.415667"/>
    </g>
   </g>
   <g id="PathCollection_15">
    <g clip-path="url(#p17625cb1f4)">
     <use style="fill:#8da0cb;fill-opacity:0.8;stroke:#1a1a1a;stroke-opacity:0.8;stroke-width:0.5;" x="417.244687" xlink:href="#mff00e7bcb7" y="391.419102"/>
    </g>
   </g>
   <g id="PathCollection_16">
    <g clip-path="url(#p17625cb1f4)">
     <use style="fill:#fc8d62;fill-opacity:0.8;stroke:#1a1a1a;stroke-opacity:0.8;stroke-width:0.5;" x="521.404687" xlink:href="#mc88d0809fe" y="237.641936"/>
    </g>
   </g>
   <g id="PathCollection_17">
    <g clip-path="url(#p17625cb1f4)">
     <use style="fill:#8da0cb;fill-opacity:0.8;stroke:#1a1a1a;stroke-opacity:0.8;stroke-width:0.5;" x="677.644687" xlink:href="#mff00e7bcb7" y="615.958823"/>
    </g>
   </g>
   <g id="PathCollection_18">
    <g clip-path="url(#p17625cb1f4)"/>
   </g>
   <g id="PathCollection_19">
    <path clip-path="url(#p17625cb1f4)" d="M 0 723.177244 
C 1.989023 723.177244 3.896849 722.386997 5.303301 720.980545 
C 6.709753 719.574093 7.5 717.666268 7.5 715.677244 
C 7.5 713.688221 6.709753 711.780395 5.303301 710.373943 
C 3.896849 708.967492 1.989023 708.177244 0 708.177244 
C -1.989023 708.177244 -3.896849 708.967492 -5.303301 710.373943 
C -6.709753 711.780395 -7.5 713.688221 -7.5 715.677244 
C -7.5 717.666268 -6.709753 719.574093 -5.303301 720.980545 
C -3.896849 722.386997 -1.989023 723.177244 0 723.177244 
z
" style="fill:none;stroke:#1a1a1a;stroke-opacity:0.8;stroke-width:0.5;"/>
   </g>
   <g id="PathCollection_20">
    <path clip-path="url(#p17625cb1f4)" d="M 0 723.177244 
C 1.989023 723.177244 3.896849 722.386997 5.303301 720.980545 
C 6.709753 719.574093 7.5 717.666268 7.5 715.677244 
C 7.5 713.688221 6.709753 711.780395 5.303301 710.373943 
C 3.896849 708.967492 1.989023 708.177244 0 708.177244 
C -1.989023 708.177244 -3.896849 708.967492 -5.303301 710.373943 
C -6.709753 711.780395 -7.5 713.688221 -7.5 715.677244 
C -7.5 717.666268 -6.709753 719.574093 -5.303301 720.980545 
C -3.896849 722.386997 -1.989023 723.177244 0 723.177244 
z
" style="fill:none;stroke:#1a1a1a;stroke-opacity:0.8;stroke-width:0.5;"/>
   </g>
   <g id="PathCollection_21">
    <defs>
     <path d="M 0 7.5 
C 1.989023 7.5 3.896849 6.709753 5.303301 5.303301 
C 6.709753 3.896849 7.5 1.989023 7.5 0 
C 7.5 -1.989023 6.709753 -3.896849 5.303301 -5.303301 
C 3.896849 -6.709753 1.989023 -7.5 0 -7.5 
C -1.989023 -7.5 -3.896849 -6.709753 -5.303301 -5.303301 
C -6.709753 -3.896849 -7.5 -1.989023 -7.5 0 
C -7.5 1.989023 -6.709753 3.896849 -5.303301 5.303301 
C -3.896849 6.709753 -1.989023 7.5 0 7.5 
z
" id="m620c0c2089" style="stroke:#1a1a1a;stroke-opacity:0.8;stroke-width:0.5;"/>
    </defs>
    <g clip-path="url(#p17625cb1f4)">
     <use style="fill:#8da0cb;fill-opacity:0.8;stroke:#1a1a1a;stroke-opacity:0.8;stroke-width:0.5;" x="417.244687" xlink:href="#m620c0c2089" y="671.09082"/>
    </g>
   </g>
   <g id="PathCollection_22">
    <defs>
     <path d="M 0 7.5 
C 1.989023 7.5 3.896849 6.709753 5.303301 5.303301 
C 6.709753 3.896849 7.5 1.989023 7.5 0 
C 7.5 -1.989023 6.709753 -3.896849 5.303301 -5.303301 
C 3.896849 -6.709753 1.989023 -7.5 0 -7.5 
C -1.989023 -7.5 -3.896849 -6.709753 -5.303301 -5.303301 
C -6.709753 -3.896849 -7.5 -1.989023 -7.5 0 
C -7.5 1.989023 -6.709753 3.896849 -5.303301 5.303301 
C -3.896849 6.709753 -1.989023 7.5 0 7.5 
z
" id="m2a367ff655" style="stroke:#1a1a1a;stroke-opacity:0.8;stroke-width:0.5;"/>
    </defs>
    <g clip-path="url(#p17625cb1f4)">
     <use style="fill:#fc8d62;fill-opacity:0.8;stroke:#1a1a1a;stroke-opacity:0.8;stroke-width:0.5;" x="521.404687" xlink:href="#m2a367ff655" y="603.887471"/>
    </g>
   </g>
   <g id="PathCollection_23">
    <path clip-path="url(#p17625cb1f4)" d="M 0 723.177244 
C 1.989023 723.177244 3.896849 722.386997 5.303301 720.980545 
C 6.709753 719.574093 7.5 717.666268 7.5 715.677244 
C 7.5 713.688221 6.709753 711.780395 5.303301 710.373943 
C 3.896849 708.967492 1.989023 708.177244 0 708.177244 
C -1.989023 708.177244 -3.896849 708.967492 -5.303301 710.373943 
C -6.709753 711.780395 -7.5 713.688221 -7.5 715.677244 
C -7.5 717.666268 -6.709753 719.574093 -5.303301 720.980545 
C -3.896849 722.386997 -1.989023 723.177244 0 723.177244 
z
" style="fill:none;stroke:#1a1a1a;stroke-opacity:0.8;stroke-width:0.5;"/>
   </g>
   <g id="PathCollection_24">
    <path clip-path="url(#p17625cb1f4)" d="M 0 723.177244 
C 1.989023 723.177244 3.896849 722.386997 5.303301 720.980545 
C 6.709753 719.574093 7.5 717.666268 7.5 715.677244 
C 7.5 713.688221 6.709753 711.780395 5.303301 710.373943 
C 3.896849 708.967492 1.989023 708.177244 0 708.177244 
C -1.989023 708.177244 -3.896849 708.967492 -5.303301 710.373943 
C -6.709753 711.780395 -7.5 713.688221 -7.5 715.677244 
C -7.5 717.666268 -6.709753 719.574093 -5.303301 720.980545 
C -3.896849 722.386997 -1.989023 723.177244 0 723.177244 
z
" style="fill:none;stroke:#1a1a1a;stroke-opacity:0.8;stroke-width:0.5;"/>
   </g>
  </g>
 </g>
 <defs>
  <clipPath id="p193f85c314">
   <rect height="59.301818" width="781.2" x="78.724688" y="27.737557"/>
  </clipPath>
  <clipPath id="p17625cb1f4">
   <rect height="533.716364" width="781.2" x="78.724688" y="146.341193"/>
  </clipPath>
 </defs>
</svg>
