<?xml version="1.0" encoding="utf-8" standalone="no"?>
<!DOCTYPE svg PUBLIC "-//W3C//DTD SVG 1.1//EN"
  "http://www.w3.org/Graphics/SVG/1.1/DTD/svg11.dtd">
<!-- Created with matplotlib (https://matplotlib.org/) -->
<svg height="324pt" version="1.1" viewBox="0 0 451.44 324" width="451.44pt" xmlns="http://www.w3.org/2000/svg" xmlns:xlink="http://www.w3.org/1999/xlink">
 <defs>
  <style type="text/css">
*{stroke-linecap:butt;stroke-linejoin:round;}
  </style>
 </defs>
 <g id="figure_1">
  <g id="patch_1">
   <path d="M 0 324 
L 451.44 324 
L 451.44 0 
L 0 0 
z
" style="fill:none;"/>
  </g>
  <g id="axes_1">
   <g id="patch_2">
    <path d="M 69.23 270.52 
L 433.8 270.52 
L 433.8 17.64 
L 69.23 17.64 
z
" style="fill:none;"/>
   </g>
   <g id="matplotlib.axis_1">
    <g id="xtick_1">
     <g id="line2d_1">
      <defs>
       <path d="M 0 0 
L 0 3.5 
" id="m59b8da6c06" style="stroke:#000000;stroke-width:0.8;"/>
      </defs>
      <g>
       <use style="stroke:#000000;stroke-width:0.8;" x="119.851659" xlink:href="#m59b8da6c06" y="270.52"/>
      </g>
     </g>
     <g id="text_1">
      <!-- 10 -->
      <defs>
       <path d="M 12.40625 8.296875 
L 28.515625 8.296875 
L 28.515625 63.921875 
L 10.984375 60.40625 
L 10.984375 69.390625 
L 28.421875 72.90625 
L 38.28125 72.90625 
L 38.28125 8.296875 
L 54.390625 8.296875 
L 54.390625 0 
L 12.40625 0 
z
" id="DejaVuSans-49"/>
       <path d="M 31.78125 66.40625 
Q 24.171875 66.40625 20.328125 58.90625 
Q 16.5 51.421875 16.5 36.375 
Q 16.5 21.390625 20.328125 13.890625 
Q 24.171875 6.390625 31.78125 6.390625 
Q 39.453125 6.390625 43.28125 13.890625 
Q 47.125 21.390625 47.125 36.375 
Q 47.125 51.421875 43.28125 58.90625 
Q 39.453125 66.40625 31.78125 66.40625 
z
M 31.78125 74.21875 
Q 44.046875 74.21875 50.515625 64.515625 
Q 56.984375 54.828125 56.984375 36.375 
Q 56.984375 17.96875 50.515625 8.265625 
Q 44.046875 -1.421875 31.78125 -1.421875 
Q 19.53125 -1.421875 13.0625 8.265625 
Q 6.59375 17.96875 6.59375 36.375 
Q 6.59375 54.828125 13.0625 64.515625 
Q 19.53125 74.21875 31.78125 74.21875 
z
" id="DejaVuSans-48"/>
      </defs>
      <g transform="translate(110.944159 288.157812)scale(0.14 -0.14)">
       <use xlink:href="#DejaVuSans-49"/>
       <use x="63.623047" xlink:href="#DejaVuSans-48"/>
      </g>
     </g>
    </g>
    <g id="xtick_2">
     <g id="line2d_2">
      <g>
       <use style="stroke:#000000;stroke-width:0.8;" x="187.473368" xlink:href="#m59b8da6c06" y="270.52"/>
      </g>
     </g>
     <g id="text_2">
      <!-- 15 -->
      <defs>
       <path d="M 10.796875 72.90625 
L 49.515625 72.90625 
L 49.515625 64.59375 
L 19.828125 64.59375 
L 19.828125 46.734375 
Q 21.96875 47.46875 24.109375 47.828125 
Q 26.265625 48.1875 28.421875 48.1875 
Q 40.625 48.1875 47.75 41.5 
Q 54.890625 34.8125 54.890625 23.390625 
Q 54.890625 11.625 47.5625 5.09375 
Q 40.234375 -1.421875 26.90625 -1.421875 
Q 22.3125 -1.421875 17.546875 -0.640625 
Q 12.796875 0.140625 7.71875 1.703125 
L 7.71875 11.625 
Q 12.109375 9.234375 16.796875 8.0625 
Q 21.484375 6.890625 26.703125 6.890625 
Q 35.15625 6.890625 40.078125 11.328125 
Q 45.015625 15.765625 45.015625 23.390625 
Q 45.015625 31 40.078125 35.4375 
Q 35.15625 39.890625 26.703125 39.890625 
Q 22.75 39.890625 18.8125 39.015625 
Q 14.890625 38.140625 10.796875 36.28125 
z
" id="DejaVuSans-53"/>
      </defs>
      <g transform="translate(178.565868 288.157812)scale(0.14 -0.14)">
       <use xlink:href="#DejaVuSans-49"/>
       <use x="63.623047" xlink:href="#DejaVuSans-53"/>
      </g>
     </g>
    </g>
    <g id="xtick_3">
     <g id="line2d_3">
      <g>
       <use style="stroke:#000000;stroke-width:0.8;" x="255.095076" xlink:href="#m59b8da6c06" y="270.52"/>
      </g>
     </g>
     <g id="text_3">
      <!-- 20 -->
      <defs>
       <path d="M 19.1875 8.296875 
L 53.609375 8.296875 
L 53.609375 0 
L 7.328125 0 
L 7.328125 8.296875 
Q 12.9375 14.109375 22.625 23.890625 
Q 32.328125 33.6875 34.8125 36.53125 
Q 39.546875 41.84375 41.421875 45.53125 
Q 43.3125 49.21875 43.3125 52.78125 
Q 43.3125 58.59375 39.234375 62.25 
Q 35.15625 65.921875 28.609375 65.921875 
Q 23.96875 65.921875 18.8125 64.3125 
Q 13.671875 62.703125 7.8125 59.421875 
L 7.8125 69.390625 
Q 13.765625 71.78125 18.9375 73 
Q 24.125 74.21875 28.421875 74.21875 
Q 39.75 74.21875 46.484375 68.546875 
Q 53.21875 62.890625 53.21875 53.421875 
Q 53.21875 48.921875 51.53125 44.890625 
Q 49.859375 40.875 45.40625 35.40625 
Q 44.1875 33.984375 37.640625 27.21875 
Q 31.109375 20.453125 19.1875 8.296875 
z
" id="DejaVuSans-50"/>
      </defs>
      <g transform="translate(246.187576 288.157812)scale(0.14 -0.14)">
       <use xlink:href="#DejaVuSans-50"/>
       <use x="63.623047" xlink:href="#DejaVuSans-48"/>
      </g>
     </g>
    </g>
    <g id="xtick_4">
     <g id="line2d_4">
      <g>
       <use style="stroke:#000000;stroke-width:0.8;" x="322.716785" xlink:href="#m59b8da6c06" y="270.52"/>
      </g>
     </g>
     <g id="text_4">
      <!-- 25 -->
      <g transform="translate(313.809285 288.157812)scale(0.14 -0.14)">
       <use xlink:href="#DejaVuSans-50"/>
       <use x="63.623047" xlink:href="#DejaVuSans-53"/>
      </g>
     </g>
    </g>
    <g id="xtick_5">
     <g id="line2d_5">
      <g>
       <use style="stroke:#000000;stroke-width:0.8;" x="390.338493" xlink:href="#m59b8da6c06" y="270.52"/>
      </g>
     </g>
     <g id="text_5">
      <!-- 30 -->
      <defs>
       <path d="M 40.578125 39.3125 
Q 47.65625 37.796875 51.625 33 
Q 55.609375 28.21875 55.609375 21.1875 
Q 55.609375 10.40625 48.1875 4.484375 
Q 40.765625 -1.421875 27.09375 -1.421875 
Q 22.515625 -1.421875 17.65625 -0.515625 
Q 12.796875 0.390625 7.625 2.203125 
L 7.625 11.71875 
Q 11.71875 9.328125 16.59375 8.109375 
Q 21.484375 6.890625 26.8125 6.890625 
Q 36.078125 6.890625 40.9375 10.546875 
Q 45.796875 14.203125 45.796875 21.1875 
Q 45.796875 27.640625 41.28125 31.265625 
Q 36.765625 34.90625 28.71875 34.90625 
L 20.21875 34.90625 
L 20.21875 43.015625 
L 29.109375 43.015625 
Q 36.375 43.015625 40.234375 45.921875 
Q 44.09375 48.828125 44.09375 54.296875 
Q 44.09375 59.90625 40.109375 62.90625 
Q 36.140625 65.921875 28.71875 65.921875 
Q 24.65625 65.921875 20.015625 65.03125 
Q 15.375 64.15625 9.8125 62.3125 
L 9.8125 71.09375 
Q 15.4375 72.65625 20.34375 73.4375 
Q 25.25 74.21875 29.59375 74.21875 
Q 40.828125 74.21875 47.359375 69.109375 
Q 53.90625 64.015625 53.90625 55.328125 
Q 53.90625 49.265625 50.4375 45.09375 
Q 46.96875 40.921875 40.578125 39.3125 
z
" id="DejaVuSans-51"/>
      </defs>
      <g transform="translate(381.430993 288.157812)scale(0.14 -0.14)">
       <use xlink:href="#DejaVuSans-51"/>
       <use x="63.623047" xlink:href="#DejaVuSans-48"/>
      </g>
     </g>
    </g>
    <g id="text_6">
     <!-- Time [s] -->
     <defs>
      <path d="M -0.296875 72.90625 
L 61.375 72.90625 
L 61.375 64.59375 
L 35.5 64.59375 
L 35.5 0 
L 25.59375 0 
L 25.59375 64.59375 
L -0.296875 64.59375 
z
" id="DejaVuSans-84"/>
      <path d="M 9.421875 54.6875 
L 18.40625 54.6875 
L 18.40625 0 
L 9.421875 0 
z
M 9.421875 75.984375 
L 18.40625 75.984375 
L 18.40625 64.59375 
L 9.421875 64.59375 
z
" id="DejaVuSans-105"/>
      <path d="M 52 44.1875 
Q 55.375 50.25 60.0625 53.125 
Q 64.75 56 71.09375 56 
Q 79.640625 56 84.28125 50.015625 
Q 88.921875 44.046875 88.921875 33.015625 
L 88.921875 0 
L 79.890625 0 
L 79.890625 32.71875 
Q 79.890625 40.578125 77.09375 44.375 
Q 74.3125 48.1875 68.609375 48.1875 
Q 61.625 48.1875 57.5625 43.546875 
Q 53.515625 38.921875 53.515625 30.90625 
L 53.515625 0 
L 44.484375 0 
L 44.484375 32.71875 
Q 44.484375 40.625 41.703125 44.40625 
Q 38.921875 48.1875 33.109375 48.1875 
Q 26.21875 48.1875 22.15625 43.53125 
Q 18.109375 38.875 18.109375 30.90625 
L 18.109375 0 
L 9.078125 0 
L 9.078125 54.6875 
L 18.109375 54.6875 
L 18.109375 46.1875 
Q 21.1875 51.21875 25.484375 53.609375 
Q 29.78125 56 35.6875 56 
Q 41.65625 56 45.828125 52.96875 
Q 50 49.953125 52 44.1875 
z
" id="DejaVuSans-109"/>
      <path d="M 56.203125 29.59375 
L 56.203125 25.203125 
L 14.890625 25.203125 
Q 15.484375 15.921875 20.484375 11.0625 
Q 25.484375 6.203125 34.421875 6.203125 
Q 39.59375 6.203125 44.453125 7.46875 
Q 49.3125 8.734375 54.109375 11.28125 
L 54.109375 2.78125 
Q 49.265625 0.734375 44.1875 -0.34375 
Q 39.109375 -1.421875 33.890625 -1.421875 
Q 20.796875 -1.421875 13.15625 6.1875 
Q 5.515625 13.8125 5.515625 26.8125 
Q 5.515625 40.234375 12.765625 48.109375 
Q 20.015625 56 32.328125 56 
Q 43.359375 56 49.78125 48.890625 
Q 56.203125 41.796875 56.203125 29.59375 
z
M 47.21875 32.234375 
Q 47.125 39.59375 43.09375 43.984375 
Q 39.0625 48.390625 32.421875 48.390625 
Q 24.90625 48.390625 20.390625 44.140625 
Q 15.875 39.890625 15.1875 32.171875 
z
" id="DejaVuSans-101"/>
      <path id="DejaVuSans-32"/>
      <path d="M 8.59375 75.984375 
L 29.296875 75.984375 
L 29.296875 69 
L 17.578125 69 
L 17.578125 -6.203125 
L 29.296875 -6.203125 
L 29.296875 -13.1875 
L 8.59375 -13.1875 
z
" id="DejaVuSans-91"/>
      <path d="M 44.28125 53.078125 
L 44.28125 44.578125 
Q 40.484375 46.53125 36.375 47.5 
Q 32.28125 48.484375 27.875 48.484375 
Q 21.1875 48.484375 17.84375 46.4375 
Q 14.5 44.390625 14.5 40.28125 
Q 14.5 37.15625 16.890625 35.375 
Q 19.28125 33.59375 26.515625 31.984375 
L 29.59375 31.296875 
Q 39.15625 29.25 43.1875 25.515625 
Q 47.21875 21.78125 47.21875 15.09375 
Q 47.21875 7.46875 41.1875 3.015625 
Q 35.15625 -1.421875 24.609375 -1.421875 
Q 20.21875 -1.421875 15.453125 -0.5625 
Q 10.6875 0.296875 5.421875 2 
L 5.421875 11.28125 
Q 10.40625 8.6875 15.234375 7.390625 
Q 20.0625 6.109375 24.8125 6.109375 
Q 31.15625 6.109375 34.5625 8.28125 
Q 37.984375 10.453125 37.984375 14.40625 
Q 37.984375 18.0625 35.515625 20.015625 
Q 33.0625 21.96875 24.703125 23.78125 
L 21.578125 24.515625 
Q 13.234375 26.265625 9.515625 29.90625 
Q 5.8125 33.546875 5.8125 39.890625 
Q 5.8125 47.609375 11.28125 51.796875 
Q 16.75 56 26.8125 56 
Q 31.78125 56 36.171875 55.265625 
Q 40.578125 54.546875 44.28125 53.078125 
z
" id="DejaVuSans-115"/>
      <path d="M 30.421875 75.984375 
L 30.421875 -13.1875 
L 9.71875 -13.1875 
L 9.71875 -6.203125 
L 21.390625 -6.203125 
L 21.390625 69 
L 9.71875 69 
L 9.71875 75.984375 
z
" id="DejaVuSans-93"/>
     </defs>
     <g transform="translate(222.839062 305.707188)scale(0.14 -0.14)">
      <use xlink:href="#DejaVuSans-84"/>
      <use x="61.037109" xlink:href="#DejaVuSans-105"/>
      <use x="88.820312" xlink:href="#DejaVuSans-109"/>
      <use x="186.232422" xlink:href="#DejaVuSans-101"/>
      <use x="247.755859" xlink:href="#DejaVuSans-32"/>
      <use x="279.542969" xlink:href="#DejaVuSans-91"/>
      <use x="318.556641" xlink:href="#DejaVuSans-115"/>
      <use x="370.65625" xlink:href="#DejaVuSans-93"/>
     </g>
    </g>
   </g>
   <g id="patch_3">
    <path d="M 69.23 270.52 
L 69.23 17.64 
" style="fill:none;stroke:#000000;stroke-linecap:square;stroke-linejoin:miter;stroke-width:0.8;"/>
   </g>
   <g id="patch_4">
    <path d="M 433.8 270.52 
L 433.8 17.64 
" style="fill:none;stroke:#000000;stroke-linecap:square;stroke-linejoin:miter;stroke-width:0.8;"/>
   </g>
   <g id="patch_5">
    <path d="M 69.23 270.52 
L 433.8 270.52 
" style="fill:none;stroke:#000000;stroke-linecap:square;stroke-linejoin:miter;stroke-width:0.8;"/>
   </g>
   <g id="patch_6">
    <path d="M 69.23 17.64 
L 433.8 17.64 
" style="fill:none;stroke:#000000;stroke-linecap:square;stroke-linejoin:miter;stroke-width:0.8;"/>
   </g>
  </g>
  <g id="axes_2">
   <g id="matplotlib.axis_2">
    <g id="ytick_1">
     <g id="line2d_6">
      <defs>
       <path d="M 0 0 
L -3.5 0 
" id="ma30f00836d" style="stroke:#000000;stroke-width:0.8;"/>
      </defs>
      <g>
       <use style="stroke:#000000;stroke-width:0.8;" x="69.23" xlink:href="#ma30f00836d" y="251.043777"/>
      </g>
     </g>
     <g id="text_7">
      <!-- −40 -->
      <defs>
       <path d="M 10.59375 35.5 
L 73.1875 35.5 
L 73.1875 27.203125 
L 10.59375 27.203125 
z
" id="DejaVuSans-8722"/>
       <path d="M 37.796875 64.3125 
L 12.890625 25.390625 
L 37.796875 25.390625 
z
M 35.203125 72.90625 
L 47.609375 72.90625 
L 47.609375 25.390625 
L 58.015625 25.390625 
L 58.015625 17.1875 
L 47.609375 17.1875 
L 47.609375 0 
L 37.796875 0 
L 37.796875 17.1875 
L 4.890625 17.1875 
L 4.890625 26.703125 
z
" id="DejaVuSans-52"/>
      </defs>
      <g transform="translate(32.683437 256.362683)scale(0.14 -0.14)">
       <use xlink:href="#DejaVuSans-8722"/>
       <use x="83.789062" xlink:href="#DejaVuSans-52"/>
       <use x="147.412109" xlink:href="#DejaVuSans-48"/>
      </g>
     </g>
    </g>
    <g id="ytick_2">
     <g id="line2d_7">
      <g>
       <use style="stroke:#000000;stroke-width:0.8;" x="69.23" xlink:href="#ma30f00836d" y="206.768658"/>
      </g>
     </g>
     <g id="text_8">
      <!-- −30 -->
      <g transform="translate(32.683437 212.087564)scale(0.14 -0.14)">
       <use xlink:href="#DejaVuSans-8722"/>
       <use x="83.789062" xlink:href="#DejaVuSans-51"/>
       <use x="147.412109" xlink:href="#DejaVuSans-48"/>
      </g>
     </g>
    </g>
    <g id="ytick_3">
     <g id="line2d_8">
      <g>
       <use style="stroke:#000000;stroke-width:0.8;" x="69.23" xlink:href="#ma30f00836d" y="162.49354"/>
      </g>
     </g>
     <g id="text_9">
      <!-- −20 -->
      <g transform="translate(32.683437 167.812446)scale(0.14 -0.14)">
       <use xlink:href="#DejaVuSans-8722"/>
       <use x="83.789062" xlink:href="#DejaVuSans-50"/>
       <use x="147.412109" xlink:href="#DejaVuSans-48"/>
      </g>
     </g>
    </g>
    <g id="ytick_4">
     <g id="line2d_9">
      <g>
       <use style="stroke:#000000;stroke-width:0.8;" x="69.23" xlink:href="#ma30f00836d" y="118.218421"/>
      </g>
     </g>
     <g id="text_10">
      <!-- −10 -->
      <g transform="translate(32.683437 123.537327)scale(0.14 -0.14)">
       <use xlink:href="#DejaVuSans-8722"/>
       <use x="83.789062" xlink:href="#DejaVuSans-49"/>
       <use x="147.412109" xlink:href="#DejaVuSans-48"/>
      </g>
     </g>
    </g>
    <g id="ytick_5">
     <g id="line2d_10">
      <g>
       <use style="stroke:#000000;stroke-width:0.8;" x="69.23" xlink:href="#ma30f00836d" y="73.943303"/>
      </g>
     </g>
     <g id="text_11">
      <!-- 0 -->
      <g transform="translate(53.3225 79.262209)scale(0.14 -0.14)">
       <use xlink:href="#DejaVuSans-48"/>
      </g>
     </g>
    </g>
    <g id="ytick_6">
     <g id="line2d_11">
      <g>
       <use style="stroke:#000000;stroke-width:0.8;" x="69.23" xlink:href="#ma30f00836d" y="29.668184"/>
      </g>
     </g>
     <g id="text_12">
      <!-- 10 -->
      <g transform="translate(44.415 34.98709)scale(0.14 -0.14)">
       <use xlink:href="#DejaVuSans-49"/>
       <use x="63.623047" xlink:href="#DejaVuSans-48"/>
      </g>
     </g>
    </g>
    <g id="text_13">
     <!-- Vertical force [μN] -->
     <defs>
      <path d="M 28.609375 0 
L 0.78125 72.90625 
L 11.078125 72.90625 
L 34.1875 11.53125 
L 57.328125 72.90625 
L 67.578125 72.90625 
L 39.796875 0 
z
" id="DejaVuSans-86"/>
      <path d="M 41.109375 46.296875 
Q 39.59375 47.171875 37.8125 47.578125 
Q 36.03125 48 33.890625 48 
Q 26.265625 48 22.1875 43.046875 
Q 18.109375 38.09375 18.109375 28.8125 
L 18.109375 0 
L 9.078125 0 
L 9.078125 54.6875 
L 18.109375 54.6875 
L 18.109375 46.1875 
Q 20.953125 51.171875 25.484375 53.578125 
Q 30.03125 56 36.53125 56 
Q 37.453125 56 38.578125 55.875 
Q 39.703125 55.765625 41.0625 55.515625 
z
" id="DejaVuSans-114"/>
      <path d="M 18.3125 70.21875 
L 18.3125 54.6875 
L 36.8125 54.6875 
L 36.8125 47.703125 
L 18.3125 47.703125 
L 18.3125 18.015625 
Q 18.3125 11.328125 20.140625 9.421875 
Q 21.96875 7.515625 27.59375 7.515625 
L 36.8125 7.515625 
L 36.8125 0 
L 27.59375 0 
Q 17.1875 0 13.234375 3.875 
Q 9.28125 7.765625 9.28125 18.015625 
L 9.28125 47.703125 
L 2.6875 47.703125 
L 2.6875 54.6875 
L 9.28125 54.6875 
L 9.28125 70.21875 
z
" id="DejaVuSans-116"/>
      <path d="M 48.78125 52.59375 
L 48.78125 44.1875 
Q 44.96875 46.296875 41.140625 47.34375 
Q 37.3125 48.390625 33.40625 48.390625 
Q 24.65625 48.390625 19.8125 42.84375 
Q 14.984375 37.3125 14.984375 27.296875 
Q 14.984375 17.28125 19.8125 11.734375 
Q 24.65625 6.203125 33.40625 6.203125 
Q 37.3125 6.203125 41.140625 7.25 
Q 44.96875 8.296875 48.78125 10.40625 
L 48.78125 2.09375 
Q 45.015625 0.34375 40.984375 -0.53125 
Q 36.96875 -1.421875 32.421875 -1.421875 
Q 20.0625 -1.421875 12.78125 6.34375 
Q 5.515625 14.109375 5.515625 27.296875 
Q 5.515625 40.671875 12.859375 48.328125 
Q 20.21875 56 33.015625 56 
Q 37.15625 56 41.109375 55.140625 
Q 45.0625 54.296875 48.78125 52.59375 
z
" id="DejaVuSans-99"/>
      <path d="M 34.28125 27.484375 
Q 23.390625 27.484375 19.1875 25 
Q 14.984375 22.515625 14.984375 16.5 
Q 14.984375 11.71875 18.140625 8.90625 
Q 21.296875 6.109375 26.703125 6.109375 
Q 34.1875 6.109375 38.703125 11.40625 
Q 43.21875 16.703125 43.21875 25.484375 
L 43.21875 27.484375 
z
M 52.203125 31.203125 
L 52.203125 0 
L 43.21875 0 
L 43.21875 8.296875 
Q 40.140625 3.328125 35.546875 0.953125 
Q 30.953125 -1.421875 24.3125 -1.421875 
Q 15.921875 -1.421875 10.953125 3.296875 
Q 6 8.015625 6 15.921875 
Q 6 25.140625 12.171875 29.828125 
Q 18.359375 34.515625 30.609375 34.515625 
L 43.21875 34.515625 
L 43.21875 35.40625 
Q 43.21875 41.609375 39.140625 45 
Q 35.0625 48.390625 27.6875 48.390625 
Q 23 48.390625 18.546875 47.265625 
Q 14.109375 46.140625 10.015625 43.890625 
L 10.015625 52.203125 
Q 14.9375 54.109375 19.578125 55.046875 
Q 24.21875 56 28.609375 56 
Q 40.484375 56 46.34375 49.84375 
Q 52.203125 43.703125 52.203125 31.203125 
z
" id="DejaVuSans-97"/>
      <path d="M 9.421875 75.984375 
L 18.40625 75.984375 
L 18.40625 0 
L 9.421875 0 
z
" id="DejaVuSans-108"/>
      <path d="M 37.109375 75.984375 
L 37.109375 68.5 
L 28.515625 68.5 
Q 23.6875 68.5 21.796875 66.546875 
Q 19.921875 64.59375 19.921875 59.515625 
L 19.921875 54.6875 
L 34.71875 54.6875 
L 34.71875 47.703125 
L 19.921875 47.703125 
L 19.921875 0 
L 10.890625 0 
L 10.890625 47.703125 
L 2.296875 47.703125 
L 2.296875 54.6875 
L 10.890625 54.6875 
L 10.890625 58.5 
Q 10.890625 67.625 15.140625 71.796875 
Q 19.390625 75.984375 28.609375 75.984375 
z
" id="DejaVuSans-102"/>
      <path d="M 30.609375 48.390625 
Q 23.390625 48.390625 19.1875 42.75 
Q 14.984375 37.109375 14.984375 27.296875 
Q 14.984375 17.484375 19.15625 11.84375 
Q 23.34375 6.203125 30.609375 6.203125 
Q 37.796875 6.203125 41.984375 11.859375 
Q 46.1875 17.53125 46.1875 27.296875 
Q 46.1875 37.015625 41.984375 42.703125 
Q 37.796875 48.390625 30.609375 48.390625 
z
M 30.609375 56 
Q 42.328125 56 49.015625 48.375 
Q 55.71875 40.765625 55.71875 27.296875 
Q 55.71875 13.875 49.015625 6.21875 
Q 42.328125 -1.421875 30.609375 -1.421875 
Q 18.84375 -1.421875 12.171875 6.21875 
Q 5.515625 13.875 5.515625 27.296875 
Q 5.515625 40.765625 12.171875 48.375 
Q 18.84375 56 30.609375 56 
z
" id="DejaVuSans-111"/>
      <path d="M 8.5 -20.796875 
L 8.5 54.6875 
L 17.484375 54.6875 
L 17.484375 20.703125 
Q 17.484375 13.625 20.84375 10 
Q 24.21875 6.390625 30.8125 6.390625 
Q 38.03125 6.390625 41.671875 10.484375 
Q 45.3125 14.59375 45.3125 22.796875 
L 45.3125 54.6875 
L 54.296875 54.6875 
L 54.296875 12.59375 
Q 54.296875 9.671875 55.140625 8.28125 
Q 56 6.890625 57.8125 6.890625 
Q 58.25 6.890625 59.03125 7.15625 
Q 59.8125 7.421875 61.1875 8.015625 
L 61.1875 0.78125 
Q 59.1875 -0.34375 57.390625 -0.875 
Q 55.609375 -1.421875 53.90625 -1.421875 
Q 50.53125 -1.421875 48.53125 0.484375 
Q 46.53125 2.390625 45.796875 6.296875 
Q 43.359375 2.4375 39.8125 0.5 
Q 36.28125 -1.421875 31.5 -1.421875 
Q 26.515625 -1.421875 23.015625 0.484375 
Q 19.53125 2.390625 17.484375 6.203125 
L 17.484375 -20.796875 
z
" id="DejaVuSans-956"/>
      <path d="M 9.8125 72.90625 
L 23.09375 72.90625 
L 55.421875 11.921875 
L 55.421875 72.90625 
L 64.984375 72.90625 
L 64.984375 0 
L 51.703125 0 
L 19.390625 60.984375 
L 19.390625 0 
L 9.8125 0 
z
" id="DejaVuSans-78"/>
     </defs>
     <g style="fill:#ff0000;" transform="translate(25.771875 208.198906)rotate(-90)scale(0.14 -0.14)">
      <use xlink:href="#DejaVuSans-86"/>
      <use x="68.298828" xlink:href="#DejaVuSans-101"/>
      <use x="129.822266" xlink:href="#DejaVuSans-114"/>
      <use x="170.935547" xlink:href="#DejaVuSans-116"/>
      <use x="210.144531" xlink:href="#DejaVuSans-105"/>
      <use x="237.927734" xlink:href="#DejaVuSans-99"/>
      <use x="292.908203" xlink:href="#DejaVuSans-97"/>
      <use x="354.1875" xlink:href="#DejaVuSans-108"/>
      <use x="381.970703" xlink:href="#DejaVuSans-32"/>
      <use x="413.757812" xlink:href="#DejaVuSans-102"/>
      <use x="448.962891" xlink:href="#DejaVuSans-111"/>
      <use x="510.144531" xlink:href="#DejaVuSans-114"/>
      <use x="551.226562" xlink:href="#DejaVuSans-99"/>
      <use x="606.207031" xlink:href="#DejaVuSans-101"/>
      <use x="667.730469" xlink:href="#DejaVuSans-32"/>
      <use x="699.517578" xlink:href="#DejaVuSans-91"/>
      <use x="738.53125" xlink:href="#DejaVuSans-956"/>
      <use x="802.154297" xlink:href="#DejaVuSans-78"/>
      <use x="876.958984" xlink:href="#DejaVuSans-93"/>
     </g>
    </g>
   </g>
   <g id="line2d_12">
    <path clip-path="url(#p61267e8d86)" d="M 85.801364 73.943303 
L 86.224103 79.33282 
L 86.646841 73.633186 
L 87.06958 72.921961 
L 87.492319 78.701721 
L 87.915058 78.361203 
L 88.337797 71.001217 
L 88.760536 74.535836 
L 89.183275 71.341505 
L 89.606013 78.160492 
L 90.87423 73.285038 
L 91.296969 73.375348 
L 91.719708 71.213234 
L 92.142447 77.318691 
L 92.565185 73.085249 
L 93.41067 76.037068 
L 93.833408 75.296705 
L 94.256147 77.788268 
L 94.678886 70.744086 
L 95.101625 70.854412 
L 95.524364 73.345215 
L 95.947103 74.845188 
L 96.369842 73.814839 
L 96.79258 73.824736 
L 97.215319 76.704501 
L 97.638058 71.724496 
L 98.060797 77.424381 
L 98.483536 72.154196 
L 98.906275 72.893949 
L 99.329014 74.673623 
L 99.751753 79.031038 
L 100.59723 69.504181 
L 101.019969 69.194208 
L 101.442708 72.742397 
L 101.865447 70.303392 
L 102.288186 74.260286 
L 102.710925 72.200995 
L 103.133663 73.979463 
L 103.556402 73.698624 
L 103.979141 76.817075 
L 104.40188 73.747794 
L 104.824619 77.303752 
L 105.247358 78.731966 
L 106.092835 71.698872 
L 106.515574 78.858434 
L 106.938313 72.117429 
L 107.361052 75.051428 
L 107.783791 73.992912 
L 108.20653 74.692091 
L 108.629269 73.682434 
L 109.052007 75.508214 
L 109.474746 78.052005 
L 109.897485 76.343272 
L 110.320224 75.294882 
L 110.742963 77.04224 
L 111.165702 77.430469 
L 111.588441 78.196981 
L 112.011179 75.751001 
L 112.433918 77.187336 
L 112.856657 75.071583 
L 113.279396 71.95657 
L 113.702135 73.683779 
L 114.124874 77.235604 
L 114.547613 74.518205 
L 114.970351 77.030838 
L 115.39309 75.26507 
L 115.815829 74.576174 
L 116.238568 77.787057 
L 116.661307 76.428505 
L 117.084046 71.491256 
L 117.506785 80.829362 
L 117.929523 74.391017 
L 118.352262 75.486622 
L 118.775001 73.769782 
L 119.19774 75.893363 
L 119.620479 74.487277 
L 120.043218 73.885209 
L 120.465957 71.470844 
L 120.888696 71.790975 
L 121.311434 76.491176 
L 121.734173 67.244368 
L 122.156912 75.549165 
L 122.579651 80.444175 
L 123.00239 75.247916 
L 123.425129 80.585839 
L 123.847868 77.785152 
L 124.270606 72.882159 
L 124.693345 78.935745 
L 125.116084 79.331754 
L 125.961562 83.318786 
L 126.384301 81.20731 
L 126.80704 77.653771 
L 127.229778 75.957282 
L 127.652517 79.519807 
L 128.075256 76.30598 
L 128.497995 74.25166 
L 128.920734 74.666501 
L 129.343473 75.750195 
L 129.766212 81.450274 
L 130.18895 70.860313 
L 130.611689 72.245161 
L 131.457167 78.340716 
L 131.879906 72.716756 
L 132.302645 72.349284 
L 132.725384 65.050266 
L 133.148122 71.332167 
L 133.570861 71.049902 
L 133.9936 72.877134 
L 134.416339 79.656737 
L 134.839078 74.025798 
L 135.261817 76.548812 
L 135.684556 72.744921 
L 136.107294 71.003354 
L 136.530033 75.257974 
L 136.952772 67.454329 
L 137.375511 64.763181 
L 137.79825 64.649193 
L 138.220989 63.962247 
L 138.643728 62.240188 
L 139.066466 65.082951 
L 139.489205 61.5915 
L 139.911944 65.582633 
L 140.334683 65.158794 
L 141.180161 59.035638 
L 141.6029 59.741159 
L 142.025639 64.36975 
L 142.448377 64.021743 
L 142.871116 61.642459 
L 143.293855 62.395124 
L 143.716594 66.956189 
L 144.139333 65.244506 
L 144.984811 71.383036 
L 145.407549 65.742367 
L 145.830288 66.475482 
L 146.253027 69.754854 
L 146.675766 144.254233 
L 147.098505 148.19033 
L 147.521244 174.528488 
L 147.943983 147.4518 
L 148.366721 178.642885 
L 148.78946 147.865802 
L 149.212199 185.979787 
L 149.634938 150.713711 
L 150.057677 188.790408 
L 150.480416 152.871494 
L 150.903155 192.761119 
L 151.325893 157.399679 
L 151.748632 188.211467 
L 152.171371 163.125385 
L 152.59411 180.610121 
L 153.016849 163.046812 
L 153.439588 176.040429 
L 153.862327 164.172278 
L 154.285065 175.798388 
L 154.707804 169.446246 
L 155.130543 170.206174 
L 155.553282 171.602171 
L 155.976021 166.453013 
L 156.39876 181.838984 
L 156.821499 170.716935 
L 157.244237 180.821882 
L 157.666976 166.840658 
L 158.089715 177.688234 
L 158.512454 173.538805 
L 158.935193 183.726782 
L 159.357932 175.071413 
L 159.780671 184.499422 
L 160.203409 178.635409 
L 160.626148 189.598951 
L 161.048887 181.902074 
L 161.471626 184.722268 
L 161.894365 183.015361 
L 162.317104 181.94676 
L 162.739843 186.918411 
L 163.162582 177.368104 
L 163.58532 184.143079 
L 164.008059 185.953064 
L 164.430798 187.006495 
L 164.853537 182.154564 
L 165.276276 182.451373 
L 165.699015 182.191545 
L 166.121753 183.244742 
L 166.544492 177.978844 
L 166.967231 186.506872 
L 167.38997 177.356337 
L 167.812709 181.968499 
L 168.235448 182.32436 
L 169.080926 184.481452 
L 169.503664 184.147625 
L 169.926403 179.625189 
L 170.349142 184.910361 
L 171.19462 182.16697 
L 171.617359 182.856421 
L 172.040098 183.901607 
L 172.462836 183.626262 
L 172.885575 180.150303 
L 173.308314 178.727716 
L 173.731053 184.794847 
L 174.153792 183.757306 
L 174.576531 184.802148 
L 174.99927 179.563909 
L 175.422008 178.541294 
L 175.844747 178.911465 
L 176.267486 190.227279 
L 176.690225 182.139887 
L 177.112964 183.169846 
L 177.535703 182.473494 
L 177.958442 180.413728 
L 178.38118 184.656509 
L 178.803919 185.323951 
L 179.649397 179.420505 
L 180.072136 180.892711 
L 180.494875 179.82682 
L 180.917614 179.544282 
L 181.340352 179.899512 
L 182.18583 182.038117 
L 182.608569 180.327258 
L 183.031308 182.813283 
L 183.454047 182.856472 
L 183.876786 183.885854 
L 184.299525 176.232583 
L 184.722263 184.291073 
L 185.145002 183.268928 
L 185.567741 178.326834 
L 185.99048 179.087701 
L 186.413219 179.457158 
L 186.835958 184.781743 
L 187.258696 187.280172 
L 187.681435 183.099917 
L 188.104174 188.798149 
L 188.526913 181.716136 
L 188.949652 192.609485 
L 189.372391 187.031367 
L 189.79513 185.654709 
L 190.217869 187.435452 
L 190.640607 183.263613 
L 191.063346 184.363142 
L 191.486085 184.334837 
L 191.908824 184.015514 
L 192.331563 185.781816 
L 192.754302 182.68192 
L 193.177041 182.773905 
L 193.599779 185.220391 
L 194.022518 184.879989 
L 194.445257 185.652109 
L 194.867996 181.788098 
L 195.713474 181.121548 
L 196.136213 186.333029 
L 196.558951 180.072304 
L 196.98169 181.185135 
L 197.404429 180.504608 
L 198.249907 174.353294 
L 198.672646 173.594666 
L 199.095385 173.927566 
L 199.518123 177.867813 
L 199.940862 175.083256 
L 200.363601 179.667256 
L 200.78634 165.407867 
L 201.209079 174.52396 
L 201.631818 180.000357 
L 202.054557 183.784854 
L 202.477295 184.090223 
L 203.745512 201.815746 
L 204.168251 203.486229 
L 204.59099 202.021414 
L 205.013729 204.809458 
L 205.436468 210.319792 
L 205.859206 207.892033 
L 206.281945 210.627633 
L 206.704684 207.443533 
L 207.127423 207.730813 
L 207.972901 216.074759 
L 208.395639 217.092365 
L 208.818378 221.643424 
L 209.241117 218.491161 
L 209.663856 219.436611 
L 210.086595 222.287345 
L 210.509334 222.189116 
L 210.932073 216.598549 
L 211.354812 222.819988 
L 211.77755 219.606386 
L 212.200289 224.54176 
L 212.623028 223.418091 
L 213.045767 227.605138 
L 213.468506 227.585596 
L 213.891245 233.199594 
L 214.313984 233.167439 
L 214.736722 230.347248 
L 215.159461 237.647272 
L 215.5822 236.91815 
L 216.004939 235.181545 
L 216.427678 242.122696 
L 216.850417 238.248808 
L 217.273156 243.84112 
L 217.695894 244.532364 
L 218.118633 244.145731 
L 218.541372 245.534704 
L 218.964111 246.23861 
L 219.38685 244.463026 
L 219.809589 246.530957 
L 220.232328 242.966255 
L 220.655066 249.951389 
L 221.500544 238.06296 
L 221.923283 248.143696 
L 222.346022 246.049709 
L 222.768761 249.844981 
L 223.1915 246.671868 
L 223.614238 251.185008 
L 224.036977 251.141194 
L 224.459716 250.817079 
L 224.882455 249.719315 
L 225.305194 245.802267 
L 226.150672 247.491171 
L 226.573411 251.751764 
L 226.996149 254.546041 
L 227.418888 250.285406 
L 227.841627 249.942398 
L 228.264366 252.730653 
L 228.687105 251.950136 
L 229.109844 249.872876 
L 229.532582 248.748556 
L 229.955321 253.316346 
L 230.37806 255.750029 
L 230.800799 251.880666 
L 231.223538 250.057283 
L 232.069016 254.232607 
L 232.491755 250.679992 
L 232.914493 249.256204 
L 233.337232 256.286227 
L 233.759971 254.12535 
L 234.605449 257.60966 
L 235.028188 253.038304 
L 235.450927 255.454601 
L 235.873665 255.416682 
L 236.296404 255.760164 
L 236.719143 256.402865 
L 237.141882 255.989721 
L 237.564621 256.027686 
L 237.98736 252.47193 
L 238.410099 255.264538 
L 238.832837 255.907205 
L 239.255576 253.050042 
L 239.678315 253.756432 
L 240.101054 247.801208 
L 240.523793 252.655205 
L 240.946532 259.025455 
L 241.369271 255.448895 
L 241.792009 256.836402 
L 242.214748 253.621732 
L 242.637487 246.218891 
L 243.060226 254.289822 
L 243.482965 249.997891 
L 243.905704 252.442469 
L 244.328443 251.041804 
L 244.751181 248.538609 
L 245.17392 251.359501 
L 245.596659 248.486261 
L 246.019398 254.459761 
L 246.442137 250.54189 
L 246.864876 249.09502 
L 247.287615 250.859574 
L 247.710354 251.838803 
L 248.133092 247.264557 
L 248.555831 253.259836 
L 248.97857 254.648478 
L 249.401309 251.780026 
L 249.824048 252.811757 
L 250.246787 251.377193 
L 250.669525 252.408991 
L 251.092264 252.032366 
L 251.515003 247.423119 
L 251.937742 248.077683 
L 252.360481 255.914253 
L 252.78322 244.505657 
L 253.205959 247.343382 
L 253.628698 245.927895 
L 254.051436 249.10946 
L 254.474175 247.634075 
L 254.896914 244.769088 
L 255.319653 250.392844 
L 255.742392 245.774048 
L 256.165131 246.46197 
L 256.58787 248.55287 
L 257.010608 247.791302 
L 257.433347 247.460626 
L 257.856086 252.404716 
L 258.278825 245.369631 
L 258.701564 245.997132 
L 259.124303 243.872293 
L 259.547042 243.102972 
L 259.96978 248.392554 
L 260.392519 249.074245 
L 260.815258 242.312923 
L 261.237997 251.861639 
L 262.083475 247.198684 
L 262.506214 252.166036 
L 262.928952 247.110868 
L 263.351691 256.995036 
L 263.77443 250.675197 
L 264.197169 241.85277 
L 264.619908 250.945882 
L 265.042647 246.313903 
L 265.465386 247.374016 
L 265.888124 247.029695 
L 266.310863 245.942422 
L 266.733602 241.970458 
L 267.156341 248.737989 
L 267.57908 244.050017 
L 268.001819 245.826581 
L 268.424558 244.070576 
L 268.847296 245.089965 
L 269.270035 240.117895 
L 269.692774 242.879417 
L 270.115513 242.514305 
L 270.538252 242.831116 
L 270.960991 239.220584 
L 271.38373 236.803396 
L 271.806468 244.553398 
L 272.229207 241.659316 
L 272.651946 243.781674 
L 273.074685 240.900865 
L 273.497424 240.858989 
L 273.920163 245.807711 
L 274.342902 246.545164 
L 274.765641 241.885614 
L 275.188379 242.919264 
L 275.611118 239.404114 
L 276.033857 243.173466 
L 276.456596 244.966347 
L 276.879335 239.988009 
L 277.302074 238.48998 
L 277.724813 242.772985 
L 278.147551 243.765316 
L 278.57029 240.571822 
L 278.993029 247.310584 
L 279.415768 242.316401 
L 279.838507 240.19902 
L 280.261246 242.640161 
L 280.683985 241.212005 
L 281.106723 241.880386 
L 281.529462 241.127506 
L 282.37494 243.956416 
L 282.797679 243.210531 
L 283.220418 237.861639 
L 283.643157 238.479971 
L 284.065895 235.693283 
L 284.488634 240.261102 
L 284.911373 240.972071 
L 285.334112 230.9379 
L 285.756851 235.916059 
L 286.17959 239.464709 
L 286.602329 238.380063 
L 287.025067 240.090413 
L 287.447806 235.822514 
L 287.870545 238.64629 
L 288.293284 236.131293 
L 288.716023 237.15889 
L 289.138762 233.60873 
L 289.561501 231.760747 
L 289.984239 233.844628 
L 290.406978 239.55242 
L 290.829717 233.081868 
L 291.252456 229.860413 
L 291.675195 230.89508 
L 292.097934 234.051125 
L 292.520673 233.742573 
L 292.943411 234.403439 
L 293.36615 231.144389 
L 293.788889 237.164285 
L 294.211628 231.459969 
L 294.634367 231.070689 
L 295.057106 231.716563 
L 295.479845 233.119157 
L 296.325322 230.967314 
L 296.748061 227.720515 
L 297.1708 238.011046 
L 297.593539 234.852417 
L 298.016278 225.193104 
L 298.439017 232.22955 
L 298.861755 233.317048 
L 299.284494 232.589566 
L 299.707233 229.694184 
L 300.129972 233.250534 
L 300.552711 235.352053 
L 300.97545 234.242179 
L 301.398189 232.396861 
L 301.820928 235.6459 
L 302.243666 232.73478 
L 302.666405 233.41816 
L 303.089144 231.969594 
L 303.511883 231.924854 
L 303.934622 230.483413 
L 304.357361 231.865166 
L 304.7801 225.782804 
L 305.202838 227.907843 
L 305.625577 224.302729 
L 306.048316 227.133861 
L 306.471055 224.571712 
L 306.893794 219.545398 
L 307.316533 223.497502 
L 307.739272 223.083081 
L 308.16201 225.231942 
L 308.584749 221.57858 
L 309.007488 225.831193 
L 309.430227 224.794792 
L 309.852966 212.187428 
L 310.275705 218.998346 
L 310.698444 218.245373 
L 311.121182 222.192134 
L 311.543921 218.575108 
L 311.96666 221.454859 
L 312.389399 218.928307 
L 312.812138 222.813565 
L 313.234877 220.624269 
L 313.657616 223.8193 
L 314.080354 222.712981 
L 314.503093 223.043054 
L 314.925832 221.260907 
L 315.348571 221.575336 
L 315.77131 220.083804 
L 316.194049 216.848345 
L 316.616788 221.136214 
L 317.039527 221.435058 
L 317.462265 213.556809 
L 317.885004 211.412397 
L 318.307743 215.30017 
L 318.730482 216.69036 
L 319.153221 216.996376 
L 319.57596 216.634877 
L 319.998698 219.117815 
L 320.421437 216.587347 
L 320.844176 217.294496 
L 321.266915 224.752569 
L 321.689654 219.746207 
L 322.112393 216.555553 
L 322.535132 221.074333 
L 322.957871 220.3511 
L 323.380609 218.196993 
L 323.803348 220.319526 
L 324.226087 219.934102 
L 325.071565 216.654544 
L 325.494304 213.751895 
L 325.917043 222.693908 
L 326.339781 217.660223 
L 326.76252 221.521575 
L 327.185259 213.679429 
L 327.607998 217.91836 
L 328.030737 216.80046 
L 328.453476 212.158743 
L 328.876215 217.42834 
L 329.721692 210.621004 
L 330.144431 210.893464 
L 330.56717 208.374141 
L 330.989909 207.550703 
L 331.412648 209.387095 
L 331.835387 208.95907 
L 332.258125 208.991945 
L 332.680864 210.062616 
L 333.103603 210.705374 
L 333.526342 207.155316 
L 333.949081 209.675622 
L 334.37182 210.61513 
L 334.794559 209.939461 
L 335.217297 213.449559 
L 335.640036 207.673558 
L 336.062775 210.219712 
L 336.485514 209.791319 
L 336.908253 208.703442 
L 337.330992 206.239727 
L 337.753731 211.505582 
L 338.17647 209.403916 
L 338.599208 208.90049 
L 339.021947 210.00535 
L 339.444686 212.849455 
L 339.867425 202.833246 
L 340.290164 211.637503 
L 340.712903 207.324269 
L 341.135641 208.429686 
L 341.55838 211.27465 
L 341.981119 205.104611 
L 342.403858 208.709383 
L 342.826597 205.020502 
L 343.249336 203.568112 
L 343.672075 205.028967 
L 344.094814 208.567519 
L 344.517552 203.449652 
L 344.940291 201.97968 
L 345.36303 201.616369 
L 345.785769 208.442014 
L 346.208508 204.454735 
L 346.631247 205.865655 
L 347.053986 203.643302 
L 347.476724 203.947159 
L 347.899463 213.954228 
L 348.322202 199.568272 
L 348.744941 203.160677 
L 349.16768 203.211805 
L 349.590419 209.914742 
L 350.013158 205.248215 
L 350.435896 202.754453 
L 350.858635 204.140475 
L 351.281374 204.131951 
L 351.704113 204.46144 
L 352.126852 200.495656 
L 352.549591 202.972719 
L 352.97233 204.452963 
L 353.395068 205.095039 
L 353.817807 203.978257 
L 354.240546 201.46634 
L 354.663285 203.909785 
L 355.086024 204.975501 
L 355.508763 203.216478 
L 355.931502 203.139237 
L 356.35424 200.254112 
L 356.776979 199.881575 
L 357.199718 203.763944 
L 357.622457 194.013995 
L 358.045196 197.593342 
L 358.467935 203.65211 
L 358.890674 199.708084 
L 359.313413 200.375459 
L 359.736151 207.875005 
L 360.15889 201.424422 
L 360.581629 206.765556 
L 361.004368 203.522737 
L 361.427107 201.649742 
L 361.849846 201.294202 
L 362.272584 205.94279 
L 362.695323 201.901011 
L 363.118062 203.341014 
L 363.540801 200.105388 
L 363.96354 193.18994 
L 364.386279 193.874571 
L 364.809018 194.950413 
L 365.231757 197.404985 
L 365.654495 197.76952 
L 366.077234 196.275846 
L 366.499973 195.902385 
L 366.922712 194.755123 
L 367.345451 199.451633 
L 368.190929 196.178438 
L 368.613667 198.94588 
L 369.459145 194.576903 
L 369.881884 193.865023 
L 370.304623 195.24422 
L 370.727362 191.977661 
L 371.150101 193.01868 
L 371.572839 190.900762 
L 371.995578 197.67409 
L 372.418317 190.783435 
L 372.841056 191.459449 
L 373.263795 189.295849 
L 373.686534 191.414283 
L 374.109273 192.419501 
L 374.532011 192.42853 
L 374.95475 192.036175 
L 375.377489 188.419883 
L 375.800228 187.278255 
L 376.222967 189.753616 
L 376.645706 187.214164 
L 377.068445 187.232484 
L 377.491183 187.963274 
L 377.913922 186.775304 
L 378.336661 192.220465 
L 378.7594 188.547768 
L 379.182139 192.860685 
L 379.604878 187.350155 
L 380.027617 190.987705 
L 380.450356 191.975103 
L 380.873094 188.035465 
L 381.718572 187.184422 
L 382.141311 185.383287 
L 382.56405 185.721325 
L 382.986789 180.308379 
L 383.409527 186.43438 
L 383.832266 183.733832 
L 384.255005 183.00184 
L 384.677744 184.785194 
L 385.100483 184.775928 
L 385.523222 184.372585 
L 385.945961 183.255694 
L 386.3687 179.594349 
L 386.791438 190.062523 
L 387.214177 184.232461 
L 387.636916 188.241396 
L 388.059655 183.828834 
L 388.482394 182.025815 
L 388.905133 181.180161 
L 389.327872 182.664298 
L 389.75061 177.235535 
L 390.173349 183.002423 
L 390.596088 175.655174 
L 391.018827 181.82795 
L 391.441566 177.806396 
L 391.864305 172.664961 
L 392.287044 175.211949 
L 392.709782 172.317673 
L 393.132521 177.325281 
L 393.55526 179.420028 
L 393.977999 174.372881 
L 394.400738 177.867231 
L 394.823477 173.137312 
L 395.246216 177.162463 
L 395.668954 173.156725 
L 396.091693 180.348614 
L 396.514432 173.040382 
L 396.937171 171.601843 
L 397.35991 171.949353 
L 397.782649 171.137445 
L 398.205388 171.117928 
L 398.628126 175.106531 
L 399.050865 175.058137 
L 399.473604 174.632887 
L 399.896343 170.672644 
L 400.319082 173.551021 
L 400.741821 170.604169 
L 401.16456 170.515896 
L 401.587299 169.046768 
L 402.010037 171.945766 
L 402.432776 168.292472 
L 402.855515 167.954774 
L 403.278254 165.691162 
L 403.700993 170.40792 
L 404.123732 166.435898 
L 404.54647 169.564709 
L 404.969209 170.270081 
L 405.391948 171.730113 
L 405.814687 168.760566 
L 406.237426 171.671152 
L 406.660165 169.048931 
L 407.082904 172.357052 
L 407.505643 173.390961 
L 407.928381 171.979658 
L 408.35112 166.067917 
L 408.773859 141.400806 
L 409.196598 29.134545 
L 409.619337 122.821872 
L 410.042076 45.039241 
L 410.464814 110.245775 
L 410.887553 54.580529 
L 411.310292 96.949568 
L 411.733031 60.912988 
L 412.15577 90.073376 
L 412.578509 67.284618 
L 413.001248 84.324301 
L 413.423987 81.508294 
L 413.846725 87.060203 
L 414.269464 84.932858 
L 414.692203 77.78141 
L 415.114942 90.947781 
L 415.537681 71.249657 
L 415.96042 94.882257 
L 416.383159 65.085681 
L 416.805897 81.233647 
L 417.228636 63.908703 
L 417.228636 63.908703 
" style="fill:none;stroke:#ff0000;stroke-linecap:square;stroke-opacity:0.5;"/>
   </g>
   <g id="patch_7">
    <path d="M 69.23 270.52 
L 69.23 17.64 
" style="fill:none;stroke:#000000;stroke-linecap:square;stroke-linejoin:miter;stroke-width:0.8;"/>
   </g>
   <g id="patch_8">
    <path d="M 433.8 270.52 
L 433.8 17.64 
" style="fill:none;stroke:#000000;stroke-linecap:square;stroke-linejoin:miter;stroke-width:0.8;"/>
   </g>
   <g id="patch_9">
    <path d="M 69.23 270.52 
L 433.8 270.52 
" style="fill:none;stroke:#000000;stroke-linecap:square;stroke-linejoin:miter;stroke-width:0.8;"/>
   </g>
   <g id="patch_10">
    <path d="M 69.23 17.64 
L 433.8 17.64 
" style="fill:none;stroke:#000000;stroke-linecap:square;stroke-linejoin:miter;stroke-width:0.8;"/>
   </g>
   <g id="legend_1">
    <g id="patch_11">
     <path d="M 79.03 49.389375 
L 217.312813 49.389375 
Q 220.112813 49.389375 220.112813 46.589375 
L 220.112813 27.44 
Q 220.112813 24.64 217.312813 24.64 
L 79.03 24.64 
Q 76.23 24.64 76.23 27.44 
L 76.23 46.589375 
Q 76.23 49.389375 79.03 49.389375 
z
" style="fill:#ffffff;opacity:0.8;stroke:#cccccc;stroke-linejoin:miter;"/>
    </g>
    <g id="line2d_13">
     <path d="M 81.83 35.977812 
L 109.83 35.977812 
" style="fill:none;stroke:#ff0000;stroke-linecap:square;stroke-opacity:0.5;"/>
    </g>
    <g id="line2d_14"/>
    <g id="text_14">
     <!-- Vertical force -->
     <g transform="translate(121.03 40.877812)scale(0.14 -0.14)">
      <use xlink:href="#DejaVuSans-86"/>
      <use x="68.298828" xlink:href="#DejaVuSans-101"/>
      <use x="129.822266" xlink:href="#DejaVuSans-114"/>
      <use x="170.935547" xlink:href="#DejaVuSans-116"/>
      <use x="210.144531" xlink:href="#DejaVuSans-105"/>
      <use x="237.927734" xlink:href="#DejaVuSans-99"/>
      <use x="292.908203" xlink:href="#DejaVuSans-97"/>
      <use x="354.1875" xlink:href="#DejaVuSans-108"/>
      <use x="381.970703" xlink:href="#DejaVuSans-32"/>
      <use x="413.757812" xlink:href="#DejaVuSans-102"/>
      <use x="448.962891" xlink:href="#DejaVuSans-111"/>
      <use x="510.144531" xlink:href="#DejaVuSans-114"/>
      <use x="551.226562" xlink:href="#DejaVuSans-99"/>
      <use x="606.207031" xlink:href="#DejaVuSans-101"/>
     </g>
    </g>
   </g>
  </g>
 </g>
 <defs>
  <clipPath id="p61267e8d86">
   <rect height="252.88" width="364.57" x="69.23" y="17.64"/>
  </clipPath>
 </defs>
</svg>
