<?xml version="1.0" encoding="utf-8" standalone="no"?>
<!DOCTYPE svg PUBLIC "-//W3C//DTD SVG 1.1//EN"
  "http://www.w3.org/Graphics/SVG/1.1/DTD/svg11.dtd">
<!-- Created with matplotlib (https://matplotlib.org/) -->
<svg height="343.681641pt" version="1.1" viewBox="0 0 419.58 343.681641" width="419.58pt" xmlns="http://www.w3.org/2000/svg" xmlns:xlink="http://www.w3.org/1999/xlink">
 <defs>
  <style type="text/css">
*{stroke-linecap:butt;stroke-linejoin:round;}
  </style>
 </defs>
 <g id="figure_1">
  <g id="patch_1">
   <path d="M 0 343.681641 
L 419.58 343.681641 
L 419.58 0 
L 0 0 
z
" style="fill:none;"/>
  </g>
  <g id="axes_1">
   <g id="patch_2">
    <path d="M 68.58 288 
L 403.38 288 
L 403.38 16.2 
L 68.58 16.2 
z
" style="fill:none;"/>
   </g>
   <g id="line2d_1">
    <path clip-path="url(#p9f89b19578)" d="M 68.58 204.828427 
L 403.38 204.828427 
" style="fill:none;stroke:#b2b2b2;stroke-dasharray:4.5,2.25;stroke-dashoffset:0;stroke-width:2.25;"/>
   </g>
   <g id="matplotlib.axis_1">
    <g id="xtick_1">
     <g id="line2d_2">
      <defs>
       <path d="M 0 0 
L 0 9 
" id="m546ad9c696" style="stroke:#262626;stroke-width:1.875;"/>
      </defs>
      <g>
       <use style="fill:#262626;stroke:#262626;stroke-width:1.875;" x="82.977798" xlink:href="#m546ad9c696" y="288"/>
      </g>
     </g>
     <g id="text_1">
      <!-- 5 -->
      <defs>
       <path d="M 4.15625 18.75 
L 13.375 19.53125 
Q 14.40625 12.796875 18.140625 9.390625 
Q 21.875 6 27.15625 6 
Q 33.5 6 37.890625 10.78125 
Q 42.28125 15.578125 42.28125 23.484375 
Q 42.28125 31 38.0625 35.34375 
Q 33.84375 39.703125 27 39.703125 
Q 22.75 39.703125 19.328125 37.765625 
Q 15.921875 35.84375 13.96875 32.765625 
L 5.71875 33.84375 
L 12.640625 70.609375 
L 48.25 70.609375 
L 48.25 62.203125 
L 19.671875 62.203125 
L 15.828125 42.96875 
Q 22.265625 47.46875 29.34375 47.46875 
Q 38.71875 47.46875 45.15625 40.96875 
Q 51.609375 34.46875 51.609375 24.265625 
Q 51.609375 14.546875 45.953125 7.46875 
Q 39.0625 -1.21875 27.15625 -1.21875 
Q 17.390625 -1.21875 11.203125 4.25 
Q 5.03125 9.71875 4.15625 18.75 
z
" id="ArialMT-53"/>
      </defs>
      <g style="fill:#262626;" transform="translate(78.390024 312.310391)scale(0.165 -0.165)">
       <use xlink:href="#ArialMT-53"/>
      </g>
     </g>
    </g>
    <g id="xtick_2">
     <g id="line2d_3">
      <g>
       <use style="fill:#262626;stroke:#262626;stroke-width:1.875;" x="139.517905" xlink:href="#m546ad9c696" y="288"/>
      </g>
     </g>
     <g id="text_2">
      <!-- 10 -->
      <defs>
       <path d="M 37.25 0 
L 28.46875 0 
L 28.46875 56 
Q 25.296875 52.984375 20.140625 49.953125 
Q 14.984375 46.921875 10.890625 45.40625 
L 10.890625 53.90625 
Q 18.265625 57.375 23.78125 62.296875 
Q 29.296875 67.234375 31.59375 71.875 
L 37.25 71.875 
z
" id="ArialMT-49"/>
       <path d="M 4.15625 35.296875 
Q 4.15625 48 6.765625 55.734375 
Q 9.375 63.484375 14.515625 67.671875 
Q 19.671875 71.875 27.484375 71.875 
Q 33.25 71.875 37.59375 69.546875 
Q 41.9375 67.234375 44.765625 62.859375 
Q 47.609375 58.5 49.21875 52.21875 
Q 50.828125 45.953125 50.828125 35.296875 
Q 50.828125 22.703125 48.234375 14.96875 
Q 45.65625 7.234375 40.5 3 
Q 35.359375 -1.21875 27.484375 -1.21875 
Q 17.140625 -1.21875 11.234375 6.203125 
Q 4.15625 15.140625 4.15625 35.296875 
z
M 13.1875 35.296875 
Q 13.1875 17.671875 17.3125 11.828125 
Q 21.4375 6 27.484375 6 
Q 33.546875 6 37.671875 11.859375 
Q 41.796875 17.71875 41.796875 35.296875 
Q 41.796875 52.984375 37.671875 58.78125 
Q 33.546875 64.59375 27.390625 64.59375 
Q 21.34375 64.59375 17.71875 59.46875 
Q 13.1875 52.9375 13.1875 35.296875 
z
" id="ArialMT-48"/>
      </defs>
      <g style="fill:#262626;" transform="translate(130.342358 312.310391)scale(0.165 -0.165)">
       <use xlink:href="#ArialMT-49"/>
       <use x="55.615234" xlink:href="#ArialMT-48"/>
      </g>
     </g>
    </g>
    <g id="xtick_3">
     <g id="line2d_4">
      <g>
       <use style="fill:#262626;stroke:#262626;stroke-width:1.875;" x="196.058012" xlink:href="#m546ad9c696" y="288"/>
      </g>
     </g>
     <g id="text_3">
      <!-- 15 -->
      <g style="fill:#262626;" transform="translate(186.882465 312.310391)scale(0.165 -0.165)">
       <use xlink:href="#ArialMT-49"/>
       <use x="55.615234" xlink:href="#ArialMT-53"/>
      </g>
     </g>
    </g>
    <g id="xtick_4">
     <g id="line2d_5">
      <g>
       <use style="fill:#262626;stroke:#262626;stroke-width:1.875;" x="252.59812" xlink:href="#m546ad9c696" y="288"/>
      </g>
     </g>
     <g id="text_4">
      <!-- 20 -->
      <defs>
       <path d="M 50.34375 8.453125 
L 50.34375 0 
L 3.03125 0 
Q 2.9375 3.171875 4.046875 6.109375 
Q 5.859375 10.9375 9.828125 15.625 
Q 13.8125 20.3125 21.34375 26.46875 
Q 33.015625 36.03125 37.109375 41.625 
Q 41.21875 47.21875 41.21875 52.203125 
Q 41.21875 57.421875 37.46875 61 
Q 33.734375 64.59375 27.734375 64.59375 
Q 21.390625 64.59375 17.578125 60.78125 
Q 13.765625 56.984375 13.71875 50.25 
L 4.6875 51.171875 
Q 5.609375 61.28125 11.65625 66.578125 
Q 17.71875 71.875 27.9375 71.875 
Q 38.234375 71.875 44.234375 66.15625 
Q 50.25 60.453125 50.25 52 
Q 50.25 47.703125 48.484375 43.546875 
Q 46.734375 39.40625 42.65625 34.8125 
Q 38.578125 30.21875 29.109375 22.21875 
Q 21.1875 15.578125 18.9375 13.203125 
Q 16.703125 10.84375 15.234375 8.453125 
z
" id="ArialMT-50"/>
      </defs>
      <g style="fill:#262626;" transform="translate(243.422573 312.310391)scale(0.165 -0.165)">
       <use xlink:href="#ArialMT-50"/>
       <use x="55.615234" xlink:href="#ArialMT-48"/>
      </g>
     </g>
    </g>
    <g id="xtick_5">
     <g id="line2d_6">
      <g>
       <use style="fill:#262626;stroke:#262626;stroke-width:1.875;" x="309.138227" xlink:href="#m546ad9c696" y="288"/>
      </g>
     </g>
     <g id="text_5">
      <!-- 25 -->
      <g style="fill:#262626;" transform="translate(299.96268 312.310391)scale(0.165 -0.165)">
       <use xlink:href="#ArialMT-50"/>
       <use x="55.615234" xlink:href="#ArialMT-53"/>
      </g>
     </g>
    </g>
    <g id="xtick_6">
     <g id="line2d_7">
      <g>
       <use style="fill:#262626;stroke:#262626;stroke-width:1.875;" x="365.678334" xlink:href="#m546ad9c696" y="288"/>
      </g>
     </g>
     <g id="text_6">
      <!-- 30 -->
      <defs>
       <path d="M 4.203125 18.890625 
L 12.984375 20.0625 
Q 14.5 12.59375 18.140625 9.296875 
Q 21.78125 6 27 6 
Q 33.203125 6 37.46875 10.296875 
Q 41.75 14.59375 41.75 20.953125 
Q 41.75 27 37.796875 30.921875 
Q 33.84375 34.859375 27.734375 34.859375 
Q 25.25 34.859375 21.53125 33.890625 
L 22.515625 41.609375 
Q 23.390625 41.5 23.921875 41.5 
Q 29.546875 41.5 34.03125 44.421875 
Q 38.53125 47.359375 38.53125 53.46875 
Q 38.53125 58.296875 35.25 61.46875 
Q 31.984375 64.65625 26.8125 64.65625 
Q 21.6875 64.65625 18.265625 61.421875 
Q 14.84375 58.203125 13.875 51.765625 
L 5.078125 53.328125 
Q 6.6875 62.15625 12.390625 67.015625 
Q 18.109375 71.875 26.609375 71.875 
Q 32.46875 71.875 37.390625 69.359375 
Q 42.328125 66.84375 44.9375 62.5 
Q 47.5625 58.15625 47.5625 53.265625 
Q 47.5625 48.640625 45.0625 44.828125 
Q 42.578125 41.015625 37.703125 38.765625 
Q 44.046875 37.3125 47.5625 32.6875 
Q 51.078125 28.078125 51.078125 21.140625 
Q 51.078125 11.765625 44.234375 5.25 
Q 37.40625 -1.265625 26.953125 -1.265625 
Q 17.53125 -1.265625 11.296875 4.34375 
Q 5.078125 9.96875 4.203125 18.890625 
z
" id="ArialMT-51"/>
      </defs>
      <g style="fill:#262626;" transform="translate(356.502787 312.310391)scale(0.165 -0.165)">
       <use xlink:href="#ArialMT-51"/>
       <use x="55.615234" xlink:href="#ArialMT-48"/>
      </g>
     </g>
    </g>
    <g id="text_7">
     <!-- Time (s) -->
     <defs>
      <path d="M 25.921875 0 
L 25.921875 63.140625 
L 2.34375 63.140625 
L 2.34375 71.578125 
L 59.078125 71.578125 
L 59.078125 63.140625 
L 35.40625 63.140625 
L 35.40625 0 
z
" id="ArialMT-84"/>
      <path d="M 6.640625 61.46875 
L 6.640625 71.578125 
L 15.4375 71.578125 
L 15.4375 61.46875 
z
M 6.640625 0 
L 6.640625 51.859375 
L 15.4375 51.859375 
L 15.4375 0 
z
" id="ArialMT-105"/>
      <path d="M 6.59375 0 
L 6.59375 51.859375 
L 14.453125 51.859375 
L 14.453125 44.578125 
Q 16.890625 48.390625 20.9375 50.703125 
Q 25 53.03125 30.171875 53.03125 
Q 35.9375 53.03125 39.625 50.640625 
Q 43.3125 48.25 44.828125 43.953125 
Q 50.984375 53.03125 60.84375 53.03125 
Q 68.5625 53.03125 72.703125 48.75 
Q 76.859375 44.484375 76.859375 35.59375 
L 76.859375 0 
L 68.109375 0 
L 68.109375 32.671875 
Q 68.109375 37.9375 67.25 40.25 
Q 66.40625 42.578125 64.15625 43.984375 
Q 61.921875 45.40625 58.890625 45.40625 
Q 53.421875 45.40625 49.796875 41.765625 
Q 46.1875 38.140625 46.1875 30.125 
L 46.1875 0 
L 37.40625 0 
L 37.40625 33.6875 
Q 37.40625 39.546875 35.25 42.46875 
Q 33.109375 45.40625 28.21875 45.40625 
Q 24.515625 45.40625 21.359375 43.453125 
Q 18.21875 41.5 16.796875 37.734375 
Q 15.375 33.984375 15.375 26.90625 
L 15.375 0 
z
" id="ArialMT-109"/>
      <path d="M 42.09375 16.703125 
L 51.171875 15.578125 
Q 49.03125 7.625 43.21875 3.21875 
Q 37.40625 -1.171875 28.375 -1.171875 
Q 17 -1.171875 10.328125 5.828125 
Q 3.65625 12.84375 3.65625 25.484375 
Q 3.65625 38.578125 10.390625 45.796875 
Q 17.140625 53.03125 27.875 53.03125 
Q 38.28125 53.03125 44.875 45.953125 
Q 51.46875 38.875 51.46875 26.03125 
Q 51.46875 25.25 51.421875 23.6875 
L 12.75 23.6875 
Q 13.234375 15.140625 17.578125 10.59375 
Q 21.921875 6.0625 28.421875 6.0625 
Q 33.25 6.0625 36.671875 8.59375 
Q 40.09375 11.140625 42.09375 16.703125 
z
M 13.234375 30.90625 
L 42.1875 30.90625 
Q 41.609375 37.453125 38.875 40.71875 
Q 34.671875 45.796875 27.984375 45.796875 
Q 21.921875 45.796875 17.796875 41.75 
Q 13.671875 37.703125 13.234375 30.90625 
z
" id="ArialMT-101"/>
      <path id="ArialMT-32"/>
      <path d="M 23.390625 -21.046875 
Q 16.109375 -11.859375 11.078125 0.4375 
Q 6.0625 12.75 6.0625 25.921875 
Q 6.0625 37.546875 9.8125 48.1875 
Q 14.203125 60.546875 23.390625 72.796875 
L 29.6875 72.796875 
Q 23.78125 62.640625 21.875 58.296875 
Q 18.890625 51.5625 17.1875 44.234375 
Q 15.09375 35.109375 15.09375 25.875 
Q 15.09375 2.390625 29.6875 -21.046875 
z
" id="ArialMT-40"/>
      <path d="M 3.078125 15.484375 
L 11.765625 16.84375 
Q 12.5 11.625 15.84375 8.84375 
Q 19.1875 6.0625 25.203125 6.0625 
Q 31.25 6.0625 34.171875 8.515625 
Q 37.109375 10.984375 37.109375 14.3125 
Q 37.109375 17.28125 34.515625 19 
Q 32.71875 20.171875 25.53125 21.96875 
Q 15.875 24.421875 12.140625 26.203125 
Q 8.40625 27.984375 6.46875 31.125 
Q 4.546875 34.28125 4.546875 38.09375 
Q 4.546875 41.546875 6.125 44.5 
Q 7.71875 47.46875 10.453125 49.421875 
Q 12.5 50.921875 16.03125 51.96875 
Q 19.578125 53.03125 23.640625 53.03125 
Q 29.734375 53.03125 34.34375 51.265625 
Q 38.96875 49.515625 41.15625 46.5 
Q 43.359375 43.5 44.1875 38.484375 
L 35.59375 37.3125 
Q 35.015625 41.3125 32.203125 43.546875 
Q 29.390625 45.796875 24.265625 45.796875 
Q 18.21875 45.796875 15.625 43.796875 
Q 13.03125 41.796875 13.03125 39.109375 
Q 13.03125 37.40625 14.109375 36.03125 
Q 15.1875 34.625 17.484375 33.6875 
Q 18.796875 33.203125 25.25 31.453125 
Q 34.578125 28.953125 38.25 27.359375 
Q 41.9375 25.78125 44.03125 22.75 
Q 46.140625 19.734375 46.140625 15.234375 
Q 46.140625 10.84375 43.578125 6.953125 
Q 41.015625 3.078125 36.171875 0.953125 
Q 31.34375 -1.171875 25.25 -1.171875 
Q 15.140625 -1.171875 9.84375 3.03125 
Q 4.546875 7.234375 3.078125 15.484375 
z
" id="ArialMT-115"/>
      <path d="M 12.359375 -21.046875 
L 6.0625 -21.046875 
Q 20.65625 2.390625 20.65625 25.875 
Q 20.65625 35.0625 18.5625 44.09375 
Q 16.890625 51.421875 13.921875 58.15625 
Q 12.015625 62.546875 6.0625 72.796875 
L 12.359375 72.796875 
Q 21.53125 60.546875 25.921875 48.1875 
Q 29.6875 37.546875 29.6875 25.921875 
Q 29.6875 12.75 24.625 0.4375 
Q 19.578125 -11.859375 12.359375 -21.046875 
z
" id="ArialMT-41"/>
     </defs>
     <g style="fill:#262626;" transform="translate(202.992188 332.693203)scale(0.18 -0.18)">
      <use xlink:href="#ArialMT-84"/>
      <use x="61.037109" xlink:href="#ArialMT-105"/>
      <use x="83.253906" xlink:href="#ArialMT-109"/>
      <use x="166.554688" xlink:href="#ArialMT-101"/>
      <use x="222.169922" xlink:href="#ArialMT-32"/>
      <use x="249.953125" xlink:href="#ArialMT-40"/>
      <use x="283.253906" xlink:href="#ArialMT-115"/>
      <use x="333.253906" xlink:href="#ArialMT-41"/>
     </g>
    </g>
   </g>
   <g id="matplotlib.axis_2">
    <g id="ytick_1">
     <g id="line2d_8">
      <defs>
       <path d="M 0 0 
L -9 0 
" id="meaef0d7c7b" style="stroke:#262626;stroke-width:1.875;"/>
      </defs>
      <g>
       <use style="fill:#262626;stroke:#262626;stroke-width:1.875;" x="68.58" xlink:href="#meaef0d7c7b" y="247.180326"/>
      </g>
     </g>
     <g id="text_8">
      <!-- −25 -->
      <defs>
       <path d="M 52.828125 31.203125 
L 5.5625 31.203125 
L 5.5625 39.40625 
L 52.828125 39.40625 
z
" id="ArialMT-8722"/>
      </defs>
      <g style="fill:#262626;" transform="translate(28.091875 253.085522)scale(0.165 -0.165)">
       <use xlink:href="#ArialMT-8722"/>
       <use x="58.398438" xlink:href="#ArialMT-50"/>
       <use x="114.013672" xlink:href="#ArialMT-53"/>
      </g>
     </g>
    </g>
    <g id="ytick_2">
     <g id="line2d_9">
      <g>
       <use style="fill:#262626;stroke:#262626;stroke-width:1.875;" x="68.58" xlink:href="#meaef0d7c7b" y="204.828427"/>
      </g>
     </g>
     <g id="text_9">
      <!-- 0 -->
      <g style="fill:#262626;" transform="translate(46.904453 210.733622)scale(0.165 -0.165)">
       <use xlink:href="#ArialMT-48"/>
      </g>
     </g>
    </g>
    <g id="ytick_3">
     <g id="line2d_10">
      <g>
       <use style="fill:#262626;stroke:#262626;stroke-width:1.875;" x="68.58" xlink:href="#meaef0d7c7b" y="162.476527"/>
      </g>
     </g>
     <g id="text_10">
      <!-- 25 -->
      <g style="fill:#262626;" transform="translate(37.728906 168.381722)scale(0.165 -0.165)">
       <use xlink:href="#ArialMT-50"/>
       <use x="55.615234" xlink:href="#ArialMT-53"/>
      </g>
     </g>
    </g>
    <g id="ytick_4">
     <g id="line2d_11">
      <g>
       <use style="fill:#262626;stroke:#262626;stroke-width:1.875;" x="68.58" xlink:href="#meaef0d7c7b" y="120.124627"/>
      </g>
     </g>
     <g id="text_11">
      <!-- 50 -->
      <g style="fill:#262626;" transform="translate(37.728906 126.029822)scale(0.165 -0.165)">
       <use xlink:href="#ArialMT-53"/>
       <use x="55.615234" xlink:href="#ArialMT-48"/>
      </g>
     </g>
    </g>
    <g id="ytick_5">
     <g id="line2d_12">
      <g>
       <use style="fill:#262626;stroke:#262626;stroke-width:1.875;" x="68.58" xlink:href="#meaef0d7c7b" y="77.772727"/>
      </g>
     </g>
     <g id="text_12">
      <!-- 75 -->
      <defs>
       <path d="M 4.734375 62.203125 
L 4.734375 70.65625 
L 51.078125 70.65625 
L 51.078125 63.8125 
Q 44.234375 56.546875 37.515625 44.484375 
Q 30.8125 32.421875 27.15625 19.671875 
Q 24.515625 10.6875 23.78125 0 
L 14.75 0 
Q 14.890625 8.453125 18.0625 20.40625 
Q 21.234375 32.375 27.171875 43.484375 
Q 33.109375 54.59375 39.796875 62.203125 
z
" id="ArialMT-55"/>
      </defs>
      <g style="fill:#262626;" transform="translate(37.728906 83.677922)scale(0.165 -0.165)">
       <use xlink:href="#ArialMT-55"/>
       <use x="55.615234" xlink:href="#ArialMT-53"/>
      </g>
     </g>
    </g>
    <g id="ytick_6">
     <g id="line2d_13">
      <g>
       <use style="fill:#262626;stroke:#262626;stroke-width:1.875;" x="68.58" xlink:href="#meaef0d7c7b" y="35.420827"/>
      </g>
     </g>
     <g id="text_13">
      <!-- 100 -->
      <g style="fill:#262626;" transform="translate(28.553359 41.326023)scale(0.165 -0.165)">
       <use xlink:href="#ArialMT-49"/>
       <use x="55.615234" xlink:href="#ArialMT-48"/>
       <use x="111.230469" xlink:href="#ArialMT-48"/>
      </g>
     </g>
    </g>
    <g id="text_14">
     <!-- Force (μN) -->
     <defs>
      <path d="M 8.203125 0 
L 8.203125 71.578125 
L 56.5 71.578125 
L 56.5 63.140625 
L 17.671875 63.140625 
L 17.671875 40.96875 
L 51.265625 40.96875 
L 51.265625 32.515625 
L 17.671875 32.515625 
L 17.671875 0 
z
" id="ArialMT-70"/>
      <path d="M 3.328125 25.921875 
Q 3.328125 40.328125 11.328125 47.265625 
Q 18.015625 53.03125 27.640625 53.03125 
Q 38.328125 53.03125 45.109375 46.015625 
Q 51.90625 39.015625 51.90625 26.65625 
Q 51.90625 16.65625 48.90625 10.90625 
Q 45.90625 5.171875 40.15625 2 
Q 34.421875 -1.171875 27.640625 -1.171875 
Q 16.75 -1.171875 10.03125 5.8125 
Q 3.328125 12.796875 3.328125 25.921875 
z
M 12.359375 25.921875 
Q 12.359375 15.96875 16.703125 11.015625 
Q 21.046875 6.0625 27.640625 6.0625 
Q 34.1875 6.0625 38.53125 11.03125 
Q 42.875 16.015625 42.875 26.21875 
Q 42.875 35.84375 38.5 40.796875 
Q 34.125 45.75 27.640625 45.75 
Q 21.046875 45.75 16.703125 40.8125 
Q 12.359375 35.890625 12.359375 25.921875 
z
" id="ArialMT-111"/>
      <path d="M 6.5 0 
L 6.5 51.859375 
L 14.40625 51.859375 
L 14.40625 44 
Q 17.4375 49.515625 20 51.265625 
Q 22.5625 53.03125 25.640625 53.03125 
Q 30.078125 53.03125 34.671875 50.203125 
L 31.640625 42.046875 
Q 28.421875 43.953125 25.203125 43.953125 
Q 22.3125 43.953125 20.015625 42.21875 
Q 17.71875 40.484375 16.75 37.40625 
Q 15.28125 32.71875 15.28125 27.15625 
L 15.28125 0 
z
" id="ArialMT-114"/>
      <path d="M 40.4375 19 
L 49.078125 17.875 
Q 47.65625 8.9375 41.8125 3.875 
Q 35.984375 -1.171875 27.484375 -1.171875 
Q 16.84375 -1.171875 10.375 5.78125 
Q 3.90625 12.75 3.90625 25.734375 
Q 3.90625 34.125 6.6875 40.421875 
Q 9.46875 46.734375 15.15625 49.875 
Q 20.84375 53.03125 27.546875 53.03125 
Q 35.984375 53.03125 41.359375 48.75 
Q 46.734375 44.484375 48.25 36.625 
L 39.703125 35.296875 
Q 38.484375 40.53125 35.375 43.15625 
Q 32.28125 45.796875 27.875 45.796875 
Q 21.234375 45.796875 17.078125 41.03125 
Q 12.9375 36.28125 12.9375 25.984375 
Q 12.9375 15.53125 16.9375 10.796875 
Q 20.953125 6.0625 27.390625 6.0625 
Q 32.5625 6.0625 36.03125 9.234375 
Q 39.5 12.40625 40.4375 19 
z
" id="ArialMT-99"/>
      <path d="M 49.703125 51.859375 
L 49.703125 0 
L 41.84375 0 
L 41.84375 6.15625 
Q 39.3125 2.25 36.8125 0.78125 
Q 33.40625 -1.21875 28.859375 -1.21875 
Q 24.8125 -1.21875 21.6875 0.390625 
Q 19.34375 1.609375 16.5 5.21875 
L 16.5 -19.875 
L 7.8125 -19.875 
L 7.8125 51.859375 
L 16.5 51.859375 
L 16.5 29.890625 
Q 16.5 17.921875 17.765625 14.375 
Q 19.046875 10.84375 21.890625 8.78125 
Q 24.75 6.734375 28.46875 6.734375 
Q 32.375 6.734375 35.453125 8.875 
Q 38.53125 11.03125 39.796875 14.421875 
Q 41.0625 17.828125 41.0625 29.734375 
L 41.0625 51.859375 
z
" id="ArialMT-956"/>
      <path d="M 7.625 0 
L 7.625 71.578125 
L 17.328125 71.578125 
L 54.9375 15.375 
L 54.9375 71.578125 
L 64.015625 71.578125 
L 64.015625 0 
L 54.296875 0 
L 16.703125 56.25 
L 16.703125 0 
z
" id="ArialMT-78"/>
     </defs>
     <g style="fill:#262626;" transform="translate(20.303437 195.283125)rotate(-90)scale(0.18 -0.18)">
      <use xlink:href="#ArialMT-70"/>
      <use x="61.083984" xlink:href="#ArialMT-111"/>
      <use x="116.699219" xlink:href="#ArialMT-114"/>
      <use x="150" xlink:href="#ArialMT-99"/>
      <use x="200" xlink:href="#ArialMT-101"/>
      <use x="255.615234" xlink:href="#ArialMT-32"/>
      <use x="283.398438" xlink:href="#ArialMT-40"/>
      <use x="316.699219" xlink:href="#ArialMT-956"/>
      <use x="374.316406" xlink:href="#ArialMT-78"/>
      <use x="446.533203" xlink:href="#ArialMT-41"/>
     </g>
    </g>
   </g>
   <g id="line2d_14">
    <path clip-path="url(#p9f89b19578)" d="M 83.798182 204.828427 
L 84.32838 200.893161 
L 84.593477 203.074887 
L 84.858573 200.525124 
L 85.123675 203.47697 
L 85.388771 204.184235 
L 85.653868 203.644466 
L 85.918964 205.28961 
L 86.184061 205.594407 
L 86.449163 205.040015 
L 86.714259 205.721056 
L 87.244452 201.686946 
L 87.509548 204.142713 
L 87.77465 204.682266 
L 88.039747 203.606892 
L 88.304843 201.207251 
L 88.56994 200.80181 
L 89.100138 202.315754 
L 89.365234 200.281184 
L 89.630331 200.999146 
L 89.895427 200.426315 
L 90.160529 201.675988 
L 90.690722 202.631674 
L 90.955818 202.527364 
L 91.220915 200.746333 
L 91.486017 201.441667 
L 91.751113 203.099641 
L 92.281306 203.363699 
L 92.811504 200.523335 
L 93.076601 203.649748 
L 93.341697 201.620003 
L 93.606794 202.292876 
L 93.871896 203.820217 
L 94.136992 202.047343 
L 94.402089 201.776013 
L 94.667185 203.303203 
L 94.932282 202.99888 
L 95.197383 203.184024 
L 95.46248 202.920094 
L 95.727576 198.70231 
L 95.992673 201.477885 
L 96.257769 201.466841 
L 96.522871 202.049622 
L 97.053064 199.70948 
L 97.31816 201.24349 
L 97.583262 201.547657 
L 97.848359 198.806754 
L 98.113455 200.972329 
L 98.378552 200.173641 
L 98.643648 202.093564 
L 98.90875 201.703365 
L 99.173846 199.523558 
L 99.438943 202.675832 
L 99.704039 200.084202 
L 99.969136 202.133717 
L 100.234238 202.133717 
L 100.499334 200.648404 
L 100.764431 203.788969 
L 101.294624 199.575285 
L 101.559725 202.860372 
L 101.824822 201.238076 
L 102.089918 203.405954 
L 102.355015 203.56132 
L 102.620117 201.093445 
L 102.885213 202.737562 
L 103.15031 201.538237 
L 103.680502 204.117633 
L 103.945604 199.511626 
L 104.210701 203.312051 
L 104.475797 203.882678 
L 104.740894 202.264568 
L 105.00599 204.99124 
L 105.271092 202.687166 
L 105.536188 201.589171 
L 105.801285 205.958766 
L 106.066381 203.109667 
L 106.331483 204.449524 
L 106.861676 202.448814 
L 107.126773 205.431341 
L 107.391869 202.734051 
L 107.656971 202.470458 
L 107.922067 204.257379 
L 108.187164 201.015556 
L 108.45226 205.498795 
L 108.717357 205.087393 
L 108.982458 202.253726 
L 109.247555 205.657167 
L 109.512651 201.336891 
L 110.04285 203.527348 
L 110.307946 201.073427 
L 110.573043 205.43598 
L 110.838139 203.303044 
L 111.103236 205.042426 
L 111.368337 205.193633 
L 111.633434 202.664055 
L 111.89853 201.957284 
L 112.163627 202.920348 
L 112.428723 202.094359 
L 112.693825 205.341244 
L 112.958922 201.589076 
L 113.224018 202.822484 
L 113.489114 203.092997 
L 113.754211 200.932498 
L 114.019313 203.388339 
L 114.549506 200.023536 
L 115.079704 200.589564 
L 115.344801 199.659246 
L 115.609897 202.651465 
L 115.874993 200.066655 
L 116.14009 201.97375 
L 116.405192 202.110712 
L 116.670288 201.99505 
L 116.93539 204.438778 
L 117.200487 201.482784 
L 117.465583 203.641831 
L 117.995776 200.419364 
L 118.260872 201.816903 
L 118.525969 201.929009 
L 118.791065 203.399665 
L 119.056162 203.975284 
L 119.321258 201.964363 
L 119.851462 201.953782 
L 120.116558 201.297661 
L 120.381655 202.374997 
L 120.646751 201.589085 
L 121.176944 203.090876 
L 121.707137 202.07001 
L 121.972244 201.249183 
L 122.237341 201.347188 
L 122.502437 203.269667 
L 122.767534 201.385988 
L 123.03263 204.251495 
L 123.297727 204.917977 
L 123.562823 202.368121 
L 123.827919 201.179271 
L 124.093016 203.721814 
L 124.358112 202.255835 
L 124.62322 203.346338 
L 124.888316 201.705265 
L 125.153413 202.006811 
L 125.418509 204.050777 
L 125.683605 202.14706 
L 125.948702 204.03695 
L 126.213798 202.04526 
L 126.478895 201.894574 
L 126.743991 202.998725 
L 127.009099 201.677005 
L 127.274195 199.626317 
L 127.539291 203.45035 
L 127.804388 200.320488 
L 128.069484 204.950035 
L 128.334581 202.517953 
L 128.599677 202.661537 
L 128.864774 203.87755 
L 129.12987 203.18738 
L 129.394977 204.154251 
L 129.660074 204.591557 
L 129.92517 203.085324 
L 130.190267 203.649045 
L 130.455363 202.146162 
L 130.72046 203.095666 
L 130.985556 202.97976 
L 131.250653 202.723792 
L 131.780846 204.243412 
L 132.045953 202.205032 
L 132.311049 203.73141 
L 132.576146 204.274164 
L 132.841242 201.167731 
L 133.106339 202.400239 
L 133.371435 199.969813 
L 133.636532 202.676773 
L 133.901628 203.379961 
L 134.166725 201.506491 
L 134.431832 202.031911 
L 134.696928 199.496702 
L 135.227121 204.239798 
L 135.757314 203.096734 
L 136.022411 207.956705 
L 136.287507 206.755974 
L 136.552603 204.177915 
L 136.8177 204.733649 
L 137.082807 204.174515 
L 137.347904 203.093316 
L 137.613 200.388379 
L 137.878096 199.142764 
L 138.408289 199.856346 
L 138.673386 199.590332 
L 138.938482 201.374391 
L 139.203579 200.405608 
L 139.468686 207.607316 
L 139.733782 230.821845 
L 139.998879 215.092741 
L 140.529072 224.69933 
L 140.794168 217.167337 
L 141.059265 224.45435 
L 141.324361 219.012922 
L 141.589458 220.906166 
L 141.854554 221.38589 
L 142.119661 219.085465 
L 142.384758 221.606543 
L 142.914951 215.864552 
L 143.180047 215.575867 
L 143.445144 213.189342 
L 143.71024 213.4814 
L 143.975337 211.731854 
L 144.240433 212.306348 
L 144.50554 209.223445 
L 144.770637 208.022945 
L 145.30083 210.651617 
L 145.565926 207.962523 
L 145.831023 208.909774 
L 146.361215 206.419899 
L 146.626312 203.226935 
L 146.891419 204.316689 
L 147.421612 200.96485 
L 147.686709 201.543411 
L 147.951805 201.424017 
L 148.481998 197.83844 
L 149.012191 196.272687 
L 149.542395 193.492483 
L 149.807491 194.17325 
L 150.072587 192.455267 
L 150.337684 192.594868 
L 150.60278 189.282183 
L 150.867877 191.0169 
L 151.132973 189.851176 
L 151.39807 190.119915 
L 151.663166 188.281062 
L 151.928273 188.295103 
L 152.458466 183.627532 
L 152.723563 184.071471 
L 153.783949 178.511285 
L 154.049045 178.569309 
L 154.579249 172.961662 
L 154.844345 168.863158 
L 155.109442 168.485044 
L 155.374538 168.938074 
L 155.904731 163.232975 
L 156.169828 158.23746 
L 156.965128 155.117543 
L 157.495321 148.931861 
L 158.025514 143.649655 
L 158.29061 142.267353 
L 158.820803 135.642366 
L 159.351007 129.436264 
L 159.8812 114.479724 
L 160.941585 73.904455 
L 162.267078 28.554545 
L 163.327464 72.209846 
L 163.857657 96.353231 
L 165.448247 155.529331 
L 165.97844 166.028545 
L 167.303933 189.463744 
L 167.569029 191.563791 
L 168.629415 204.82647 
L 169.689812 214.762693 
L 170.220005 221.310533 
L 170.750198 224.472304 
L 171.015294 226.858292 
L 171.545487 229.085413 
L 171.810594 230.934746 
L 172.075691 231.319622 
L 172.340787 234.131173 
L 172.605883 233.688181 
L 172.87098 233.795347 
L 173.136076 233.511396 
L 173.401173 234.725239 
L 173.666269 234.67027 
L 173.931366 236.148198 
L 174.196462 235.864301 
L 174.461569 234.629628 
L 174.726666 235.997617 
L 174.991762 233.284751 
L 175.256859 233.719722 
L 175.521955 233.435612 
L 175.787052 232.881861 
L 176.052148 232.751494 
L 176.317245 230.734257 
L 176.582341 233.415117 
L 176.847448 233.267149 
L 177.377641 234.867228 
L 177.642738 233.910411 
L 178.172931 238.048163 
L 178.438027 236.833104 
L 178.703124 243.177715 
L 178.96822 240.052369 
L 179.233316 238.822935 
L 179.498424 241.239294 
L 179.76352 240.949732 
L 180.028617 242.517871 
L 180.293713 242.389987 
L 180.55881 243.196733 
L 180.823906 243.31344 
L 181.089002 245.586684 
L 181.354099 243.290989 
L 181.619195 246.810917 
L 181.884303 245.147063 
L 182.149399 246.22694 
L 182.414495 245.661998 
L 182.679592 246.995493 
L 182.944688 247.006548 
L 183.474881 245.378054 
L 183.739978 245.517259 
L 184.005074 242.944897 
L 184.270171 244.815605 
L 184.535278 244.55955 
L 184.800374 237.448274 
L 185.065471 242.029592 
L 185.330567 243.499083 
L 185.595664 239.971495 
L 185.86076 240.508758 
L 186.125857 238.069456 
L 186.390953 239.695685 
L 186.65605 239.968633 
L 186.921157 236.063026 
L 187.186253 235.125216 
L 187.45135 236.864379 
L 187.716446 235.688883 
L 187.981543 235.398216 
L 188.246639 234.41889 
L 188.776832 233.463083 
L 189.041929 230.852905 
L 189.307036 235.377528 
L 189.572132 233.985405 
L 189.837229 230.352205 
L 190.102325 233.991382 
L 190.367422 232.328331 
L 190.632518 232.598512 
L 190.897615 233.266476 
L 191.162711 232.30715 
L 191.692904 234.068108 
L 191.958011 232.30715 
L 192.223108 234.730187 
L 192.488204 231.062124 
L 192.753301 234.614522 
L 193.018397 235.065317 
L 193.283493 231.320196 
L 193.54859 231.714966 
L 193.813686 231.839449 
L 194.078783 233.324713 
L 194.608987 229.795052 
L 194.874083 232.902545 
L 195.404276 230.056162 
L 195.669372 231.414101 
L 195.934469 230.320373 
L 196.729758 228.943653 
L 196.994865 230.158957 
L 197.525058 228.380982 
L 197.790155 230.283374 
L 198.055251 228.660798 
L 198.320348 229.325997 
L 198.850541 225.762567 
L 199.115637 228.89385 
L 199.380744 227.134091 
L 199.645841 227.659384 
L 199.910937 227.522542 
L 200.176034 227.105731 
L 200.44113 227.649937 
L 200.706227 226.28777 
L 200.971323 225.995003 
L 201.23642 228.449011 
L 201.501516 228.660016 
L 202.03172 228.156484 
L 202.296816 225.154488 
L 202.561913 227.048855 
L 203.092106 225.797555 
L 203.357202 225.6766 
L 203.622298 225.262623 
L 203.887395 226.192404 
L 204.152491 226.182836 
L 204.417599 225.752804 
L 204.682695 226.580942 
L 204.947792 223.864084 
L 205.477985 227.361328 
L 205.743081 224.781037 
L 206.008177 225.599789 
L 206.273274 223.583628 
L 206.53837 222.595258 
L 206.803478 225.016369 
L 207.068574 224.869659 
L 207.33367 223.786283 
L 207.598756 224.752016 
L 207.863853 224.589103 
L 208.128971 225.003477 
L 208.394067 224.187684 
L 208.659164 223.753756 
L 208.92426 223.091219 
L 209.189356 223.727686 
L 209.454453 222.252349 
L 209.719549 224.674304 
L 209.984646 222.764664 
L 210.249742 223.864774 
L 210.514839 221.824574 
L 210.779935 222.219473 
L 211.045032 223.038897 
L 211.310128 222.588102 
L 211.840321 221.008415 
L 212.105417 221.798169 
L 212.370514 221.119054 
L 212.63561 221.637891 
L 212.900707 220.818175 
L 213.165825 221.77174 
L 213.430921 221.627963 
L 213.696018 222.799853 
L 213.961114 221.852656 
L 214.226211 219.549966 
L 214.491307 221.725405 
L 214.756404 220.637719 
L 215.0215 221.702179 
L 215.286597 221.578233 
L 215.551693 218.040276 
L 215.816789 220.738227 
L 216.081886 221.006039 
L 216.346982 219.486099 
L 216.612079 220.989351 
L 216.877175 219.623389 
L 217.142272 219.067496 
L 217.407368 220.148971 
L 217.672465 219.733738 
L 217.937561 221.612273 
L 218.202679 220.657858 
L 218.467776 219.154105 
L 218.732872 221.197053 
L 218.997968 218.48777 
L 219.263065 219.401694 
L 219.528161 219.656103 
L 219.793258 218.835303 
L 220.323451 221.287464 
L 220.588547 218.955678 
L 220.853644 219.065875 
L 221.11874 219.625627 
L 221.648933 221.776516 
L 221.91403 221.793281 
L 222.179126 220.110823 
L 222.444222 220.134544 
L 222.709319 219.729122 
L 222.974437 220.090482 
L 223.239533 219.152201 
L 223.50463 219.007939 
L 223.769726 217.873842 
L 224.034823 218.571591 
L 224.299919 220.32802 
L 224.830112 219.111219 
L 225.095209 219.908799 
L 225.360305 219.0736 
L 225.625402 217.705311 
L 225.890498 220.696295 
L 226.155594 216.598056 
L 226.420691 218.248524 
L 226.685787 218.379158 
L 226.950884 217.970005 
L 227.21598 219.438197 
L 227.481077 217.526288 
L 227.746173 216.824505 
L 228.011291 218.19682 
L 228.276388 218.729828 
L 228.541484 218.179551 
L 228.806581 217.932053 
L 229.071677 217.515879 
L 229.336774 219.689304 
L 229.866966 216.528415 
L 230.132063 217.4569 
L 230.397159 215.141612 
L 230.662256 215.956929 
L 230.927352 216.07005 
L 231.192449 214.160308 
L 231.457545 218.106817 
L 231.722642 215.498281 
L 231.987738 214.936915 
L 232.252835 215.752538 
L 232.517931 215.067545 
L 232.783027 214.92277 
L 233.048145 217.090891 
L 233.313242 217.903083 
L 233.578338 215.985684 
L 233.843435 215.837404 
L 234.108531 214.46346 
L 234.373628 214.848326 
L 234.638724 217.334792 
L 234.903821 216.890024 
L 235.168917 217.437491 
L 235.434014 216.063475 
L 235.69911 216.996147 
L 235.964206 216.286038 
L 236.229303 216.151778 
L 236.494399 216.967979 
L 236.759496 215.052798 
L 237.024592 218.441576 
L 237.289689 216.406156 
L 237.554785 216.381378 
L 237.819882 218.28978 
L 238.085 214.189997 
L 238.350096 216.635817 
L 238.615193 216.360113 
L 238.880289 214.582103 
L 239.145386 216.890269 
L 239.410482 216.200942 
L 239.675579 214.814911 
L 239.940675 215.910964 
L 240.205771 215.334366 
L 240.470868 216.416275 
L 240.735964 215.46155 
L 241.001061 215.751663 
L 241.266157 214.91699 
L 241.531254 213.167076 
L 242.061447 217.197616 
L 242.326543 213.632092 
L 242.59164 213.218089 
L 242.856736 212.568111 
L 243.121854 212.81499 
L 243.386951 214.983086 
L 243.652047 214.29312 
L 243.917143 212.938443 
L 244.18224 214.29675 
L 244.447336 214.652983 
L 244.712433 213.010945 
L 244.977529 213.701198 
L 245.242626 212.34257 
L 245.507722 214.369662 
L 245.772819 213.138079 
L 246.037915 213.810196 
L 246.303012 214.878439 
L 246.568108 209.85712 
L 247.098301 213.50125 
L 247.363397 211.989392 
L 247.628494 212.948857 
L 248.158708 212.516185 
L 248.423805 213.911881 
L 248.688901 207.889592 
L 248.953998 198.915674 
L 249.219094 196.49542 
L 249.484191 206.015512 
L 249.749287 196.262371 
L 250.014384 202.514592 
L 250.27948 202.583551 
L 250.544576 195.240017 
L 250.809673 201.769624 
L 251.074769 200.599277 
L 251.339866 198.615951 
L 251.604962 202.844586 
L 251.870059 194.915993 
L 252.135155 202.825334 
L 252.400252 204.215276 
L 252.665348 196.772075 
L 252.930466 200.696771 
L 253.195563 197.945437 
L 253.460659 198.463132 
L 253.725755 201.238356 
L 253.990852 196.598221 
L 254.255948 201.79552 
L 254.521045 200.716294 
L 254.786141 196.819336 
L 255.051238 202.409477 
L 255.316334 199.498843 
L 255.581431 199.198624 
L 255.846527 201.871616 
L 256.111624 197.162916 
L 256.37672 200.60672 
L 256.641816 201.456547 
L 256.906913 199.139527 
L 257.172009 202.070409 
L 257.437106 198.060119 
L 257.702202 198.672891 
L 257.96732 203.308194 
L 258.232417 197.755528 
L 258.497513 200.381757 
L 258.76261 198.827154 
L 259.027706 198.783549 
L 259.292803 200.777441 
L 259.557899 199.744736 
L 259.822996 198.035467 
L 260.088092 202.81514 
L 260.353189 199.582607 
L 260.618285 200.1642 
L 260.883381 200.461015 
L 261.148478 198.292536 
L 261.413574 200.674783 
L 261.678671 201.272308 
L 261.943767 199.202424 
L 262.208864 202.052217 
L 262.47396 199.906991 
L 262.739057 200.361959 
L 263.004175 201.636646 
L 263.269271 199.008043 
L 263.534368 198.682807 
L 263.799464 198.746864 
L 264.329657 200.444917 
L 264.594753 198.849451 
L 264.85985 199.185233 
L 265.124946 200.310288 
L 265.390043 198.650705 
L 265.655139 199.707828 
L 265.920236 199.486547 
L 266.185332 199.454527 
L 266.450429 201.058525 
L 266.715525 199.846482 
L 266.980622 200.19452 
L 267.245718 201.585359 
L 267.510814 198.56217 
L 267.775911 200.685335 
L 268.041029 199.096893 
L 268.306125 199.191316 
L 268.571222 201.121493 
L 268.836318 200.146428 
L 269.101415 200.241008 
L 269.366511 201.208312 
L 269.631608 200.106267 
L 269.896704 200.768001 
L 270.161801 202.012871 
L 270.426897 200.335559 
L 270.691993 201.303085 
L 270.95709 201.548623 
L 271.222186 199.605178 
L 271.487283 201.826215 
L 271.752379 200.830478 
L 272.017476 201.226874 
L 272.282572 202.091819 
L 272.547669 200.655392 
L 272.812765 202.725994 
L 273.077883 201.607278 
L 273.34298 201.432216 
L 273.608076 202.690056 
L 273.873173 199.242247 
L 274.138269 200.737756 
L 274.403365 204.026792 
L 274.668462 201.677805 
L 274.933558 203.054692 
L 275.198655 201.669754 
L 275.463751 202.855726 
L 275.728848 204.800437 
L 275.993944 200.946861 
L 276.259041 201.907305 
L 276.524137 202.185169 
L 276.789234 201.458191 
L 277.05433 201.208577 
L 277.319427 200.215506 
L 277.584523 200.857637 
L 277.849619 199.017698 
L 278.114738 200.464999 
L 278.379834 201.143772 
L 278.64493 199.377447 
L 278.910027 199.467368 
L 279.175123 201.675456 
L 279.44022 200.555169 
L 279.705316 202.174871 
L 279.970413 201.213744 
L 280.235509 199.254451 
L 280.500606 202.821571 
L 280.765702 201.332475 
L 281.030799 203.341472 
L 281.295895 202.646071 
L 281.560991 199.708092 
L 281.826088 202.053104 
L 282.091184 202.044961 
L 282.356281 203.411883 
L 282.621377 203.960283 
L 282.886495 201.206021 
L 283.151592 205.537265 
L 283.416688 204.18605 
L 283.681785 201.046373 
L 283.946881 202.913254 
L 284.211978 200.325774 
L 284.74217 204.165846 
L 285.007267 200.313434 
L 285.272363 203.990226 
L 285.802556 198.359931 
L 286.067653 202.426205 
L 286.332749 202.438461 
L 286.597846 201.447237 
L 286.862942 203.790115 
L 287.128039 199.96059 
L 287.658232 202.659694 
L 287.92335 198.681932 
L 288.188446 200.68048 
L 288.453542 200.536974 
L 288.718639 199.455414 
L 288.983735 202.20076 
L 289.248832 201.90563 
L 290.044121 199.962906 
L 290.309218 202.667654 
L 290.574314 200.085629 
L 290.839411 200.343606 
L 291.104507 204.024471 
L 291.369603 199.896199 
L 291.6347 202.495303 
L 291.899796 200.420542 
L 292.164893 199.600621 
L 292.429989 202.576909 
L 292.695086 199.968762 
L 292.960204 200.632712 
L 293.2253 202.293868 
L 293.490397 198.975552 
L 293.755493 201.715262 
L 294.285686 201.13227 
L 294.815879 198.650085 
L 295.080976 201.225851 
L 295.346072 201.661161 
L 295.611168 199.17454 
L 295.876265 202.169295 
L 296.406458 199.132318 
L 296.671554 199.123864 
L 296.936651 197.465505 
L 297.466844 201.163077 
L 297.73194 201.04864 
L 297.73194 201.04864 
" style="fill:none;stroke:#db5f57;stroke-linecap:round;stroke-width:2.25;"/>
   </g>
   <g id="line2d_15">
    <path clip-path="url(#p9f89b19578)" d="M 111.047649 204.828427 
L 111.40111 206.89059 
L 111.754572 204.709768 
L 112.108034 204.437636 
L 112.461496 206.649116 
L 112.814958 206.518825 
L 113.16842 203.702712 
L 113.521882 205.055145 
L 113.875344 203.832914 
L 114.228806 206.442028 
L 115.289192 204.576558 
L 115.642654 204.611113 
L 115.996116 203.783835 
L 116.349578 206.119934 
L 116.70304 204.500114 
L 117.409969 205.629553 
L 117.763431 205.346272 
L 118.116893 206.299606 
L 118.470355 203.604327 
L 118.823817 203.64654 
L 119.177279 204.599583 
L 119.530741 205.17351 
L 119.884203 204.779273 
L 120.237664 204.78306 
L 120.591126 205.88493 
L 120.944588 203.979456 
L 121.29805 206.160373 
L 121.651512 204.14387 
L 122.004974 204.426918 
L 122.358436 205.107865 
L 122.711898 206.775121 
L 123.418822 203.129909 
L 123.772284 203.011305 
L 124.125746 204.36893 
L 124.479208 203.435706 
L 124.83267 204.949712 
L 125.186132 204.161776 
L 125.539594 204.842262 
L 125.893056 204.734806 
L 126.246518 205.928003 
L 126.599979 204.75362 
L 126.953441 206.114218 
L 127.306903 206.660688 
L 128.013827 203.969652 
L 128.367289 206.709078 
L 128.720751 204.129802 
L 129.074213 205.252423 
L 129.427675 204.847408 
L 129.781137 205.114932 
L 130.134599 204.728612 
L 130.488061 205.4272 
L 130.841523 206.400518 
L 131.194985 205.746714 
L 131.548447 205.345575 
L 131.901909 206.014157 
L 132.255371 206.162703 
L 132.608833 206.455989 
L 132.962294 205.520097 
L 133.315756 206.069674 
L 133.669218 205.260135 
L 134.02268 204.068253 
L 134.376142 204.729127 
L 134.729604 206.088143 
L 135.083066 205.048399 
L 135.436528 206.009794 
L 135.78999 205.334168 
L 136.143452 205.070579 
L 136.496914 206.299142 
L 136.850376 205.779327 
L 137.203838 203.890213 
L 137.5573 207.463204 
L 137.910762 204.999733 
L 138.264224 205.418939 
L 138.617686 204.762033 
L 138.971148 205.574568 
L 139.324609 205.036565 
L 139.678071 204.806198 
L 140.031533 203.882403 
L 140.384995 204.004892 
L 140.738457 205.803306 
L 141.091919 202.265248 
L 141.445381 205.442869 
L 141.798843 207.315822 
L 142.152305 205.327604 
L 142.505767 207.370026 
L 142.859229 206.298413 
L 143.212691 204.422407 
L 143.566153 206.738659 
L 143.919615 206.890182 
L 144.626539 208.415719 
L 144.980001 207.607816 
L 145.333463 206.248144 
L 145.686924 205.599025 
L 146.040386 206.962136 
L 146.393848 205.732446 
L 146.74731 204.946412 
L 147.100772 205.10514 
L 147.454234 205.519788 
L 147.807696 207.70078 
L 148.161158 203.648798 
L 148.51462 204.178676 
L 149.221544 206.510986 
L 149.575006 204.359119 
L 149.928468 204.218515 
L 150.28193 201.42573 
L 150.635392 203.829341 
L 150.988854 203.72134 
L 151.342316 204.420484 
L 151.695778 207.014528 
L 152.049239 204.859991 
L 152.402701 205.825359 
L 152.756163 204.369896 
L 153.109625 203.703529 
L 153.463087 205.331453 
L 153.816549 202.345584 
L 154.170011 201.315884 
L 154.523473 201.272269 
L 154.876935 201.009427 
L 155.230397 200.350524 
L 155.583859 201.438236 
L 155.937321 200.10232 
L 156.290783 201.629427 
L 156.644245 201.467255 
L 157.351169 199.124384 
L 157.704631 199.394334 
L 158.058093 201.165348 
L 158.411554 201.032191 
L 158.765016 200.121818 
L 159.118478 200.409807 
L 159.47194 202.154983 
L 159.825402 201.500051 
L 160.532326 203.848805 
L 160.885788 201.690545 
L 161.23925 201.971053 
L 161.592712 203.225822 
L 161.946174 231.731135 
L 162.299636 233.237183 
L 162.653098 243.314817 
L 163.00656 232.954603 
L 163.360022 244.889087 
L 163.713484 233.113011 
L 164.066946 247.696368 
L 164.420408 234.202692 
L 164.773869 248.771782 
L 165.127331 235.028313 
L 165.480793 250.291074 
L 165.834255 236.760909 
L 166.187717 248.550264 
L 166.541179 238.951706 
L 166.894641 245.6418 
L 167.248103 238.921642 
L 167.601565 243.893323 
L 167.955027 239.352274 
L 168.308489 243.800712 
L 168.661951 241.370225 
L 169.015413 241.660992 
L 169.368875 242.195135 
L 169.722337 240.224939 
L 170.075799 246.111994 
L 170.429261 241.856422 
L 170.782723 245.722825 
L 171.136184 240.373262 
L 171.489646 244.523814 
L 171.843108 242.936139 
L 172.19657 246.834312 
L 172.550032 243.522553 
L 172.903494 247.129944 
L 173.256956 244.886227 
L 173.610418 249.08115 
L 173.96388 246.136134 
L 174.317342 247.21521 
L 174.670804 246.562105 
L 175.024266 246.153232 
L 175.377728 248.055509 
L 175.73119 244.401324 
L 176.084652 246.993598 
L 176.438114 247.686143 
L 176.791576 248.089212 
L 177.145038 246.232743 
L 177.4985 246.346309 
L 177.851961 246.246893 
L 178.205423 246.649872 
L 178.558885 244.635009 
L 178.912347 247.898044 
L 179.265809 244.396822 
L 179.619271 246.16155 
L 179.972733 246.297711 
L 180.679657 247.123068 
L 181.033119 246.995337 
L 181.386581 245.264941 
L 181.740043 247.287179 
L 182.446967 246.23749 
L 183.153891 246.901205 
L 183.507353 246.795851 
L 183.860815 245.465863 
L 184.214276 244.921545 
L 184.567738 247.24298 
L 184.9212 246.845992 
L 185.274662 247.245774 
L 185.628124 245.241494 
L 185.981586 244.850216 
L 186.335048 244.991852 
L 186.68851 249.321564 
L 187.041972 246.227127 
L 187.395434 246.621215 
L 187.748896 246.354773 
L 188.102358 245.566656 
L 188.45582 247.190049 
L 188.809282 247.445429 
L 189.516206 245.186624 
L 189.869667 245.749926 
L 190.223129 245.34209 
L 190.576591 245.233984 
L 190.930053 245.369904 
L 191.636977 246.188187 
L 191.990439 245.53357 
L 192.343901 246.484785 
L 192.697363 246.50131 
L 193.050825 246.895177 
L 193.404287 243.966846 
L 193.757749 247.050224 
L 194.111211 246.659126 
L 194.464673 244.768158 
L 194.818135 245.059285 
L 195.171597 245.200648 
L 195.525059 247.237967 
L 195.87852 248.193928 
L 196.231982 246.594458 
L 196.585444 248.774743 
L 196.938906 246.064989 
L 197.292368 250.233055 
L 197.64583 248.098728 
L 197.999292 247.571985 
L 198.352754 248.253341 
L 198.706216 246.657092 
L 199.059678 247.0778 
L 199.41314 247.066969 
L 199.766602 246.944788 
L 200.120064 247.620619 
L 200.473526 246.434522 
L 200.826988 246.469718 
L 201.18045 247.405804 
L 201.533912 247.275558 
L 201.887374 247.57099 
L 202.240836 246.092524 
L 202.947759 245.837485 
L 203.301221 247.831527 
L 203.654683 245.436018 
L 204.008145 245.861815 
L 204.361607 245.601429 
L 205.068531 243.247783 
L 205.421993 242.957513 
L 205.775455 243.084889 
L 206.128917 244.592525 
L 206.482379 243.527085 
L 206.835841 245.281037 
L 207.189303 239.825041 
L 207.542765 243.313084 
L 208.249689 246.856532 
L 208.603151 246.973374 
L 209.663536 253.755599 
L 210.016998 254.394768 
L 210.37046 253.834293 
L 210.723922 254.901068 
L 211.077384 257.009459 
L 211.430846 256.080537 
L 211.784308 257.127246 
L 212.13777 255.90893 
L 212.491232 256.018851 
L 213.198156 259.211452 
L 213.551618 259.600813 
L 213.90508 261.342161 
L 214.258542 260.136027 
L 214.612004 260.49778 
L 214.965466 261.588542 
L 215.318927 261.550956 
L 215.672389 259.411867 
L 216.025851 261.792344 
L 216.379313 260.56274 
L 216.732775 262.451137 
L 217.086237 262.021193 
L 217.439699 263.623261 
L 217.793161 263.615784 
L 218.146623 265.763839 
L 218.500085 265.751536 
L 218.853547 264.67246 
L 219.207009 267.465631 
L 219.560471 267.186651 
L 219.913933 266.522183 
L 220.267395 269.178039 
L 220.620857 267.695794 
L 220.974319 269.835551 
L 221.327781 270.100038 
L 221.681242 269.952103 
L 222.034704 270.483559 
L 222.388166 270.75289 
L 222.741628 270.073508 
L 223.09509 270.86475 
L 223.448552 269.500806 
L 223.802014 272.173492 
L 224.508938 267.624684 
L 224.8624 271.481823 
L 225.215862 270.680612 
L 225.569324 272.132777 
L 225.922786 270.918666 
L 226.276248 272.645505 
L 226.983172 272.504726 
L 227.336634 272.084694 
L 227.690096 270.585935 
L 228.397019 271.232151 
L 228.750481 272.86236 
L 229.103943 273.93152 
L 229.457405 272.301295 
L 229.810867 272.170051 
L 230.164329 273.236907 
L 230.517791 272.938262 
L 230.871253 272.143451 
L 231.224715 271.713258 
L 231.578177 273.461008 
L 231.931639 274.392195 
L 232.285101 272.911681 
L 232.638563 272.21401 
L 233.345487 273.811592 
L 233.698949 272.452273 
L 234.052411 271.907497 
L 234.405872 274.597358 
L 234.759334 273.770553 
L 235.466258 275.103736 
L 235.81972 273.354622 
L 236.173182 274.279157 
L 236.526644 274.264649 
L 237.233568 274.641987 
L 237.58703 274.483908 
L 237.940492 274.498434 
L 238.293954 273.137913 
L 238.647416 274.206435 
L 239.000878 274.452335 
L 239.35434 273.359113 
L 239.707802 273.629396 
L 240.061264 271.350779 
L 240.768187 275.645455 
L 241.121649 274.276974 
L 241.475111 274.807869 
L 241.828573 273.577856 
L 242.182035 270.745345 
L 242.535497 273.833484 
L 242.888959 272.191284 
L 243.242421 273.126641 
L 243.595883 272.590712 
L 243.949345 271.632927 
L 244.302807 272.71227 
L 244.656269 271.612897 
L 245.009731 273.898507 
L 245.363193 272.399432 
L 245.716655 271.845823 
L 246.070117 272.520986 
L 246.423579 272.895663 
L 246.777041 271.145443 
L 247.130502 273.439386 
L 247.483964 273.970715 
L 247.837426 272.873174 
L 248.190888 273.267939 
L 248.54435 272.71904 
L 248.897812 273.113831 
L 249.251274 272.969725 
L 249.604736 271.206113 
L 249.958198 271.456565 
L 250.31166 274.455032 
L 250.665122 270.089819 
L 251.018584 271.175604 
L 251.372046 270.634003 
L 251.725508 271.851349 
L 252.07897 271.28683 
L 252.432432 270.190615 
L 252.785894 272.342403 
L 253.139356 270.575137 
L 253.492817 270.838353 
L 253.846279 271.638383 
L 254.199741 271.346989 
L 254.553203 271.220464 
L 254.906665 273.112195 
L 255.260127 270.420397 
L 255.613589 270.660495 
L 255.967051 269.847479 
L 256.320513 269.553117 
L 256.673975 271.577043 
L 257.027437 271.837875 
L 257.380899 269.250825 
L 257.734361 272.904401 
L 258.441285 271.120238 
L 258.794747 273.020871 
L 259.148209 271.086638 
L 259.501671 274.868566 
L 259.855132 272.450439 
L 260.208594 269.074759 
L 260.562056 272.554009 
L 260.915518 270.781699 
L 261.26898 271.187325 
L 261.622442 271.055579 
L 261.975904 270.639561 
L 262.329366 269.119789 
L 262.682828 271.709215 
L 263.03629 269.91548 
L 263.389752 270.595238 
L 263.743214 269.923347 
L 264.096676 270.31339 
L 264.450138 268.410953 
L 264.8036 269.46758 
L 265.157062 269.327879 
L 265.510524 269.449099 
L 265.863985 268.067619 
L 266.217447 267.142743 
L 266.570909 270.108086 
L 266.924371 269.000739 
L 267.277833 269.812805 
L 267.631295 268.710537 
L 267.984757 268.694514 
L 268.338219 270.588018 
L 268.691681 270.870185 
L 269.045143 269.087326 
L 269.398605 269.482826 
L 269.752067 268.137843 
L 270.105529 269.58009 
L 270.458991 270.266091 
L 270.812453 268.361255 
L 271.165915 267.788072 
L 271.519377 269.426856 
L 271.872838 269.806547 
L 272.2263 268.584637 
L 272.579762 271.163054 
L 272.933224 269.252156 
L 273.286686 268.441993 
L 273.640148 269.376034 
L 273.99361 268.829586 
L 274.347072 269.085325 
L 274.700534 268.797255 
L 275.407458 269.879666 
L 275.76092 269.594272 
L 276.114382 267.547653 
L 276.467844 267.784242 
L 276.821306 266.717986 
L 277.174768 268.465747 
L 277.52823 268.737782 
L 277.881692 264.898459 
L 278.588615 268.161027 
L 278.942077 267.746015 
L 279.295539 268.400437 
L 279.649001 266.767433 
L 280.002463 267.84788 
L 280.355925 266.88558 
L 280.709387 267.278764 
L 281.062849 265.920385 
L 281.416311 265.2133 
L 281.769773 266.010645 
L 282.123235 268.194588 
L 282.476697 265.718794 
L 282.830159 264.486185 
L 283.183621 264.882075 
L 283.537083 266.089656 
L 283.890545 265.971596 
L 284.244007 266.22446 
L 284.597468 264.977466 
L 284.95093 267.280828 
L 285.304392 265.098215 
L 285.657854 264.949267 
L 286.011316 265.196395 
L 286.364778 265.733062 
L 287.071702 264.909713 
L 287.425164 263.667407 
L 287.778626 267.60482 
L 288.132088 266.39625 
L 288.48555 262.700357 
L 288.839012 265.392676 
L 289.192474 265.80878 
L 289.545936 265.530427 
L 289.899398 264.422582 
L 290.25286 265.78333 
L 290.606322 266.587423 
L 290.959783 266.162758 
L 291.313245 265.456693 
L 291.666707 266.699856 
L 292.020169 265.58599 
L 292.373631 265.847468 
L 292.727093 265.29321 
L 293.080555 265.276092 
L 293.434017 264.724561 
L 293.787479 265.253254 
L 294.140941 262.925991 
L 294.494403 263.739084 
L 294.847865 262.359677 
L 295.201327 263.442939 
L 295.554789 262.462597 
L 295.908251 260.539405 
L 296.261713 262.051577 
L 296.615175 261.89301 
L 296.968637 262.715217 
L 297.322098 261.31735 
L 297.67556 262.944506 
L 298.029022 262.547953 
L 298.382484 257.724062 
L 298.735946 260.330089 
L 299.089408 260.041983 
L 299.44287 261.552111 
L 299.796332 260.168147 
L 300.149794 261.270012 
L 300.503256 260.30329 
L 300.856718 261.789886 
L 301.21018 260.952207 
L 301.563642 262.174706 
L 301.917104 261.7514 
L 302.270566 261.877695 
L 302.624028 261.195801 
L 302.97749 261.316109 
L 303.330952 260.745412 
L 303.684413 259.507445 
L 304.037875 261.14809 
L 304.391337 261.262435 
L 304.744799 258.248021 
L 305.098261 257.427516 
L 305.451723 258.915075 
L 305.805185 259.446996 
L 306.158647 259.564085 
L 306.512109 259.425767 
L 306.865571 260.375801 
L 307.219033 259.407581 
L 307.572495 259.678154 
L 307.925957 262.531797 
L 308.279419 260.616239 
L 308.632881 259.395416 
L 308.986343 261.124413 
L 309.339805 260.847686 
L 309.693267 260.023471 
L 310.046728 260.835605 
L 310.40019 260.688132 
L 311.107114 259.433292 
L 311.460576 258.322666 
L 311.814038 261.744103 
L 312.1675 259.81809 
L 312.520962 261.295539 
L 312.874424 258.294939 
L 313.227886 259.916859 
L 313.581348 259.489123 
L 313.93481 257.713087 
L 314.288272 259.729366 
L 314.995196 257.12471 
L 315.348658 257.228959 
L 315.70212 256.265004 
L 316.055582 255.949936 
L 316.409044 256.652585 
L 316.762505 256.488812 
L 317.115967 256.501391 
L 317.822891 257.156992 
L 318.176353 255.798652 
L 318.529815 256.762983 
L 318.883277 257.122462 
L 319.236739 256.863934 
L 319.590201 258.206985 
L 319.943663 255.996944 
L 320.297125 256.971165 
L 320.650587 256.807252 
L 321.004049 256.391003 
L 321.357511 255.448324 
L 321.710973 257.463171 
L 322.064435 256.659021 
L 322.417897 256.466398 
L 322.771359 256.889145 
L 323.12482 257.97737 
L 323.478282 254.14492 
L 323.831744 257.513647 
L 324.185206 255.863297 
L 324.538668 256.286257 
L 324.89213 257.374811 
L 325.245592 255.014001 
L 325.599054 256.393276 
L 325.952516 254.981819 
L 326.305978 254.426098 
L 326.65944 254.985058 
L 327.012902 256.338995 
L 327.366364 254.380772 
L 327.719826 253.818325 
L 328.073288 253.679313 
L 328.42675 256.290974 
L 328.780212 254.765342 
L 329.133674 255.305195 
L 329.487135 254.454868 
L 329.840597 254.571131 
L 330.194059 258.400084 
L 330.547521 252.89566 
L 330.900983 254.270203 
L 331.254445 254.289766 
L 331.607907 256.854476 
L 331.961369 255.068947 
L 332.314831 254.114772 
L 332.668293 254.645098 
L 333.021755 254.641837 
L 333.375217 254.767907 
L 333.728679 253.2505 
L 334.082141 254.198286 
L 334.435603 254.764664 
L 334.789065 255.010338 
L 335.142527 254.58303 
L 335.495989 253.621908 
L 335.84945 254.556831 
L 336.202912 254.9646 
L 336.556374 254.291554 
L 336.909836 254.262 
L 337.263298 253.158079 
L 337.61676 253.015537 
L 337.970222 254.501028 
L 338.323684 250.770455 
L 338.677146 252.140003 
L 339.030608 254.458238 
L 339.38407 252.949155 
L 339.737532 253.20451 
L 340.090994 256.074022 
L 340.444456 253.605869 
L 340.797918 255.649519 
L 341.15138 254.408736 
L 341.504842 253.692082 
L 341.858303 253.556043 
L 342.211765 255.334709 
L 342.565227 253.788224 
L 342.918689 254.339205 
L 343.272151 253.101174 
L 343.625613 250.455151 
L 343.979075 250.717109 
L 344.332537 251.128752 
L 344.685999 252.067932 
L 345.039461 252.207413 
L 345.392923 251.635896 
L 345.746385 251.493 
L 346.099847 251.05403 
L 346.453309 252.851031 
L 347.160233 251.598625 
L 347.513695 252.657517 
L 348.220618 250.985838 
L 348.57408 250.713455 
L 348.927542 251.24117 
L 349.281004 249.991304 
L 349.634466 250.389623 
L 349.987928 249.579255 
L 350.34139 252.170899 
L 350.694852 249.534363 
L 351.048314 249.793023 
L 351.401776 248.965176 
L 351.755238 249.775741 
L 352.1087 250.160363 
L 352.462162 250.163817 
L 352.815624 250.013693 
L 353.169086 248.630009 
L 353.522548 248.193194 
L 353.87601 249.140329 
L 354.229471 248.168671 
L 354.582933 248.175681 
L 354.936395 248.455299 
L 355.289857 248.000752 
L 355.643319 250.084206 
L 355.996781 248.678941 
L 356.350243 250.329171 
L 356.703705 248.220705 
L 357.057167 249.612522 
L 357.410629 249.990325 
L 357.764091 248.482921 
L 358.471015 248.157291 
L 358.824477 247.468132 
L 359.177939 247.597474 
L 359.531401 245.526346 
L 359.884863 247.870307 
L 360.238325 246.83701 
L 360.591786 246.556931 
L 360.945248 247.239287 
L 361.29871 247.235742 
L 361.652172 247.081413 
L 362.005634 246.654062 
L 362.359096 245.253141 
L 362.712558 249.258524 
L 363.06602 247.027798 
L 363.419482 248.561716 
L 363.772944 246.87336 
L 364.126406 246.18348 
L 364.479868 245.859912 
L 364.83333 246.427779 
L 365.186792 244.3506 
L 365.540254 246.557154 
L 365.893716 243.745915 
L 366.247178 246.107772 
L 366.954101 242.601785 
L 367.307563 243.576326 
L 367.661025 242.468904 
L 368.014487 244.384939 
L 368.367949 245.186441 
L 368.721411 243.255278 
L 369.074873 244.592302 
L 369.428335 242.782518 
L 369.781797 244.322641 
L 370.135259 242.789946 
L 370.488721 245.541741 
L 370.842183 242.74543 
L 371.195645 242.19501 
L 371.549107 242.327976 
L 371.902569 242.017319 
L 372.256031 242.009852 
L 372.609493 243.53599 
L 372.962955 243.517473 
L 373.316416 243.354762 
L 373.669878 241.839475 
L 374.02334 242.940814 
L 374.376802 241.813275 
L 374.730264 241.779499 
L 375.083726 241.217375 
L 375.437188 242.326603 
L 375.79065 240.928762 
L 376.144112 240.79955 
L 376.497574 239.933436 
L 376.851036 241.738185 
L 377.204498 240.218391 
L 377.55796 241.415552 
L 377.911422 241.685444 
L 378.264884 242.244089 
L 378.618346 241.107866 
L 378.971808 242.221529 
L 379.32527 241.218202 
L 379.678731 242.483971 
L 380.032193 242.879571 
L 380.385655 242.339571 
L 380.739117 240.077592 
L 381.092579 230.639343 
L 381.446041 187.683483 
L 381.799503 223.530581 
L 382.152965 193.769015 
L 382.506427 218.718654 
L 382.859889 197.419748 
L 383.213351 213.631195 
L 383.566813 199.842705 
L 383.920275 211.000193 
L 384.273737 202.280649 
L 384.627199 208.800454 
L 384.980661 207.72298 
L 385.334123 209.847278 
L 385.687585 209.033303 
L 386.041046 206.296982 
L 386.394508 211.334763 
L 386.74797 203.797771 
L 387.101432 212.840191 
L 387.454894 201.439281 
L 387.808356 207.617894 
L 388.161818 200.98894 
L 388.161818 200.98894 
" style="fill:none;stroke:#dbd057;stroke-linecap:round;stroke-width:2.25;"/>
   </g>
   <g id="patch_3">
    <path d="M 68.58 288 
L 68.58 16.2 
" style="fill:none;stroke:#262626;stroke-linecap:square;stroke-linejoin:miter;stroke-width:1.875;"/>
   </g>
   <g id="patch_4">
    <path d="M 403.38 288 
L 403.38 16.2 
" style="fill:none;stroke:#262626;stroke-linecap:square;stroke-linejoin:miter;stroke-width:1.875;"/>
   </g>
   <g id="patch_5">
    <path d="M 68.58 288 
L 403.38 288 
" style="fill:none;stroke:#262626;stroke-linecap:square;stroke-linejoin:miter;stroke-width:1.875;"/>
   </g>
   <g id="patch_6">
    <path d="M 68.58 16.2 
L 403.38 16.2 
" style="fill:none;stroke:#262626;stroke-linecap:square;stroke-linejoin:miter;stroke-width:1.875;"/>
   </g>
   <g id="legend_1">
    <g id="patch_7">
     <path d="M 293.16 76.079531 
L 391.83 76.079531 
Q 395.13 76.079531 395.13 72.779531 
L 395.13 27.75 
Q 395.13 24.45 391.83 24.45 
L 293.16 24.45 
Q 289.86 24.45 289.86 27.75 
L 289.86 72.779531 
Q 289.86 76.079531 293.16 76.079531 
z
" style="fill:#ffffff;opacity:0.8;stroke:#cccccc;stroke-linejoin:miter;stroke-width:1.5;"/>
    </g>
    <g id="line2d_16">
     <path d="M 296.46 37.085391 
L 329.46 37.085391 
" style="fill:none;stroke:#db5f57;stroke-linecap:round;stroke-width:2.25;"/>
    </g>
    <g id="line2d_17"/>
    <g id="text_15">
     <!-- 0.2 nL -->
     <defs>
      <path d="M 9.078125 0 
L 9.078125 10.015625 
L 19.09375 10.015625 
L 19.09375 0 
z
" id="ArialMT-46"/>
      <path d="M 6.59375 0 
L 6.59375 51.859375 
L 14.5 51.859375 
L 14.5 44.484375 
Q 20.21875 53.03125 31 53.03125 
Q 35.6875 53.03125 39.625 51.34375 
Q 43.5625 49.65625 45.515625 46.921875 
Q 47.46875 44.1875 48.25 40.4375 
Q 48.734375 37.984375 48.734375 31.890625 
L 48.734375 0 
L 39.9375 0 
L 39.9375 31.546875 
Q 39.9375 36.921875 38.90625 39.578125 
Q 37.890625 42.234375 35.28125 43.8125 
Q 32.671875 45.40625 29.15625 45.40625 
Q 23.53125 45.40625 19.453125 41.84375 
Q 15.375 38.28125 15.375 28.328125 
L 15.375 0 
z
" id="ArialMT-110"/>
      <path d="M 7.328125 0 
L 7.328125 71.578125 
L 16.796875 71.578125 
L 16.796875 8.453125 
L 52.046875 8.453125 
L 52.046875 0 
z
" id="ArialMT-76"/>
     </defs>
     <g style="fill:#262626;" transform="translate(342.66 42.860391)scale(0.165 -0.165)">
      <use xlink:href="#ArialMT-48"/>
      <use x="55.615234" xlink:href="#ArialMT-46"/>
      <use x="83.398438" xlink:href="#ArialMT-50"/>
      <use x="139.013672" xlink:href="#ArialMT-32"/>
      <use x="166.796875" xlink:href="#ArialMT-110"/>
      <use x="222.412109" xlink:href="#ArialMT-76"/>
     </g>
    </g>
    <g id="line2d_18">
     <path d="M 296.46 60.425156 
L 329.46 60.425156 
" style="fill:none;stroke:#dbd057;stroke-linecap:round;stroke-width:2.25;"/>
    </g>
    <g id="line2d_19"/>
    <g id="text_16">
     <!-- 2 nL -->
     <g style="fill:#262626;" transform="translate(342.66 66.200156)scale(0.165 -0.165)">
      <use xlink:href="#ArialMT-50"/>
      <use x="55.615234" xlink:href="#ArialMT-32"/>
      <use x="83.398438" xlink:href="#ArialMT-110"/>
      <use x="139.013672" xlink:href="#ArialMT-76"/>
     </g>
    </g>
   </g>
  </g>
 </g>
 <defs>
  <clipPath id="p9f89b19578">
   <rect height="271.8" width="334.8" x="68.58" y="16.2"/>
  </clipPath>
 </defs>
</svg>
