<?xml version="1.0" encoding="UTF-8" standalone="no"?>
<svg
   xmlns:dc="http://purl.org/dc/elements/1.1/"
   xmlns:cc="http://creativecommons.org/ns#"
   xmlns:rdf="http://www.w3.org/1999/02/22-rdf-syntax-ns#"
   xmlns:svg="http://www.w3.org/2000/svg"
   xmlns="http://www.w3.org/2000/svg"
   xmlns:xlink="http://www.w3.org/1999/xlink"
   xmlns:sodipodi="http://sodipodi.sourceforge.net/DTD/sodipodi-0.dtd"
   xmlns:inkscape="http://www.inkscape.org/namespaces/inkscape"
   height="394.051314pt"
   version="1.1"
   viewBox="0 0 702.276664 394.051314"
   width="702.276664pt"
   id="svg765"
   sodipodi:docname="Figure7-Model_effect_of_bubble_volume.svg"
   inkscape:version="1.0.1 (3bc2e813f5, 2020-09-07)">
  <metadata
     id="metadata769">
    <rdf:RDF>
      <cc:Work
         rdf:about="">
        <dc:format>image/svg+xml</dc:format>
        <dc:type
           rdf:resource="http://purl.org/dc/dcmitype/StillImage" />
      </cc:Work>
    </rdf:RDF>
  </metadata>
  <sodipodi:namedview
     pagecolor="#ffffff"
     bordercolor="#666666"
     borderopacity="1"
     objecttolerance="10"
     gridtolerance="10"
     guidetolerance="10"
     inkscape:pageopacity="0"
     inkscape:pageshadow="2"
     inkscape:window-width="1200"
     inkscape:window-height="1577"
     id="namedview767"
     showgrid="false"
     inkscape:zoom="1.1001106"
     inkscape:cx="601.19889"
     inkscape:cy="250.93453"
     inkscape:window-x="1358"
     inkscape:window-y="-8"
     inkscape:window-maximized="1"
     inkscape:current-layer="svg765"
     inkscape:document-rotation="0" />
  <defs
     id="defs4">
    <style
       type="text/css"
       id="style2">
*{stroke-linecap:butt;stroke-linejoin:round;}
  </style>
  </defs>
  <g
     id="patch_1">
    <path
       d="M 0,394.05131 H 702.27666 V 0 H 0 Z"
       style="fill:none"
       id="path6" />
  </g>
  <g
     id="patch_2">
    <path
       d="M 68.643522,336.972 H 497.70392 V 39.528 H 68.643522 Z"
       style="fill:none"
       id="path9" />
  </g>
  <g
     id="line2d_1">
    <path
       clip-path="url(#p2331cc7615)"
       d="M 68.643522,105.10569 H 497.70392"
       style="fill:none;stroke:#b2b2b2;stroke-width:2.25;stroke-dasharray:4.5, 2.25;stroke-dashoffset:0"
       id="path12" />
  </g>
  <g
     id="matplotlib.axis_1">
    <g
       id="xtick_1">
      <g
         id="line2d_2">
        <defs
           id="defs16">
          <path
             d="M 0,0 V 9"
             id="m367b4d5d52"
             style="stroke:#262626;stroke-width:1.875" />
        </defs>
        <g
           id="g20">
          <use
             style="fill:#262626;stroke:#262626;stroke-width:1.875"
             x="93.416756"
             xlink:href="#m367b4d5d52"
             y="336.97198"
             id="use18"
             width="100%"
             height="100%" />
        </g>
      </g>
      <g
         id="text_1">
        <!-- 0.8 -->
        <defs
           id="defs26">
          <path
             d="m 4.15625,35.296875 q 0,12.703125 2.609375,20.4375 2.609375,7.75 7.75,11.9375 5.15625,4.203125 12.96875,4.203125 5.765625,0 10.109375,-2.328125 4.34375,-2.3125 7.171875,-6.6875 Q 47.609375,58.5 49.21875,52.21875 q 1.609375,-6.265625 1.609375,-16.921875 0,-12.59375 -2.59375,-20.328125 Q 45.65625,7.234375 40.5,3 35.359375,-1.21875 27.484375,-1.21875 q -10.34375,0 -16.25,7.421875 -7.078125,8.9375 -7.078125,29.09375 z m 9.03125,0 q 0,-17.625 4.125,-23.46875 Q 21.4375,6 27.484375,6 q 6.0625,0 10.1875,5.859375 4.125,5.859375 4.125,23.4375 0,17.6875 -4.125,23.484375 -4.125,5.8125 -10.28125,5.8125 -6.046875,0 -9.671875,-5.125 Q 13.1875,52.9375 13.1875,35.296875 Z"
             id="ArialMT-48" />
          <path
             d="M 9.078125,0 V 10.015625 H 19.09375 V 0 Z"
             id="ArialMT-46" />
          <path
             d="m 17.671875,38.8125 q -5.46875,2.015625 -8.109375,5.71875 -2.625,3.71875 -2.625,8.890625 0,7.8125 5.609375,13.125 5.625,5.328125 14.9375,5.328125 9.375,0 15.09375,-5.453125 5.71875,-5.4375 5.71875,-13.25 0,-4.984375 -2.625,-8.671875 Q 43.0625,40.828125 37.75,38.8125 q 6.59375,-2.140625 10.03125,-6.9375 3.4375,-4.78125 3.4375,-11.421875 0,-9.171875 -6.5,-15.421875 -6.484375,-6.25 -17.078125,-6.25 -10.59375,0 -17.09375,6.265625 -6.5,6.28125 -6.5,15.65625 0,6.984375 3.546875,11.6875 3.546875,4.71875 10.078125,6.421875 z m -1.75,14.90625 q 0,-5.078125 3.265625,-8.3125 3.28125,-3.21875 8.5,-3.21875 5.078125,0 8.328125,3.1875 3.25,3.203125 3.25,7.84375 0,4.84375 -3.359375,8.140625 -3.34375,3.296875 -8.3125,3.296875 -5.03125,0 -8.359375,-3.234375 -3.3125,-3.21875 -3.3125,-7.703125 z M 13.09375,20.65625 q 0,-3.765625 1.78125,-7.28125 Q 16.65625,9.859375 20.171875,7.921875 23.6875,6 27.734375,6 34.03125,6 38.125,10.046875 q 4.109375,4.0625 4.109375,10.3125 0,6.34375 -4.21875,10.5 -4.21875,4.15625 -10.578125,4.15625 -6.203125,0 -10.28125,-4.109375 -4.0625,-4.09375 -4.0625,-10.25 z"
             id="ArialMT-56" />
        </defs>
        <g
           style="fill:#262626"
           transform="matrix(0.165,0,0,-0.165,83.133389,360.8875)"
           id="g34">
          <use
             xlink:href="#ArialMT-48"
             id="use28"
             x="0"
             y="0"
             width="100%"
             height="100%" />
          <use
             x="55.615234"
             xlink:href="#ArialMT-46"
             id="use30"
             y="0"
             width="100%"
             height="100%" />
          <use
             x="83.398438"
             xlink:href="#ArialMT-56"
             id="use32"
             y="0"
             width="100%"
             height="100%" />
        </g>
      </g>
    </g>
    <g
       id="xtick_2">
      <g
         id="line2d_3">
        <g
           id="g40">
          <use
             style="fill:#262626;stroke:#262626;stroke-width:1.875"
             x="150.64821"
             xlink:href="#m367b4d5d52"
             y="336.97198"
             id="use38"
             width="100%"
             height="100%" />
        </g>
      </g>
      <g
         id="text_2">
        <!-- 1.0 -->
        <defs
           id="defs44">
          <path
             d="m 37.25,0 h -8.78125 v 56 q -3.171875,-3.015625 -8.328125,-6.046875 -5.15625,-3.03125 -9.25,-4.546875 v 8.5 q 7.375,3.46875 12.890625,8.390625 5.515625,4.9375 7.8125,9.578125 H 37.25 Z"
             id="ArialMT-49" />
        </defs>
        <g
           style="fill:#262626"
           transform="matrix(0.165,0,0,-0.165,140.36485,360.8875)"
           id="g52">
          <use
             xlink:href="#ArialMT-49"
             id="use46"
             x="0"
             y="0"
             width="100%"
             height="100%" />
          <use
             x="55.615234"
             xlink:href="#ArialMT-46"
             id="use48"
             y="0"
             width="100%"
             height="100%" />
          <use
             x="83.398438"
             xlink:href="#ArialMT-48"
             id="use50"
             y="0"
             width="100%"
             height="100%" />
        </g>
      </g>
    </g>
    <g
       id="xtick_3">
      <g
         id="line2d_4">
        <g
           id="g58">
          <use
             style="fill:#262626;stroke:#262626;stroke-width:1.875"
             x="207.87967"
             xlink:href="#m367b4d5d52"
             y="336.97198"
             id="use56"
             width="100%"
             height="100%" />
        </g>
      </g>
      <g
         id="text_3">
        <!-- 1.2 -->
        <defs
           id="defs62">
          <path
             d="M 50.34375,8.453125 V 0 H 3.03125 Q 2.9375,3.171875 4.046875,6.109375 5.859375,10.9375 9.828125,15.625 13.8125,20.3125 21.34375,26.46875 q 11.671875,9.5625 15.765625,15.15625 4.109375,5.59375 4.109375,10.578125 0,5.21875 -3.75,8.796875 -3.734375,3.59375 -9.734375,3.59375 -6.34375,0 -10.15625,-3.8125 Q 13.765625,56.984375 13.71875,50.25 L 4.6875,51.171875 q 0.921875,10.109375 6.96875,15.40625 6.0625,5.296875 16.28125,5.296875 10.296875,0 16.296875,-5.71875 Q 50.25,60.453125 50.25,52 50.25,47.703125 48.484375,43.546875 46.734375,39.40625 42.65625,34.8125 38.578125,30.21875 29.109375,22.21875 21.1875,15.578125 18.9375,13.203125 q -2.234375,-2.359375 -3.703125,-4.75 z"
             id="ArialMT-50" />
        </defs>
        <g
           style="fill:#262626"
           transform="matrix(0.165,0,0,-0.165,197.5963,360.8875)"
           id="g70">
          <use
             xlink:href="#ArialMT-49"
             id="use64"
             x="0"
             y="0"
             width="100%"
             height="100%" />
          <use
             x="55.615234"
             xlink:href="#ArialMT-46"
             id="use66"
             y="0"
             width="100%"
             height="100%" />
          <use
             x="83.398438"
             xlink:href="#ArialMT-50"
             id="use68"
             y="0"
             width="100%"
             height="100%" />
        </g>
      </g>
    </g>
    <g
       id="xtick_4">
      <g
         id="line2d_5">
        <g
           id="g76">
          <use
             style="fill:#262626;stroke:#262626;stroke-width:1.875"
             x="265.11111"
             xlink:href="#m367b4d5d52"
             y="336.97198"
             id="use74"
             width="100%"
             height="100%" />
        </g>
      </g>
      <g
         id="text_4">
        <!-- 1.4 -->
        <defs
           id="defs80">
          <path
             d="m 32.328125,0 v 17.140625 h -31.0625 v 8.0625 l 32.671875,46.375 h 7.171875 v -46.375 h 9.671875 v -8.0625 H 41.109375 V 0 Z m 0,25.203125 V 57.46875 L 9.90625,25.203125 Z"
             id="ArialMT-52" />
        </defs>
        <g
           style="fill:#262626"
           transform="matrix(0.165,0,0,-0.165,254.82776,360.8875)"
           id="g88">
          <use
             xlink:href="#ArialMT-49"
             id="use82"
             x="0"
             y="0"
             width="100%"
             height="100%" />
          <use
             x="55.615234"
             xlink:href="#ArialMT-46"
             id="use84"
             y="0"
             width="100%"
             height="100%" />
          <use
             x="83.398438"
             xlink:href="#ArialMT-52"
             id="use86"
             y="0"
             width="100%"
             height="100%" />
        </g>
      </g>
    </g>
    <g
       id="xtick_5">
      <g
         id="line2d_6">
        <g
           id="g94">
          <use
             style="fill:#262626;stroke:#262626;stroke-width:1.875"
             x="322.34259"
             xlink:href="#m367b4d5d52"
             y="336.97198"
             id="use92"
             width="100%"
             height="100%" />
        </g>
      </g>
      <g
         id="text_5">
        <!-- 1.6 -->
        <defs
           id="defs98">
          <path
             d="M 49.75,54.046875 41.015625,53.375 q -1.171875,5.171875 -3.3125,7.515625 -3.578125,3.765625 -8.796875,3.765625 -4.203125,0 -7.375,-2.34375 Q 17.390625,59.28125 14.984375,53.46875 12.59375,47.65625 12.5,36.921875 15.671875,41.75 20.265625,44.09375 q 4.59375,2.34375 9.625,2.34375 8.78125,0 14.953125,-6.46875 Q 51.03125,33.5 51.03125,23.25 51.03125,16.5 48.125,10.71875 45.21875,4.9375 40.140625,1.859375 35.0625,-1.21875 28.609375,-1.21875 17.625,-1.21875 10.6875,6.859375 3.765625,14.9375 3.765625,33.5 q 0,20.75 7.65625,30.171875 6.6875,8.203125 18.015625,8.203125 8.453125,0 13.84375,-4.734375 Q 48.6875,62.40625 49.75,54.046875 Z M 13.875,23.1875 q 0,-4.53125 1.921875,-8.6875 Q 17.71875,10.359375 21.1875,8.171875 24.65625,6 28.46875,6 q 5.5625,0 9.5625,4.484375 4.015625,4.5 4.015625,12.21875 0,7.421875 -3.96875,11.6875 -3.953125,4.28125 -9.953125,4.28125 -5.953125,0 -10.109375,-4.28125 Q 13.875,30.125 13.875,23.1875 Z"
             id="ArialMT-54" />
        </defs>
        <g
           style="fill:#262626"
           transform="matrix(0.165,0,0,-0.165,312.05922,360.8875)"
           id="g106">
          <use
             xlink:href="#ArialMT-49"
             id="use100"
             x="0"
             y="0"
             width="100%"
             height="100%" />
          <use
             x="55.615234"
             xlink:href="#ArialMT-46"
             id="use102"
             y="0"
             width="100%"
             height="100%" />
          <use
             x="83.398438"
             xlink:href="#ArialMT-54"
             id="use104"
             y="0"
             width="100%"
             height="100%" />
        </g>
      </g>
    </g>
    <g
       id="xtick_6">
      <g
         id="line2d_7">
        <g
           id="g112">
          <use
             style="fill:#262626;stroke:#262626;stroke-width:1.875"
             x="379.57404"
             xlink:href="#m367b4d5d52"
             y="336.97198"
             id="use110"
             width="100%"
             height="100%" />
        </g>
      </g>
      <g
         id="text_6">
        <!-- 1.8 -->
        <g
           style="fill:#262626"
           transform="matrix(0.165,0,0,-0.165,369.29067,360.8875)"
           id="g121">
          <use
             xlink:href="#ArialMT-49"
             id="use115"
             x="0"
             y="0"
             width="100%"
             height="100%" />
          <use
             x="55.615234"
             xlink:href="#ArialMT-46"
             id="use117"
             y="0"
             width="100%"
             height="100%" />
          <use
             x="83.398438"
             xlink:href="#ArialMT-56"
             id="use119"
             y="0"
             width="100%"
             height="100%" />
        </g>
      </g>
    </g>
    <g
       id="xtick_7">
      <g
         id="line2d_8">
        <g
           id="g127">
          <use
             style="fill:#262626;stroke:#262626;stroke-width:1.875"
             x="436.80548"
             xlink:href="#m367b4d5d52"
             y="336.97198"
             id="use125"
             width="100%"
             height="100%" />
        </g>
      </g>
      <g
         id="text_7">
        <!-- 2.0 -->
        <g
           style="fill:#262626"
           transform="matrix(0.165,0,0,-0.165,426.52213,360.8875)"
           id="g136">
          <use
             xlink:href="#ArialMT-50"
             id="use130"
             x="0"
             y="0"
             width="100%"
             height="100%" />
          <use
             x="55.615234"
             xlink:href="#ArialMT-46"
             id="use132"
             y="0"
             width="100%"
             height="100%" />
          <use
             x="83.398438"
             xlink:href="#ArialMT-48"
             id="use134"
             y="0"
             width="100%"
             height="100%" />
        </g>
      </g>
    </g>
    <g
       id="xtick_8">
      <g
         id="line2d_9">
        <g
           id="g142">
          <use
             style="fill:#262626;stroke:#262626;stroke-width:1.875"
             x="494.03696"
             xlink:href="#m367b4d5d52"
             y="336.97198"
             id="use140"
             width="100%"
             height="100%" />
        </g>
      </g>
      <g
         id="text_8">
        <!-- 2.2 -->
        <defs
           id="defs147">
          <path
             d="m 25.796875,21.140625 c 2.796875,2.890625 7,6.375 9.90625,9.859375 2.796875,3.390625 6.5,8.171875 6.5,15.140625 0,10.96875 -7.40625,20.859375 -20,20.859375 C 12.296875,67 6.59375,60.796875 3.90625,51.125 L 7.796875,45.75 C 10,54.8125 13.09375,60.59375 20.90625,60.59375 c 8.59375,0 13.390625,-6.984375 13.390625,-14.65625 0,-9.15625 -7,-16.234375 -12.296875,-21.515625 -5.90625,-5.875 -11.703125,-11.84375 -17.296875,-18.03125 V 0 h 37.5 v 6.796875 h -17 C 24,6.796875 22.796875,6.6875 21.59375,6.6875 h -10 v 0.109375 z"
             id="CMSS17-50" />
          <path
             d="M 17,8 H 9 V 0 h 8 z"
             id="CMSS17-46" />
        </defs>
        <g
           style="fill:#262626"
           transform="matrix(0.165,0,0,-0.165,483.75358,360.8875)"
           id="g155">
          <use
             transform="scale(0.996264)"
             xlink:href="#CMSS17-50"
             id="use149"
             x="0"
             y="0"
             width="100%"
             height="100%" />
          <use
             transform="matrix(0.996264,0,0,0.996264,46.843624,0)"
             xlink:href="#CMSS17-46"
             id="use151"
             x="0"
             y="0"
             width="100%"
             height="100%" />
          <use
             transform="matrix(0.996264,0,0,0.996264,72.867828,0)"
             xlink:href="#CMSS17-50"
             id="use153"
             x="0"
             y="0"
             width="100%"
             height="100%" />
        </g>
      </g>
    </g>
    <g
       id="text_9">
      <!-- Bubble volume, $\hat{V}_b$ -->
      <defs
         id="defs172">
        <path
           d="M 7.328125,0 V 71.578125 H 34.1875 q 8.203125,0 13.15625,-2.171875 4.953125,-2.171875 7.75,-6.6875 2.8125,-4.515625 2.8125,-9.453125 0,-4.578125 -2.484375,-8.640625 Q 52.9375,40.578125 47.90625,38.09375 54.390625,36.1875 57.875,31.59375 61.375,27 61.375,20.75 61.375,15.71875 59.25,11.390625 57.125,7.078125 54,4.734375 50.875,2.390625 46.15625,1.1875 41.453125,0 34.625,0 Z m 9.46875,41.5 H 32.28125 q 6.296875,0 9.03125,0.828125 3.609375,1.078125 5.4375,3.5625 1.828125,2.5 1.828125,6.265625 0,3.5625 -1.703125,6.265625 -1.703125,2.71875 -4.890625,3.71875 -3.171875,1 -10.875,1 h -14.3125 z m 0,-33.046875 H 34.625 q 4.578125,0 6.4375,0.34375 3.28125,0.578125 5.46875,1.9375 2.203125,1.375 3.609375,3.984375 1.421875,2.609375 1.421875,6.03125 0,4 -2.046875,6.953125 -2.046875,2.96875 -5.6875,4.15625 Q 40.1875,33.0625 33.34375,33.0625 H 16.796875 Z"
           id="ArialMT-66" />
        <path
           d="m 40.578125,0 v 7.625 q -6.0625,-8.796875 -16.453125,-8.796875 -4.59375,0 -8.578125,1.75 Q 11.578125,2.34375 9.640625,5 7.71875,7.671875 6.9375,11.53125 6.390625,14.109375 6.390625,19.734375 v 32.125 H 15.1875 V 23.09375 q 0,-6.875 0.53125,-9.28125 0.828125,-3.453125 3.515625,-5.4375 2.6875,-1.984375 6.640625,-1.984375 3.953125,0 7.421875,2.03125 3.46875,2.03125 4.90625,5.515625 1.453125,3.5 1.453125,10.140625 v 27.78125 H 48.4375 V 0 Z"
           id="ArialMT-117" />
        <path
           d="m 14.703125,0 h -8.15625 v 71.578125 h 8.78125 v -25.53125 q 5.578125,6.984375 14.21875,6.984375 4.78125,0 9.046875,-1.9375 Q 42.875,49.171875 45.625,45.671875 48.390625,42.1875 49.953125,37.25 q 1.5625,-4.921875 1.5625,-10.546875 0,-13.328125 -6.59375,-20.609375 -6.59375,-7.265625 -15.8125,-7.265625 -9.1875,0 -14.40625,7.671875 z M 14.59375,26.3125 Q 14.59375,17 17.140625,12.84375 21.296875,6.0625 28.375,6.0625 q 5.75,0 9.953125,5 4.203125,5 4.203125,14.921875 0,10.15625 -4.03125,14.984375 -4.03125,4.828125 -9.734375,4.828125 -5.765625,0 -9.96875,-5 -4.203125,-5 -4.203125,-14.484375 z"
           id="ArialMT-98" />
        <path
           d="M 6.390625,0 V 71.578125 H 15.1875 V 0 Z"
           id="ArialMT-108" />
        <path
           d="m 42.09375,16.703125 9.078125,-1.125 Q 49.03125,7.625 43.21875,3.21875 37.40625,-1.171875 28.375,-1.171875 q -11.375,0 -18.046875,7 -6.671875,7.015625 -6.671875,19.65625 0,13.09375 6.734375,20.3125 6.75,7.234375 17.484375,7.234375 10.40625,0 17,-7.078125 6.59375,-7.078125 6.59375,-19.921875 0,-0.78125 -0.04687,-2.34375 H 12.75 q 0.484375,-8.546875 4.828125,-13.09375 4.34375,-4.53125 10.84375,-4.53125 4.828125,0 8.25,2.53125 3.421875,2.546875 5.421875,8.109375 z M 13.234375,30.90625 H 42.1875 q -0.578125,6.546875 -3.3125,9.8125 -4.203125,5.078125 -10.890625,5.078125 -6.0625,0 -10.1875,-4.046875 -4.125,-4.046875 -4.5625,-10.84375 z"
           id="ArialMT-101" />
        <path
           id="ArialMT-32"
           d="" />
        <path
           d="M 21,0 1.265625,51.859375 h 9.28125 L 21.6875,20.796875 q 1.796875,-5.03125 3.3125,-10.4375 1.171875,4.09375 3.265625,9.859375 l 11.53125,31.640625 h 9.03125 L 29.203125,0 Z"
           id="ArialMT-118" />
        <path
           d="m 3.328125,25.921875 q 0,14.40625 8,21.34375 6.6875,5.765625 16.3125,5.765625 10.6875,0 17.46875,-7.015625 6.796875,-7 6.796875,-19.359375 0,-10 -3,-15.75 -3,-5.734375 -8.75,-8.90625 Q 34.421875,-1.171875 27.640625,-1.171875 16.75,-1.171875 10.03125,5.8125 3.328125,12.796875 3.328125,25.921875 Z m 9.03125,0 q 0,-9.953125 4.34375,-14.90625 4.34375,-4.953125 10.9375,-4.953125 6.546875,0 10.890625,4.96875 4.34375,4.984375 4.34375,15.1875 0,9.625 -4.375,14.578125 Q 34.125,45.75 27.640625,45.75 q -6.59375,0 -10.9375,-4.9375 -4.34375,-4.921875 -4.34375,-14.890625 z"
           id="ArialMT-111" />
        <path
           d="m 6.59375,0 v 51.859375 h 7.859375 v -7.28125 q 2.4375,3.8125 6.484375,6.125 4.0625,2.328125 9.234375,2.328125 5.765625,0 9.453125,-2.390625 3.6875,-2.390625 5.203125,-6.6875 6.15625,9.078125 16.015625,9.078125 7.71875,0 11.859375,-4.28125 4.15625,-4.265625 4.15625,-13.15625 V 0 h -8.75 v 32.671875 q 0,5.265625 -0.859375,7.578125 -0.84375,2.328125 -3.09375,3.734375 -2.234375,1.421875 -5.265625,1.421875 -5.46875,0 -9.09375,-3.640625 Q 46.1875,38.140625 46.1875,30.125 V 0 h -8.78125 v 33.6875 q 0,5.859375 -2.15625,8.78125 -2.140625,2.9375 -7.03125,2.9375 -3.703125,0 -6.859375,-1.953125 Q 18.21875,41.5 16.796875,37.734375 15.375,33.984375 15.375,26.90625 V 0 Z"
           id="ArialMT-109" />
        <path
           d="m 8.890625,0 v 10.015625 h 10 V 0 q 0,-5.515625 -1.953125,-8.90625 -1.953125,-3.40625 -6.1875,-5.25 l -2.453125,3.75 q 2.78125,1.21875 4.09375,3.59375 Q 13.71875,-4.4375 13.875,0 Z"
           id="ArialMT-44" />
        <path
           d="m -28.609375,79.984375 h 7.21875 L -9.421875,61.625 H -16.21875 L -25,73.578125 -33.796875,61.625 h -6.78125 z M -25,56 Z"
           id="DejaVuSans-770" />
        <path
           d="M 20.609375,0 7.8125,72.90625 h 9.671875 L 28.078125,10.203125 63.484375,72.90625 H 74.21875 L 32.078125,0 Z"
           id="DejaVuSans-Oblique-86" />
        <path
           d="m 49.515625,33.40625 q 0,7.078125 -3.25,11.078125 -3.25,4 -8.953125,4 -4.15625,0 -7.796875,-2.03125 -3.640625,-2.015625 -6.328125,-5.875 -2.828125,-4.046875 -4.46875,-9.40625 -1.625,-5.34375 -1.625,-10.65625 0,-6.75 3.1875,-10.578125 3.203125,-3.828125 8.828125,-3.828125 4.234375,0 7.84375,1.96875 3.625,1.984375 6.359375,5.84375 2.78125,4 4.484375,9.3125 1.71875,5.328125 1.71875,10.171875 z m -27.9375,12.984375 Q 24.90625,50.875 29.90625,53.4375 34.90625,56 40.375,56 q 8.40625,0 13.359375,-5.671875 4.953125,-5.65625 4.953125,-15.3125 0,-7.921875 -2.90625,-15.34375 Q 52.875,12.25 47.515625,6.5 44,2.6875 39.40625,0.625 q -4.59375,-2.046875 -9.625,-2.046875 -5.3125,0 -9.21875,2.4375 -3.90625,2.453125 -6.359375,7.28125 L 12.59375,0 H 3.609375 L 18.40625,75.984375 h 8.984375 z"
           id="DejaVuSans-Oblique-98" />
      </defs>
      <g
         style="fill:#262626"
         transform="matrix(0.18,0,0,-0.18,218.09266,383.36325)"
         id="g210">
        <use
           transform="translate(0,0.609375)"
           xlink:href="#ArialMT-66"
           id="use174"
           x="0"
           y="0"
           width="100%"
           height="100%" />
        <use
           transform="translate(66.699219,0.609375)"
           xlink:href="#ArialMT-117"
           id="use176"
           x="0"
           y="0"
           width="100%"
           height="100%" />
        <use
           transform="translate(122.31445,0.609375)"
           xlink:href="#ArialMT-98"
           id="use178"
           x="0"
           y="0"
           width="100%"
           height="100%" />
        <use
           transform="translate(177.92969,0.609375)"
           xlink:href="#ArialMT-98"
           id="use180"
           x="0"
           y="0"
           width="100%"
           height="100%" />
        <use
           transform="translate(233.54492,0.609375)"
           xlink:href="#ArialMT-108"
           id="use182"
           x="0"
           y="0"
           width="100%"
           height="100%" />
        <use
           transform="translate(255.76172,0.609375)"
           xlink:href="#ArialMT-101"
           id="use184"
           x="0"
           y="0"
           width="100%"
           height="100%" />
        <use
           transform="translate(311.37695,0.609375)"
           xlink:href="#ArialMT-32"
           id="use186"
           x="0"
           y="0"
           width="100%"
           height="100%" />
        <use
           transform="translate(339.16016,0.609375)"
           xlink:href="#ArialMT-118"
           id="use188"
           x="0"
           y="0"
           width="100%"
           height="100%" />
        <use
           transform="translate(389.16016,0.609375)"
           xlink:href="#ArialMT-111"
           id="use190"
           x="0"
           y="0"
           width="100%"
           height="100%" />
        <use
           transform="translate(444.77539,0.609375)"
           xlink:href="#ArialMT-108"
           id="use192"
           x="0"
           y="0"
           width="100%"
           height="100%" />
        <use
           transform="translate(466.99219,0.609375)"
           xlink:href="#ArialMT-117"
           id="use194"
           x="0"
           y="0"
           width="100%"
           height="100%" />
        <use
           transform="translate(522.60742,0.609375)"
           xlink:href="#ArialMT-109"
           id="use196"
           x="0"
           y="0"
           width="100%"
           height="100%" />
        <use
           transform="translate(605.9082,0.609375)"
           xlink:href="#ArialMT-101"
           id="use198"
           x="0"
           y="0"
           width="100%"
           height="100%" />
        <use
           transform="translate(661.52344,0.609375)"
           xlink:href="#ArialMT-44"
           id="use200"
           x="0"
           y="0"
           width="100%"
           height="100%" />
        <use
           transform="translate(689.30664,0.609375)"
           xlink:href="#ArialMT-32"
           id="use202"
           x="0"
           y="0"
           width="100%"
           height="100%" />
        <use
           transform="translate(784.77002,30.015625)"
           xlink:href="#DejaVuSans-770"
           id="use204"
           x="0"
           y="0"
           width="100%"
           height="100%" />
        <use
           transform="translate(717.08984,0.609375)"
           xlink:href="#DejaVuSans-Oblique-86"
           id="use206"
           x="0"
           y="0"
           width="100%"
           height="100%" />
        <use
           transform="matrix(0.7,0,0,0.7,786.45508,-15.796875)"
           xlink:href="#DejaVuSans-Oblique-98"
           id="use208"
           x="0"
           y="0"
           width="100%"
           height="100%" />
      </g>
    </g>
    <g
       id="text_10">
      <!-- 1e6 -->
      <g
         style="fill:#262626"
         transform="matrix(0.165,0,0,-0.165,474.45456,378.49934)"
         id="g219">
        <use
           xlink:href="#ArialMT-49"
           id="use213"
           x="0"
           y="0"
           width="100%"
           height="100%" />
        <use
           x="55.615234"
           xlink:href="#ArialMT-101"
           id="use215"
           y="0"
           width="100%"
           height="100%" />
        <use
           x="111.23047"
           xlink:href="#ArialMT-54"
           id="use217"
           y="0"
           width="100%"
           height="100%" />
      </g>
    </g>
  </g>
  <g
     id="matplotlib.axis_2">
    <g
       id="ytick_1">
      <g
         id="line2d_10">
        <defs
           id="defs224">
          <path
             d="M 0,0 H -9"
             id="m515b5ee52f"
             style="stroke:#262626;stroke-width:1.875" />
        </defs>
        <g
           id="g228">
          <use
             style="fill:#262626;stroke:#262626;stroke-width:1.875"
             x="68.643524"
             xlink:href="#m515b5ee52f"
             y="333.32361"
             id="use226"
             width="100%"
             height="100%" />
        </g>
      </g>
      <g
         id="text_11">
        <!-- -2.5 -->
        <defs
           id="defs233">
          <path
             d="m 3.171875,21.484375 v 8.84375 h 27 v -8.84375 z"
             id="ArialMT-45" />
          <path
             d="M 4.15625,18.75 13.375,19.53125 Q 14.40625,12.796875 18.140625,9.390625 21.875,6 27.15625,6 33.5,6 37.890625,10.78125 42.28125,15.578125 42.28125,23.484375 42.28125,31 38.0625,35.34375 33.84375,39.703125 27,39.703125 q -4.25,0 -7.671875,-1.9375 -3.40625,-1.921875 -5.359375,-5 l -8.25,1.078125 6.921875,36.765625 H 48.25 v -8.40625 H 19.671875 L 15.828125,42.96875 q 6.4375,4.5 13.515625,4.5 9.375,0 15.8125,-6.5 6.453125,-6.5 6.453125,-16.703125 0,-9.71875 -5.65625,-16.796875 -6.890625,-8.6875 -18.796875,-8.6875 -9.765625,0 -15.953125,5.46875 Q 5.03125,9.71875 4.15625,18.75 Z"
             id="ArialMT-53" />
        </defs>
        <g
           style="fill:#262626"
           transform="matrix(0.165,0,0,-0.165,30.211547,339.03137)"
           id="g243">
          <use
             xlink:href="#ArialMT-45"
             id="use235"
             x="0"
             y="0"
             width="100%"
             height="100%" />
          <use
             x="33.300781"
             xlink:href="#ArialMT-50"
             id="use237"
             y="0"
             width="100%"
             height="100%" />
          <use
             x="88.916016"
             xlink:href="#ArialMT-46"
             id="use239"
             y="0"
             width="100%"
             height="100%" />
          <use
             x="116.69922"
             xlink:href="#ArialMT-53"
             id="use241"
             y="0"
             width="100%"
             height="100%" />
        </g>
      </g>
    </g>
    <g
       id="ytick_2">
      <g
         id="line2d_11">
        <g
           id="g249">
          <use
             style="fill:#262626;stroke:#262626;stroke-width:1.875"
             x="68.643524"
             xlink:href="#m515b5ee52f"
             y="287.68002"
             id="use247"
             width="100%"
             height="100%" />
        </g>
      </g>
      <g
         id="text_12">
        <!-- -2.0 -->
        <g
           style="fill:#262626"
           transform="matrix(0.165,0,0,-0.165,30.211547,293.38779)"
           id="g260">
          <use
             xlink:href="#ArialMT-45"
             id="use252"
             x="0"
             y="0"
             width="100%"
             height="100%" />
          <use
             x="33.300781"
             xlink:href="#ArialMT-50"
             id="use254"
             y="0"
             width="100%"
             height="100%" />
          <use
             x="88.916016"
             xlink:href="#ArialMT-46"
             id="use256"
             y="0"
             width="100%"
             height="100%" />
          <use
             x="116.69922"
             xlink:href="#ArialMT-48"
             id="use258"
             y="0"
             width="100%"
             height="100%" />
        </g>
      </g>
    </g>
    <g
       id="ytick_3">
      <g
         id="line2d_12">
        <g
           id="g266">
          <use
             style="fill:#262626;stroke:#262626;stroke-width:1.875"
             x="68.643524"
             xlink:href="#m515b5ee52f"
             y="242.03645"
             id="use264"
             width="100%"
             height="100%" />
        </g>
      </g>
      <g
         id="text_13">
        <!-- -1.5 -->
        <g
           style="fill:#262626"
           transform="matrix(0.165,0,0,-0.165,30.211547,247.7442)"
           id="g277">
          <use
             xlink:href="#ArialMT-45"
             id="use269"
             x="0"
             y="0"
             width="100%"
             height="100%" />
          <use
             x="33.300781"
             xlink:href="#ArialMT-49"
             id="use271"
             y="0"
             width="100%"
             height="100%" />
          <use
             x="88.916016"
             xlink:href="#ArialMT-46"
             id="use273"
             y="0"
             width="100%"
             height="100%" />
          <use
             x="116.69922"
             xlink:href="#ArialMT-53"
             id="use275"
             y="0"
             width="100%"
             height="100%" />
        </g>
      </g>
    </g>
    <g
       id="ytick_4">
      <g
         id="line2d_13">
        <g
           id="g283">
          <use
             style="fill:#262626;stroke:#262626;stroke-width:1.875"
             x="68.643524"
             xlink:href="#m515b5ee52f"
             y="196.39287"
             id="use281"
             width="100%"
             height="100%" />
        </g>
      </g>
      <g
         id="text_14">
        <!-- -1.0 -->
        <g
           style="fill:#262626"
           transform="matrix(0.165,0,0,-0.165,30.211547,202.10061)"
           id="g294">
          <use
             xlink:href="#ArialMT-45"
             id="use286"
             x="0"
             y="0"
             width="100%"
             height="100%" />
          <use
             x="33.300781"
             xlink:href="#ArialMT-49"
             id="use288"
             y="0"
             width="100%"
             height="100%" />
          <use
             x="88.916016"
             xlink:href="#ArialMT-46"
             id="use290"
             y="0"
             width="100%"
             height="100%" />
          <use
             x="116.69922"
             xlink:href="#ArialMT-48"
             id="use292"
             y="0"
             width="100%"
             height="100%" />
        </g>
      </g>
    </g>
    <g
       id="ytick_5">
      <g
         id="line2d_14">
        <g
           id="g300">
          <use
             style="fill:#262626;stroke:#262626;stroke-width:1.875"
             x="68.643524"
             xlink:href="#m515b5ee52f"
             y="150.74928"
             id="use298"
             width="100%"
             height="100%" />
        </g>
      </g>
      <g
         id="text_15">
        <!-- -0.5 -->
        <g
           style="fill:#262626"
           transform="matrix(0.165,0,0,-0.165,30.211547,156.45703)"
           id="g311">
          <use
             xlink:href="#ArialMT-45"
             id="use303"
             x="0"
             y="0"
             width="100%"
             height="100%" />
          <use
             x="33.300781"
             xlink:href="#ArialMT-48"
             id="use305"
             y="0"
             width="100%"
             height="100%" />
          <use
             x="88.916016"
             xlink:href="#ArialMT-46"
             id="use307"
             y="0"
             width="100%"
             height="100%" />
          <use
             x="116.69922"
             xlink:href="#ArialMT-53"
             id="use309"
             y="0"
             width="100%"
             height="100%" />
        </g>
      </g>
    </g>
    <g
       id="ytick_6">
      <g
         id="line2d_15">
        <g
           id="g317">
          <use
             style="fill:#262626;stroke:#262626;stroke-width:1.875"
             x="68.643524"
             xlink:href="#m515b5ee52f"
             y="105.10569"
             id="use315"
             width="100%"
             height="100%" />
        </g>
      </g>
      <g
         id="text_16">
        <!-- 0.0 -->
        <g
           style="fill:#262626"
           transform="matrix(0.165,0,0,-0.165,35.576788,110.81344)"
           id="g326">
          <use
             xlink:href="#ArialMT-48"
             id="use320"
             x="0"
             y="0"
             width="100%"
             height="100%" />
          <use
             x="55.615234"
             xlink:href="#ArialMT-46"
             id="use322"
             y="0"
             width="100%"
             height="100%" />
          <use
             x="83.398438"
             xlink:href="#ArialMT-48"
             id="use324"
             y="0"
             width="100%"
             height="100%" />
        </g>
      </g>
    </g>
    <g
       id="ytick_7">
      <g
         id="line2d_16">
        <g
           id="g332">
          <use
             style="fill:#262626;stroke:#262626;stroke-width:1.875"
             x="68.643524"
             xlink:href="#m515b5ee52f"
             y="59.462105"
             id="use330"
             width="100%"
             height="100%" />
        </g>
      </g>
      <g
         id="text_17">
        <!-- 0.5 -->
        <g
           style="fill:#262626"
           transform="matrix(0.165,0,0,-0.165,35.576788,65.169857)"
           id="g341">
          <use
             xlink:href="#ArialMT-48"
             id="use335"
             x="0"
             y="0"
             width="100%"
             height="100%" />
          <use
             x="55.615234"
             xlink:href="#ArialMT-46"
             id="use337"
             y="0"
             width="100%"
             height="100%" />
          <use
             x="83.398438"
             xlink:href="#ArialMT-53"
             id="use339"
             y="0"
             width="100%"
             height="100%" />
        </g>
      </g>
    </g>
    <g
       id="text_18">
      <!-- Adhesion Force, $F_{min}/\gamma s_f$ -->
      <defs
         id="defs362">
        <path
           d="M -0.140625,0 27.34375,71.578125 H 37.546875 L 66.84375,0 H 56.0625 L 47.703125,21.6875 H 17.78125 L 9.90625,0 Z m 20.65625,29.390625 H 44.78125 L 37.3125,49.21875 Q 33.890625,58.25 32.234375,64.0625 30.859375,57.171875 28.375,50.390625 Z"
           id="ArialMT-65" />
        <path
           d="m 40.234375,0 v 6.546875 q -4.9375,-7.71875 -14.5,-7.71875 -6.203125,0 -11.40625,3.421875 -5.203125,3.421875 -8.0625,9.546875 -2.84375,6.125 -2.84375,14.078125 0,7.765625 2.578125,14.09375 2.59375,6.328125 7.765625,9.6875 5.1875,3.375 11.578125,3.375 4.6875,0 8.34375,-1.984375 3.671875,-1.96875 5.96875,-5.140625 v 25.671875 h 8.734375 V 0 Z m -27.78125,25.875 q 0,-9.953125 4.1875,-14.890625 Q 20.84375,6.0625 26.5625,6.0625 q 5.765625,0 9.78125,4.703125 4.03125,4.71875 4.03125,14.375 0,10.65625 -4.109375,15.625 Q 32.171875,45.75 26.171875,45.75 20.3125,45.75 16.375,40.96875 12.453125,36.1875 12.453125,25.875 Z"
           id="ArialMT-100" />
        <path
           d="M 6.59375,0 V 71.578125 H 15.375 V 45.90625 q 6.15625,7.125 15.53125,7.125 5.765625,0 10.015625,-2.28125 4.25,-2.265625 6.078125,-6.265625 1.828125,-4 1.828125,-11.625 V 0 h -8.78125 v 32.859375 q 0,6.59375 -2.859375,9.59375 -2.859375,3 -8.078125,3 -3.90625,0 -7.359375,-2.03125 Q 18.3125,41.40625 16.84375,37.9375 15.375,34.46875 15.375,28.375 V 0 Z"
           id="ArialMT-104" />
        <path
           d="m 3.078125,15.484375 8.6875,1.359375 Q 12.5,11.625 15.84375,8.84375 19.1875,6.0625 25.203125,6.0625 q 6.046875,0 8.96875,2.453125 2.9375,2.46875 2.9375,5.796875 0,2.96875 -2.59375,4.6875 Q 32.71875,20.171875 25.53125,21.96875 15.875,24.421875 12.140625,26.203125 8.40625,27.984375 6.46875,31.125 q -1.921875,3.15625 -1.921875,6.96875 0,3.453125 1.578125,6.40625 1.59375,2.96875 4.328125,4.921875 2.046875,1.5 5.578125,2.546875 3.546875,1.0625 7.609375,1.0625 6.09375,0 10.703125,-1.765625 4.625,-1.75 6.8125,-4.765625 2.203125,-3 3.03125,-8.015625 L 35.59375,37.3125 q -0.578125,4 -3.390625,6.234375 -2.8125,2.25 -7.9375,2.25 -6.046875,0 -8.640625,-2 -2.59375,-2 -2.59375,-4.6875 0,-1.703125 1.078125,-3.078125 1.078125,-1.40625 3.375,-2.34375 1.3125,-0.484375 7.765625,-2.234375 9.328125,-2.5 13,-4.09375 3.6875,-1.578125 5.78125,-4.609375 2.109375,-3.015625 2.109375,-7.515625 0,-4.390625 -2.5625,-8.28125 -2.5625,-3.875 -7.40625,-6 -4.828125,-2.125 -10.921875,-2.125 -10.109375,0 -15.40625,4.203125 -5.296875,4.203125 -6.765625,12.453125 z"
           id="ArialMT-115" />
        <path
           d="M 6.640625,61.46875 V 71.578125 H 15.4375 V 61.46875 Z M 6.640625,0 V 51.859375 H 15.4375 V 0 Z"
           id="ArialMT-105" />
        <path
           d="M 6.59375,0 V 51.859375 H 14.5 v -7.375 q 5.71875,8.546875 16.5,8.546875 4.6875,0 8.625,-1.6875 3.9375,-1.6875 5.890625,-4.421875 Q 47.46875,44.1875 48.25,40.4375 48.734375,37.984375 48.734375,31.890625 V 0 H 39.9375 v 31.546875 q 0,5.375 -1.03125,8.03125 -1.015625,2.65625 -3.625,4.234375 -2.609375,1.59375 -6.125,1.59375 -5.625,0 -9.703125,-3.5625 Q 15.375,38.28125 15.375,28.328125 V 0 Z"
           id="ArialMT-110" />
        <path
           d="M 8.203125,0 V 71.578125 H 56.5 v -8.4375 H 17.671875 V 40.96875 h 33.59375 V 32.515625 H 17.671875 V 0 Z"
           id="ArialMT-70" />
        <path
           d="m 6.5,0 v 51.859375 h 7.90625 V 44 Q 17.4375,49.515625 20,51.265625 q 2.5625,1.765625 5.640625,1.765625 4.4375,0 9.03125,-2.828125 l -3.03125,-8.15625 q -3.21875,1.90625 -6.4375,1.90625 -2.890625,0 -5.1875,-1.734375 -2.296875,-1.734375 -3.265625,-4.8125 -1.46875,-4.6875 -1.46875,-10.25 V 0 Z"
           id="ArialMT-114" />
        <path
           d="m 40.4375,19 8.640625,-1.125 Q 47.65625,8.9375 41.8125,3.875 35.984375,-1.171875 27.484375,-1.171875 16.84375,-1.171875 10.375,5.78125 3.90625,12.75 3.90625,25.734375 q 0,8.390625 2.78125,14.6875 2.78125,6.3125 8.46875,9.453125 5.6875,3.15625 12.390625,3.15625 8.4375,0 13.8125,-4.28125 5.375,-4.265625 6.890625,-12.125 l -8.546875,-1.328125 q -1.21875,5.234375 -4.328125,7.859375 -3.09375,2.640625 -7.5,2.640625 -6.640625,0 -10.796875,-4.765625 -4.140625,-4.75 -4.140625,-15.046875 0,-10.453125 4,-15.1875 Q 20.953125,6.0625 27.390625,6.0625 32.5625,6.0625 36.03125,9.234375 39.5,12.40625 40.4375,19 Z"
           id="ArialMT-99" />
        <path
           d="M 16.890625,72.90625 H 58.6875 l -1.609375,-8.3125 H 25.09375 L 20.90625,43.109375 H 49.8125 L 48.1875,34.8125 H 19.28125 L 12.5,0 H 2.6875 Z"
           id="DejaVuSans-Oblique-70" />
        <path
           d="M 89.796875,33.015625 83.40625,0 h -8.984375 l 6.296875,32.71875 q 0.390625,2.09375 0.578125,3.609375 Q 81.5,37.84375 81.5,38.921875 81.5,43.3125 79.046875,45.75 q -2.4375,2.4375 -6.828125,2.4375 -6.546875,0 -11.671875,-4.90625 -5.125,-4.90625 -6.640625,-12.765625 L 47.90625,0 H 38.921875 L 45.3125,32.71875 q 0.390625,1.796875 0.578125,3.328125 0.203125,1.546875 0.203125,2.765625 0,4.453125 -2.4375,6.90625 -2.4375,2.46875 -6.734375,2.46875 -6.640625,0 -11.78125,-4.90625 Q 20.015625,38.375 18.5,30.515625 L 12.5,0 H 3.515625 l 10.6875,54.6875 H 23.1875 l -1.703125,-8.5 q 3.65625,4.796875 8.5625,7.296875 Q 34.96875,56 40.578125,56 q 5.953125,0 9.78125,-3.125 3.84375,-3.125 4.625,-8.6875 4.09375,5.765625 9.484375,8.78125 Q 69.875,56 75.875,56 q 7.03125,0 10.859375,-4.046875 3.84375,-4.046875 3.84375,-11.46875 0,-1.609375 -0.203125,-3.546875 -0.1875,-1.921875 -0.578125,-3.921875 z"
           id="DejaVuSans-Oblique-109" />
        <path
           d="m 18.3125,75.984375 h 8.984375 L 25.09375,64.59375 H 16.109375 Z M 14.203125,54.6875 H 23.1875 L 12.5,0 H 3.515625 Z"
           id="DejaVuSans-Oblique-105" />
        <path
           d="M 55.71875,33.015625 49.3125,0 h -9.03125 l 6.40625,32.671875 q 0.4375,2.296875 0.671875,4.046875 0.25,1.765625 0.25,2.78125 0,4.109375 -2.59375,6.390625 Q 42.4375,48.1875 37.796875,48.1875 30.5625,48.1875 25.34375,43.375 20.125,38.578125 18.5,30.328125 L 12.5,0 H 3.515625 l 10.59375,54.6875 h 8.984375 l -1.796875,-8.59375 q 3.75,4.734375 9.015625,7.3125 Q 35.59375,56 41.40625,56 q 7.234375,0 11.203125,-3.90625 3.984375,-3.90625 3.984375,-10.984375 0,-1.75 -0.21875,-3.75 -0.21875,-2 -0.65625,-4.34375 z"
           id="DejaVuSans-Oblique-110" />
        <path
           d="M 25.390625,72.90625 H 33.6875 L 8.296875,-9.28125 H 0 Z"
           id="DejaVuSans-47" />
        <path
           d="M 23.296875,46.09375 28.71875,12.3125 54,54.6875 h 9.53125 L 30.8125,0 26.765625,-20.796875 H 17.78125 L 21.828125,0 15.4375,40.828125 Q 14.453125,46.96875 9.8125,46.96875 H 7.421875 l 1.46875,7.71875 H 12.3125 q 9.609375,0 10.984375,-8.59375 z"
           id="DejaVuSans-Oblique-947" />
        <path
           d="m 50,53.078125 -1.703125,-8.5 Q 44.734375,46.53125 40.765625,47.5 36.8125,48.484375 32.625,48.484375 q -7.09375,0 -11.171875,-2.421875 -4.0625,-2.40625 -4.0625,-6.5625 0,-4.828125 9.46875,-7.421875 0.734375,-0.1875 1.078125,-0.296875 l 2.875,-0.875 q 8.984375,-2.484375 11.984375,-5.21875 3,-2.734375 3,-7.46875 0,-8.703125 -6.90625,-14.171875 -6.90625,-5.46875 -18.09375,-5.46875 -4.34375,0 -9.125,0.84375 Q 6.890625,0.25 1.125,2 l 1.75,9.28125 q 4.9375,-2.546875 9.71875,-3.859375 4.796875,-1.3125 9.1875,-1.3125 6.59375,0 10.71875,2.828125 4.125,2.828125 4.125,7.171875 0,4.6875 -10.84375,7.578125 l -0.921875,0.234375 -3.078125,0.78125 Q 14.9375,26.515625 11.765625,29.46875 8.59375,32.421875 8.59375,37.015625 8.59375,45.75 15.15625,50.875 21.734375,56 33.015625,56 q 4.4375,0 8.65625,-0.734375 Q 45.90625,54.546875 50,53.078125 Z"
           id="DejaVuSans-Oblique-115" />
        <path
           d="M 47.796875,75.984375 46.390625,68.5 h -8.59375 q -4.890625,0 -7.109375,-1.921875 -2.21875,-1.921875 -3.296875,-7.0625 L 26.421875,54.6875 H 41.21875 L 39.890625,47.703125 H 25.09375 L 15.828125,0 H 6.78125 l 9.328125,47.703125 h -8.59375 l 1.28125,6.984375 h 8.59375 l 0.71875,3.8125 q 1.859375,9.671875 6.515625,13.578125 4.671875,3.90625 14.6875,3.90625 z"
           id="DejaVuSans-Oblique-102" />
      </defs>
      <g
         style="fill:#262626"
         transform="matrix(0,-0.18,-0.18,0,22.723482,276.95431)"
         id="g412">
        <use
           transform="translate(0,0.09375)"
           xlink:href="#ArialMT-65"
           id="use364"
           x="0"
           y="0"
           width="100%"
           height="100%" />
        <use
           transform="translate(66.699219,0.09375)"
           xlink:href="#ArialMT-100"
           id="use366"
           x="0"
           y="0"
           width="100%"
           height="100%" />
        <use
           transform="translate(122.31445,0.09375)"
           xlink:href="#ArialMT-104"
           id="use368"
           x="0"
           y="0"
           width="100%"
           height="100%" />
        <use
           transform="translate(177.92969,0.09375)"
           xlink:href="#ArialMT-101"
           id="use370"
           x="0"
           y="0"
           width="100%"
           height="100%" />
        <use
           transform="translate(233.54492,0.09375)"
           xlink:href="#ArialMT-115"
           id="use372"
           x="0"
           y="0"
           width="100%"
           height="100%" />
        <use
           transform="translate(283.54492,0.09375)"
           xlink:href="#ArialMT-105"
           id="use374"
           x="0"
           y="0"
           width="100%"
           height="100%" />
        <use
           transform="translate(305.76172,0.09375)"
           xlink:href="#ArialMT-111"
           id="use376"
           x="0"
           y="0"
           width="100%"
           height="100%" />
        <use
           transform="translate(361.37695,0.09375)"
           xlink:href="#ArialMT-110"
           id="use378"
           x="0"
           y="0"
           width="100%"
           height="100%" />
        <use
           transform="translate(416.99219,0.09375)"
           xlink:href="#ArialMT-32"
           id="use380"
           x="0"
           y="0"
           width="100%"
           height="100%" />
        <use
           transform="translate(444.77539,0.09375)"
           xlink:href="#ArialMT-70"
           id="use382"
           x="0"
           y="0"
           width="100%"
           height="100%" />
        <use
           transform="translate(505.85937,0.09375)"
           xlink:href="#ArialMT-111"
           id="use384"
           x="0"
           y="0"
           width="100%"
           height="100%" />
        <use
           transform="translate(561.47461,0.09375)"
           xlink:href="#ArialMT-114"
           id="use386"
           x="0"
           y="0"
           width="100%"
           height="100%" />
        <use
           transform="translate(594.77539,0.09375)"
           xlink:href="#ArialMT-99"
           id="use388"
           x="0"
           y="0"
           width="100%"
           height="100%" />
        <use
           transform="translate(644.77539,0.09375)"
           xlink:href="#ArialMT-101"
           id="use390"
           x="0"
           y="0"
           width="100%"
           height="100%" />
        <use
           transform="translate(700.39062,0.09375)"
           xlink:href="#ArialMT-44"
           id="use392"
           x="0"
           y="0"
           width="100%"
           height="100%" />
        <use
           transform="translate(728.17383,0.09375)"
           xlink:href="#ArialMT-32"
           id="use394"
           x="0"
           y="0"
           width="100%"
           height="100%" />
        <use
           transform="translate(755.95703,0.09375)"
           xlink:href="#DejaVuSans-Oblique-70"
           id="use396"
           x="0"
           y="0"
           width="100%"
           height="100%" />
        <use
           transform="matrix(0.7,0,0,0.7,813.47656,-16.3125)"
           xlink:href="#DejaVuSans-Oblique-109"
           id="use398"
           x="0"
           y="0"
           width="100%"
           height="100%" />
        <use
           transform="matrix(0.7,0,0,0.7,881.66504,-16.3125)"
           xlink:href="#DejaVuSans-Oblique-105"
           id="use400"
           x="0"
           y="0"
           width="100%"
           height="100%" />
        <use
           transform="matrix(0.7,0,0,0.7,901.11328,-16.3125)"
           xlink:href="#DejaVuSans-Oblique-110"
           id="use402"
           x="0"
           y="0"
           width="100%"
           height="100%" />
        <use
           transform="translate(948.21289,0.09375)"
           xlink:href="#DejaVuSans-47"
           id="use404"
           x="0"
           y="0"
           width="100%"
           height="100%" />
        <use
           transform="translate(981.9043,0.09375)"
           xlink:href="#DejaVuSans-Oblique-947"
           id="use406"
           x="0"
           y="0"
           width="100%"
           height="100%" />
        <use
           transform="translate(1041.084,0.09375)"
           xlink:href="#DejaVuSans-Oblique-115"
           id="use408"
           x="0"
           y="0"
           width="100%"
           height="100%" />
        <use
           transform="matrix(0.7,0,0,0.7,1093.1836,-16.3125)"
           xlink:href="#DejaVuSans-Oblique-102"
           id="use410"
           x="0"
           y="0"
           width="100%"
           height="100%" />
      </g>
    </g>
    <g
       id="text_19">
      <!-- 1e4 -->
      <g
         style="fill:#262626"
         transform="matrix(0.165,0,0,-0.165,68.643522,36.528)"
         id="g421">
        <use
           xlink:href="#ArialMT-49"
           id="use415"
           x="0"
           y="0"
           width="100%"
           height="100%" />
        <use
           x="55.615234"
           xlink:href="#ArialMT-101"
           id="use417"
           y="0"
           width="100%"
           height="100%" />
        <use
           x="111.23047"
           xlink:href="#ArialMT-52"
           id="use419"
           y="0"
           width="100%"
           height="100%" />
      </g>
    </g>
  </g>
  <g
     id="line2d_17">
    <path
       clip-path="url(#p2331cc7615)"
       d="m 88.146268,129.45923 20.320402,5.47249 48.66411,15.62882 62.51654,25.86961 81.67044,42.7187 108.75934,-11.85363 68.12408,-2.15125"
       style="fill:none;stroke:#c44e52;stroke-width:2.25;stroke-dasharray:2.25, 0;stroke-dashoffset:0;stroke-opacity:0.8"
       id="path425" />
    <defs
       id="defs428">
      <path
         d="M 0,4.5 C 1.193414,4.5 2.338109,4.025852 3.181981,3.181981 4.025852,2.338109 4.5,1.193414 4.5,0 4.5,-1.193414 4.025852,-2.338109 3.181981,-3.181981 2.338109,-4.025852 1.193414,-4.5 0,-4.5 c -1.193414,0 -2.338109,0.474148 -3.181981,1.318019 C -4.025852,-2.338109 -4.5,-1.193414 -4.5,0 c 0,1.193414 0.474148,2.338109 1.318019,3.181981 C -2.338109,4.025852 -1.193414,4.5 0,4.5 Z"
         id="me0f4e15a4d"
         style="stroke:#ffffff;stroke-width:0.75;stroke-opacity:0.8" />
    </defs>
    <g
       clip-path="url(#p2331cc7615)"
       id="g444">
      <use
         style="fill:#c44e52;fill-opacity:0.8;stroke:#ffffff;stroke-width:0.75;stroke-opacity:0.8"
         x="88.146271"
         xlink:href="#me0f4e15a4d"
         y="129.45923"
         id="use430"
         width="100%"
         height="100%" />
      <use
         style="fill:#c44e52;fill-opacity:0.8;stroke:#ffffff;stroke-width:0.75;stroke-opacity:0.8"
         x="108.46667"
         xlink:href="#me0f4e15a4d"
         y="134.93173"
         id="use432"
         width="100%"
         height="100%" />
      <use
         style="fill:#c44e52;fill-opacity:0.8;stroke:#ffffff;stroke-width:0.75;stroke-opacity:0.8"
         x="157.13078"
         xlink:href="#me0f4e15a4d"
         y="150.56055"
         id="use434"
         width="100%"
         height="100%" />
      <use
         style="fill:#c44e52;fill-opacity:0.8;stroke:#ffffff;stroke-width:0.75;stroke-opacity:0.8"
         x="219.64732"
         xlink:href="#me0f4e15a4d"
         y="176.43015"
         id="use436"
         width="100%"
         height="100%" />
      <use
         style="fill:#c44e52;fill-opacity:0.8;stroke:#ffffff;stroke-width:0.75;stroke-opacity:0.8"
         x="301.31775"
         xlink:href="#me0f4e15a4d"
         y="219.14885"
         id="use438"
         width="100%"
         height="100%" />
      <use
         style="fill:#c44e52;fill-opacity:0.8;stroke:#ffffff;stroke-width:0.75;stroke-opacity:0.8"
         x="410.07712"
         xlink:href="#me0f4e15a4d"
         y="207.29521"
         id="use440"
         width="100%"
         height="100%" />
      <use
         style="fill:#c44e52;fill-opacity:0.8;stroke:#ffffff;stroke-width:0.75;stroke-opacity:0.8"
         x="478.20117"
         xlink:href="#me0f4e15a4d"
         y="205.14397"
         id="use442"
         width="100%"
         height="100%" />
    </g>
  </g>
  <g
     id="line2d_18">
    <path
       clip-path="url(#p2331cc7615)"
       d="m 88.146268,323.45182 20.320402,-10.27881 48.66411,-29.99107 62.51654,-34.8521 81.67044,-14.15687 108.75934,-14.50677 68.12408,-5.03709"
       style="fill:none;stroke:#c44e52;stroke-width:2.25;stroke-dasharray:2.25, 2.25;stroke-dashoffset:0;stroke-opacity:0.8"
       id="path447" />
    <defs
       id="defs450">
      <path
         d="M -2.25,4.5 0,2.25 2.25,4.5 4.5,2.25 2.25,0 4.5,-2.25 2.25,-4.5 0,-2.25 -2.25,-4.5 -4.5,-2.25 -2.25,0 -4.5,2.25 Z"
         id="m2a740df41c"
         style="stroke:#ffffff;stroke-width:0.75;stroke-linejoin:miter;stroke-opacity:0.8" />
    </defs>
    <g
       clip-path="url(#p2331cc7615)"
       id="g466">
      <use
         style="fill:#c44e52;fill-opacity:0.8;stroke:#ffffff;stroke-width:0.75;stroke-linejoin:miter;stroke-opacity:0.8"
         x="88.146271"
         xlink:href="#m2a740df41c"
         y="323.45181"
         id="use452"
         width="100%"
         height="100%" />
      <use
         style="fill:#c44e52;fill-opacity:0.8;stroke:#ffffff;stroke-width:0.75;stroke-linejoin:miter;stroke-opacity:0.8"
         x="108.46667"
         xlink:href="#m2a740df41c"
         y="313.173"
         id="use454"
         width="100%"
         height="100%" />
      <use
         style="fill:#c44e52;fill-opacity:0.8;stroke:#ffffff;stroke-width:0.75;stroke-linejoin:miter;stroke-opacity:0.8"
         x="157.13078"
         xlink:href="#m2a740df41c"
         y="283.18195"
         id="use456"
         width="100%"
         height="100%" />
      <use
         style="fill:#c44e52;fill-opacity:0.8;stroke:#ffffff;stroke-width:0.75;stroke-linejoin:miter;stroke-opacity:0.8"
         x="219.64732"
         xlink:href="#m2a740df41c"
         y="248.32985"
         id="use458"
         width="100%"
         height="100%" />
      <use
         style="fill:#c44e52;fill-opacity:0.8;stroke:#ffffff;stroke-width:0.75;stroke-linejoin:miter;stroke-opacity:0.8"
         x="301.31775"
         xlink:href="#m2a740df41c"
         y="234.17297"
         id="use460"
         width="100%"
         height="100%" />
      <use
         style="fill:#c44e52;fill-opacity:0.8;stroke:#ffffff;stroke-width:0.75;stroke-linejoin:miter;stroke-opacity:0.8"
         x="410.07712"
         xlink:href="#m2a740df41c"
         y="219.6662"
         id="use462"
         width="100%"
         height="100%" />
      <use
         style="fill:#c44e52;fill-opacity:0.8;stroke:#ffffff;stroke-width:0.75;stroke-linejoin:miter;stroke-opacity:0.8"
         x="478.20117"
         xlink:href="#m2a740df41c"
         y="214.62912"
         id="use464"
         width="100%"
         height="100%" />
    </g>
  </g>
  <g
     id="line2d_19">
    <path
       clip-path="url(#p2331cc7615)"
       d="m 88.146268,105.84297 20.320402,-0.86564 48.66411,-4.61132 62.51654,-12.33124 81.67044,-19.040436 108.75934,-13.258102 68.12408,-2.68805"
       style="fill:none;stroke:#64b5cd;stroke-width:2.25;stroke-dasharray:2.25, 0;stroke-dashoffset:0;stroke-opacity:0.8"
       id="path469" />
    <defs
       id="defs472">
      <path
         d="M 0,4.5 C 1.193414,4.5 2.338109,4.025852 3.181981,3.181981 4.025852,2.338109 4.5,1.193414 4.5,0 4.5,-1.193414 4.025852,-2.338109 3.181981,-3.181981 2.338109,-4.025852 1.193414,-4.5 0,-4.5 c -1.193414,0 -2.338109,0.474148 -3.181981,1.318019 C -4.025852,-2.338109 -4.5,-1.193414 -4.5,0 c 0,1.193414 0.474148,2.338109 1.318019,3.181981 C -2.338109,4.025852 -1.193414,4.5 0,4.5 Z"
         id="md3f5ba5e58"
         style="stroke:#ffffff;stroke-width:0.75;stroke-opacity:0.8" />
    </defs>
    <g
       clip-path="url(#p2331cc7615)"
       id="g488">
      <use
         style="fill:#64b5cd;fill-opacity:0.8;stroke:#ffffff;stroke-width:0.75;stroke-opacity:0.8"
         x="88.146271"
         xlink:href="#md3f5ba5e58"
         y="105.84297"
         id="use474"
         width="100%"
         height="100%" />
      <use
         style="fill:#64b5cd;fill-opacity:0.8;stroke:#ffffff;stroke-width:0.75;stroke-opacity:0.8"
         x="108.46667"
         xlink:href="#md3f5ba5e58"
         y="104.97733"
         id="use476"
         width="100%"
         height="100%" />
      <use
         style="fill:#64b5cd;fill-opacity:0.8;stroke:#ffffff;stroke-width:0.75;stroke-opacity:0.8"
         x="157.13078"
         xlink:href="#md3f5ba5e58"
         y="100.366"
         id="use478"
         width="100%"
         height="100%" />
      <use
         style="fill:#64b5cd;fill-opacity:0.8;stroke:#ffffff;stroke-width:0.75;stroke-opacity:0.8"
         x="219.64732"
         xlink:href="#md3f5ba5e58"
         y="88.034767"
         id="use480"
         width="100%"
         height="100%" />
      <use
         style="fill:#64b5cd;fill-opacity:0.8;stroke:#ffffff;stroke-width:0.75;stroke-opacity:0.8"
         x="301.31775"
         xlink:href="#md3f5ba5e58"
         y="68.994331"
         id="use482"
         width="100%"
         height="100%" />
      <use
         style="fill:#64b5cd;fill-opacity:0.8;stroke:#ffffff;stroke-width:0.75;stroke-opacity:0.8"
         x="410.07712"
         xlink:href="#md3f5ba5e58"
         y="55.736233"
         id="use484"
         width="100%"
         height="100%" />
      <use
         style="fill:#64b5cd;fill-opacity:0.8;stroke:#ffffff;stroke-width:0.75;stroke-opacity:0.8"
         x="478.20117"
         xlink:href="#md3f5ba5e58"
         y="53.048183"
         id="use486"
         width="100%"
         height="100%" />
    </g>
  </g>
  <g
     id="line2d_20">
    <path
       clip-path="url(#p2331cc7615)"
       d="m 88.146268,130.00541 20.320402,1.85138 48.66411,2.61352 62.51654,-3.33072 81.67044,-12.75128 108.75934,-14.67054 68.12408,-5.392359"
       style="fill:none;stroke:#64b5cd;stroke-width:2.25;stroke-dasharray:2.25, 2.25;stroke-dashoffset:0;stroke-opacity:0.8"
       id="path491" />
    <defs
       id="defs494">
      <path
         d="M -2.25,4.5 0,2.25 2.25,4.5 4.5,2.25 2.25,0 4.5,-2.25 2.25,-4.5 0,-2.25 -2.25,-4.5 -4.5,-2.25 -2.25,0 -4.5,2.25 Z"
         id="m980e8251c2"
         style="stroke:#ffffff;stroke-width:0.75;stroke-linejoin:miter;stroke-opacity:0.8" />
    </defs>
    <g
       clip-path="url(#p2331cc7615)"
       id="g510">
      <use
         style="fill:#64b5cd;fill-opacity:0.8;stroke:#ffffff;stroke-width:0.75;stroke-linejoin:miter;stroke-opacity:0.8"
         x="88.146271"
         xlink:href="#m980e8251c2"
         y="130.00542"
         id="use496"
         width="100%"
         height="100%" />
      <use
         style="fill:#64b5cd;fill-opacity:0.8;stroke:#ffffff;stroke-width:0.75;stroke-linejoin:miter;stroke-opacity:0.8"
         x="108.46667"
         xlink:href="#m980e8251c2"
         y="131.8568"
         id="use498"
         width="100%"
         height="100%" />
      <use
         style="fill:#64b5cd;fill-opacity:0.8;stroke:#ffffff;stroke-width:0.75;stroke-linejoin:miter;stroke-opacity:0.8"
         x="157.13078"
         xlink:href="#m980e8251c2"
         y="134.47032"
         id="use500"
         width="100%"
         height="100%" />
      <use
         style="fill:#64b5cd;fill-opacity:0.8;stroke:#ffffff;stroke-width:0.75;stroke-linejoin:miter;stroke-opacity:0.8"
         x="219.64732"
         xlink:href="#m980e8251c2"
         y="131.13959"
         id="use502"
         width="100%"
         height="100%" />
      <use
         style="fill:#64b5cd;fill-opacity:0.8;stroke:#ffffff;stroke-width:0.75;stroke-linejoin:miter;stroke-opacity:0.8"
         x="301.31775"
         xlink:href="#m980e8251c2"
         y="118.38831"
         id="use504"
         width="100%"
         height="100%" />
      <use
         style="fill:#64b5cd;fill-opacity:0.8;stroke:#ffffff;stroke-width:0.75;stroke-linejoin:miter;stroke-opacity:0.8"
         x="410.07712"
         xlink:href="#m980e8251c2"
         y="103.71777"
         id="use506"
         width="100%"
         height="100%" />
      <use
         style="fill:#64b5cd;fill-opacity:0.8;stroke:#ffffff;stroke-width:0.75;stroke-linejoin:miter;stroke-opacity:0.8"
         x="478.20117"
         xlink:href="#m980e8251c2"
         y="98.325409"
         id="use508"
         width="100%"
         height="100%" />
    </g>
  </g>
  <g
     id="line2d_21" />
  <g
     id="line2d_22" />
  <g
     id="line2d_23" />
  <g
     id="line2d_24" />
  <g
     id="patch_3">
    <path
       d="M 68.643522,336.972 V 39.528"
       style="fill:none;stroke:#262626;stroke-width:1.875;stroke-linecap:square;stroke-linejoin:miter"
       id="path517" />
  </g>
  <g
     id="patch_4">
    <path
       d="M 68.643522,336.972 H 497.70392"
       style="fill:none;stroke:#262626;stroke-width:1.875;stroke-linecap:square;stroke-linejoin:miter"
       id="path520" />
  </g>
  <g
     id="patch_5">
    <path
       d="m 516.59421,285.66398 h 175.18245 q 3.3,0 3.3,-3.3 V 146.03602 q 0,-3.3 -3.3,-3.3 H 516.59421 q -3.3,0 -3.3,3.3 v 136.32796 q 0,3.3 3.3,3.3 z"
       style="opacity:0;fill:none"
       id="path523" />
  </g>
  <g
     id="text_20"
     transform="translate(-33)">
    <!-- Force contribution -->
    <defs
       id="defs527">
      <path
         d="M 25.78125,7.859375 27.046875,0.09375 Q 23.34375,-0.6875 20.40625,-0.6875 15.625,-0.6875 12.984375,0.828125 10.359375,2.34375 9.28125,4.8125 8.203125,7.28125 8.203125,15.1875 v 29.828125 h -6.4375 v 6.84375 h 6.4375 v 12.84375 L 16.9375,69.96875 V 51.859375 h 8.84375 v -6.84375 H 16.9375 v -30.3125 q 0,-3.765625 0.46875,-4.84375 0.46875,-1.0625 1.515625,-1.703125 1.046875,-0.640625 3,-0.640625 1.46875,0 3.859375,0.34375 z"
         id="ArialMT-116" />
    </defs>
    <g
       style="fill:#262626"
       transform="matrix(0.165,0,0,-0.165,566.09421,160.88602)"
       id="g565">
      <use
         xlink:href="#ArialMT-70"
         id="use529"
         x="0"
         y="0"
         width="100%"
         height="100%" />
      <use
         x="61.083984"
         xlink:href="#ArialMT-111"
         id="use531"
         y="0"
         width="100%"
         height="100%" />
      <use
         x="116.69922"
         xlink:href="#ArialMT-114"
         id="use533"
         y="0"
         width="100%"
         height="100%" />
      <use
         x="150"
         xlink:href="#ArialMT-99"
         id="use535"
         y="0"
         width="100%"
         height="100%" />
      <use
         x="200"
         xlink:href="#ArialMT-101"
         id="use537"
         y="0"
         width="100%"
         height="100%" />
      <use
         x="255.61523"
         xlink:href="#ArialMT-32"
         id="use539"
         y="0"
         width="100%"
         height="100%" />
      <use
         x="283.39844"
         xlink:href="#ArialMT-99"
         id="use541"
         y="0"
         width="100%"
         height="100%" />
      <use
         x="333.39844"
         xlink:href="#ArialMT-111"
         id="use543"
         y="0"
         width="100%"
         height="100%" />
      <use
         x="389.01367"
         xlink:href="#ArialMT-110"
         id="use545"
         y="0"
         width="100%"
         height="100%" />
      <use
         x="444.62891"
         xlink:href="#ArialMT-116"
         id="use547"
         y="0"
         width="100%"
         height="100%" />
      <use
         x="472.41211"
         xlink:href="#ArialMT-114"
         id="use549"
         y="0"
         width="100%"
         height="100%" />
      <use
         x="505.71289"
         xlink:href="#ArialMT-105"
         id="use551"
         y="0"
         width="100%"
         height="100%" />
      <use
         x="527.92969"
         xlink:href="#ArialMT-98"
         id="use553"
         y="0"
         width="100%"
         height="100%" />
      <use
         x="583.54492"
         xlink:href="#ArialMT-117"
         id="use555"
         y="0"
         width="100%"
         height="100%" />
      <use
         x="639.16016"
         xlink:href="#ArialMT-116"
         id="use557"
         y="0"
         width="100%"
         height="100%" />
      <use
         x="666.94336"
         xlink:href="#ArialMT-105"
         id="use559"
         y="0"
         width="100%"
         height="100%" />
      <use
         x="689.16016"
         xlink:href="#ArialMT-111"
         id="use561"
         y="0"
         width="100%"
         height="100%" />
      <use
         x="744.77539"
         xlink:href="#ArialMT-110"
         id="use563"
         y="0"
         width="100%"
         height="100%" />
    </g>
  </g>
  <g
     id="line2d_25">
    <path
       d="m 519.89421,178.10735 h 33"
       style="fill:none;stroke:#c44e52;stroke-width:2.25;stroke-linecap:round"
       id="path568" />
  </g>
  <g
     id="line2d_26" />
  <g
     id="text_21">
    <!-- Whole pad -->
    <defs
       id="defs575">
      <path
         d="m 20.21875,0 -19,71.578125 H 10.9375 L 21.828125,24.65625 q 1.75,-7.375 3.03125,-14.640625 2.734375,11.46875 3.21875,13.234375 l 13.625,48.328125 H 53.125 l 10.25,-36.21875 q 3.859375,-13.484375 5.578125,-25.34375 1.359375,6.78125 3.5625,15.578125 l 11.21875,45.984375 h 9.53125 L 73.640625,0 H 64.5 L 49.421875,54.546875 q -1.90625,6.828125 -2.25,8.390625 -1.125,-4.921875 -2.109375,-8.390625 L 29.890625,0 Z"
         id="ArialMT-87" />
      <path
         d="m 6.59375,-19.875 v 71.734375 h 8 V 45.125 Q 17.4375,49.078125 21,51.046875 q 3.5625,1.984375 8.640625,1.984375 6.640625,0 11.71875,-3.421875 5.078125,-3.421875 7.65625,-9.65625 2.59375,-6.21875 2.59375,-13.640625 0,-7.953125 -2.859375,-14.328125 Q 45.90625,5.609375 40.453125,2.21875 35.015625,-1.171875 29,-1.171875 q -4.390625,0 -7.890625,1.859375 Q 17.625,2.546875 15.375,5.375 v -25.25 z m 7.953125,45.515625 q 0,-10.015625 4.046875,-14.796875 4.0625,-4.78125 9.828125,-4.78125 5.859375,0 10.03125,4.953125 Q 42.625,15.96875 42.625,26.375 q 0,9.90625 -4.078125,14.828125 -4.078125,4.9375 -9.734375,4.9375 -5.625,0 -9.953125,-5.25 -4.3125,-5.25 -4.3125,-15.25 z"
         id="ArialMT-112" />
      <path
         d="M 40.4375,6.390625 Q 35.546875,2.25 31.03125,0.53125 q -4.515625,-1.703125 -9.6875,-1.703125 -8.546875,0 -13.140625,4.171875 -4.59375,4.171875 -4.59375,10.671875 0,3.8125 1.734375,6.953125 1.734375,3.15625 4.546875,5.0625 2.8125,1.90625 6.328125,2.875 2.578125,0.6875 7.8125,1.328125 10.640625,1.265625 15.671875,3.015625 0.04687,1.8125 0.04687,2.296875 0,5.375 -2.5,7.578125 -3.359375,2.96875 -10,2.96875 -6.203125,0 -9.15625,-2.171875 -2.953125,-2.171875 -4.375,-7.6875 L 5.125,37.0625 q 1.171875,5.515625 3.859375,8.90625 2.6875,3.390625 7.765625,5.21875 5.078125,1.84375 11.765625,1.84375 6.640625,0 10.78125,-1.5625 4.15625,-1.5625 6.109375,-3.9375 1.953125,-2.359375 2.734375,-5.984375 0.4375,-2.234375 0.4375,-8.09375 v -11.71875 q 0,-12.265625 0.5625,-15.515625 Q 49.703125,2.984375 51.375,0 h -9.1875 q -1.359375,2.734375 -1.75,6.390625 z M 39.703125,26.03125 Q 34.90625,24.078125 25.34375,22.703125 19.921875,21.921875 17.671875,20.9375 15.4375,19.96875 14.203125,18.09375 q -1.21875,-1.875 -1.21875,-4.171875 0,-3.515625 2.65625,-5.859375 2.671875,-2.34375 7.796875,-2.34375 5.078125,0 9.03125,2.21875 3.953125,2.21875 5.8125,6.078125 1.421875,2.984375 1.421875,8.78125 z"
         id="ArialMT-97" />
    </defs>
    <g
       style="fill:#262626"
       transform="matrix(0.165,0,0,-0.165,566.09421,183.88235)"
       id="g595">
      <use
         xlink:href="#ArialMT-87"
         id="use577"
         x="0"
         y="0"
         width="100%"
         height="100%" />
      <use
         x="94.384766"
         xlink:href="#ArialMT-104"
         id="use579"
         y="0"
         width="100%"
         height="100%" />
      <use
         x="150"
         xlink:href="#ArialMT-111"
         id="use581"
         y="0"
         width="100%"
         height="100%" />
      <use
         x="205.61523"
         xlink:href="#ArialMT-108"
         id="use583"
         y="0"
         width="100%"
         height="100%" />
      <use
         x="227.83203"
         xlink:href="#ArialMT-101"
         id="use585"
         y="0"
         width="100%"
         height="100%" />
      <use
         x="283.44727"
         xlink:href="#ArialMT-32"
         id="use587"
         y="0"
         width="100%"
         height="100%" />
      <use
         x="311.23047"
         xlink:href="#ArialMT-112"
         id="use589"
         y="0"
         width="100%"
         height="100%" />
      <use
         x="366.8457"
         xlink:href="#ArialMT-97"
         id="use591"
         y="0"
         width="100%"
         height="100%" />
      <use
         x="422.46094"
         xlink:href="#ArialMT-100"
         id="use593"
         y="0"
         width="100%"
         height="100%" />
    </g>
  </g>
  <g
     id="line2d_27">
    <path
       d="m 519.89421,201.10367 h 33"
       style="fill:none;stroke:#64b5cd;stroke-width:2.25;stroke-linecap:round"
       id="path598" />
  </g>
  <g
     id="line2d_28" />
  <g
     id="text_22">
    <!-- Bubble only -->
    <defs
       id="defs603">
      <path
         d="m 6.203125,-19.96875 -0.984375,8.25 Q 8.109375,-12.5 10.25,-12.5 q 2.9375,0 4.6875,0.984375 1.765625,0.96875 2.890625,2.71875 0.828125,1.328125 2.6875,6.546875 0.234375,0.734375 0.78125,2.15625 l -19.6875,51.953125 h 9.46875 L 21.875,21.828125 Q 23.96875,16.109375 25.640625,9.8125 27.15625,15.875 29.25,21.625 L 40.328125,51.859375 H 49.125 L 29.390625,-0.875 Q 26.21875,-9.421875 24.46875,-12.640625 22.125,-17 19.09375,-19.015625 q -3.03125,-2.03125 -7.234375,-2.03125 -2.53125,0 -5.65625,1.078125 z"
         id="ArialMT-121" />
    </defs>
    <g
       style="fill:#262626"
       transform="matrix(0.165,0,0,-0.165,566.09421,206.87867)"
       id="g627">
      <use
         xlink:href="#ArialMT-66"
         id="use605"
         x="0"
         y="0"
         width="100%"
         height="100%" />
      <use
         x="66.699219"
         xlink:href="#ArialMT-117"
         id="use607"
         y="0"
         width="100%"
         height="100%" />
      <use
         x="122.31445"
         xlink:href="#ArialMT-98"
         id="use609"
         y="0"
         width="100%"
         height="100%" />
      <use
         x="177.92969"
         xlink:href="#ArialMT-98"
         id="use611"
         y="0"
         width="100%"
         height="100%" />
      <use
         x="233.54492"
         xlink:href="#ArialMT-108"
         id="use613"
         y="0"
         width="100%"
         height="100%" />
      <use
         x="255.76172"
         xlink:href="#ArialMT-101"
         id="use615"
         y="0"
         width="100%"
         height="100%" />
      <use
         x="311.37695"
         xlink:href="#ArialMT-32"
         id="use617"
         y="0"
         width="100%"
         height="100%" />
      <use
         x="339.16016"
         xlink:href="#ArialMT-111"
         id="use619"
         y="0"
         width="100%"
         height="100%" />
      <use
         x="394.77539"
         xlink:href="#ArialMT-110"
         id="use621"
         y="0"
         width="100%"
         height="100%" />
      <use
         x="450.39062"
         xlink:href="#ArialMT-108"
         id="use623"
         y="0"
         width="100%"
         height="100%" />
      <use
         x="472.60742"
         xlink:href="#ArialMT-121"
         id="use625"
         y="0"
         width="100%"
         height="100%" />
    </g>
  </g>
  <g
     id="text_23"
     transform="translate(-32.388984)">
    <!-- Surface -->
    <defs
       id="defs632">
      <path
         d="m 4.5,23 8.921875,0.78125 q 0.640625,-5.375 2.953125,-8.8125 2.328125,-3.4375 7.203125,-5.5625 4.890625,-2.125 11,-2.125 5.40625,0 9.5625,1.609375 4.15625,1.609375 6.171875,4.40625 2.03125,2.8125 2.03125,6.140625 0,3.359375 -1.953125,5.875 -1.953125,2.515625 -6.4375,4.234375 -2.890625,1.125 -12.75,3.484375 -9.859375,2.375 -13.8125,4.46875 -5.140625,2.6875 -7.65625,6.65625 -2.5,3.984375 -2.5,8.921875 0,5.421875 3.0625,10.125 3.078125,4.71875 8.984375,7.15625 5.921875,2.4375 13.140625,2.4375 7.953125,0 14.03125,-2.5625 6.09375,-2.5625 9.359375,-7.546875 3.265625,-4.96875 3.515625,-11.265625 L 50.25,50.734375 q -0.734375,6.78125 -4.96875,10.25 -4.21875,3.46875 -12.46875,3.46875 -8.59375,0 -12.53125,-3.15625 -3.921875,-3.140625 -3.921875,-7.578125 0,-3.859375 2.78125,-6.359375 2.734375,-2.484375 14.28125,-5.09375 11.546875,-2.609375 15.84375,-4.5625 6.25,-2.890625 9.21875,-7.3125 2.984375,-4.40625 2.984375,-10.171875 0,-5.71875 -3.265625,-10.78125 -3.265625,-5.046875 -9.40625,-7.859375 -6.125,-2.796875 -13.78125,-2.796875 -9.71875,0 -16.296875,2.828125 Q 12.15625,4.4375 8.421875,10.125 4.6875,15.828125 4.5,23 Z"
         id="ArialMT-83" />
      <path
         d="M 8.6875,0 V 45.015625 H 0.921875 v 6.84375 H 8.6875 V 57.375 q 0,5.21875 0.9375,7.765625 1.265625,3.421875 4.453125,5.53125 3.203125,2.125 8.96875,2.125 3.71875,0 8.203125,-0.875 l -1.3125,-7.65625 Q 27.203125,64.75 24.75,64.75 q -4,0 -5.65625,-1.71875 -1.65625,-1.703125 -1.65625,-6.390625 v -4.78125 h 10.109375 v -6.84375 H 17.4375 V 0 Z"
         id="ArialMT-102" />
    </defs>
    <g
       style="fill:#262626"
       transform="matrix(0.165,0,0,-0.165,566.09421,229.875)"
       id="g648">
      <use
         xlink:href="#ArialMT-83"
         id="use634"
         x="0"
         y="0"
         width="100%"
         height="100%" />
      <use
         x="66.699219"
         xlink:href="#ArialMT-117"
         id="use636"
         y="0"
         width="100%"
         height="100%" />
      <use
         x="122.31445"
         xlink:href="#ArialMT-114"
         id="use638"
         y="0"
         width="100%"
         height="100%" />
      <use
         x="155.61523"
         xlink:href="#ArialMT-102"
         id="use640"
         y="0"
         width="100%"
         height="100%" />
      <use
         x="183.39844"
         xlink:href="#ArialMT-97"
         id="use642"
         y="0"
         width="100%"
         height="100%" />
      <use
         x="239.01367"
         xlink:href="#ArialMT-99"
         id="use644"
         y="0"
         width="100%"
         height="100%" />
      <use
         x="289.01367"
         xlink:href="#ArialMT-101"
         id="use646"
         y="0"
         width="100%"
         height="100%" />
    </g>
  </g>
  <g
     id="line2d_29">
    <path
       d="m 519.89421,247.09633 h 33"
       style="fill:none;stroke:#333333;stroke-width:2.25;stroke-dasharray:2.25, 0;stroke-dashoffset:0"
       id="path651" />
  </g>
  <g
     id="line2d_30">
    <defs
       id="defs655">
      <path
         d="M 0,4.5 C 1.193414,4.5 2.338109,4.025852 3.181981,3.181981 4.025852,2.338109 4.5,1.193414 4.5,0 4.5,-1.193414 4.025852,-2.338109 3.181981,-3.181981 2.338109,-4.025852 1.193414,-4.5 0,-4.5 c -1.193414,0 -2.338109,0.474148 -3.181981,1.318019 C -4.025852,-2.338109 -4.5,-1.193414 -4.5,0 c 0,1.193414 0.474148,2.338109 1.318019,3.181981 C -2.338109,4.025852 -1.193414,4.5 0,4.5 Z"
         id="mc65a82ead7"
         style="stroke:#333333" />
    </defs>
    <g
       id="g659">
      <use
         style="fill:#333333;stroke:#333333"
         x="536.39423"
         xlink:href="#mc65a82ead7"
         y="247.09633"
         id="use657"
         width="100%"
         height="100%" />
    </g>
  </g>
  <g
     id="text_24">
    <!-- Hydrophilic -->
    <defs
       id="defs663">
      <path
         d="m 8.015625,0 v 71.578125 h 9.46875 V 42.1875 H 54.6875 v 29.390625 h 9.46875 V 0 H 54.6875 V 33.734375 H 17.484375 V 0 Z"
         id="ArialMT-72" />
    </defs>
    <g
       style="fill:#262626"
       transform="matrix(0.165,0,0,-0.165,566.09421,252.87133)"
       id="g687">
      <use
         xlink:href="#ArialMT-72"
         id="use665"
         x="0"
         y="0"
         width="100%"
         height="100%" />
      <use
         x="72.216797"
         xlink:href="#ArialMT-121"
         id="use667"
         y="0"
         width="100%"
         height="100%" />
      <use
         x="122.2168"
         xlink:href="#ArialMT-100"
         id="use669"
         y="0"
         width="100%"
         height="100%" />
      <use
         x="177.83203"
         xlink:href="#ArialMT-114"
         id="use671"
         y="0"
         width="100%"
         height="100%" />
      <use
         x="211.13281"
         xlink:href="#ArialMT-111"
         id="use673"
         y="0"
         width="100%"
         height="100%" />
      <use
         x="266.74805"
         xlink:href="#ArialMT-112"
         id="use675"
         y="0"
         width="100%"
         height="100%" />
      <use
         x="322.36328"
         xlink:href="#ArialMT-104"
         id="use677"
         y="0"
         width="100%"
         height="100%" />
      <use
         x="377.97852"
         xlink:href="#ArialMT-105"
         id="use679"
         y="0"
         width="100%"
         height="100%" />
      <use
         x="400.19531"
         xlink:href="#ArialMT-108"
         id="use681"
         y="0"
         width="100%"
         height="100%" />
      <use
         x="422.41211"
         xlink:href="#ArialMT-105"
         id="use683"
         y="0"
         width="100%"
         height="100%" />
      <use
         x="444.62891"
         xlink:href="#ArialMT-99"
         id="use685"
         y="0"
         width="100%"
         height="100%" />
    </g>
  </g>
  <g
     id="line2d_31">
    <path
       d="m 519.89421,270.09265 h 33"
       style="fill:none;stroke:#333333;stroke-width:2.25;stroke-dasharray:2.25, 2.25;stroke-dashoffset:0"
       id="path690" />
  </g>
  <g
     id="line2d_32">
    <defs
       id="defs694">
      <path
         d="M -2.25,4.5 0,2.25 2.25,4.5 4.5,2.25 2.25,0 4.5,-2.25 2.25,-4.5 0,-2.25 -2.25,-4.5 -4.5,-2.25 -2.25,0 -4.5,2.25 Z"
         id="mf092e7e163"
         style="stroke:#333333;stroke-linejoin:miter" />
    </defs>
    <g
       id="g698">
      <use
         style="fill:#333333;stroke:#333333;stroke-linejoin:miter"
         x="536.39423"
         xlink:href="#mf092e7e163"
         y="270.09265"
         id="use696"
         width="100%"
         height="100%" />
    </g>
  </g>
  <g
     id="text_25">
    <!-- Hydrophobic -->
    <g
       style="fill:#262626"
       transform="matrix(0.165,0,0,-0.165,566.09421,275.86765)"
       id="g723">
      <use
         xlink:href="#ArialMT-72"
         id="use701"
         x="0"
         y="0"
         width="100%"
         height="100%" />
      <use
         x="72.216797"
         xlink:href="#ArialMT-121"
         id="use703"
         y="0"
         width="100%"
         height="100%" />
      <use
         x="122.2168"
         xlink:href="#ArialMT-100"
         id="use705"
         y="0"
         width="100%"
         height="100%" />
      <use
         x="177.83203"
         xlink:href="#ArialMT-114"
         id="use707"
         y="0"
         width="100%"
         height="100%" />
      <use
         x="211.13281"
         xlink:href="#ArialMT-111"
         id="use709"
         y="0"
         width="100%"
         height="100%" />
      <use
         x="266.74805"
         xlink:href="#ArialMT-112"
         id="use711"
         y="0"
         width="100%"
         height="100%" />
      <use
         x="322.36328"
         xlink:href="#ArialMT-104"
         id="use713"
         y="0"
         width="100%"
         height="100%" />
      <use
         x="377.97852"
         xlink:href="#ArialMT-111"
         id="use715"
         y="0"
         width="100%"
         height="100%" />
      <use
         x="433.59375"
         xlink:href="#ArialMT-98"
         id="use717"
         y="0"
         width="100%"
         height="100%" />
      <use
         x="489.20898"
         xlink:href="#ArialMT-105"
         id="use719"
         y="0"
         width="100%"
         height="100%" />
      <use
         x="511.42578"
         xlink:href="#ArialMT-99"
         id="use721"
         y="0"
         width="100%"
         height="100%" />
    </g>
  </g>
  <g
     id="patch_6">
    <path
       d="m 578.01206,40.300533 h 116.3146 V 7.2 h -116.3146 z"
       style="fill:#ffffff;stroke:#1a1a1a;stroke-width:1.5;stroke-linejoin:miter"
       id="path728" />
  </g>
  <g
     id="text_26">
    <!-- \begin{eqnarray*}D_p/D_h&amp;=&amp;50\end{eqnarray*} -->
    <defs
       id="defs738">
      <path
         d="m 13,63.390625 c 6.203125,-0.59375 7.703125,-1.40625 7.703125,-4.09375 0,-1.484375 -0.40625,-3.875 -1.109375,-6.359375 L 7.296875,8.96875 C 5.5,3.1875 4.796875,2.59375 -0.796875,1.59375 V 0 H 24.5 C 36.203125,0 46.90625,3.09375 54.59375,8.65625 64.296875,15.734375 70,26.671875 70,38.203125 70,54.53125 58.59375,65 40.796875,65 H 13 Z m 18.296875,-4.28125 c 0.609375,2.1875 2.109375,2.875 6.109375,2.875 5.6875,0 10.6875,-1.296875 13.890625,-3.671875 4.90625,-3.59375 7.609375,-9.859375 7.609375,-17.71875 0,-10.734375 -4.203125,-21.875 -11,-28.640625 C 42,5.984375 33.90625,3 23.5,3 18.90625,3 17,4.09375 17,6.671875 17,7.96875 17.5,10.15625 19.203125,16.125 Z"
         id="Nimbus_Roman_No9_L_Regular_Italic-68" />
      <path
         d="m 5.59375,40.296875 h 2.3125 c 0,0 0.1875,0 0.296875,0.109375 C 9.5,41 12.09375,39.109375 12.09375,37.609375 12.09375,36.71875 8.5,22.59375 5,9.453125 2.296875,-0.5 -0.109375,-10.015625 -0.796875,-12.90625 -1.90625,-17.515625 -3.203125,-18.703125 -7.5,-18.8125 v -1.59375 H 13 v 1.5 c -4.703125,0 -6.40625,0.890625 -6.40625,3 0,1.390625 1.703125,9.203125 3.703125,16.59375 2.5,-1.296875 4.296875,-1.6875 6.609375,-1.6875 14.59375,0 30,16.71875 30,32.546875 C 46.90625,39.3125 42.5,44 35.40625,44 c -6.5,0 -11.3125,-3.203125 -17.109375,-11.265625 L 21.203125,42.6875 21.5,43.59375 c 0,0 -0.09375,0.09375 -0.203125,0.296875 L 21.09375,44 C 21.09375,44 21,44 21,44 H 20.796875 L 5.40625,41.796875 Z m 26.109375,-0.59375 C 36,39.5 37.90625,36.921875 37.90625,31.140625 37.90625,24.578125 35,16.015625 30.703125,9.84375 26.5,3.984375 21.703125,0.890625 16.5,0.890625 c -2.796875,0 -4.796875,1.5 -4.796875,3.6875 0,3.375 3.59375,16.421875 6.5,23.78125 2.703125,6.765625 8.5,11.640625 13.5,11.34375 z"
         id="Nimbus_Roman_No9_L_Regular_Italic-112" />
      <path
         d="m 43.90625,71.203125 c 0.5,1.296875 0.5,1.6875 0.5,1.796875 0,1.09375 -0.90625,2 -2,2 C 41.703125,75 41,74.6875 40.703125,74.09375 L 6,-21.203125 C 5.5,-22.5 5.5,-22.90625 5.5,-23 c 0,-1.109375 0.90625,-2 2,-2 1.296875,0 1.59375,0.6875 2.203125,2.390625 z"
         id="CMMI10-61" />
      <path
         d="M 46.5,11.59375 C 41.09375,4.796875 39.90625,3.6875 38.296875,3.6875 c -0.890625,0 -1.59375,0.90625 -1.59375,1.8125 0,1 1.59375,7.296875 3.296875,12.484375 2.90625,9.5 4.796875,16.90625 4.796875,19.3125 0,4 -2.703125,6.703125 -6.59375,6.703125 -6.5,0 -13.609375,-6.609375 -22.90625,-21.109375 l 12,44.796875 -0.5,0.5 C 21,66.890625 17.09375,66.1875 11.09375,65.5 V 64 h 2.609375 c 0.09375,0 0.203125,0 0.296875,0.09375 1.40625,0.59375 3.796875,-1.09375 3.796875,-2.5 0,-1.40625 -0.5,-3.90625 -1.390625,-6.796875 -0.109375,-0.109375 -0.40625,-1.5 -1,-3.703125 l -13.5,-51.203125 h 7.5 c 4,15.40625 5.296875,18.796875 9.296875,24.90625 5.203125,7.890625 12,14.09375 15.5,14.09375 1.5,0 2.796875,-1.203125 2.796875,-2.5 0,-0.40625 -0.296875,-1.703125 -0.703125,-3.296875 l -5.5,-20.703125 c -1.296875,-4.90625 -2,-8 -2,-9.203125 C 28.796875,0.59375 30.5,-1 33.203125,-1 c 5.09375,0 8.59375,2.6875 14.59375,11.390625 z"
         id="Nimbus_Roman_No9_L_Regular_Italic-104" />
      <path
         d="m 68.703125,32.984375 c 1.5,0 3.390625,0 3.390625,2 C 72.09375,37 70.203125,37 68.796875,37 H 8.90625 C 7.5,37 5.59375,37 5.59375,34.984375 c 0,-2 1.90625,-2 3.40625,-2 z M 68.796875,13 c 1.40625,0 3.296875,0 3.296875,2 0,2 -1.890625,2 -3.390625,2 H 9 c -1.5,0 -3.40625,0 -3.40625,-2 0,-2 1.90625,-2 3.3125,-2 z"
         id="CMR10-61" />
      <path
         d="m 18.09375,58.09375 h 19.609375 c 1.59375,0 2,0.203125 2.296875,0.890625 l 3.796875,8.90625 -0.890625,0.703125 C 41.40625,66.5 40.40625,66 38.296875,66 H 17.40625 L 6.5,42.453125 C 6.40625,42.265625 6.40625,42.15625 6.40625,41.96875 c 0,-0.5 0.390625,-0.796875 1.1875,-0.796875 3.203125,0 7.203125,-0.6875 11.3125,-1.984375 11.5,-3.65625 16.796875,-9.78125 16.796875,-19.578125 0,-9.5 -6.109375,-16.921875 -13.90625,-16.921875 -2,0 -3.703125,0.703125 -6.703125,2.875 -3.1875,2.28125 -5.5,3.265625 -7.59375,3.265625 -2.90625,0 -4.296875,-1.1875 -4.296875,-3.65625 C 3.203125,1.390625 7.90625,-1 15.40625,-1 23.796875,-1 31,1.6875 36,6.75 c 4.59375,4.453125 6.703125,10.09375 6.703125,17.609375 0,7.125 -1.90625,11.671875 -6.90625,16.609375 -4.390625,4.359375 -10.09375,6.640625 -21.890625,8.71875 z"
         id="Nimbus_Roman_No9_L_Regular-53" />
      <path
         d="M 25.40625,68 C 19.90625,68 15.703125,66.296875 12,62.796875 6.203125,57.203125 2.40625,45.6875 2.40625,34 c 0,-10.90625 3.296875,-22.609375 8,-28.203125 C 14.09375,1.390625 19.203125,-1 25,-1 c 5.09375,0 9.40625,1.6875 13,5.1875 5.796875,5.5 9.59375,17.109375 9.59375,29.203125 C 47.59375,53.890625 38.5,68 25.40625,68 Z m -0.3125,-2.609375 C 33.5,65.390625 38,54.09375 38,33.1875 38,12.296875 33.59375,1.59375 25,1.59375 c -8.59375,0 -13,10.703125 -13,31.5 0,21.203125 4.5,32.296875 13.09375,32.296875 z"
         id="Nimbus_Roman_No9_L_Regular-48" />
    </defs>
    <g
       style="fill:#262626"
       transform="matrix(0.18,0,0,-0.18,585.21206,29.612469)"
       id="g756">
      <use
         transform="matrix(0.996264,0,0,0.996264,0,16.487732)"
         xlink:href="#Nimbus_Roman_No9_L_Regular_Italic-68"
         id="use740"
         x="0"
         y="0"
         width="100%"
         height="100%" />
      <use
         transform="matrix(0.737241,0,0,0.737241,77.459268,1.543817)"
         xlink:href="#Nimbus_Roman_No9_L_Regular_Italic-112"
         id="use742"
         x="0"
         y="0"
         width="100%"
         height="100%" />
      <use
         transform="matrix(0.996264,0,0,0.996264,114.81944,16.487732)"
         xlink:href="#CMMI10-61"
         id="use744"
         x="0"
         y="0"
         width="100%"
         height="100%" />
      <use
         transform="matrix(0.996264,0,0,0.996264,164.63264,16.487732)"
         xlink:href="#Nimbus_Roman_No9_L_Regular_Italic-68"
         id="use746"
         x="0"
         y="0"
         width="100%"
         height="100%" />
      <use
         transform="matrix(0.737241,0,0,0.737241,236.56263,0)"
         xlink:href="#Nimbus_Roman_No9_L_Regular_Italic-104"
         id="use748"
         x="0"
         y="0"
         width="100%"
         height="100%" />
      <use
         transform="matrix(0.996264,0,0,0.996264,283.88544,16.487732)"
         xlink:href="#CMR10-61"
         id="use750"
         x="0"
         y="0"
         width="100%"
         height="100%" />
      <use
         transform="matrix(0.996264,0,0,0.996264,371.25679,16.487732)"
         xlink:href="#Nimbus_Roman_No9_L_Regular-53"
         id="use752"
         x="0"
         y="0"
         width="100%"
         height="100%" />
      <use
         transform="matrix(0.996264,0,0,0.996264,421.06999,16.487732)"
         xlink:href="#Nimbus_Roman_No9_L_Regular-48"
         id="use754"
         x="0"
         y="0"
         width="100%"
         height="100%" />
    </g>
  </g>
  <defs
     id="defs763">
    <clipPath
       id="p2331cc7615">
      <rect
         height="297.444"
         width="429.060399"
         x="68.643522"
         y="39.528"
         id="rect760" />
    </clipPath>
  </defs>
  <path
     style="opacity:0.27;fill:#ffd5d5;stroke-width:0.64063;stroke-opacity:0.945946"
     id="path476"
     d="m 229.47351,255.86944 c 3.97098,-0.6526 7.96491,-1.16234 11.92701,-1.8751 3.50652,-0.72522 7.04243,-1.27832 10.55613,-1.9617 2.6273,-0.37191 5.17914,-1.08557 7.80606,-1.45157 1.90407,-0.262 3.82351,-0.34486 5.7429,-0.37923 3.22285,-0.12566 6.39276,-0.74392 9.54967,-1.35895 2.69226,-0.63833 5.42452,-1.06961 8.14989,-1.53513 2.49117,-0.28308 4.9382,-0.79423 7.38651,-1.31947 2.35867,-0.34477 4.73606,-0.47855 7.09799,-0.80801 1.96638,-0.28094 3.95063,-0.34563 5.923,-0.5666 2.9177,-0.57989 5.85401,-1.05822 8.80622,-1.4227 2.56911,-0.1056 4.91835,-1.31407 7.42322,-1.68575 2.47066,-0.11896 4.92889,-0.41293 7.39295,-0.62342 2.64932,-0.11832 5.26334,-0.30205 7.87217,-0.81113 1.76682,-0.14841 3.54141,-0.13439 5.31276,-0.13404 3.38382,0.0146 6.77086,-0.24282 10.13333,-0.61052 3.3395,-0.25764 6.59675,-1.05115 9.89305,-1.59833 2.79165,-0.6563 5.64424,-0.89111 8.46257,-1.37536 2.76414,-0.68079 5.55789,-1.21631 8.3161,-1.92124 2.60663,-0.73891 5.18515,-1.50446 7.84423,-2.03427 2.61182,-0.38068 5.23191,-0.67482 7.83876,-1.09728 2.79729,-0.42645 5.60146,-0.8265 8.41131,-1.16376 3.56058,-0.27381 7.12155,-0.3323 10.67448,-0.71337 3.30924,-0.31161 6.56249,-1.02105 9.86036,-1.40793 3.0013,-0.23406 5.99753,-0.24049 8.98883,-0.5829 2.95775,-0.52913 5.9357,-0.94878 8.91478,-1.34067 2.90378,-0.3589 5.83536,-0.37533 8.75683,-0.42 2.68821,-0.0323 5.37669,-0.0216 8.06503,-0.0192 3.97333,0.004 7.94666,0.006 11.91999,0.007 3.24535,6.2e-4 6.4907,7.2e-4 9.73606,7.3e-4 1.50158,-1e-5 0.75147,0 2.25049,-1e-5 14.46209,-1.5e-4 14.46189,-20.45263 -2e-4,-20.45249 v 0 c -1.49887,2e-5 -0.74885,1e-5 -2.25021,2e-5 -3.24373,-2e-5 -6.48745,-1.2e-4 -9.73117,-7.4e-4 -3.96885,-7.5e-4 -7.9377,-0.003 -11.90654,-0.007 -2.79993,-0.002 -5.60002,-0.0134 -8.39982,0.0216 -3.71333,0.058 -7.43691,0.11299 -11.12488,0.59448 -3.07473,0.40923 -6.15102,0.83582 -9.2043,1.38112 0.3643,0.41935 0.0878,0.064 -1.31721,0.1008 -2.39481,0.0627 -4.79121,0.16275 -7.17456,0.41527 -3.23151,0.40389 -6.42756,1.03416 -9.66663,1.38522 -3.60906,0.43656 -7.25516,0.3018 -10.86698,0.73593 -3.0825,0.38026 -6.16117,0.80554 -9.23021,1.28046 -2.86565,0.47206 -5.7571,0.72631 -8.61611,1.23962 -3.01509,0.62038 -5.97045,1.42588 -8.92304,2.28403 -2.33079,0.62524 -4.71697,1.00791 -7.04822,1.634 -0.91083,0.31334 -0.0652,0.051 -2.0697,0.28234 -1.9841,0.22896 -3.942,0.61167 -5.89892,1.00377 -2.94856,0.49984 -5.85545,1.217 -8.84217,1.4497 -2.57923,0.3261 -5.19798,0.46178 -7.7957,0.47645 -3.12541,6.7e-4 -6.26867,-0.006 -9.35798,0.53815 -0.2376,0.0516 -0.48388,0.0728 -0.7128,0.1547 -0.0364,0.013 0.13371,0.0627 0.0952,0.0662 -1.64337,0.14971 -3.31451,0.0344 -4.95495,0.26074 -3.08451,0.26497 -6.16879,0.54742 -9.24659,0.86802 -2.15649,0.40562 -4.22006,1.09799 -6.36154,1.52456 -2.99202,0.37789 -5.99063,0.80012 -8.93789,1.43961 -2.01655,0.17045 -4.08858,0.2821 -6.11001,0.59209 -2.84909,0.40832 -5.74164,0.46078 -8.56445,1.06964 -2.15852,0.46952 -4.31345,0.90874 -6.51427,1.15058 -2.87881,0.49371 -5.76637,0.94812 -8.61102,1.61952 -1.99861,0.38957 -3.99669,0.80822 -6.0279,0.98508 -2.76526,0.0552 -5.52984,0.1975 -8.27132,0.58482 -2.95789,0.4356 -5.8477,1.14977 -8.79837,1.61966 -3.43834,0.6708 -6.9012,1.20409 -10.33242,1.9194 -4.38201,0.82441 -8.83143,1.24329 -13.20028,2.15065 -14.03028,3.50757 -9.06983,23.3494 4.96047,19.84183 z" />
  <path
     style="opacity:0.27;fill:#ffd5d5;stroke-width:0.64063;stroke-opacity:0.945946"
     id="path478"
     d="m 304.80783,226.34346 c 2.28956,0.4866 4.60567,0.83371 6.93054,1.09789 2.28741,0.24191 4.58981,0.25664 6.88738,0.27023 2.64725,0.14631 5.24181,-0.28474 7.81937,-0.82905 2.31505,-0.31997 4.6058,-0.7281 6.89079,-1.22286 2.32103,-0.60343 4.52421,-1.46559 6.90458,-1.79367 2.54068,-0.27639 5.06933,-0.66629 7.58717,-1.10342 2.36681,-0.56611 4.7727,-0.87761 7.19523,-1.06351 2.52776,-0.0572 5.01917,-0.24348 7.50779,-0.71704 2.18268,-0.44867 4.4111,-0.59535 6.63199,-0.70508 2.59534,-0.001 5.17553,-0.17705 7.75568,-0.4452 1.86654,-0.20823 3.74272,-0.26043 5.61877,-0.28908 3.25057,0.0991 6.45088,-0.10156 9.64303,-0.72879 1.92491,-0.36833 3.85454,-0.72197 5.7891,-1.04016 2.95417,-0.34857 5.86691,-1.04444 8.73515,-1.8234 2.0028,-0.4909 4.03074,-0.85683 6.04899,-1.27382 2.29749,-0.45836 4.62949,-0.75907 6.95908,-1.01227 2.56846,-0.24504 5.12251,-0.6036 7.69606,-0.80136 2.91706,-0.16792 5.84164,-0.15103 8.76253,-0.16108 3.32809,0.0608 6.66583,-0.12296 9.99006,0.0704 2.69472,0.20088 5.38887,0.40292 8.08837,0.52786 2.08325,0.0911 4.16885,0.0889 6.25361,0.0921 2.44944,7.2e-4 4.89888,-10e-4 7.34832,-0.003 1.74325,-7.5e-4 3.48649,-0.002 5.22974,-0.002 2.00094,-9e-5 4.00189,-6e-5 6.00283,-5e-5 1.60679,1e-5 3.21357,2e-5 4.82035,2e-5 14.4621,3e-5 14.46214,-20.45246 5e-5,-20.45249 v 0 c -1.60677,0 -3.21352,-1e-5 -4.82028,-2e-5 -2.00154,-1e-5 -4.00308,-4e-5 -6.00462,4e-5 -1.74643,1.5e-4 -3.49286,5e-4 -5.23929,0.001 -2.43534,10e-4 -4.87069,0.004 -7.30603,0.003 -1.78292,-0.003 -3.56663,0.003 -5.34841,-0.0707 -2.68123,-0.12137 -5.35553,-0.34241 -8.03299,-0.52525 -3.68215,-0.15909 -7.36762,-0.0838 -11.05266,-0.0944 -3.42842,0.012 -6.8614,-0.002 -10.28403,0.22305 -2.78817,0.22043 -5.55756,0.58761 -8.33956,0.86186 -2.99893,0.33284 -5.99708,0.73297 -8.9551,1.33231 -2.39173,0.53047 -4.81701,0.91812 -7.18808,1.54904 -2.22538,0.60726 -4.47904,1.16176 -6.77796,1.39248 -2.14448,0.36906 -4.28664,0.74716 -6.4231,1.1578 -0.32996,0.0704 -0.65044,0.18432 -0.98302,0.24107 -1.61861,0.27621 -3.30907,-0.0769 -4.93752,0.0858 -2.47464,0.0407 -4.94904,0.12531 -7.41107,0.3964 -2.22322,0.23186 -4.43762,0.36169 -6.67583,0.36162 -3.18144,0.16502 -6.36691,0.41663 -9.49398,1.05398 -0.27799,0.056 -0.57506,0.0523 -0.83399,0.168 -0.10914,0.0487 0.47474,0.0349 0.35569,0.0456 -1.57146,0.14173 -3.17387,-0.0203 -4.74356,0.19196 -3.05118,0.24669 -6.09667,0.60276 -9.08202,1.30155 -2.38088,0.41391 -4.77189,0.77206 -7.17442,1.03605 -2.77656,0.44297 -5.49445,1.07986 -8.14499,2.02246 -2.25144,0.48753 -4.51402,0.82876 -6.78831,1.20096 -1.36692,0.28866 -2.05491,0.52327 -3.47599,0.38805 -1.58107,-0.009 -3.16616,-0.003 -4.74219,-0.14502 -2.23701,-0.24055 -4.44165,-0.67755 -6.65644,-1.0655 -14.35042,-1.7938 -16.88723,18.50075 -2.53681,20.29455 z" />
</svg>
