<?xml version="1.0" encoding="utf-8" standalone="no"?>
<!DOCTYPE svg PUBLIC "-//W3C//DTD SVG 1.1//EN"
  "http://www.w3.org/Graphics/SVG/1.1/DTD/svg11.dtd">
<!-- Created with matplotlib (https://matplotlib.org/) -->
<svg height="394.051314pt" version="1.1" viewBox="0 0 702.276664 394.051314" width="702.276664pt" xmlns="http://www.w3.org/2000/svg" xmlns:xlink="http://www.w3.org/1999/xlink">
 <defs>
  <style type="text/css">
*{stroke-linecap:butt;stroke-linejoin:round;}
  </style>
 </defs>
 <g id="figure_1">
  <g id="patch_1">
   <path d="M 0 394.051314 
L 702.276664 394.051314 
L 702.276664 0 
L 0 0 
z
" style="fill:none;"/>
  </g>
  <g id="axes_1">
   <g id="patch_2">
    <path d="M 68.643522 336.972 
L 497.703922 336.972 
L 497.703922 39.528 
L 68.643522 39.528 
z
" style="fill:none;"/>
   </g>
   <g id="line2d_1">
    <path clip-path="url(#p2331cc7615)" d="M 68.643522 105.105691 
L 497.703922 105.105691 
" style="fill:none;stroke:#b2b2b2;stroke-dasharray:4.5,2.25;stroke-dashoffset:0;stroke-width:2.25;"/>
   </g>
   <g id="matplotlib.axis_1">
    <g id="xtick_1">
     <g id="line2d_2">
      <defs>
       <path d="M 0 0 
L 0 9 
" id="m367b4d5d52" style="stroke:#262626;stroke-width:1.875;"/>
      </defs>
      <g>
       <use style="fill:#262626;stroke:#262626;stroke-width:1.875;" x="93.416757" xlink:href="#m367b4d5d52" y="336.972"/>
      </g>
     </g>
     <g id="text_1">
      <!-- 0.8 -->
      <defs>
       <path d="M 4.15625 35.296875 
Q 4.15625 48 6.765625 55.734375 
Q 9.375 63.484375 14.515625 67.671875 
Q 19.671875 71.875 27.484375 71.875 
Q 33.25 71.875 37.59375 69.546875 
Q 41.9375 67.234375 44.765625 62.859375 
Q 47.609375 58.5 49.21875 52.21875 
Q 50.828125 45.953125 50.828125 35.296875 
Q 50.828125 22.703125 48.234375 14.96875 
Q 45.65625 7.234375 40.5 3 
Q 35.359375 -1.21875 27.484375 -1.21875 
Q 17.140625 -1.21875 11.234375 6.203125 
Q 4.15625 15.140625 4.15625 35.296875 
z
M 13.1875 35.296875 
Q 13.1875 17.671875 17.3125 11.828125 
Q 21.4375 6 27.484375 6 
Q 33.546875 6 37.671875 11.859375 
Q 41.796875 17.71875 41.796875 35.296875 
Q 41.796875 52.984375 37.671875 58.78125 
Q 33.546875 64.59375 27.390625 64.59375 
Q 21.34375 64.59375 17.71875 59.46875 
Q 13.1875 52.9375 13.1875 35.296875 
z
" id="ArialMT-48"/>
       <path d="M 9.078125 0 
L 9.078125 10.015625 
L 19.09375 10.015625 
L 19.09375 0 
z
" id="ArialMT-46"/>
       <path d="M 17.671875 38.8125 
Q 12.203125 40.828125 9.5625 44.53125 
Q 6.9375 48.25 6.9375 53.421875 
Q 6.9375 61.234375 12.546875 66.546875 
Q 18.171875 71.875 27.484375 71.875 
Q 36.859375 71.875 42.578125 66.421875 
Q 48.296875 60.984375 48.296875 53.171875 
Q 48.296875 48.1875 45.671875 44.5 
Q 43.0625 40.828125 37.75 38.8125 
Q 44.34375 36.671875 47.78125 31.875 
Q 51.21875 27.09375 51.21875 20.453125 
Q 51.21875 11.28125 44.71875 5.03125 
Q 38.234375 -1.21875 27.640625 -1.21875 
Q 17.046875 -1.21875 10.546875 5.046875 
Q 4.046875 11.328125 4.046875 20.703125 
Q 4.046875 27.6875 7.59375 32.390625 
Q 11.140625 37.109375 17.671875 38.8125 
z
M 15.921875 53.71875 
Q 15.921875 48.640625 19.1875 45.40625 
Q 22.46875 42.1875 27.6875 42.1875 
Q 32.765625 42.1875 36.015625 45.375 
Q 39.265625 48.578125 39.265625 53.21875 
Q 39.265625 58.0625 35.90625 61.359375 
Q 32.5625 64.65625 27.59375 64.65625 
Q 22.5625 64.65625 19.234375 61.421875 
Q 15.921875 58.203125 15.921875 53.71875 
z
M 13.09375 20.65625 
Q 13.09375 16.890625 14.875 13.375 
Q 16.65625 9.859375 20.171875 7.921875 
Q 23.6875 6 27.734375 6 
Q 34.03125 6 38.125 10.046875 
Q 42.234375 14.109375 42.234375 20.359375 
Q 42.234375 26.703125 38.015625 30.859375 
Q 33.796875 35.015625 27.4375 35.015625 
Q 21.234375 35.015625 17.15625 30.90625 
Q 13.09375 26.8125 13.09375 20.65625 
z
" id="ArialMT-56"/>
      </defs>
      <g style="fill:#262626;" transform="translate(83.133389 360.887505)scale(0.165 -0.165)">
       <use xlink:href="#ArialMT-48"/>
       <use x="55.615234" xlink:href="#ArialMT-46"/>
       <use x="83.398438" xlink:href="#ArialMT-56"/>
      </g>
     </g>
    </g>
    <g id="xtick_2">
     <g id="line2d_3">
      <g>
       <use style="fill:#262626;stroke:#262626;stroke-width:1.875;" x="150.648213" xlink:href="#m367b4d5d52" y="336.972"/>
      </g>
     </g>
     <g id="text_2">
      <!-- 1.0 -->
      <defs>
       <path d="M 37.25 0 
L 28.46875 0 
L 28.46875 56 
Q 25.296875 52.984375 20.140625 49.953125 
Q 14.984375 46.921875 10.890625 45.40625 
L 10.890625 53.90625 
Q 18.265625 57.375 23.78125 62.296875 
Q 29.296875 67.234375 31.59375 71.875 
L 37.25 71.875 
z
" id="ArialMT-49"/>
      </defs>
      <g style="fill:#262626;" transform="translate(140.364846 360.887505)scale(0.165 -0.165)">
       <use xlink:href="#ArialMT-49"/>
       <use x="55.615234" xlink:href="#ArialMT-46"/>
       <use x="83.398438" xlink:href="#ArialMT-48"/>
      </g>
     </g>
    </g>
    <g id="xtick_3">
     <g id="line2d_4">
      <g>
       <use style="fill:#262626;stroke:#262626;stroke-width:1.875;" x="207.87967" xlink:href="#m367b4d5d52" y="336.972"/>
      </g>
     </g>
     <g id="text_3">
      <!-- 1.2 -->
      <defs>
       <path d="M 50.34375 8.453125 
L 50.34375 0 
L 3.03125 0 
Q 2.9375 3.171875 4.046875 6.109375 
Q 5.859375 10.9375 9.828125 15.625 
Q 13.8125 20.3125 21.34375 26.46875 
Q 33.015625 36.03125 37.109375 41.625 
Q 41.21875 47.21875 41.21875 52.203125 
Q 41.21875 57.421875 37.46875 61 
Q 33.734375 64.59375 27.734375 64.59375 
Q 21.390625 64.59375 17.578125 60.78125 
Q 13.765625 56.984375 13.71875 50.25 
L 4.6875 51.171875 
Q 5.609375 61.28125 11.65625 66.578125 
Q 17.71875 71.875 27.9375 71.875 
Q 38.234375 71.875 44.234375 66.15625 
Q 50.25 60.453125 50.25 52 
Q 50.25 47.703125 48.484375 43.546875 
Q 46.734375 39.40625 42.65625 34.8125 
Q 38.578125 30.21875 29.109375 22.21875 
Q 21.1875 15.578125 18.9375 13.203125 
Q 16.703125 10.84375 15.234375 8.453125 
z
" id="ArialMT-50"/>
      </defs>
      <g style="fill:#262626;" transform="translate(197.596303 360.887505)scale(0.165 -0.165)">
       <use xlink:href="#ArialMT-49"/>
       <use x="55.615234" xlink:href="#ArialMT-46"/>
       <use x="83.398438" xlink:href="#ArialMT-50"/>
      </g>
     </g>
    </g>
    <g id="xtick_4">
     <g id="line2d_5">
      <g>
       <use style="fill:#262626;stroke:#262626;stroke-width:1.875;" x="265.111126" xlink:href="#m367b4d5d52" y="336.972"/>
      </g>
     </g>
     <g id="text_4">
      <!-- 1.4 -->
      <defs>
       <path d="M 32.328125 0 
L 32.328125 17.140625 
L 1.265625 17.140625 
L 1.265625 25.203125 
L 33.9375 71.578125 
L 41.109375 71.578125 
L 41.109375 25.203125 
L 50.78125 25.203125 
L 50.78125 17.140625 
L 41.109375 17.140625 
L 41.109375 0 
z
M 32.328125 25.203125 
L 32.328125 57.46875 
L 9.90625 25.203125 
z
" id="ArialMT-52"/>
      </defs>
      <g style="fill:#262626;" transform="translate(254.827759 360.887505)scale(0.165 -0.165)">
       <use xlink:href="#ArialMT-49"/>
       <use x="55.615234" xlink:href="#ArialMT-46"/>
       <use x="83.398438" xlink:href="#ArialMT-52"/>
      </g>
     </g>
    </g>
    <g id="xtick_5">
     <g id="line2d_6">
      <g>
       <use style="fill:#262626;stroke:#262626;stroke-width:1.875;" x="322.342583" xlink:href="#m367b4d5d52" y="336.972"/>
      </g>
     </g>
     <g id="text_5">
      <!-- 1.6 -->
      <defs>
       <path d="M 49.75 54.046875 
L 41.015625 53.375 
Q 39.84375 58.546875 37.703125 60.890625 
Q 34.125 64.65625 28.90625 64.65625 
Q 24.703125 64.65625 21.53125 62.3125 
Q 17.390625 59.28125 14.984375 53.46875 
Q 12.59375 47.65625 12.5 36.921875 
Q 15.671875 41.75 20.265625 44.09375 
Q 24.859375 46.4375 29.890625 46.4375 
Q 38.671875 46.4375 44.84375 39.96875 
Q 51.03125 33.5 51.03125 23.25 
Q 51.03125 16.5 48.125 10.71875 
Q 45.21875 4.9375 40.140625 1.859375 
Q 35.0625 -1.21875 28.609375 -1.21875 
Q 17.625 -1.21875 10.6875 6.859375 
Q 3.765625 14.9375 3.765625 33.5 
Q 3.765625 54.25 11.421875 63.671875 
Q 18.109375 71.875 29.4375 71.875 
Q 37.890625 71.875 43.28125 67.140625 
Q 48.6875 62.40625 49.75 54.046875 
z
M 13.875 23.1875 
Q 13.875 18.65625 15.796875 14.5 
Q 17.71875 10.359375 21.1875 8.171875 
Q 24.65625 6 28.46875 6 
Q 34.03125 6 38.03125 10.484375 
Q 42.046875 14.984375 42.046875 22.703125 
Q 42.046875 30.125 38.078125 34.390625 
Q 34.125 38.671875 28.125 38.671875 
Q 22.171875 38.671875 18.015625 34.390625 
Q 13.875 30.125 13.875 23.1875 
z
" id="ArialMT-54"/>
      </defs>
      <g style="fill:#262626;" transform="translate(312.059216 360.887505)scale(0.165 -0.165)">
       <use xlink:href="#ArialMT-49"/>
       <use x="55.615234" xlink:href="#ArialMT-46"/>
       <use x="83.398438" xlink:href="#ArialMT-54"/>
      </g>
     </g>
    </g>
    <g id="xtick_6">
     <g id="line2d_7">
      <g>
       <use style="fill:#262626;stroke:#262626;stroke-width:1.875;" x="379.57404" xlink:href="#m367b4d5d52" y="336.972"/>
      </g>
     </g>
     <g id="text_6">
      <!-- 1.8 -->
      <g style="fill:#262626;" transform="translate(369.290672 360.887505)scale(0.165 -0.165)">
       <use xlink:href="#ArialMT-49"/>
       <use x="55.615234" xlink:href="#ArialMT-46"/>
       <use x="83.398438" xlink:href="#ArialMT-56"/>
      </g>
     </g>
    </g>
    <g id="xtick_7">
     <g id="line2d_8">
      <g>
       <use style="fill:#262626;stroke:#262626;stroke-width:1.875;" x="436.805496" xlink:href="#m367b4d5d52" y="336.972"/>
      </g>
     </g>
     <g id="text_7">
      <!-- 2.0 -->
      <g style="fill:#262626;" transform="translate(426.522129 360.887505)scale(0.165 -0.165)">
       <use xlink:href="#ArialMT-50"/>
       <use x="55.615234" xlink:href="#ArialMT-46"/>
       <use x="83.398438" xlink:href="#ArialMT-48"/>
      </g>
     </g>
    </g>
    <g id="xtick_8">
     <g id="line2d_9">
      <g>
       <use style="fill:#262626;stroke:#262626;stroke-width:1.875;" x="494.036953" xlink:href="#m367b4d5d52" y="336.972"/>
      </g>
     </g>
     <g id="text_8">
      <!-- 2.2 -->
      <defs>
       <path d="M 25.796875 21.140625 
C 28.59375 24.03125 32.796875 27.515625 35.703125 31 
C 38.5 34.390625 42.203125 39.171875 42.203125 46.140625 
C 42.203125 57.109375 34.796875 67 22.203125 67 
C 12.296875 67 6.59375 60.796875 3.90625 51.125 
L 7.796875 45.75 
C 10 54.8125 13.09375 60.59375 20.90625 60.59375 
C 29.5 60.59375 34.296875 53.609375 34.296875 45.9375 
C 34.296875 36.78125 27.296875 29.703125 22 24.421875 
C 16.09375 18.546875 10.296875 12.578125 4.703125 6.390625 
L 4.703125 0 
L 42.203125 0 
L 42.203125 6.796875 
L 25.203125 6.796875 
C 24 6.796875 22.796875 6.6875 21.59375 6.6875 
L 11.59375 6.6875 
L 11.59375 6.796875 
z
" id="CMSS17-50"/>
       <path d="M 17 8 
L 9 8 
L 9 0 
L 17 0 
z
" id="CMSS17-46"/>
      </defs>
      <g style="fill:#262626;" transform="translate(483.753585 360.887505)scale(0.165 -0.165)">
       <use transform="scale(0.996264)" xlink:href="#CMSS17-50"/>
       <use transform="translate(46.843624 0)scale(0.996264)" xlink:href="#CMSS17-46"/>
       <use transform="translate(72.867828 0)scale(0.996264)" xlink:href="#CMSS17-50"/>
      </g>
     </g>
    </g>
    <g id="text_9">
     <!-- Bubble volume, $\hat{V}_b$ -->
     <defs>
      <path d="M 7.328125 0 
L 7.328125 71.578125 
L 34.1875 71.578125 
Q 42.390625 71.578125 47.34375 69.40625 
Q 52.296875 67.234375 55.09375 62.71875 
Q 57.90625 58.203125 57.90625 53.265625 
Q 57.90625 48.6875 55.421875 44.625 
Q 52.9375 40.578125 47.90625 38.09375 
Q 54.390625 36.1875 57.875 31.59375 
Q 61.375 27 61.375 20.75 
Q 61.375 15.71875 59.25 11.390625 
Q 57.125 7.078125 54 4.734375 
Q 50.875 2.390625 46.15625 1.1875 
Q 41.453125 0 34.625 0 
z
M 16.796875 41.5 
L 32.28125 41.5 
Q 38.578125 41.5 41.3125 42.328125 
Q 44.921875 43.40625 46.75 45.890625 
Q 48.578125 48.390625 48.578125 52.15625 
Q 48.578125 55.71875 46.875 58.421875 
Q 45.171875 61.140625 41.984375 62.140625 
Q 38.8125 63.140625 31.109375 63.140625 
L 16.796875 63.140625 
z
M 16.796875 8.453125 
L 34.625 8.453125 
Q 39.203125 8.453125 41.0625 8.796875 
Q 44.34375 9.375 46.53125 10.734375 
Q 48.734375 12.109375 50.140625 14.71875 
Q 51.5625 17.328125 51.5625 20.75 
Q 51.5625 24.75 49.515625 27.703125 
Q 47.46875 30.671875 43.828125 31.859375 
Q 40.1875 33.0625 33.34375 33.0625 
L 16.796875 33.0625 
z
" id="ArialMT-66"/>
      <path d="M 40.578125 0 
L 40.578125 7.625 
Q 34.515625 -1.171875 24.125 -1.171875 
Q 19.53125 -1.171875 15.546875 0.578125 
Q 11.578125 2.34375 9.640625 5 
Q 7.71875 7.671875 6.9375 11.53125 
Q 6.390625 14.109375 6.390625 19.734375 
L 6.390625 51.859375 
L 15.1875 51.859375 
L 15.1875 23.09375 
Q 15.1875 16.21875 15.71875 13.8125 
Q 16.546875 10.359375 19.234375 8.375 
Q 21.921875 6.390625 25.875 6.390625 
Q 29.828125 6.390625 33.296875 8.421875 
Q 36.765625 10.453125 38.203125 13.9375 
Q 39.65625 17.4375 39.65625 24.078125 
L 39.65625 51.859375 
L 48.4375 51.859375 
L 48.4375 0 
z
" id="ArialMT-117"/>
      <path d="M 14.703125 0 
L 6.546875 0 
L 6.546875 71.578125 
L 15.328125 71.578125 
L 15.328125 46.046875 
Q 20.90625 53.03125 29.546875 53.03125 
Q 34.328125 53.03125 38.59375 51.09375 
Q 42.875 49.171875 45.625 45.671875 
Q 48.390625 42.1875 49.953125 37.25 
Q 51.515625 32.328125 51.515625 26.703125 
Q 51.515625 13.375 44.921875 6.09375 
Q 38.328125 -1.171875 29.109375 -1.171875 
Q 19.921875 -1.171875 14.703125 6.5 
z
M 14.59375 26.3125 
Q 14.59375 17 17.140625 12.84375 
Q 21.296875 6.0625 28.375 6.0625 
Q 34.125 6.0625 38.328125 11.0625 
Q 42.53125 16.0625 42.53125 25.984375 
Q 42.53125 36.140625 38.5 40.96875 
Q 34.46875 45.796875 28.765625 45.796875 
Q 23 45.796875 18.796875 40.796875 
Q 14.59375 35.796875 14.59375 26.3125 
z
" id="ArialMT-98"/>
      <path d="M 6.390625 0 
L 6.390625 71.578125 
L 15.1875 71.578125 
L 15.1875 0 
z
" id="ArialMT-108"/>
      <path d="M 42.09375 16.703125 
L 51.171875 15.578125 
Q 49.03125 7.625 43.21875 3.21875 
Q 37.40625 -1.171875 28.375 -1.171875 
Q 17 -1.171875 10.328125 5.828125 
Q 3.65625 12.84375 3.65625 25.484375 
Q 3.65625 38.578125 10.390625 45.796875 
Q 17.140625 53.03125 27.875 53.03125 
Q 38.28125 53.03125 44.875 45.953125 
Q 51.46875 38.875 51.46875 26.03125 
Q 51.46875 25.25 51.421875 23.6875 
L 12.75 23.6875 
Q 13.234375 15.140625 17.578125 10.59375 
Q 21.921875 6.0625 28.421875 6.0625 
Q 33.25 6.0625 36.671875 8.59375 
Q 40.09375 11.140625 42.09375 16.703125 
z
M 13.234375 30.90625 
L 42.1875 30.90625 
Q 41.609375 37.453125 38.875 40.71875 
Q 34.671875 45.796875 27.984375 45.796875 
Q 21.921875 45.796875 17.796875 41.75 
Q 13.671875 37.703125 13.234375 30.90625 
z
" id="ArialMT-101"/>
      <path id="ArialMT-32"/>
      <path d="M 21 0 
L 1.265625 51.859375 
L 10.546875 51.859375 
L 21.6875 20.796875 
Q 23.484375 15.765625 25 10.359375 
Q 26.171875 14.453125 28.265625 20.21875 
L 39.796875 51.859375 
L 48.828125 51.859375 
L 29.203125 0 
z
" id="ArialMT-118"/>
      <path d="M 3.328125 25.921875 
Q 3.328125 40.328125 11.328125 47.265625 
Q 18.015625 53.03125 27.640625 53.03125 
Q 38.328125 53.03125 45.109375 46.015625 
Q 51.90625 39.015625 51.90625 26.65625 
Q 51.90625 16.65625 48.90625 10.90625 
Q 45.90625 5.171875 40.15625 2 
Q 34.421875 -1.171875 27.640625 -1.171875 
Q 16.75 -1.171875 10.03125 5.8125 
Q 3.328125 12.796875 3.328125 25.921875 
z
M 12.359375 25.921875 
Q 12.359375 15.96875 16.703125 11.015625 
Q 21.046875 6.0625 27.640625 6.0625 
Q 34.1875 6.0625 38.53125 11.03125 
Q 42.875 16.015625 42.875 26.21875 
Q 42.875 35.84375 38.5 40.796875 
Q 34.125 45.75 27.640625 45.75 
Q 21.046875 45.75 16.703125 40.8125 
Q 12.359375 35.890625 12.359375 25.921875 
z
" id="ArialMT-111"/>
      <path d="M 6.59375 0 
L 6.59375 51.859375 
L 14.453125 51.859375 
L 14.453125 44.578125 
Q 16.890625 48.390625 20.9375 50.703125 
Q 25 53.03125 30.171875 53.03125 
Q 35.9375 53.03125 39.625 50.640625 
Q 43.3125 48.25 44.828125 43.953125 
Q 50.984375 53.03125 60.84375 53.03125 
Q 68.5625 53.03125 72.703125 48.75 
Q 76.859375 44.484375 76.859375 35.59375 
L 76.859375 0 
L 68.109375 0 
L 68.109375 32.671875 
Q 68.109375 37.9375 67.25 40.25 
Q 66.40625 42.578125 64.15625 43.984375 
Q 61.921875 45.40625 58.890625 45.40625 
Q 53.421875 45.40625 49.796875 41.765625 
Q 46.1875 38.140625 46.1875 30.125 
L 46.1875 0 
L 37.40625 0 
L 37.40625 33.6875 
Q 37.40625 39.546875 35.25 42.46875 
Q 33.109375 45.40625 28.21875 45.40625 
Q 24.515625 45.40625 21.359375 43.453125 
Q 18.21875 41.5 16.796875 37.734375 
Q 15.375 33.984375 15.375 26.90625 
L 15.375 0 
z
" id="ArialMT-109"/>
      <path d="M 8.890625 0 
L 8.890625 10.015625 
L 18.890625 10.015625 
L 18.890625 0 
Q 18.890625 -5.515625 16.9375 -8.90625 
Q 14.984375 -12.3125 10.75 -14.15625 
L 8.296875 -10.40625 
Q 11.078125 -9.1875 12.390625 -6.8125 
Q 13.71875 -4.4375 13.875 0 
z
" id="ArialMT-44"/>
      <path d="M -28.609375 79.984375 
L -21.390625 79.984375 
L -9.421875 61.625 
L -16.21875 61.625 
L -25 73.578125 
L -33.796875 61.625 
L -40.578125 61.625 
z
M -25 56 
z
" id="DejaVuSans-770"/>
      <path d="M 20.609375 0 
L 7.8125 72.90625 
L 17.484375 72.90625 
L 28.078125 10.203125 
L 63.484375 72.90625 
L 74.21875 72.90625 
L 32.078125 0 
z
" id="DejaVuSans-Oblique-86"/>
      <path d="M 49.515625 33.40625 
Q 49.515625 40.484375 46.265625 44.484375 
Q 43.015625 48.484375 37.3125 48.484375 
Q 33.15625 48.484375 29.515625 46.453125 
Q 25.875 44.4375 23.1875 40.578125 
Q 20.359375 36.53125 18.71875 31.171875 
Q 17.09375 25.828125 17.09375 20.515625 
Q 17.09375 13.765625 20.28125 9.9375 
Q 23.484375 6.109375 29.109375 6.109375 
Q 33.34375 6.109375 36.953125 8.078125 
Q 40.578125 10.0625 43.3125 13.921875 
Q 46.09375 17.921875 47.796875 23.234375 
Q 49.515625 28.5625 49.515625 33.40625 
z
M 21.578125 46.390625 
Q 24.90625 50.875 29.90625 53.4375 
Q 34.90625 56 40.375 56 
Q 48.78125 56 53.734375 50.328125 
Q 58.6875 44.671875 58.6875 35.015625 
Q 58.6875 27.09375 55.78125 19.671875 
Q 52.875 12.25 47.515625 6.5 
Q 44 2.6875 39.40625 0.625 
Q 34.8125 -1.421875 29.78125 -1.421875 
Q 24.46875 -1.421875 20.5625 1.015625 
Q 16.65625 3.46875 14.203125 8.296875 
L 12.59375 0 
L 3.609375 0 
L 18.40625 75.984375 
L 27.390625 75.984375 
z
" id="DejaVuSans-Oblique-98"/>
     </defs>
     <g style="fill:#262626;" transform="translate(218.092657 383.363249)scale(0.18 -0.18)">
      <use transform="translate(0 0.609375)" xlink:href="#ArialMT-66"/>
      <use transform="translate(66.699219 0.609375)" xlink:href="#ArialMT-117"/>
      <use transform="translate(122.314453 0.609375)" xlink:href="#ArialMT-98"/>
      <use transform="translate(177.929688 0.609375)" xlink:href="#ArialMT-98"/>
      <use transform="translate(233.544922 0.609375)" xlink:href="#ArialMT-108"/>
      <use transform="translate(255.761719 0.609375)" xlink:href="#ArialMT-101"/>
      <use transform="translate(311.376953 0.609375)" xlink:href="#ArialMT-32"/>
      <use transform="translate(339.160156 0.609375)" xlink:href="#ArialMT-118"/>
      <use transform="translate(389.160156 0.609375)" xlink:href="#ArialMT-111"/>
      <use transform="translate(444.775391 0.609375)" xlink:href="#ArialMT-108"/>
      <use transform="translate(466.992188 0.609375)" xlink:href="#ArialMT-117"/>
      <use transform="translate(522.607422 0.609375)" xlink:href="#ArialMT-109"/>
      <use transform="translate(605.908203 0.609375)" xlink:href="#ArialMT-101"/>
      <use transform="translate(661.523438 0.609375)" xlink:href="#ArialMT-44"/>
      <use transform="translate(689.306641 0.609375)" xlink:href="#ArialMT-32"/>
      <use transform="translate(784.77002 30.015625)" xlink:href="#DejaVuSans-770"/>
      <use transform="translate(717.089844 0.609375)" xlink:href="#DejaVuSans-Oblique-86"/>
      <use transform="translate(786.455078 -15.796875)scale(0.7)" xlink:href="#DejaVuSans-Oblique-98"/>
     </g>
    </g>
    <g id="text_10">
     <!-- 1e6 -->
     <g style="fill:#262626;" transform="translate(474.454559 378.499336)scale(0.165 -0.165)">
      <use xlink:href="#ArialMT-49"/>
      <use x="55.615234" xlink:href="#ArialMT-101"/>
      <use x="111.230469" xlink:href="#ArialMT-54"/>
     </g>
    </g>
   </g>
   <g id="matplotlib.axis_2">
    <g id="ytick_1">
     <g id="line2d_10">
      <defs>
       <path d="M 0 0 
L -9 0 
" id="m515b5ee52f" style="stroke:#262626;stroke-width:1.875;"/>
      </defs>
      <g>
       <use style="fill:#262626;stroke:#262626;stroke-width:1.875;" x="68.643522" xlink:href="#m515b5ee52f" y="333.32362"/>
      </g>
     </g>
     <g id="text_11">
      <!-- -2.5 -->
      <defs>
       <path d="M 3.171875 21.484375 
L 3.171875 30.328125 
L 30.171875 30.328125 
L 30.171875 21.484375 
z
" id="ArialMT-45"/>
       <path d="M 4.15625 18.75 
L 13.375 19.53125 
Q 14.40625 12.796875 18.140625 9.390625 
Q 21.875 6 27.15625 6 
Q 33.5 6 37.890625 10.78125 
Q 42.28125 15.578125 42.28125 23.484375 
Q 42.28125 31 38.0625 35.34375 
Q 33.84375 39.703125 27 39.703125 
Q 22.75 39.703125 19.328125 37.765625 
Q 15.921875 35.84375 13.96875 32.765625 
L 5.71875 33.84375 
L 12.640625 70.609375 
L 48.25 70.609375 
L 48.25 62.203125 
L 19.671875 62.203125 
L 15.828125 42.96875 
Q 22.265625 47.46875 29.34375 47.46875 
Q 38.71875 47.46875 45.15625 40.96875 
Q 51.609375 34.46875 51.609375 24.265625 
Q 51.609375 14.546875 45.953125 7.46875 
Q 39.0625 -1.21875 27.15625 -1.21875 
Q 17.390625 -1.21875 11.203125 4.25 
Q 5.03125 9.71875 4.15625 18.75 
z
" id="ArialMT-53"/>
      </defs>
      <g style="fill:#262626;" transform="translate(30.211547 339.031373)scale(0.165 -0.165)">
       <use xlink:href="#ArialMT-45"/>
       <use x="33.300781" xlink:href="#ArialMT-50"/>
       <use x="88.916016" xlink:href="#ArialMT-46"/>
       <use x="116.699219" xlink:href="#ArialMT-53"/>
      </g>
     </g>
    </g>
    <g id="ytick_2">
     <g id="line2d_11">
      <g>
       <use style="fill:#262626;stroke:#262626;stroke-width:1.875;" x="68.643522" xlink:href="#m515b5ee52f" y="287.680034"/>
      </g>
     </g>
     <g id="text_12">
      <!-- -2.0 -->
      <g style="fill:#262626;" transform="translate(30.211547 293.387787)scale(0.165 -0.165)">
       <use xlink:href="#ArialMT-45"/>
       <use x="33.300781" xlink:href="#ArialMT-50"/>
       <use x="88.916016" xlink:href="#ArialMT-46"/>
       <use x="116.699219" xlink:href="#ArialMT-48"/>
      </g>
     </g>
    </g>
    <g id="ytick_3">
     <g id="line2d_12">
      <g>
       <use style="fill:#262626;stroke:#262626;stroke-width:1.875;" x="68.643522" xlink:href="#m515b5ee52f" y="242.036448"/>
      </g>
     </g>
     <g id="text_13">
      <!-- -1.5 -->
      <g style="fill:#262626;" transform="translate(30.211547 247.744201)scale(0.165 -0.165)">
       <use xlink:href="#ArialMT-45"/>
       <use x="33.300781" xlink:href="#ArialMT-49"/>
       <use x="88.916016" xlink:href="#ArialMT-46"/>
       <use x="116.699219" xlink:href="#ArialMT-53"/>
      </g>
     </g>
    </g>
    <g id="ytick_4">
     <g id="line2d_13">
      <g>
       <use style="fill:#262626;stroke:#262626;stroke-width:1.875;" x="68.643522" xlink:href="#m515b5ee52f" y="196.392862"/>
      </g>
     </g>
     <g id="text_14">
      <!-- -1.0 -->
      <g style="fill:#262626;" transform="translate(30.211547 202.100615)scale(0.165 -0.165)">
       <use xlink:href="#ArialMT-45"/>
       <use x="33.300781" xlink:href="#ArialMT-49"/>
       <use x="88.916016" xlink:href="#ArialMT-46"/>
       <use x="116.699219" xlink:href="#ArialMT-48"/>
      </g>
     </g>
    </g>
    <g id="ytick_5">
     <g id="line2d_14">
      <g>
       <use style="fill:#262626;stroke:#262626;stroke-width:1.875;" x="68.643522" xlink:href="#m515b5ee52f" y="150.749276"/>
      </g>
     </g>
     <g id="text_15">
      <!-- -0.5 -->
      <g style="fill:#262626;" transform="translate(30.211547 156.457029)scale(0.165 -0.165)">
       <use xlink:href="#ArialMT-45"/>
       <use x="33.300781" xlink:href="#ArialMT-48"/>
       <use x="88.916016" xlink:href="#ArialMT-46"/>
       <use x="116.699219" xlink:href="#ArialMT-53"/>
      </g>
     </g>
    </g>
    <g id="ytick_6">
     <g id="line2d_15">
      <g>
       <use style="fill:#262626;stroke:#262626;stroke-width:1.875;" x="68.643522" xlink:href="#m515b5ee52f" y="105.105691"/>
      </g>
     </g>
     <g id="text_16">
      <!-- 0.0 -->
      <g style="fill:#262626;" transform="translate(35.576788 110.813443)scale(0.165 -0.165)">
       <use xlink:href="#ArialMT-48"/>
       <use x="55.615234" xlink:href="#ArialMT-46"/>
       <use x="83.398438" xlink:href="#ArialMT-48"/>
      </g>
     </g>
    </g>
    <g id="ytick_7">
     <g id="line2d_16">
      <g>
       <use style="fill:#262626;stroke:#262626;stroke-width:1.875;" x="68.643522" xlink:href="#m515b5ee52f" y="59.462105"/>
      </g>
     </g>
     <g id="text_17">
      <!-- 0.5 -->
      <g style="fill:#262626;" transform="translate(35.576788 65.169857)scale(0.165 -0.165)">
       <use xlink:href="#ArialMT-48"/>
       <use x="55.615234" xlink:href="#ArialMT-46"/>
       <use x="83.398438" xlink:href="#ArialMT-53"/>
      </g>
     </g>
    </g>
    <g id="text_18">
     <!-- Adhesion Force, $F_{min}/\gamma s_f$ -->
     <defs>
      <path d="M -0.140625 0 
L 27.34375 71.578125 
L 37.546875 71.578125 
L 66.84375 0 
L 56.0625 0 
L 47.703125 21.6875 
L 17.78125 21.6875 
L 9.90625 0 
z
M 20.515625 29.390625 
L 44.78125 29.390625 
L 37.3125 49.21875 
Q 33.890625 58.25 32.234375 64.0625 
Q 30.859375 57.171875 28.375 50.390625 
z
" id="ArialMT-65"/>
      <path d="M 40.234375 0 
L 40.234375 6.546875 
Q 35.296875 -1.171875 25.734375 -1.171875 
Q 19.53125 -1.171875 14.328125 2.25 
Q 9.125 5.671875 6.265625 11.796875 
Q 3.421875 17.921875 3.421875 25.875 
Q 3.421875 33.640625 6 39.96875 
Q 8.59375 46.296875 13.765625 49.65625 
Q 18.953125 53.03125 25.34375 53.03125 
Q 30.03125 53.03125 33.6875 51.046875 
Q 37.359375 49.078125 39.65625 45.90625 
L 39.65625 71.578125 
L 48.390625 71.578125 
L 48.390625 0 
z
M 12.453125 25.875 
Q 12.453125 15.921875 16.640625 10.984375 
Q 20.84375 6.0625 26.5625 6.0625 
Q 32.328125 6.0625 36.34375 10.765625 
Q 40.375 15.484375 40.375 25.140625 
Q 40.375 35.796875 36.265625 40.765625 
Q 32.171875 45.75 26.171875 45.75 
Q 20.3125 45.75 16.375 40.96875 
Q 12.453125 36.1875 12.453125 25.875 
z
" id="ArialMT-100"/>
      <path d="M 6.59375 0 
L 6.59375 71.578125 
L 15.375 71.578125 
L 15.375 45.90625 
Q 21.53125 53.03125 30.90625 53.03125 
Q 36.671875 53.03125 40.921875 50.75 
Q 45.171875 48.484375 47 44.484375 
Q 48.828125 40.484375 48.828125 32.859375 
L 48.828125 0 
L 40.046875 0 
L 40.046875 32.859375 
Q 40.046875 39.453125 37.1875 42.453125 
Q 34.328125 45.453125 29.109375 45.453125 
Q 25.203125 45.453125 21.75 43.421875 
Q 18.3125 41.40625 16.84375 37.9375 
Q 15.375 34.46875 15.375 28.375 
L 15.375 0 
z
" id="ArialMT-104"/>
      <path d="M 3.078125 15.484375 
L 11.765625 16.84375 
Q 12.5 11.625 15.84375 8.84375 
Q 19.1875 6.0625 25.203125 6.0625 
Q 31.25 6.0625 34.171875 8.515625 
Q 37.109375 10.984375 37.109375 14.3125 
Q 37.109375 17.28125 34.515625 19 
Q 32.71875 20.171875 25.53125 21.96875 
Q 15.875 24.421875 12.140625 26.203125 
Q 8.40625 27.984375 6.46875 31.125 
Q 4.546875 34.28125 4.546875 38.09375 
Q 4.546875 41.546875 6.125 44.5 
Q 7.71875 47.46875 10.453125 49.421875 
Q 12.5 50.921875 16.03125 51.96875 
Q 19.578125 53.03125 23.640625 53.03125 
Q 29.734375 53.03125 34.34375 51.265625 
Q 38.96875 49.515625 41.15625 46.5 
Q 43.359375 43.5 44.1875 38.484375 
L 35.59375 37.3125 
Q 35.015625 41.3125 32.203125 43.546875 
Q 29.390625 45.796875 24.265625 45.796875 
Q 18.21875 45.796875 15.625 43.796875 
Q 13.03125 41.796875 13.03125 39.109375 
Q 13.03125 37.40625 14.109375 36.03125 
Q 15.1875 34.625 17.484375 33.6875 
Q 18.796875 33.203125 25.25 31.453125 
Q 34.578125 28.953125 38.25 27.359375 
Q 41.9375 25.78125 44.03125 22.75 
Q 46.140625 19.734375 46.140625 15.234375 
Q 46.140625 10.84375 43.578125 6.953125 
Q 41.015625 3.078125 36.171875 0.953125 
Q 31.34375 -1.171875 25.25 -1.171875 
Q 15.140625 -1.171875 9.84375 3.03125 
Q 4.546875 7.234375 3.078125 15.484375 
z
" id="ArialMT-115"/>
      <path d="M 6.640625 61.46875 
L 6.640625 71.578125 
L 15.4375 71.578125 
L 15.4375 61.46875 
z
M 6.640625 0 
L 6.640625 51.859375 
L 15.4375 51.859375 
L 15.4375 0 
z
" id="ArialMT-105"/>
      <path d="M 6.59375 0 
L 6.59375 51.859375 
L 14.5 51.859375 
L 14.5 44.484375 
Q 20.21875 53.03125 31 53.03125 
Q 35.6875 53.03125 39.625 51.34375 
Q 43.5625 49.65625 45.515625 46.921875 
Q 47.46875 44.1875 48.25 40.4375 
Q 48.734375 37.984375 48.734375 31.890625 
L 48.734375 0 
L 39.9375 0 
L 39.9375 31.546875 
Q 39.9375 36.921875 38.90625 39.578125 
Q 37.890625 42.234375 35.28125 43.8125 
Q 32.671875 45.40625 29.15625 45.40625 
Q 23.53125 45.40625 19.453125 41.84375 
Q 15.375 38.28125 15.375 28.328125 
L 15.375 0 
z
" id="ArialMT-110"/>
      <path d="M 8.203125 0 
L 8.203125 71.578125 
L 56.5 71.578125 
L 56.5 63.140625 
L 17.671875 63.140625 
L 17.671875 40.96875 
L 51.265625 40.96875 
L 51.265625 32.515625 
L 17.671875 32.515625 
L 17.671875 0 
z
" id="ArialMT-70"/>
      <path d="M 6.5 0 
L 6.5 51.859375 
L 14.40625 51.859375 
L 14.40625 44 
Q 17.4375 49.515625 20 51.265625 
Q 22.5625 53.03125 25.640625 53.03125 
Q 30.078125 53.03125 34.671875 50.203125 
L 31.640625 42.046875 
Q 28.421875 43.953125 25.203125 43.953125 
Q 22.3125 43.953125 20.015625 42.21875 
Q 17.71875 40.484375 16.75 37.40625 
Q 15.28125 32.71875 15.28125 27.15625 
L 15.28125 0 
z
" id="ArialMT-114"/>
      <path d="M 40.4375 19 
L 49.078125 17.875 
Q 47.65625 8.9375 41.8125 3.875 
Q 35.984375 -1.171875 27.484375 -1.171875 
Q 16.84375 -1.171875 10.375 5.78125 
Q 3.90625 12.75 3.90625 25.734375 
Q 3.90625 34.125 6.6875 40.421875 
Q 9.46875 46.734375 15.15625 49.875 
Q 20.84375 53.03125 27.546875 53.03125 
Q 35.984375 53.03125 41.359375 48.75 
Q 46.734375 44.484375 48.25 36.625 
L 39.703125 35.296875 
Q 38.484375 40.53125 35.375 43.15625 
Q 32.28125 45.796875 27.875 45.796875 
Q 21.234375 45.796875 17.078125 41.03125 
Q 12.9375 36.28125 12.9375 25.984375 
Q 12.9375 15.53125 16.9375 10.796875 
Q 20.953125 6.0625 27.390625 6.0625 
Q 32.5625 6.0625 36.03125 9.234375 
Q 39.5 12.40625 40.4375 19 
z
" id="ArialMT-99"/>
      <path d="M 16.890625 72.90625 
L 58.6875 72.90625 
L 57.078125 64.59375 
L 25.09375 64.59375 
L 20.90625 43.109375 
L 49.8125 43.109375 
L 48.1875 34.8125 
L 19.28125 34.8125 
L 12.5 0 
L 2.6875 0 
z
" id="DejaVuSans-Oblique-70"/>
      <path d="M 89.796875 33.015625 
L 83.40625 0 
L 74.421875 0 
L 80.71875 32.71875 
Q 81.109375 34.8125 81.296875 36.328125 
Q 81.5 37.84375 81.5 38.921875 
Q 81.5 43.3125 79.046875 45.75 
Q 76.609375 48.1875 72.21875 48.1875 
Q 65.671875 48.1875 60.546875 43.28125 
Q 55.421875 38.375 53.90625 30.515625 
L 47.90625 0 
L 38.921875 0 
L 45.3125 32.71875 
Q 45.703125 34.515625 45.890625 36.046875 
Q 46.09375 37.59375 46.09375 38.8125 
Q 46.09375 43.265625 43.65625 45.71875 
Q 41.21875 48.1875 36.921875 48.1875 
Q 30.28125 48.1875 25.140625 43.28125 
Q 20.015625 38.375 18.5 30.515625 
L 12.5 0 
L 3.515625 0 
L 14.203125 54.6875 
L 23.1875 54.6875 
L 21.484375 46.1875 
Q 25.140625 50.984375 30.046875 53.484375 
Q 34.96875 56 40.578125 56 
Q 46.53125 56 50.359375 52.875 
Q 54.203125 49.75 54.984375 44.1875 
Q 59.078125 49.953125 64.46875 52.96875 
Q 69.875 56 75.875 56 
Q 82.90625 56 86.734375 51.953125 
Q 90.578125 47.90625 90.578125 40.484375 
Q 90.578125 38.875 90.375 36.9375 
Q 90.1875 35.015625 89.796875 33.015625 
z
" id="DejaVuSans-Oblique-109"/>
      <path d="M 18.3125 75.984375 
L 27.296875 75.984375 
L 25.09375 64.59375 
L 16.109375 64.59375 
z
M 14.203125 54.6875 
L 23.1875 54.6875 
L 12.5 0 
L 3.515625 0 
z
" id="DejaVuSans-Oblique-105"/>
      <path d="M 55.71875 33.015625 
L 49.3125 0 
L 40.28125 0 
L 46.6875 32.671875 
Q 47.125 34.96875 47.359375 36.71875 
Q 47.609375 38.484375 47.609375 39.5 
Q 47.609375 43.609375 45.015625 45.890625 
Q 42.4375 48.1875 37.796875 48.1875 
Q 30.5625 48.1875 25.34375 43.375 
Q 20.125 38.578125 18.5 30.328125 
L 12.5 0 
L 3.515625 0 
L 14.109375 54.6875 
L 23.09375 54.6875 
L 21.296875 46.09375 
Q 25.046875 50.828125 30.3125 53.40625 
Q 35.59375 56 41.40625 56 
Q 48.640625 56 52.609375 52.09375 
Q 56.59375 48.1875 56.59375 41.109375 
Q 56.59375 39.359375 56.375 37.359375 
Q 56.15625 35.359375 55.71875 33.015625 
z
" id="DejaVuSans-Oblique-110"/>
      <path d="M 25.390625 72.90625 
L 33.6875 72.90625 
L 8.296875 -9.28125 
L 0 -9.28125 
z
" id="DejaVuSans-47"/>
      <path d="M 23.296875 46.09375 
L 28.71875 12.3125 
L 54 54.6875 
L 63.53125 54.6875 
L 30.8125 0 
L 26.765625 -20.796875 
L 17.78125 -20.796875 
L 21.828125 0 
L 15.4375 40.828125 
Q 14.453125 46.96875 9.8125 46.96875 
L 7.421875 46.96875 
L 8.890625 54.6875 
L 12.3125 54.6875 
Q 21.921875 54.6875 23.296875 46.09375 
z
" id="DejaVuSans-Oblique-947"/>
      <path d="M 50 53.078125 
L 48.296875 44.578125 
Q 44.734375 46.53125 40.765625 47.5 
Q 36.8125 48.484375 32.625 48.484375 
Q 25.53125 48.484375 21.453125 46.0625 
Q 17.390625 43.65625 17.390625 39.5 
Q 17.390625 34.671875 26.859375 32.078125 
Q 27.59375 31.890625 27.9375 31.78125 
L 30.8125 30.90625 
Q 39.796875 28.421875 42.796875 25.6875 
Q 45.796875 22.953125 45.796875 18.21875 
Q 45.796875 9.515625 38.890625 4.046875 
Q 31.984375 -1.421875 20.796875 -1.421875 
Q 16.453125 -1.421875 11.671875 -0.578125 
Q 6.890625 0.25 1.125 2 
L 2.875 11.28125 
Q 7.8125 8.734375 12.59375 7.421875 
Q 17.390625 6.109375 21.78125 6.109375 
Q 28.375 6.109375 32.5 8.9375 
Q 36.625 11.765625 36.625 16.109375 
Q 36.625 20.796875 25.78125 23.6875 
L 24.859375 23.921875 
L 21.78125 24.703125 
Q 14.9375 26.515625 11.765625 29.46875 
Q 8.59375 32.421875 8.59375 37.015625 
Q 8.59375 45.75 15.15625 50.875 
Q 21.734375 56 33.015625 56 
Q 37.453125 56 41.671875 55.265625 
Q 45.90625 54.546875 50 53.078125 
z
" id="DejaVuSans-Oblique-115"/>
      <path d="M 47.796875 75.984375 
L 46.390625 68.5 
L 37.796875 68.5 
Q 32.90625 68.5 30.6875 66.578125 
Q 28.46875 64.65625 27.390625 59.515625 
L 26.421875 54.6875 
L 41.21875 54.6875 
L 39.890625 47.703125 
L 25.09375 47.703125 
L 15.828125 0 
L 6.78125 0 
L 16.109375 47.703125 
L 7.515625 47.703125 
L 8.796875 54.6875 
L 17.390625 54.6875 
L 18.109375 58.5 
Q 19.96875 68.171875 24.625 72.078125 
Q 29.296875 75.984375 39.3125 75.984375 
z
" id="DejaVuSans-Oblique-102"/>
     </defs>
     <g style="fill:#262626;" transform="translate(22.723482 276.954308)rotate(-90)scale(0.18 -0.18)">
      <use transform="translate(0 0.09375)" xlink:href="#ArialMT-65"/>
      <use transform="translate(66.699219 0.09375)" xlink:href="#ArialMT-100"/>
      <use transform="translate(122.314453 0.09375)" xlink:href="#ArialMT-104"/>
      <use transform="translate(177.929688 0.09375)" xlink:href="#ArialMT-101"/>
      <use transform="translate(233.544922 0.09375)" xlink:href="#ArialMT-115"/>
      <use transform="translate(283.544922 0.09375)" xlink:href="#ArialMT-105"/>
      <use transform="translate(305.761719 0.09375)" xlink:href="#ArialMT-111"/>
      <use transform="translate(361.376953 0.09375)" xlink:href="#ArialMT-110"/>
      <use transform="translate(416.992188 0.09375)" xlink:href="#ArialMT-32"/>
      <use transform="translate(444.775391 0.09375)" xlink:href="#ArialMT-70"/>
      <use transform="translate(505.859375 0.09375)" xlink:href="#ArialMT-111"/>
      <use transform="translate(561.474609 0.09375)" xlink:href="#ArialMT-114"/>
      <use transform="translate(594.775391 0.09375)" xlink:href="#ArialMT-99"/>
      <use transform="translate(644.775391 0.09375)" xlink:href="#ArialMT-101"/>
      <use transform="translate(700.390625 0.09375)" xlink:href="#ArialMT-44"/>
      <use transform="translate(728.173828 0.09375)" xlink:href="#ArialMT-32"/>
      <use transform="translate(755.957031 0.09375)" xlink:href="#DejaVuSans-Oblique-70"/>
      <use transform="translate(813.476562 -16.3125)scale(0.7)" xlink:href="#DejaVuSans-Oblique-109"/>
      <use transform="translate(881.665039 -16.3125)scale(0.7)" xlink:href="#DejaVuSans-Oblique-105"/>
      <use transform="translate(901.113281 -16.3125)scale(0.7)" xlink:href="#DejaVuSans-Oblique-110"/>
      <use transform="translate(948.212891 0.09375)" xlink:href="#DejaVuSans-47"/>
      <use transform="translate(981.904297 0.09375)" xlink:href="#DejaVuSans-Oblique-947"/>
      <use transform="translate(1041.083984 0.09375)" xlink:href="#DejaVuSans-Oblique-115"/>
      <use transform="translate(1093.183594 -16.3125)scale(0.7)" xlink:href="#DejaVuSans-Oblique-102"/>
     </g>
    </g>
    <g id="text_19">
     <!-- 1e4 -->
     <g style="fill:#262626;" transform="translate(68.643522 36.528)scale(0.165 -0.165)">
      <use xlink:href="#ArialMT-49"/>
      <use x="55.615234" xlink:href="#ArialMT-101"/>
      <use x="111.230469" xlink:href="#ArialMT-52"/>
     </g>
    </g>
   </g>
   <g id="line2d_17">
    <path clip-path="url(#p2331cc7615)" d="M 88.146268 129.459229 
L 108.466673 134.931725 
L 157.13078 150.560544 
L 219.647323 176.43015 
L 301.317761 219.148851 
L 410.077104 207.295215 
L 478.201176 205.143969 
" style="fill:none;stroke:#c44e52;stroke-dasharray:2.25,0;stroke-dashoffset:0;stroke-opacity:0.8;stroke-width:2.25;"/>
    <defs>
     <path d="M 0 4.5 
C 1.193414 4.5 2.338109 4.025852 3.181981 3.181981 
C 4.025852 2.338109 4.5 1.193414 4.5 0 
C 4.5 -1.193414 4.025852 -2.338109 3.181981 -3.181981 
C 2.338109 -4.025852 1.193414 -4.5 0 -4.5 
C -1.193414 -4.5 -2.338109 -4.025852 -3.181981 -3.181981 
C -4.025852 -2.338109 -4.5 -1.193414 -4.5 0 
C -4.5 1.193414 -4.025852 2.338109 -3.181981 3.181981 
C -2.338109 4.025852 -1.193414 4.5 0 4.5 
z
" id="me0f4e15a4d" style="stroke:#ffffff;stroke-opacity:0.8;stroke-width:0.75;"/>
    </defs>
    <g clip-path="url(#p2331cc7615)">
     <use style="fill:#c44e52;fill-opacity:0.8;stroke:#ffffff;stroke-opacity:0.8;stroke-width:0.75;" x="88.146268" xlink:href="#me0f4e15a4d" y="129.459229"/>
     <use style="fill:#c44e52;fill-opacity:0.8;stroke:#ffffff;stroke-opacity:0.8;stroke-width:0.75;" x="108.466673" xlink:href="#me0f4e15a4d" y="134.931725"/>
     <use style="fill:#c44e52;fill-opacity:0.8;stroke:#ffffff;stroke-opacity:0.8;stroke-width:0.75;" x="157.13078" xlink:href="#me0f4e15a4d" y="150.560544"/>
     <use style="fill:#c44e52;fill-opacity:0.8;stroke:#ffffff;stroke-opacity:0.8;stroke-width:0.75;" x="219.647323" xlink:href="#me0f4e15a4d" y="176.43015"/>
     <use style="fill:#c44e52;fill-opacity:0.8;stroke:#ffffff;stroke-opacity:0.8;stroke-width:0.75;" x="301.317761" xlink:href="#me0f4e15a4d" y="219.148851"/>
     <use style="fill:#c44e52;fill-opacity:0.8;stroke:#ffffff;stroke-opacity:0.8;stroke-width:0.75;" x="410.077104" xlink:href="#me0f4e15a4d" y="207.295215"/>
     <use style="fill:#c44e52;fill-opacity:0.8;stroke:#ffffff;stroke-opacity:0.8;stroke-width:0.75;" x="478.201176" xlink:href="#me0f4e15a4d" y="205.143969"/>
    </g>
   </g>
   <g id="line2d_18">
    <path clip-path="url(#p2331cc7615)" d="M 88.146268 323.451818 
L 108.466673 313.173011 
L 157.13078 283.181938 
L 219.647323 248.329842 
L 301.317761 234.17297 
L 410.077104 219.666204 
L 478.201176 214.629113 
" style="fill:none;stroke:#c44e52;stroke-dasharray:2.25,2.25;stroke-dashoffset:0;stroke-opacity:0.8;stroke-width:2.25;"/>
    <defs>
     <path d="M -2.25 4.5 
L 0 2.25 
L 2.25 4.5 
L 4.5 2.25 
L 2.25 0 
L 4.5 -2.25 
L 2.25 -4.5 
L 0 -2.25 
L -2.25 -4.5 
L -4.5 -2.25 
L -2.25 0 
L -4.5 2.25 
z
" id="m2a740df41c" style="stroke:#ffffff;stroke-linejoin:miter;stroke-opacity:0.8;stroke-width:0.75;"/>
    </defs>
    <g clip-path="url(#p2331cc7615)">
     <use style="fill:#c44e52;fill-opacity:0.8;stroke:#ffffff;stroke-linejoin:miter;stroke-opacity:0.8;stroke-width:0.75;" x="88.146268" xlink:href="#m2a740df41c" y="323.451818"/>
     <use style="fill:#c44e52;fill-opacity:0.8;stroke:#ffffff;stroke-linejoin:miter;stroke-opacity:0.8;stroke-width:0.75;" x="108.466673" xlink:href="#m2a740df41c" y="313.173011"/>
     <use style="fill:#c44e52;fill-opacity:0.8;stroke:#ffffff;stroke-linejoin:miter;stroke-opacity:0.8;stroke-width:0.75;" x="157.13078" xlink:href="#m2a740df41c" y="283.181938"/>
     <use style="fill:#c44e52;fill-opacity:0.8;stroke:#ffffff;stroke-linejoin:miter;stroke-opacity:0.8;stroke-width:0.75;" x="219.647323" xlink:href="#m2a740df41c" y="248.329842"/>
     <use style="fill:#c44e52;fill-opacity:0.8;stroke:#ffffff;stroke-linejoin:miter;stroke-opacity:0.8;stroke-width:0.75;" x="301.317761" xlink:href="#m2a740df41c" y="234.17297"/>
     <use style="fill:#c44e52;fill-opacity:0.8;stroke:#ffffff;stroke-linejoin:miter;stroke-opacity:0.8;stroke-width:0.75;" x="410.077104" xlink:href="#m2a740df41c" y="219.666204"/>
     <use style="fill:#c44e52;fill-opacity:0.8;stroke:#ffffff;stroke-linejoin:miter;stroke-opacity:0.8;stroke-width:0.75;" x="478.201176" xlink:href="#m2a740df41c" y="214.629113"/>
    </g>
   </g>
   <g id="line2d_19">
    <path clip-path="url(#p2331cc7615)" d="M 88.146268 105.842973 
L 108.466673 104.97733 
L 157.13078 100.366007 
L 219.647323 88.03477 
L 301.317761 68.994334 
L 410.077104 55.736232 
L 478.201176 53.048182 
" style="fill:none;stroke:#64b5cd;stroke-dasharray:2.25,0;stroke-dashoffset:0;stroke-opacity:0.8;stroke-width:2.25;"/>
    <defs>
     <path d="M 0 4.5 
C 1.193414 4.5 2.338109 4.025852 3.181981 3.181981 
C 4.025852 2.338109 4.5 1.193414 4.5 0 
C 4.5 -1.193414 4.025852 -2.338109 3.181981 -3.181981 
C 2.338109 -4.025852 1.193414 -4.5 0 -4.5 
C -1.193414 -4.5 -2.338109 -4.025852 -3.181981 -3.181981 
C -4.025852 -2.338109 -4.5 -1.193414 -4.5 0 
C -4.5 1.193414 -4.025852 2.338109 -3.181981 3.181981 
C -2.338109 4.025852 -1.193414 4.5 0 4.5 
z
" id="md3f5ba5e58" style="stroke:#ffffff;stroke-opacity:0.8;stroke-width:0.75;"/>
    </defs>
    <g clip-path="url(#p2331cc7615)">
     <use style="fill:#64b5cd;fill-opacity:0.8;stroke:#ffffff;stroke-opacity:0.8;stroke-width:0.75;" x="88.146268" xlink:href="#md3f5ba5e58" y="105.842973"/>
     <use style="fill:#64b5cd;fill-opacity:0.8;stroke:#ffffff;stroke-opacity:0.8;stroke-width:0.75;" x="108.466673" xlink:href="#md3f5ba5e58" y="104.97733"/>
     <use style="fill:#64b5cd;fill-opacity:0.8;stroke:#ffffff;stroke-opacity:0.8;stroke-width:0.75;" x="157.13078" xlink:href="#md3f5ba5e58" y="100.366007"/>
     <use style="fill:#64b5cd;fill-opacity:0.8;stroke:#ffffff;stroke-opacity:0.8;stroke-width:0.75;" x="219.647323" xlink:href="#md3f5ba5e58" y="88.03477"/>
     <use style="fill:#64b5cd;fill-opacity:0.8;stroke:#ffffff;stroke-opacity:0.8;stroke-width:0.75;" x="301.317761" xlink:href="#md3f5ba5e58" y="68.994334"/>
     <use style="fill:#64b5cd;fill-opacity:0.8;stroke:#ffffff;stroke-opacity:0.8;stroke-width:0.75;" x="410.077104" xlink:href="#md3f5ba5e58" y="55.736232"/>
     <use style="fill:#64b5cd;fill-opacity:0.8;stroke:#ffffff;stroke-opacity:0.8;stroke-width:0.75;" x="478.201176" xlink:href="#md3f5ba5e58" y="53.048182"/>
    </g>
   </g>
   <g id="line2d_20">
    <path clip-path="url(#p2331cc7615)" d="M 88.146268 130.00541 
L 108.466673 131.856795 
L 157.13078 134.470315 
L 219.647323 131.139588 
L 301.317761 118.388305 
L 410.077104 103.71777 
L 478.201176 98.325411 
" style="fill:none;stroke:#64b5cd;stroke-dasharray:2.25,2.25;stroke-dashoffset:0;stroke-opacity:0.8;stroke-width:2.25;"/>
    <defs>
     <path d="M -2.25 4.5 
L 0 2.25 
L 2.25 4.5 
L 4.5 2.25 
L 2.25 0 
L 4.5 -2.25 
L 2.25 -4.5 
L 0 -2.25 
L -2.25 -4.5 
L -4.5 -2.25 
L -2.25 0 
L -4.5 2.25 
z
" id="m980e8251c2" style="stroke:#ffffff;stroke-linejoin:miter;stroke-opacity:0.8;stroke-width:0.75;"/>
    </defs>
    <g clip-path="url(#p2331cc7615)">
     <use style="fill:#64b5cd;fill-opacity:0.8;stroke:#ffffff;stroke-linejoin:miter;stroke-opacity:0.8;stroke-width:0.75;" x="88.146268" xlink:href="#m980e8251c2" y="130.00541"/>
     <use style="fill:#64b5cd;fill-opacity:0.8;stroke:#ffffff;stroke-linejoin:miter;stroke-opacity:0.8;stroke-width:0.75;" x="108.466673" xlink:href="#m980e8251c2" y="131.856795"/>
     <use style="fill:#64b5cd;fill-opacity:0.8;stroke:#ffffff;stroke-linejoin:miter;stroke-opacity:0.8;stroke-width:0.75;" x="157.13078" xlink:href="#m980e8251c2" y="134.470315"/>
     <use style="fill:#64b5cd;fill-opacity:0.8;stroke:#ffffff;stroke-linejoin:miter;stroke-opacity:0.8;stroke-width:0.75;" x="219.647323" xlink:href="#m980e8251c2" y="131.139588"/>
     <use style="fill:#64b5cd;fill-opacity:0.8;stroke:#ffffff;stroke-linejoin:miter;stroke-opacity:0.8;stroke-width:0.75;" x="301.317761" xlink:href="#m980e8251c2" y="118.388305"/>
     <use style="fill:#64b5cd;fill-opacity:0.8;stroke:#ffffff;stroke-linejoin:miter;stroke-opacity:0.8;stroke-width:0.75;" x="410.077104" xlink:href="#m980e8251c2" y="103.71777"/>
     <use style="fill:#64b5cd;fill-opacity:0.8;stroke:#ffffff;stroke-linejoin:miter;stroke-opacity:0.8;stroke-width:0.75;" x="478.201176" xlink:href="#m980e8251c2" y="98.325411"/>
    </g>
   </g>
   <g id="line2d_21"/>
   <g id="line2d_22"/>
   <g id="line2d_23"/>
   <g id="line2d_24"/>
   <g id="patch_3">
    <path d="M 68.643522 336.972 
L 68.643522 39.528 
" style="fill:none;stroke:#262626;stroke-linecap:square;stroke-linejoin:miter;stroke-width:1.875;"/>
   </g>
   <g id="patch_4">
    <path d="M 68.643522 336.972 
L 497.703922 336.972 
" style="fill:none;stroke:#262626;stroke-linecap:square;stroke-linejoin:miter;stroke-width:1.875;"/>
   </g>
   <g id="legend_1">
    <g id="patch_5">
     <path d="M 516.594213 285.66398 
L 691.776664 285.66398 
Q 695.076664 285.66398 695.076664 282.36398 
L 695.076664 146.03602 
Q 695.076664 142.73602 691.776664 142.73602 
L 516.594213 142.73602 
Q 513.294213 142.73602 513.294213 146.03602 
L 513.294213 282.36398 
Q 513.294213 285.66398 516.594213 285.66398 
z
" style="fill:none;opacity:0;"/>
    </g>
    <g id="text_20">
     <!-- Force contribution -->
     <defs>
      <path d="M 25.78125 7.859375 
L 27.046875 0.09375 
Q 23.34375 -0.6875 20.40625 -0.6875 
Q 15.625 -0.6875 12.984375 0.828125 
Q 10.359375 2.34375 9.28125 4.8125 
Q 8.203125 7.28125 8.203125 15.1875 
L 8.203125 45.015625 
L 1.765625 45.015625 
L 1.765625 51.859375 
L 8.203125 51.859375 
L 8.203125 64.703125 
L 16.9375 69.96875 
L 16.9375 51.859375 
L 25.78125 51.859375 
L 25.78125 45.015625 
L 16.9375 45.015625 
L 16.9375 14.703125 
Q 16.9375 10.9375 17.40625 9.859375 
Q 17.875 8.796875 18.921875 8.15625 
Q 19.96875 7.515625 21.921875 7.515625 
Q 23.390625 7.515625 25.78125 7.859375 
z
" id="ArialMT-116"/>
     </defs>
     <g style="fill:#262626;" transform="translate(566.094213 160.88602)scale(0.165 -0.165)">
      <use xlink:href="#ArialMT-70"/>
      <use x="61.083984" xlink:href="#ArialMT-111"/>
      <use x="116.699219" xlink:href="#ArialMT-114"/>
      <use x="150" xlink:href="#ArialMT-99"/>
      <use x="200" xlink:href="#ArialMT-101"/>
      <use x="255.615234" xlink:href="#ArialMT-32"/>
      <use x="283.398438" xlink:href="#ArialMT-99"/>
      <use x="333.398438" xlink:href="#ArialMT-111"/>
      <use x="389.013672" xlink:href="#ArialMT-110"/>
      <use x="444.628906" xlink:href="#ArialMT-116"/>
      <use x="472.412109" xlink:href="#ArialMT-114"/>
      <use x="505.712891" xlink:href="#ArialMT-105"/>
      <use x="527.929688" xlink:href="#ArialMT-98"/>
      <use x="583.544922" xlink:href="#ArialMT-117"/>
      <use x="639.160156" xlink:href="#ArialMT-116"/>
      <use x="666.943359" xlink:href="#ArialMT-105"/>
      <use x="689.160156" xlink:href="#ArialMT-111"/>
      <use x="744.775391" xlink:href="#ArialMT-110"/>
     </g>
    </g>
    <g id="line2d_25">
     <path d="M 519.894213 178.107346 
L 552.894213 178.107346 
" style="fill:none;stroke:#c44e52;stroke-linecap:round;stroke-width:2.25;"/>
    </g>
    <g id="line2d_26"/>
    <g id="text_21">
     <!-- Whole pad -->
     <defs>
      <path d="M 20.21875 0 
L 1.21875 71.578125 
L 10.9375 71.578125 
L 21.828125 24.65625 
Q 23.578125 17.28125 24.859375 10.015625 
Q 27.59375 21.484375 28.078125 23.25 
L 41.703125 71.578125 
L 53.125 71.578125 
L 63.375 35.359375 
Q 67.234375 21.875 68.953125 10.015625 
Q 70.3125 16.796875 72.515625 25.59375 
L 83.734375 71.578125 
L 93.265625 71.578125 
L 73.640625 0 
L 64.5 0 
L 49.421875 54.546875 
Q 47.515625 61.375 47.171875 62.9375 
Q 46.046875 58.015625 45.0625 54.546875 
L 29.890625 0 
z
" id="ArialMT-87"/>
      <path d="M 6.59375 -19.875 
L 6.59375 51.859375 
L 14.59375 51.859375 
L 14.59375 45.125 
Q 17.4375 49.078125 21 51.046875 
Q 24.5625 53.03125 29.640625 53.03125 
Q 36.28125 53.03125 41.359375 49.609375 
Q 46.4375 46.1875 49.015625 39.953125 
Q 51.609375 33.734375 51.609375 26.3125 
Q 51.609375 18.359375 48.75 11.984375 
Q 45.90625 5.609375 40.453125 2.21875 
Q 35.015625 -1.171875 29 -1.171875 
Q 24.609375 -1.171875 21.109375 0.6875 
Q 17.625 2.546875 15.375 5.375 
L 15.375 -19.875 
z
M 14.546875 25.640625 
Q 14.546875 15.625 18.59375 10.84375 
Q 22.65625 6.0625 28.421875 6.0625 
Q 34.28125 6.0625 38.453125 11.015625 
Q 42.625 15.96875 42.625 26.375 
Q 42.625 36.28125 38.546875 41.203125 
Q 34.46875 46.140625 28.8125 46.140625 
Q 23.1875 46.140625 18.859375 40.890625 
Q 14.546875 35.640625 14.546875 25.640625 
z
" id="ArialMT-112"/>
      <path d="M 40.4375 6.390625 
Q 35.546875 2.25 31.03125 0.53125 
Q 26.515625 -1.171875 21.34375 -1.171875 
Q 12.796875 -1.171875 8.203125 3 
Q 3.609375 7.171875 3.609375 13.671875 
Q 3.609375 17.484375 5.34375 20.625 
Q 7.078125 23.78125 9.890625 25.6875 
Q 12.703125 27.59375 16.21875 28.5625 
Q 18.796875 29.25 24.03125 29.890625 
Q 34.671875 31.15625 39.703125 32.90625 
Q 39.75 34.71875 39.75 35.203125 
Q 39.75 40.578125 37.25 42.78125 
Q 33.890625 45.75 27.25 45.75 
Q 21.046875 45.75 18.09375 43.578125 
Q 15.140625 41.40625 13.71875 35.890625 
L 5.125 37.0625 
Q 6.296875 42.578125 8.984375 45.96875 
Q 11.671875 49.359375 16.75 51.1875 
Q 21.828125 53.03125 28.515625 53.03125 
Q 35.15625 53.03125 39.296875 51.46875 
Q 43.453125 49.90625 45.40625 47.53125 
Q 47.359375 45.171875 48.140625 41.546875 
Q 48.578125 39.3125 48.578125 33.453125 
L 48.578125 21.734375 
Q 48.578125 9.46875 49.140625 6.21875 
Q 49.703125 2.984375 51.375 0 
L 42.1875 0 
Q 40.828125 2.734375 40.4375 6.390625 
z
M 39.703125 26.03125 
Q 34.90625 24.078125 25.34375 22.703125 
Q 19.921875 21.921875 17.671875 20.9375 
Q 15.4375 19.96875 14.203125 18.09375 
Q 12.984375 16.21875 12.984375 13.921875 
Q 12.984375 10.40625 15.640625 8.0625 
Q 18.3125 5.71875 23.4375 5.71875 
Q 28.515625 5.71875 32.46875 7.9375 
Q 36.421875 10.15625 38.28125 14.015625 
Q 39.703125 17 39.703125 22.796875 
z
" id="ArialMT-97"/>
     </defs>
     <g style="fill:#262626;" transform="translate(566.094213 183.882346)scale(0.165 -0.165)">
      <use xlink:href="#ArialMT-87"/>
      <use x="94.384766" xlink:href="#ArialMT-104"/>
      <use x="150" xlink:href="#ArialMT-111"/>
      <use x="205.615234" xlink:href="#ArialMT-108"/>
      <use x="227.832031" xlink:href="#ArialMT-101"/>
      <use x="283.447266" xlink:href="#ArialMT-32"/>
      <use x="311.230469" xlink:href="#ArialMT-112"/>
      <use x="366.845703" xlink:href="#ArialMT-97"/>
      <use x="422.460938" xlink:href="#ArialMT-100"/>
     </g>
    </g>
    <g id="line2d_27">
     <path d="M 519.894213 201.103673 
L 552.894213 201.103673 
" style="fill:none;stroke:#64b5cd;stroke-linecap:round;stroke-width:2.25;"/>
    </g>
    <g id="line2d_28"/>
    <g id="text_22">
     <!-- Bubble only -->
     <defs>
      <path d="M 6.203125 -19.96875 
L 5.21875 -11.71875 
Q 8.109375 -12.5 10.25 -12.5 
Q 13.1875 -12.5 14.9375 -11.515625 
Q 16.703125 -10.546875 17.828125 -8.796875 
Q 18.65625 -7.46875 20.515625 -2.25 
Q 20.75 -1.515625 21.296875 -0.09375 
L 1.609375 51.859375 
L 11.078125 51.859375 
L 21.875 21.828125 
Q 23.96875 16.109375 25.640625 9.8125 
Q 27.15625 15.875 29.25 21.625 
L 40.328125 51.859375 
L 49.125 51.859375 
L 29.390625 -0.875 
Q 26.21875 -9.421875 24.46875 -12.640625 
Q 22.125 -17 19.09375 -19.015625 
Q 16.0625 -21.046875 11.859375 -21.046875 
Q 9.328125 -21.046875 6.203125 -19.96875 
z
" id="ArialMT-121"/>
     </defs>
     <g style="fill:#262626;" transform="translate(566.094213 206.878673)scale(0.165 -0.165)">
      <use xlink:href="#ArialMT-66"/>
      <use x="66.699219" xlink:href="#ArialMT-117"/>
      <use x="122.314453" xlink:href="#ArialMT-98"/>
      <use x="177.929688" xlink:href="#ArialMT-98"/>
      <use x="233.544922" xlink:href="#ArialMT-108"/>
      <use x="255.761719" xlink:href="#ArialMT-101"/>
      <use x="311.376953" xlink:href="#ArialMT-32"/>
      <use x="339.160156" xlink:href="#ArialMT-111"/>
      <use x="394.775391" xlink:href="#ArialMT-110"/>
      <use x="450.390625" xlink:href="#ArialMT-108"/>
      <use x="472.607422" xlink:href="#ArialMT-121"/>
     </g>
    </g>
    <g id="text_23">
     <!-- Surface -->
     <defs>
      <path d="M 4.5 23 
L 13.421875 23.78125 
Q 14.0625 18.40625 16.375 14.96875 
Q 18.703125 11.53125 23.578125 9.40625 
Q 28.46875 7.28125 34.578125 7.28125 
Q 39.984375 7.28125 44.140625 8.890625 
Q 48.296875 10.5 50.3125 13.296875 
Q 52.34375 16.109375 52.34375 19.4375 
Q 52.34375 22.796875 50.390625 25.3125 
Q 48.4375 27.828125 43.953125 29.546875 
Q 41.0625 30.671875 31.203125 33.03125 
Q 21.34375 35.40625 17.390625 37.5 
Q 12.25 40.1875 9.734375 44.15625 
Q 7.234375 48.140625 7.234375 53.078125 
Q 7.234375 58.5 10.296875 63.203125 
Q 13.375 67.921875 19.28125 70.359375 
Q 25.203125 72.796875 32.421875 72.796875 
Q 40.375 72.796875 46.453125 70.234375 
Q 52.546875 67.671875 55.8125 62.6875 
Q 59.078125 57.71875 59.328125 51.421875 
L 50.25 50.734375 
Q 49.515625 57.515625 45.28125 60.984375 
Q 41.0625 64.453125 32.8125 64.453125 
Q 24.21875 64.453125 20.28125 61.296875 
Q 16.359375 58.15625 16.359375 53.71875 
Q 16.359375 49.859375 19.140625 47.359375 
Q 21.875 44.875 33.421875 42.265625 
Q 44.96875 39.65625 49.265625 37.703125 
Q 55.515625 34.8125 58.484375 30.390625 
Q 61.46875 25.984375 61.46875 20.21875 
Q 61.46875 14.5 58.203125 9.4375 
Q 54.9375 4.390625 48.796875 1.578125 
Q 42.671875 -1.21875 35.015625 -1.21875 
Q 25.296875 -1.21875 18.71875 1.609375 
Q 12.15625 4.4375 8.421875 10.125 
Q 4.6875 15.828125 4.5 23 
z
" id="ArialMT-83"/>
      <path d="M 8.6875 0 
L 8.6875 45.015625 
L 0.921875 45.015625 
L 0.921875 51.859375 
L 8.6875 51.859375 
L 8.6875 57.375 
Q 8.6875 62.59375 9.625 65.140625 
Q 10.890625 68.5625 14.078125 70.671875 
Q 17.28125 72.796875 23.046875 72.796875 
Q 26.765625 72.796875 31.25 71.921875 
L 29.9375 64.265625 
Q 27.203125 64.75 24.75 64.75 
Q 20.75 64.75 19.09375 63.03125 
Q 17.4375 61.328125 17.4375 56.640625 
L 17.4375 51.859375 
L 27.546875 51.859375 
L 27.546875 45.015625 
L 17.4375 45.015625 
L 17.4375 0 
z
" id="ArialMT-102"/>
     </defs>
     <g style="fill:#262626;" transform="translate(566.094213 229.875)scale(0.165 -0.165)">
      <use xlink:href="#ArialMT-83"/>
      <use x="66.699219" xlink:href="#ArialMT-117"/>
      <use x="122.314453" xlink:href="#ArialMT-114"/>
      <use x="155.615234" xlink:href="#ArialMT-102"/>
      <use x="183.398438" xlink:href="#ArialMT-97"/>
      <use x="239.013672" xlink:href="#ArialMT-99"/>
      <use x="289.013672" xlink:href="#ArialMT-101"/>
     </g>
    </g>
    <g id="line2d_29">
     <path d="M 519.894213 247.096327 
L 552.894213 247.096327 
" style="fill:none;stroke:#333333;stroke-dasharray:2.25,0;stroke-dashoffset:0;stroke-width:2.25;"/>
    </g>
    <g id="line2d_30">
     <defs>
      <path d="M 0 4.5 
C 1.193414 4.5 2.338109 4.025852 3.181981 3.181981 
C 4.025852 2.338109 4.5 1.193414 4.5 0 
C 4.5 -1.193414 4.025852 -2.338109 3.181981 -3.181981 
C 2.338109 -4.025852 1.193414 -4.5 0 -4.5 
C -1.193414 -4.5 -2.338109 -4.025852 -3.181981 -3.181981 
C -4.025852 -2.338109 -4.5 -1.193414 -4.5 0 
C -4.5 1.193414 -4.025852 2.338109 -3.181981 3.181981 
C -2.338109 4.025852 -1.193414 4.5 0 4.5 
z
" id="mc65a82ead7" style="stroke:#333333;"/>
     </defs>
     <g>
      <use style="fill:#333333;stroke:#333333;" x="536.394213" xlink:href="#mc65a82ead7" y="247.096327"/>
     </g>
    </g>
    <g id="text_24">
     <!-- Hydrophilic -->
     <defs>
      <path d="M 8.015625 0 
L 8.015625 71.578125 
L 17.484375 71.578125 
L 17.484375 42.1875 
L 54.6875 42.1875 
L 54.6875 71.578125 
L 64.15625 71.578125 
L 64.15625 0 
L 54.6875 0 
L 54.6875 33.734375 
L 17.484375 33.734375 
L 17.484375 0 
z
" id="ArialMT-72"/>
     </defs>
     <g style="fill:#262626;" transform="translate(566.094213 252.871327)scale(0.165 -0.165)">
      <use xlink:href="#ArialMT-72"/>
      <use x="72.216797" xlink:href="#ArialMT-121"/>
      <use x="122.216797" xlink:href="#ArialMT-100"/>
      <use x="177.832031" xlink:href="#ArialMT-114"/>
      <use x="211.132812" xlink:href="#ArialMT-111"/>
      <use x="266.748047" xlink:href="#ArialMT-112"/>
      <use x="322.363281" xlink:href="#ArialMT-104"/>
      <use x="377.978516" xlink:href="#ArialMT-105"/>
      <use x="400.195312" xlink:href="#ArialMT-108"/>
      <use x="422.412109" xlink:href="#ArialMT-105"/>
      <use x="444.628906" xlink:href="#ArialMT-99"/>
     </g>
    </g>
    <g id="line2d_31">
     <path d="M 519.894213 270.092654 
L 552.894213 270.092654 
" style="fill:none;stroke:#333333;stroke-dasharray:2.25,2.25;stroke-dashoffset:0;stroke-width:2.25;"/>
    </g>
    <g id="line2d_32">
     <defs>
      <path d="M -2.25 4.5 
L 0 2.25 
L 2.25 4.5 
L 4.5 2.25 
L 2.25 0 
L 4.5 -2.25 
L 2.25 -4.5 
L 0 -2.25 
L -2.25 -4.5 
L -4.5 -2.25 
L -2.25 0 
L -4.5 2.25 
z
" id="mf092e7e163" style="stroke:#333333;stroke-linejoin:miter;"/>
     </defs>
     <g>
      <use style="fill:#333333;stroke:#333333;stroke-linejoin:miter;" x="536.394213" xlink:href="#mf092e7e163" y="270.092654"/>
     </g>
    </g>
    <g id="text_25">
     <!-- Hydrophobic -->
     <g style="fill:#262626;" transform="translate(566.094213 275.867654)scale(0.165 -0.165)">
      <use xlink:href="#ArialMT-72"/>
      <use x="72.216797" xlink:href="#ArialMT-121"/>
      <use x="122.216797" xlink:href="#ArialMT-100"/>
      <use x="177.832031" xlink:href="#ArialMT-114"/>
      <use x="211.132812" xlink:href="#ArialMT-111"/>
      <use x="266.748047" xlink:href="#ArialMT-112"/>
      <use x="322.363281" xlink:href="#ArialMT-104"/>
      <use x="377.978516" xlink:href="#ArialMT-111"/>
      <use x="433.59375" xlink:href="#ArialMT-98"/>
      <use x="489.208984" xlink:href="#ArialMT-105"/>
      <use x="511.425781" xlink:href="#ArialMT-99"/>
     </g>
    </g>
   </g>
  </g>
  <g id="patch_6">
   <path d="M 578.01206 40.300533 
L 694.326664 40.300533 
L 694.326664 7.2 
L 578.01206 7.2 
z
" style="fill:#ffffff;stroke:#1a1a1a;stroke-linejoin:miter;stroke-width:1.5;"/>
  </g>
  <g id="text_26">
   <!-- \begin{eqnarray*}D_p/D_h&amp;=&amp;50\end{eqnarray*} -->
   <defs>
    <path d="M 13 63.390625 
C 19.203125 62.796875 20.703125 61.984375 20.703125 59.296875 
C 20.703125 57.8125 20.296875 55.421875 19.59375 52.9375 
L 7.296875 8.96875 
C 5.5 3.1875 4.796875 2.59375 -0.796875 1.59375 
L -0.796875 0 
L 24.5 0 
C 36.203125 0 46.90625 3.09375 54.59375 8.65625 
C 64.296875 15.734375 70 26.671875 70 38.203125 
C 70 54.53125 58.59375 65 40.796875 65 
L 13 65 
z
M 31.296875 59.109375 
C 31.90625 61.296875 33.40625 61.984375 37.40625 61.984375 
C 43.09375 61.984375 48.09375 60.6875 51.296875 58.3125 
C 56.203125 54.71875 58.90625 48.453125 58.90625 40.59375 
C 58.90625 29.859375 54.703125 18.71875 47.90625 11.953125 
C 42 5.984375 33.90625 3 23.5 3 
C 18.90625 3 17 4.09375 17 6.671875 
C 17 7.96875 17.5 10.15625 19.203125 16.125 
z
" id="Nimbus_Roman_No9_L_Regular_Italic-68"/>
    <path d="M 5.59375 40.296875 
L 7.90625 40.296875 
C 7.90625 40.296875 8.09375 40.296875 8.203125 40.40625 
C 9.5 41 12.09375 39.109375 12.09375 37.609375 
C 12.09375 36.71875 8.5 22.59375 5 9.453125 
C 2.296875 -0.5 -0.109375 -10.015625 -0.796875 -12.90625 
C -1.90625 -17.515625 -3.203125 -18.703125 -7.5 -18.8125 
L -7.5 -20.40625 
L 13 -20.40625 
L 13 -18.90625 
C 8.296875 -18.90625 6.59375 -18.015625 6.59375 -15.90625 
C 6.59375 -14.515625 8.296875 -6.703125 10.296875 0.6875 
C 12.796875 -0.609375 14.59375 -1 16.90625 -1 
C 31.5 -1 46.90625 15.71875 46.90625 31.546875 
C 46.90625 39.3125 42.5 44 35.40625 44 
C 28.90625 44 24.09375 40.796875 18.296875 32.734375 
L 21.203125 42.6875 
L 21.5 43.59375 
C 21.5 43.59375 21.40625 43.6875 21.296875 43.890625 
L 21.09375 44 
C 21.09375 44 21 44 21 44 
L 20.796875 44 
L 5.40625 41.796875 
z
M 31.703125 39.703125 
C 36 39.5 37.90625 36.921875 37.90625 31.140625 
C 37.90625 24.578125 35 16.015625 30.703125 9.84375 
C 26.5 3.984375 21.703125 0.890625 16.5 0.890625 
C 13.703125 0.890625 11.703125 2.390625 11.703125 4.578125 
C 11.703125 7.953125 15.296875 21 18.203125 28.359375 
C 20.90625 35.125 26.703125 40 31.703125 39.703125 
z
" id="Nimbus_Roman_No9_L_Regular_Italic-112"/>
    <path d="M 43.90625 71.203125 
C 44.40625 72.5 44.40625 72.890625 44.40625 73 
C 44.40625 74.09375 43.5 75 42.40625 75 
C 41.703125 75 41 74.6875 40.703125 74.09375 
L 6 -21.203125 
C 5.5 -22.5 5.5 -22.90625 5.5 -23 
C 5.5 -24.109375 6.40625 -25 7.5 -25 
C 8.796875 -25 9.09375 -24.3125 9.703125 -22.609375 
z
" id="CMMI10-61"/>
    <path d="M 46.5 11.59375 
C 41.09375 4.796875 39.90625 3.6875 38.296875 3.6875 
C 37.40625 3.6875 36.703125 4.59375 36.703125 5.5 
C 36.703125 6.5 38.296875 12.796875 40 17.984375 
C 42.90625 27.484375 44.796875 34.890625 44.796875 37.296875 
C 44.796875 41.296875 42.09375 44 38.203125 44 
C 31.703125 44 24.59375 37.390625 15.296875 22.890625 
L 27.296875 67.6875 
L 26.796875 68.1875 
C 21 66.890625 17.09375 66.1875 11.09375 65.5 
L 11.09375 64 
L 13.703125 64 
C 13.796875 64 13.90625 64 14 64.09375 
C 15.40625 64.6875 17.796875 63 17.796875 61.59375 
C 17.796875 60.1875 17.296875 57.6875 16.40625 54.796875 
C 16.296875 54.6875 16 53.296875 15.40625 51.09375 
L 1.90625 -0.109375 
L 9.40625 -0.109375 
C 13.40625 15.296875 14.703125 18.6875 18.703125 24.796875 
C 23.90625 32.6875 30.703125 38.890625 34.203125 38.890625 
C 35.703125 38.890625 37 37.6875 37 36.390625 
C 37 35.984375 36.703125 34.6875 36.296875 33.09375 
L 30.796875 12.390625 
C 29.5 7.484375 28.796875 4.390625 28.796875 3.1875 
C 28.796875 0.59375 30.5 -1 33.203125 -1 
C 38.296875 -1 41.796875 1.6875 47.796875 10.390625 
z
" id="Nimbus_Roman_No9_L_Regular_Italic-104"/>
    <path d="M 68.703125 32.984375 
C 70.203125 32.984375 72.09375 32.984375 72.09375 34.984375 
C 72.09375 37 70.203125 37 68.796875 37 
L 8.90625 37 
C 7.5 37 5.59375 37 5.59375 34.984375 
C 5.59375 32.984375 7.5 32.984375 9 32.984375 
z
M 68.796875 13 
C 70.203125 13 72.09375 13 72.09375 15 
C 72.09375 17 70.203125 17 68.703125 17 
L 9 17 
C 7.5 17 5.59375 17 5.59375 15 
C 5.59375 13 7.5 13 8.90625 13 
z
" id="CMR10-61"/>
    <path d="M 18.09375 58.09375 
L 37.703125 58.09375 
C 39.296875 58.09375 39.703125 58.296875 40 58.984375 
L 43.796875 67.890625 
L 42.90625 68.59375 
C 41.40625 66.5 40.40625 66 38.296875 66 
L 17.40625 66 
L 6.5 42.453125 
C 6.40625 42.265625 6.40625 42.15625 6.40625 41.96875 
C 6.40625 41.46875 6.796875 41.171875 7.59375 41.171875 
C 10.796875 41.171875 14.796875 40.484375 18.90625 39.1875 
C 30.40625 35.53125 35.703125 29.40625 35.703125 19.609375 
C 35.703125 10.109375 29.59375 2.6875 21.796875 2.6875 
C 19.796875 2.6875 18.09375 3.390625 15.09375 5.5625 
C 11.90625 7.84375 9.59375 8.828125 7.5 8.828125 
C 4.59375 8.828125 3.203125 7.640625 3.203125 5.171875 
C 3.203125 1.390625 7.90625 -1 15.40625 -1 
C 23.796875 -1 31 1.6875 36 6.75 
C 40.59375 11.203125 42.703125 16.84375 42.703125 24.359375 
C 42.703125 31.484375 40.796875 36.03125 35.796875 40.96875 
C 31.40625 45.328125 25.703125 47.609375 13.90625 49.6875 
z
" id="Nimbus_Roman_No9_L_Regular-53"/>
    <path d="M 25.40625 68 
C 19.90625 68 15.703125 66.296875 12 62.796875 
C 6.203125 57.203125 2.40625 45.6875 2.40625 34 
C 2.40625 23.09375 5.703125 11.390625 10.40625 5.796875 
C 14.09375 1.390625 19.203125 -1 25 -1 
C 30.09375 -1 34.40625 0.6875 38 4.1875 
C 43.796875 9.6875 47.59375 21.296875 47.59375 33.390625 
C 47.59375 53.890625 38.5 68 25.40625 68 
z
M 25.09375 65.390625 
C 33.5 65.390625 38 54.09375 38 33.1875 
C 38 12.296875 33.59375 1.59375 25 1.59375 
C 16.40625 1.59375 12 12.296875 12 33.09375 
C 12 54.296875 16.5 65.390625 25.09375 65.390625 
z
" id="Nimbus_Roman_No9_L_Regular-48"/>
   </defs>
   <g style="fill:#262626;" transform="translate(585.21206 29.612469)scale(0.18 -0.18)">
    <use transform="translate(0 16.487732)scale(0.996264)" xlink:href="#Nimbus_Roman_No9_L_Regular_Italic-68"/>
    <use transform="translate(77.459268 1.543817)scale(0.737241)" xlink:href="#Nimbus_Roman_No9_L_Regular_Italic-112"/>
    <use transform="translate(114.819442 16.487732)scale(0.996264)" xlink:href="#CMMI10-61"/>
    <use transform="translate(164.632643 16.487732)scale(0.996264)" xlink:href="#Nimbus_Roman_No9_L_Regular_Italic-68"/>
    <use transform="translate(236.562628 0)scale(0.737241)" xlink:href="#Nimbus_Roman_No9_L_Regular_Italic-104"/>
    <use transform="translate(283.885442 16.487732)scale(0.996264)" xlink:href="#CMR10-61"/>
    <use transform="translate(371.256789 16.487732)scale(0.996264)" xlink:href="#Nimbus_Roman_No9_L_Regular-53"/>
    <use transform="translate(421.06999 16.487732)scale(0.996264)" xlink:href="#Nimbus_Roman_No9_L_Regular-48"/>
   </g>
  </g>
 </g>
 <defs>
  <clipPath id="p2331cc7615">
   <rect height="297.444" width="429.060399" x="68.643522" y="39.528"/>
  </clipPath>
 </defs>
</svg>
