<?xml version="1.0" encoding="utf-8" standalone="no"?>
<!DOCTYPE svg PUBLIC "-//W3C//DTD SVG 1.1//EN"
  "http://www.w3.org/Graphics/SVG/1.1/DTD/svg11.dtd">
<!-- Created with matplotlib (https://matplotlib.org/) -->
<svg height="469.40766pt" version="1.1" viewBox="0 0 1053.654498 469.40766" width="1053.654498pt" xmlns="http://www.w3.org/2000/svg" xmlns:xlink="http://www.w3.org/1999/xlink">
 <defs>
  <style type="text/css">
*{stroke-linecap:butt;stroke-linejoin:round;}
  </style>
 </defs>
 <g id="figure_1">
  <g id="patch_1">
   <path d="M 0 469.40766 
L 1053.654498 469.40766 
L 1053.654498 0 
L 0 0 
z
" style="fill:none;"/>
  </g>
  <g id="axes_1">
   <g id="patch_2">
    <path d="M 126.334863 323.643876 
L 563.178742 323.643876 
L 563.178742 25.6533 
L 126.334863 25.6533 
z
" style="fill:none;"/>
   </g>
   <g id="line2d_1">
    <path clip-path="url(#p323f620664)" d="M 126.334863 75.032763 
L 563.178742 75.032763 
" style="fill:none;stroke:#b2b2b2;stroke-dasharray:4.5,2.25;stroke-dashoffset:0;stroke-width:2.25;"/>
   </g>
   <g id="matplotlib.axis_1">
    <g id="xtick_1">
     <g id="line2d_2">
      <defs>
       <path d="M 0 0 
L 0 9 
" id="m78a81bc190" style="stroke:#262626;stroke-width:1.875;"/>
      </defs>
      <g>
       <use style="fill:#262626;stroke:#262626;stroke-width:1.875;" x="146.191403" xlink:href="#m78a81bc190" y="323.643876"/>
      </g>
     </g>
     <g id="text_1">
      <!-- 30 -->
      <defs>
       <path d="M 4.203125 18.890625 
L 12.984375 20.0625 
Q 14.5 12.59375 18.140625 9.296875 
Q 21.78125 6 27 6 
Q 33.203125 6 37.46875 10.296875 
Q 41.75 14.59375 41.75 20.953125 
Q 41.75 27 37.796875 30.921875 
Q 33.84375 34.859375 27.734375 34.859375 
Q 25.25 34.859375 21.53125 33.890625 
L 22.515625 41.609375 
Q 23.390625 41.5 23.921875 41.5 
Q 29.546875 41.5 34.03125 44.421875 
Q 38.53125 47.359375 38.53125 53.46875 
Q 38.53125 58.296875 35.25 61.46875 
Q 31.984375 64.65625 26.8125 64.65625 
Q 21.6875 64.65625 18.265625 61.421875 
Q 14.84375 58.203125 13.875 51.765625 
L 5.078125 53.328125 
Q 6.6875 62.15625 12.390625 67.015625 
Q 18.109375 71.875 26.609375 71.875 
Q 32.46875 71.875 37.390625 69.359375 
Q 42.328125 66.84375 44.9375 62.5 
Q 47.5625 58.15625 47.5625 53.265625 
Q 47.5625 48.640625 45.0625 44.828125 
Q 42.578125 41.015625 37.703125 38.765625 
Q 44.046875 37.3125 47.5625 32.6875 
Q 51.078125 28.078125 51.078125 21.140625 
Q 51.078125 11.765625 44.234375 5.25 
Q 37.40625 -1.265625 26.953125 -1.265625 
Q 17.53125 -1.265625 11.296875 4.34375 
Q 5.078125 9.96875 4.203125 18.890625 
z
" id="ArialMT-51"/>
       <path d="M 4.15625 35.296875 
Q 4.15625 48 6.765625 55.734375 
Q 9.375 63.484375 14.515625 67.671875 
Q 19.671875 71.875 27.484375 71.875 
Q 33.25 71.875 37.59375 69.546875 
Q 41.9375 67.234375 44.765625 62.859375 
Q 47.609375 58.5 49.21875 52.21875 
Q 50.828125 45.953125 50.828125 35.296875 
Q 50.828125 22.703125 48.234375 14.96875 
Q 45.65625 7.234375 40.5 3 
Q 35.359375 -1.21875 27.484375 -1.21875 
Q 17.140625 -1.21875 11.234375 6.203125 
Q 4.15625 15.140625 4.15625 35.296875 
z
M 13.1875 35.296875 
Q 13.1875 17.671875 17.3125 11.828125 
Q 21.4375 6 27.484375 6 
Q 33.546875 6 37.671875 11.859375 
Q 41.796875 17.71875 41.796875 35.296875 
Q 41.796875 52.984375 37.671875 58.78125 
Q 33.546875 64.59375 27.390625 64.59375 
Q 21.34375 64.59375 17.71875 59.46875 
Q 13.1875 52.9375 13.1875 35.296875 
z
" id="ArialMT-48"/>
      </defs>
      <g style="fill:#262626;" transform="translate(138.143549 347.559381)scale(0.165 -0.165)">
       <use xlink:href="#ArialMT-51"/>
       <use x="55.615234" xlink:href="#ArialMT-48"/>
      </g>
     </g>
    </g>
    <g id="xtick_2">
     <g id="line2d_3">
      <g>
       <use style="fill:#262626;stroke:#262626;stroke-width:1.875;" x="245.474103" xlink:href="#m78a81bc190" y="323.643876"/>
      </g>
     </g>
     <g id="text_2">
      <!-- 40 -->
      <defs>
       <path d="M 32.328125 0 
L 32.328125 17.140625 
L 1.265625 17.140625 
L 1.265625 25.203125 
L 33.9375 71.578125 
L 41.109375 71.578125 
L 41.109375 25.203125 
L 50.78125 25.203125 
L 50.78125 17.140625 
L 41.109375 17.140625 
L 41.109375 0 
z
M 32.328125 25.203125 
L 32.328125 57.46875 
L 9.90625 25.203125 
z
" id="ArialMT-52"/>
      </defs>
      <g style="fill:#262626;" transform="translate(237.426249 347.559381)scale(0.165 -0.165)">
       <use xlink:href="#ArialMT-52"/>
       <use x="55.615234" xlink:href="#ArialMT-48"/>
      </g>
     </g>
    </g>
    <g id="xtick_3">
     <g id="line2d_4">
      <g>
       <use style="fill:#262626;stroke:#262626;stroke-width:1.875;" x="344.756802" xlink:href="#m78a81bc190" y="323.643876"/>
      </g>
     </g>
     <g id="text_3">
      <!-- 50 -->
      <defs>
       <path d="M 4.15625 18.75 
L 13.375 19.53125 
Q 14.40625 12.796875 18.140625 9.390625 
Q 21.875 6 27.15625 6 
Q 33.5 6 37.890625 10.78125 
Q 42.28125 15.578125 42.28125 23.484375 
Q 42.28125 31 38.0625 35.34375 
Q 33.84375 39.703125 27 39.703125 
Q 22.75 39.703125 19.328125 37.765625 
Q 15.921875 35.84375 13.96875 32.765625 
L 5.71875 33.84375 
L 12.640625 70.609375 
L 48.25 70.609375 
L 48.25 62.203125 
L 19.671875 62.203125 
L 15.828125 42.96875 
Q 22.265625 47.46875 29.34375 47.46875 
Q 38.71875 47.46875 45.15625 40.96875 
Q 51.609375 34.46875 51.609375 24.265625 
Q 51.609375 14.546875 45.953125 7.46875 
Q 39.0625 -1.21875 27.15625 -1.21875 
Q 17.390625 -1.21875 11.203125 4.25 
Q 5.03125 9.71875 4.15625 18.75 
z
" id="ArialMT-53"/>
      </defs>
      <g style="fill:#262626;" transform="translate(336.708948 347.559381)scale(0.165 -0.165)">
       <use xlink:href="#ArialMT-53"/>
       <use x="55.615234" xlink:href="#ArialMT-48"/>
      </g>
     </g>
    </g>
    <g id="xtick_4">
     <g id="line2d_5">
      <g>
       <use style="fill:#262626;stroke:#262626;stroke-width:1.875;" x="444.039502" xlink:href="#m78a81bc190" y="323.643876"/>
      </g>
     </g>
     <g id="text_4">
      <!-- 60 -->
      <defs>
       <path d="M 49.75 54.046875 
L 41.015625 53.375 
Q 39.84375 58.546875 37.703125 60.890625 
Q 34.125 64.65625 28.90625 64.65625 
Q 24.703125 64.65625 21.53125 62.3125 
Q 17.390625 59.28125 14.984375 53.46875 
Q 12.59375 47.65625 12.5 36.921875 
Q 15.671875 41.75 20.265625 44.09375 
Q 24.859375 46.4375 29.890625 46.4375 
Q 38.671875 46.4375 44.84375 39.96875 
Q 51.03125 33.5 51.03125 23.25 
Q 51.03125 16.5 48.125 10.71875 
Q 45.21875 4.9375 40.140625 1.859375 
Q 35.0625 -1.21875 28.609375 -1.21875 
Q 17.625 -1.21875 10.6875 6.859375 
Q 3.765625 14.9375 3.765625 33.5 
Q 3.765625 54.25 11.421875 63.671875 
Q 18.109375 71.875 29.4375 71.875 
Q 37.890625 71.875 43.28125 67.140625 
Q 48.6875 62.40625 49.75 54.046875 
z
M 13.875 23.1875 
Q 13.875 18.65625 15.796875 14.5 
Q 17.71875 10.359375 21.1875 8.171875 
Q 24.65625 6 28.46875 6 
Q 34.03125 6 38.03125 10.484375 
Q 42.046875 14.984375 42.046875 22.703125 
Q 42.046875 30.125 38.078125 34.390625 
Q 34.125 38.671875 28.125 38.671875 
Q 22.171875 38.671875 18.015625 34.390625 
Q 13.875 30.125 13.875 23.1875 
z
" id="ArialMT-54"/>
      </defs>
      <g style="fill:#262626;" transform="translate(435.991648 347.559381)scale(0.165 -0.165)">
       <use xlink:href="#ArialMT-54"/>
       <use x="55.615234" xlink:href="#ArialMT-48"/>
      </g>
     </g>
    </g>
    <g id="xtick_5">
     <g id="line2d_6">
      <g>
       <use style="fill:#262626;stroke:#262626;stroke-width:1.875;" x="543.322202" xlink:href="#m78a81bc190" y="323.643876"/>
      </g>
     </g>
     <g id="text_5">
      <!-- 70 -->
      <defs>
       <path d="M 4.734375 62.203125 
L 4.734375 70.65625 
L 51.078125 70.65625 
L 51.078125 63.8125 
Q 44.234375 56.546875 37.515625 44.484375 
Q 30.8125 32.421875 27.15625 19.671875 
Q 24.515625 10.6875 23.78125 0 
L 14.75 0 
Q 14.890625 8.453125 18.0625 20.40625 
Q 21.234375 32.375 27.171875 43.484375 
Q 33.109375 54.59375 39.796875 62.203125 
z
" id="ArialMT-55"/>
      </defs>
      <g style="fill:#262626;" transform="translate(535.274348 347.559381)scale(0.165 -0.165)">
       <use xlink:href="#ArialMT-55"/>
       <use x="55.615234" xlink:href="#ArialMT-48"/>
      </g>
     </g>
    </g>
    <g id="text_6">
     <!-- $D_p/D_h$ -->
     <defs>
      <path d="M 16.890625 72.90625 
L 38.09375 72.90625 
Q 54.984375 72.90625 63.59375 65.75 
Q 72.21875 58.59375 72.21875 44.484375 
Q 72.21875 35.15625 68.9375 26.53125 
Q 65.671875 17.921875 59.90625 12.015625 
Q 54.109375 5.953125 45.171875 2.96875 
Q 36.234375 0 24.03125 0 
L 2.6875 0 
z
M 25.203125 64.796875 
L 14.203125 8.109375 
L 27.09375 8.109375 
Q 43.65625 8.109375 52.734375 17.625 
Q 61.8125 27.15625 61.8125 44.484375 
Q 61.8125 54.984375 55.953125 59.890625 
Q 50.09375 64.796875 37.59375 64.796875 
z
" id="DejaVuSans-Oblique-68"/>
      <path d="M 49.609375 33.6875 
Q 49.609375 40.875 46.484375 44.671875 
Q 43.359375 48.484375 37.5 48.484375 
Q 33.5 48.484375 29.859375 46.4375 
Q 26.21875 44.390625 23.390625 40.484375 
Q 20.609375 36.625 18.9375 31.15625 
Q 17.28125 25.6875 17.28125 20.3125 
Q 17.28125 13.484375 20.40625 9.796875 
Q 23.53125 6.109375 29.296875 6.109375 
Q 33.546875 6.109375 37.1875 8.109375 
Q 40.828125 10.109375 43.40625 13.921875 
Q 46.1875 17.921875 47.890625 23.34375 
Q 49.609375 28.765625 49.609375 33.6875 
z
M 21.78125 46.390625 
Q 25.390625 51.125 30.296875 53.5625 
Q 35.203125 56 41.21875 56 
Q 49.609375 56 54.25 50.5 
Q 58.890625 45.015625 58.890625 35.109375 
Q 58.890625 27 56 19.65625 
Q 53.125 12.3125 47.703125 6.5 
Q 44.09375 2.640625 39.546875 0.609375 
Q 35.015625 -1.421875 29.984375 -1.421875 
Q 24.171875 -1.421875 20.21875 1 
Q 16.265625 3.421875 14.3125 8.203125 
L 8.6875 -20.796875 
L -0.296875 -20.796875 
L 14.40625 54.6875 
L 23.390625 54.6875 
z
" id="DejaVuSans-Oblique-112"/>
      <path d="M 25.390625 72.90625 
L 33.6875 72.90625 
L 8.296875 -9.28125 
L 0 -9.28125 
z
" id="DejaVuSans-47"/>
      <path d="M 55.71875 33.015625 
L 49.3125 0 
L 40.28125 0 
L 46.6875 32.671875 
Q 47.125 34.96875 47.359375 36.71875 
Q 47.609375 38.484375 47.609375 39.5 
Q 47.609375 43.609375 45.015625 45.890625 
Q 42.4375 48.1875 37.796875 48.1875 
Q 30.5625 48.1875 25.265625 43.296875 
Q 19.96875 38.421875 18.40625 30.328125 
L 12.5 0 
L 3.515625 0 
L 18.3125 75.984375 
L 27.296875 75.984375 
L 21.484375 46.09375 
Q 24.90625 50.6875 30.21875 53.34375 
Q 35.546875 56 41.40625 56 
Q 48.640625 56 52.609375 52.09375 
Q 56.59375 48.1875 56.59375 41.109375 
Q 56.59375 39.359375 56.375 37.359375 
Q 56.15625 35.359375 55.71875 33.015625 
z
" id="DejaVuSans-Oblique-104"/>
     </defs>
     <g style="fill:#262626;" transform="translate(319.944362 369.968177)scale(0.18 -0.18)">
      <use transform="translate(0 0.09375)" xlink:href="#DejaVuSans-Oblique-68"/>
      <use transform="translate(77.001953 -16.3125)scale(0.7)" xlink:href="#DejaVuSans-Oblique-112"/>
      <use transform="translate(124.169922 0.09375)" xlink:href="#DejaVuSans-47"/>
      <use transform="translate(157.861328 0.09375)" xlink:href="#DejaVuSans-Oblique-68"/>
      <use transform="translate(234.863281 -16.3125)scale(0.7)" xlink:href="#DejaVuSans-Oblique-104"/>
     </g>
    </g>
   </g>
   <g id="matplotlib.axis_2">
    <g id="ytick_1">
     <g id="line2d_7">
      <defs>
       <path d="M 0 0 
L -9 0 
" id="mbe2a70db17" style="stroke:#262626;stroke-width:1.875;"/>
      </defs>
      <g>
       <use style="fill:#262626;stroke:#262626;stroke-width:1.875;" x="126.334863" xlink:href="#mbe2a70db17" y="323.798024"/>
      </g>
     </g>
     <g id="text_7">
      <!-- -70000 -->
      <defs>
       <path d="M 3.171875 21.484375 
L 3.171875 30.328125 
L 30.171875 30.328125 
L 30.171875 21.484375 
z
" id="ArialMT-45"/>
      </defs>
      <g style="fill:#262626;" transform="translate(68.230352 329.505777)scale(0.165 -0.165)">
       <use xlink:href="#ArialMT-45"/>
       <use x="33.300781" xlink:href="#ArialMT-55"/>
       <use x="88.916016" xlink:href="#ArialMT-48"/>
       <use x="144.53125" xlink:href="#ArialMT-48"/>
       <use x="200.146484" xlink:href="#ArialMT-48"/>
       <use x="255.761719" xlink:href="#ArialMT-48"/>
      </g>
     </g>
    </g>
    <g id="ytick_2">
     <g id="line2d_8">
      <g>
       <use style="fill:#262626;stroke:#262626;stroke-width:1.875;" x="126.334863" xlink:href="#mbe2a70db17" y="288.26013"/>
      </g>
     </g>
     <g id="text_8">
      <!-- -60000 -->
      <g style="fill:#262626;" transform="translate(68.230352 293.967882)scale(0.165 -0.165)">
       <use xlink:href="#ArialMT-45"/>
       <use x="33.300781" xlink:href="#ArialMT-54"/>
       <use x="88.916016" xlink:href="#ArialMT-48"/>
       <use x="144.53125" xlink:href="#ArialMT-48"/>
       <use x="200.146484" xlink:href="#ArialMT-48"/>
       <use x="255.761719" xlink:href="#ArialMT-48"/>
      </g>
     </g>
    </g>
    <g id="ytick_3">
     <g id="line2d_9">
      <g>
       <use style="fill:#262626;stroke:#262626;stroke-width:1.875;" x="126.334863" xlink:href="#mbe2a70db17" y="252.722236"/>
      </g>
     </g>
     <g id="text_9">
      <!-- -50000 -->
      <g style="fill:#262626;" transform="translate(68.230352 258.429988)scale(0.165 -0.165)">
       <use xlink:href="#ArialMT-45"/>
       <use x="33.300781" xlink:href="#ArialMT-53"/>
       <use x="88.916016" xlink:href="#ArialMT-48"/>
       <use x="144.53125" xlink:href="#ArialMT-48"/>
       <use x="200.146484" xlink:href="#ArialMT-48"/>
       <use x="255.761719" xlink:href="#ArialMT-48"/>
      </g>
     </g>
    </g>
    <g id="ytick_4">
     <g id="line2d_10">
      <g>
       <use style="fill:#262626;stroke:#262626;stroke-width:1.875;" x="126.334863" xlink:href="#mbe2a70db17" y="217.184341"/>
      </g>
     </g>
     <g id="text_10">
      <!-- -40000 -->
      <g style="fill:#262626;" transform="translate(68.230352 222.892094)scale(0.165 -0.165)">
       <use xlink:href="#ArialMT-45"/>
       <use x="33.300781" xlink:href="#ArialMT-52"/>
       <use x="88.916016" xlink:href="#ArialMT-48"/>
       <use x="144.53125" xlink:href="#ArialMT-48"/>
       <use x="200.146484" xlink:href="#ArialMT-48"/>
       <use x="255.761719" xlink:href="#ArialMT-48"/>
      </g>
     </g>
    </g>
    <g id="ytick_5">
     <g id="line2d_11">
      <g>
       <use style="fill:#262626;stroke:#262626;stroke-width:1.875;" x="126.334863" xlink:href="#mbe2a70db17" y="181.646447"/>
      </g>
     </g>
     <g id="text_11">
      <!-- -30000 -->
      <g style="fill:#262626;" transform="translate(68.230352 187.354199)scale(0.165 -0.165)">
       <use xlink:href="#ArialMT-45"/>
       <use x="33.300781" xlink:href="#ArialMT-51"/>
       <use x="88.916016" xlink:href="#ArialMT-48"/>
       <use x="144.53125" xlink:href="#ArialMT-48"/>
       <use x="200.146484" xlink:href="#ArialMT-48"/>
       <use x="255.761719" xlink:href="#ArialMT-48"/>
      </g>
     </g>
    </g>
    <g id="ytick_6">
     <g id="line2d_12">
      <g>
       <use style="fill:#262626;stroke:#262626;stroke-width:1.875;" x="126.334863" xlink:href="#mbe2a70db17" y="146.108552"/>
      </g>
     </g>
     <g id="text_12">
      <!-- -20000 -->
      <defs>
       <path d="M 50.34375 8.453125 
L 50.34375 0 
L 3.03125 0 
Q 2.9375 3.171875 4.046875 6.109375 
Q 5.859375 10.9375 9.828125 15.625 
Q 13.8125 20.3125 21.34375 26.46875 
Q 33.015625 36.03125 37.109375 41.625 
Q 41.21875 47.21875 41.21875 52.203125 
Q 41.21875 57.421875 37.46875 61 
Q 33.734375 64.59375 27.734375 64.59375 
Q 21.390625 64.59375 17.578125 60.78125 
Q 13.765625 56.984375 13.71875 50.25 
L 4.6875 51.171875 
Q 5.609375 61.28125 11.65625 66.578125 
Q 17.71875 71.875 27.9375 71.875 
Q 38.234375 71.875 44.234375 66.15625 
Q 50.25 60.453125 50.25 52 
Q 50.25 47.703125 48.484375 43.546875 
Q 46.734375 39.40625 42.65625 34.8125 
Q 38.578125 30.21875 29.109375 22.21875 
Q 21.1875 15.578125 18.9375 13.203125 
Q 16.703125 10.84375 15.234375 8.453125 
z
" id="ArialMT-50"/>
      </defs>
      <g style="fill:#262626;" transform="translate(68.230352 151.816305)scale(0.165 -0.165)">
       <use xlink:href="#ArialMT-45"/>
       <use x="33.300781" xlink:href="#ArialMT-50"/>
       <use x="88.916016" xlink:href="#ArialMT-48"/>
       <use x="144.53125" xlink:href="#ArialMT-48"/>
       <use x="200.146484" xlink:href="#ArialMT-48"/>
       <use x="255.761719" xlink:href="#ArialMT-48"/>
      </g>
     </g>
    </g>
    <g id="ytick_7">
     <g id="line2d_13">
      <g>
       <use style="fill:#262626;stroke:#262626;stroke-width:1.875;" x="126.334863" xlink:href="#mbe2a70db17" y="110.570658"/>
      </g>
     </g>
     <g id="text_13">
      <!-- -10000 -->
      <defs>
       <path d="M 37.25 0 
L 28.46875 0 
L 28.46875 56 
Q 25.296875 52.984375 20.140625 49.953125 
Q 14.984375 46.921875 10.890625 45.40625 
L 10.890625 53.90625 
Q 18.265625 57.375 23.78125 62.296875 
Q 29.296875 67.234375 31.59375 71.875 
L 37.25 71.875 
z
" id="ArialMT-49"/>
      </defs>
      <g style="fill:#262626;" transform="translate(68.230352 116.27841)scale(0.165 -0.165)">
       <use xlink:href="#ArialMT-45"/>
       <use x="33.300781" xlink:href="#ArialMT-49"/>
       <use x="88.916016" xlink:href="#ArialMT-48"/>
       <use x="144.53125" xlink:href="#ArialMT-48"/>
       <use x="200.146484" xlink:href="#ArialMT-48"/>
       <use x="255.761719" xlink:href="#ArialMT-48"/>
      </g>
     </g>
    </g>
    <g id="ytick_8">
     <g id="line2d_14">
      <g>
       <use style="fill:#262626;stroke:#262626;stroke-width:1.875;" x="126.334863" xlink:href="#mbe2a70db17" y="75.032763"/>
      </g>
     </g>
     <g id="text_14">
      <!-- 0 -->
      <defs>
       <path d="M 43.09375 32.390625 
C 43.09375 38.109375 43 48.75 38.90625 56.984375 
C 34.796875 64.890625 28.203125 67 23.5 67 
C 16.703125 67 10.90625 62.984375 7.90625 56.578125 
C 4.703125 49.859375 3.796875 42.9375 3.796875 32.390625 
C 3.796875 25.171875 4.09375 16.34375 7.703125 8.609375 
C 11.796875 0.09375 18.703125 -2 23.40625 -2 
C 29.59375 -2 35.59375 1.296875 39 8.203125 
C 42.5 15.4375 43.09375 23.359375 43.09375 32.390625 
z
M 23.40625 4.09375 
C 15.796875 4.09375 13.5 12.828125 12.796875 15.734375 
C 11.59375 20.75 11.40625 25.5625 11.40625 33.5 
C 11.40625 39.71875 11.40625 46.75 13.296875 52.265625 
C 15.59375 58.6875 19.59375 60.890625 23.40625 60.890625 
C 30.796875 60.890625 33.203125 53.46875 34 50.859375 
C 35.5 45.546875 35.5 39.3125 35.5 33.5 
C 35.5 24.15625 35.5 4.09375 23.40625 4.09375 
z
" id="CMSS17-48"/>
      </defs>
      <g style="fill:#262626;" transform="translate(105.787009 80.740516)scale(0.165 -0.165)">
       <use transform="scale(0.996264)" xlink:href="#CMSS17-48"/>
      </g>
     </g>
    </g>
    <g id="ytick_9">
     <g id="line2d_15">
      <g>
       <use style="fill:#262626;stroke:#262626;stroke-width:1.875;" x="126.334863" xlink:href="#mbe2a70db17" y="39.494869"/>
      </g>
     </g>
     <g id="text_15">
      <!-- 10000 -->
      <defs>
       <path d="M 28.40625 67 
L 26.5 67 
C 21.09375 61.703125 14.796875 60.96875 8.40625 60.796875 
L 8.40625 55 
C 11.296875 55.09375 16 55.296875 20.703125 57.390625 
L 20.703125 5.796875 
L 8.90625 5.796875 
L 8.90625 0 
L 40.203125 0 
L 40.203125 5.796875 
L 28.40625 5.796875 
z
" id="CMSS17-49"/>
      </defs>
      <g style="fill:#262626;" transform="translate(73.595593 45.202621)scale(0.165 -0.165)">
       <use transform="scale(0.996264)" xlink:href="#CMSS17-49"/>
       <use transform="translate(46.843624 0)scale(0.996264)" xlink:href="#CMSS17-48"/>
       <use transform="translate(93.687247 0)scale(0.996264)" xlink:href="#CMSS17-48"/>
       <use transform="translate(140.530871 0)scale(0.996264)" xlink:href="#CMSS17-48"/>
       <use transform="translate(187.374494 0)scale(0.996264)" xlink:href="#CMSS17-48"/>
      </g>
     </g>
    </g>
    <g id="text_16">
     <!-- Force, $F/\gamma s$ -->
     <defs>
      <path d="M 8.203125 0 
L 8.203125 71.578125 
L 56.5 71.578125 
L 56.5 63.140625 
L 17.671875 63.140625 
L 17.671875 40.96875 
L 51.265625 40.96875 
L 51.265625 32.515625 
L 17.671875 32.515625 
L 17.671875 0 
z
" id="ArialMT-70"/>
      <path d="M 3.328125 25.921875 
Q 3.328125 40.328125 11.328125 47.265625 
Q 18.015625 53.03125 27.640625 53.03125 
Q 38.328125 53.03125 45.109375 46.015625 
Q 51.90625 39.015625 51.90625 26.65625 
Q 51.90625 16.65625 48.90625 10.90625 
Q 45.90625 5.171875 40.15625 2 
Q 34.421875 -1.171875 27.640625 -1.171875 
Q 16.75 -1.171875 10.03125 5.8125 
Q 3.328125 12.796875 3.328125 25.921875 
z
M 12.359375 25.921875 
Q 12.359375 15.96875 16.703125 11.015625 
Q 21.046875 6.0625 27.640625 6.0625 
Q 34.1875 6.0625 38.53125 11.03125 
Q 42.875 16.015625 42.875 26.21875 
Q 42.875 35.84375 38.5 40.796875 
Q 34.125 45.75 27.640625 45.75 
Q 21.046875 45.75 16.703125 40.8125 
Q 12.359375 35.890625 12.359375 25.921875 
z
" id="ArialMT-111"/>
      <path d="M 6.5 0 
L 6.5 51.859375 
L 14.40625 51.859375 
L 14.40625 44 
Q 17.4375 49.515625 20 51.265625 
Q 22.5625 53.03125 25.640625 53.03125 
Q 30.078125 53.03125 34.671875 50.203125 
L 31.640625 42.046875 
Q 28.421875 43.953125 25.203125 43.953125 
Q 22.3125 43.953125 20.015625 42.21875 
Q 17.71875 40.484375 16.75 37.40625 
Q 15.28125 32.71875 15.28125 27.15625 
L 15.28125 0 
z
" id="ArialMT-114"/>
      <path d="M 40.4375 19 
L 49.078125 17.875 
Q 47.65625 8.9375 41.8125 3.875 
Q 35.984375 -1.171875 27.484375 -1.171875 
Q 16.84375 -1.171875 10.375 5.78125 
Q 3.90625 12.75 3.90625 25.734375 
Q 3.90625 34.125 6.6875 40.421875 
Q 9.46875 46.734375 15.15625 49.875 
Q 20.84375 53.03125 27.546875 53.03125 
Q 35.984375 53.03125 41.359375 48.75 
Q 46.734375 44.484375 48.25 36.625 
L 39.703125 35.296875 
Q 38.484375 40.53125 35.375 43.15625 
Q 32.28125 45.796875 27.875 45.796875 
Q 21.234375 45.796875 17.078125 41.03125 
Q 12.9375 36.28125 12.9375 25.984375 
Q 12.9375 15.53125 16.9375 10.796875 
Q 20.953125 6.0625 27.390625 6.0625 
Q 32.5625 6.0625 36.03125 9.234375 
Q 39.5 12.40625 40.4375 19 
z
" id="ArialMT-99"/>
      <path d="M 42.09375 16.703125 
L 51.171875 15.578125 
Q 49.03125 7.625 43.21875 3.21875 
Q 37.40625 -1.171875 28.375 -1.171875 
Q 17 -1.171875 10.328125 5.828125 
Q 3.65625 12.84375 3.65625 25.484375 
Q 3.65625 38.578125 10.390625 45.796875 
Q 17.140625 53.03125 27.875 53.03125 
Q 38.28125 53.03125 44.875 45.953125 
Q 51.46875 38.875 51.46875 26.03125 
Q 51.46875 25.25 51.421875 23.6875 
L 12.75 23.6875 
Q 13.234375 15.140625 17.578125 10.59375 
Q 21.921875 6.0625 28.421875 6.0625 
Q 33.25 6.0625 36.671875 8.59375 
Q 40.09375 11.140625 42.09375 16.703125 
z
M 13.234375 30.90625 
L 42.1875 30.90625 
Q 41.609375 37.453125 38.875 40.71875 
Q 34.671875 45.796875 27.984375 45.796875 
Q 21.921875 45.796875 17.796875 41.75 
Q 13.671875 37.703125 13.234375 30.90625 
z
" id="ArialMT-101"/>
      <path d="M 8.890625 0 
L 8.890625 10.015625 
L 18.890625 10.015625 
L 18.890625 0 
Q 18.890625 -5.515625 16.9375 -8.90625 
Q 14.984375 -12.3125 10.75 -14.15625 
L 8.296875 -10.40625 
Q 11.078125 -9.1875 12.390625 -6.8125 
Q 13.71875 -4.4375 13.875 0 
z
" id="ArialMT-44"/>
      <path id="ArialMT-32"/>
      <path d="M 16.890625 72.90625 
L 58.6875 72.90625 
L 57.078125 64.59375 
L 25.09375 64.59375 
L 20.90625 43.109375 
L 49.8125 43.109375 
L 48.1875 34.8125 
L 19.28125 34.8125 
L 12.5 0 
L 2.6875 0 
z
" id="DejaVuSans-Oblique-70"/>
      <path d="M 23.296875 46.09375 
L 28.71875 12.3125 
L 54 54.6875 
L 63.53125 54.6875 
L 30.8125 0 
L 26.765625 -20.796875 
L 17.78125 -20.796875 
L 21.828125 0 
L 15.4375 40.828125 
Q 14.453125 46.96875 9.8125 46.96875 
L 7.421875 46.96875 
L 8.890625 54.6875 
L 12.3125 54.6875 
Q 21.921875 54.6875 23.296875 46.09375 
z
" id="DejaVuSans-Oblique-947"/>
      <path d="M 50 53.078125 
L 48.296875 44.578125 
Q 44.734375 46.53125 40.765625 47.5 
Q 36.8125 48.484375 32.625 48.484375 
Q 25.53125 48.484375 21.453125 46.0625 
Q 17.390625 43.65625 17.390625 39.5 
Q 17.390625 34.671875 26.859375 32.078125 
Q 27.59375 31.890625 27.9375 31.78125 
L 30.8125 30.90625 
Q 39.796875 28.421875 42.796875 25.6875 
Q 45.796875 22.953125 45.796875 18.21875 
Q 45.796875 9.515625 38.890625 4.046875 
Q 31.984375 -1.421875 20.796875 -1.421875 
Q 16.453125 -1.421875 11.671875 -0.578125 
Q 6.890625 0.25 1.125 2 
L 2.875 11.28125 
Q 7.8125 8.734375 12.59375 7.421875 
Q 17.390625 6.109375 21.78125 6.109375 
Q 28.375 6.109375 32.5 8.9375 
Q 36.625 11.765625 36.625 16.109375 
Q 36.625 20.796875 25.78125 23.6875 
L 24.859375 23.921875 
L 21.78125 24.703125 
Q 14.9375 26.515625 11.765625 29.46875 
Q 8.59375 32.421875 8.59375 37.015625 
Q 8.59375 45.75 15.15625 50.875 
Q 21.734375 56 33.015625 56 
Q 37.453125 56 41.671875 55.265625 
Q 45.90625 54.546875 50 53.078125 
z
" id="DejaVuSans-Oblique-115"/>
     </defs>
     <g style="fill:#262626;" transform="translate(59.747164 217.343721)rotate(-90)scale(0.18 -0.18)">
      <use transform="translate(0 0.09375)" xlink:href="#ArialMT-70"/>
      <use transform="translate(61.083984 0.09375)" xlink:href="#ArialMT-111"/>
      <use transform="translate(116.699219 0.09375)" xlink:href="#ArialMT-114"/>
      <use transform="translate(150 0.09375)" xlink:href="#ArialMT-99"/>
      <use transform="translate(200 0.09375)" xlink:href="#ArialMT-101"/>
      <use transform="translate(255.615234 0.09375)" xlink:href="#ArialMT-44"/>
      <use transform="translate(283.398438 0.09375)" xlink:href="#ArialMT-32"/>
      <use transform="translate(311.181641 0.09375)" xlink:href="#DejaVuSans-Oblique-70"/>
      <use transform="translate(368.701172 0.09375)" xlink:href="#DejaVuSans-47"/>
      <use transform="translate(402.392578 0.09375)" xlink:href="#DejaVuSans-Oblique-947"/>
      <use transform="translate(461.572266 0.09375)" xlink:href="#DejaVuSans-Oblique-115"/>
     </g>
    </g>
   </g>
   <g id="line2d_16">
    <path clip-path="url(#p323f620664)" d="M 146.191403 96.541298 
L 245.474103 113.270159 
L 344.756802 134.778694 
L 444.039502 161.066904 
L 543.322202 192.134788 
" style="fill:none;stroke:#55a868;stroke-dasharray:2.25,0;stroke-dashoffset:0;stroke-opacity:0.8;stroke-width:2.25;"/>
    <defs>
     <path d="M 0 4.5 
C 1.193414 4.5 2.338109 4.025852 3.181981 3.181981 
C 4.025852 2.338109 4.5 1.193414 4.5 0 
C 4.5 -1.193414 4.025852 -2.338109 3.181981 -3.181981 
C 2.338109 -4.025852 1.193414 -4.5 0 -4.5 
C -1.193414 -4.5 -2.338109 -4.025852 -3.181981 -3.181981 
C -4.025852 -2.338109 -4.5 -1.193414 -4.5 0 
C -4.5 1.193414 -4.025852 2.338109 -3.181981 3.181981 
C -2.338109 4.025852 -1.193414 4.5 0 4.5 
z
" id="m97efbb0afc" style="stroke:#ffffff;stroke-opacity:0.8;stroke-width:0.75;"/>
    </defs>
    <g clip-path="url(#p323f620664)">
     <use style="fill:#55a868;fill-opacity:0.8;stroke:#ffffff;stroke-opacity:0.8;stroke-width:0.75;" x="146.191403" xlink:href="#m97efbb0afc" y="96.541298"/>
     <use style="fill:#55a868;fill-opacity:0.8;stroke:#ffffff;stroke-opacity:0.8;stroke-width:0.75;" x="245.474103" xlink:href="#m97efbb0afc" y="113.270159"/>
     <use style="fill:#55a868;fill-opacity:0.8;stroke:#ffffff;stroke-opacity:0.8;stroke-width:0.75;" x="344.756802" xlink:href="#m97efbb0afc" y="134.778694"/>
     <use style="fill:#55a868;fill-opacity:0.8;stroke:#ffffff;stroke-opacity:0.8;stroke-width:0.75;" x="444.039502" xlink:href="#m97efbb0afc" y="161.066904"/>
     <use style="fill:#55a868;fill-opacity:0.8;stroke:#ffffff;stroke-opacity:0.8;stroke-width:0.75;" x="543.322202" xlink:href="#m97efbb0afc" y="192.134788"/>
    </g>
   </g>
   <g id="line2d_17">
    <path clip-path="url(#p323f620664)" d="M 146.191403 76.314499 
L 245.474103 77.311405 
L 344.756802 78.593141 
L 444.039502 80.159707 
L 543.322202 82.011104 
" style="fill:none;stroke:#4c72b0;stroke-dasharray:2.25,0;stroke-dashoffset:0;stroke-opacity:0.8;stroke-width:2.25;"/>
    <defs>
     <path d="M -2.25 4.5 
L 0 2.25 
L 2.25 4.5 
L 4.5 2.25 
L 2.25 0 
L 4.5 -2.25 
L 2.25 -4.5 
L 0 -2.25 
L -2.25 -4.5 
L -4.5 -2.25 
L -2.25 0 
L -4.5 2.25 
z
" id="m630ae89296" style="stroke:#ffffff;stroke-linejoin:miter;stroke-opacity:0.8;stroke-width:0.75;"/>
    </defs>
    <g clip-path="url(#p323f620664)">
     <use style="fill:#4c72b0;fill-opacity:0.8;stroke:#ffffff;stroke-linejoin:miter;stroke-opacity:0.8;stroke-width:0.75;" x="146.191403" xlink:href="#m630ae89296" y="76.314499"/>
     <use style="fill:#4c72b0;fill-opacity:0.8;stroke:#ffffff;stroke-linejoin:miter;stroke-opacity:0.8;stroke-width:0.75;" x="245.474103" xlink:href="#m630ae89296" y="77.311405"/>
     <use style="fill:#4c72b0;fill-opacity:0.8;stroke:#ffffff;stroke-linejoin:miter;stroke-opacity:0.8;stroke-width:0.75;" x="344.756802" xlink:href="#m630ae89296" y="78.593141"/>
     <use style="fill:#4c72b0;fill-opacity:0.8;stroke:#ffffff;stroke-linejoin:miter;stroke-opacity:0.8;stroke-width:0.75;" x="444.039502" xlink:href="#m630ae89296" y="80.159707"/>
     <use style="fill:#4c72b0;fill-opacity:0.8;stroke:#ffffff;stroke-linejoin:miter;stroke-opacity:0.8;stroke-width:0.75;" x="543.322202" xlink:href="#m630ae89296" y="82.011104"/>
    </g>
   </g>
   <g id="line2d_18">
    <path clip-path="url(#p323f620664)" d="M 146.191403 77.306581 
L 245.474103 84.400634 
L 344.756802 102.799218 
L 444.039502 138.676164 
L 543.322202 155.030714 
" style="fill:none;stroke:#c44e52;stroke-dasharray:2.25,0;stroke-dashoffset:0;stroke-opacity:0.8;stroke-width:2.25;"/>
    <defs>
     <path d="M -3.181981 -3.181981 
L -3.181981 3.181981 
L 3.181981 3.181981 
L 3.181981 -3.181981 
z
" id="me59a24f05d" style="stroke:#ffffff;stroke-linejoin:miter;stroke-opacity:0.8;stroke-width:0.75;"/>
    </defs>
    <g clip-path="url(#p323f620664)">
     <use style="fill:#c44e52;fill-opacity:0.8;stroke:#ffffff;stroke-linejoin:miter;stroke-opacity:0.8;stroke-width:0.75;" x="146.191403" xlink:href="#me59a24f05d" y="77.306581"/>
     <use style="fill:#c44e52;fill-opacity:0.8;stroke:#ffffff;stroke-linejoin:miter;stroke-opacity:0.8;stroke-width:0.75;" x="245.474103" xlink:href="#me59a24f05d" y="84.400634"/>
     <use style="fill:#c44e52;fill-opacity:0.8;stroke:#ffffff;stroke-linejoin:miter;stroke-opacity:0.8;stroke-width:0.75;" x="344.756802" xlink:href="#me59a24f05d" y="102.799218"/>
     <use style="fill:#c44e52;fill-opacity:0.8;stroke:#ffffff;stroke-linejoin:miter;stroke-opacity:0.8;stroke-width:0.75;" x="444.039502" xlink:href="#me59a24f05d" y="138.676164"/>
     <use style="fill:#c44e52;fill-opacity:0.8;stroke:#ffffff;stroke-linejoin:miter;stroke-opacity:0.8;stroke-width:0.75;" x="543.322202" xlink:href="#me59a24f05d" y="155.030714"/>
    </g>
   </g>
   <g id="line2d_19">
    <path clip-path="url(#p323f620664)" d="M 146.191403 75.220012 
L 245.474103 74.094234 
L 344.756802 68.387092 
L 444.039502 54.365739 
L 543.322202 39.198326 
" style="fill:none;stroke:#c44e52;stroke-dasharray:2.25,2.25;stroke-dashoffset:0;stroke-opacity:0.8;stroke-width:2.25;"/>
    <defs>
     <path d="M -1.5 4.5 
L 1.5 4.5 
L 1.5 1.5 
L 4.5 1.5 
L 4.5 -1.5 
L 1.5 -1.5 
L 1.5 -4.5 
L -1.5 -4.5 
L -1.5 -1.5 
L -4.5 -1.5 
L -4.5 1.5 
L -1.5 1.5 
z
" id="m8330ef6c1f" style="stroke:#ffffff;stroke-linejoin:miter;stroke-opacity:0.8;stroke-width:0.75;"/>
    </defs>
    <g clip-path="url(#p323f620664)">
     <use style="fill:#c44e52;fill-opacity:0.8;stroke:#ffffff;stroke-linejoin:miter;stroke-opacity:0.8;stroke-width:0.75;" x="146.191403" xlink:href="#m8330ef6c1f" y="75.220012"/>
     <use style="fill:#c44e52;fill-opacity:0.8;stroke:#ffffff;stroke-linejoin:miter;stroke-opacity:0.8;stroke-width:0.75;" x="245.474103" xlink:href="#m8330ef6c1f" y="74.094234"/>
     <use style="fill:#c44e52;fill-opacity:0.8;stroke:#ffffff;stroke-linejoin:miter;stroke-opacity:0.8;stroke-width:0.75;" x="344.756802" xlink:href="#m8330ef6c1f" y="68.387092"/>
     <use style="fill:#c44e52;fill-opacity:0.8;stroke:#ffffff;stroke-linejoin:miter;stroke-opacity:0.8;stroke-width:0.75;" x="444.039502" xlink:href="#m8330ef6c1f" y="54.365739"/>
     <use style="fill:#c44e52;fill-opacity:0.8;stroke:#ffffff;stroke-linejoin:miter;stroke-opacity:0.8;stroke-width:0.75;" x="543.322202" xlink:href="#m8330ef6c1f" y="39.198326"/>
    </g>
   </g>
   <g id="line2d_20"/>
   <g id="line2d_21"/>
   <g id="line2d_22"/>
   <g id="line2d_23"/>
   <g id="patch_3">
    <path d="M 126.334863 323.643876 
L 126.334863 25.6533 
" style="fill:none;stroke:#262626;stroke-linecap:square;stroke-linejoin:miter;stroke-width:1.875;"/>
   </g>
   <g id="patch_4">
    <path d="M 126.334863 323.643876 
L 563.178742 323.643876 
" style="fill:none;stroke:#262626;stroke-linecap:square;stroke-linejoin:miter;stroke-width:1.875;"/>
   </g>
   <g id="text_17">
    <!-- Contact Angle = 24° -->
    <defs>
     <path d="M 58.796875 25.09375 
L 68.265625 22.703125 
Q 65.28125 11.03125 57.546875 4.90625 
Q 49.8125 -1.21875 38.625 -1.21875 
Q 27.046875 -1.21875 19.796875 3.484375 
Q 12.546875 8.203125 8.765625 17.140625 
Q 4.984375 26.078125 4.984375 36.328125 
Q 4.984375 47.515625 9.25 55.828125 
Q 13.53125 64.15625 21.40625 68.46875 
Q 29.296875 72.796875 38.765625 72.796875 
Q 49.515625 72.796875 56.828125 67.328125 
Q 64.15625 61.859375 67.046875 51.953125 
L 57.71875 49.75 
Q 55.21875 57.5625 50.484375 61.125 
Q 45.75 64.703125 38.578125 64.703125 
Q 30.328125 64.703125 24.78125 60.734375 
Q 19.234375 56.78125 16.984375 50.109375 
Q 14.75 43.453125 14.75 36.375 
Q 14.75 27.25 17.40625 20.4375 
Q 20.0625 13.625 25.671875 10.25 
Q 31.296875 6.890625 37.84375 6.890625 
Q 45.796875 6.890625 51.3125 11.46875 
Q 56.84375 16.0625 58.796875 25.09375 
z
" id="ArialMT-67"/>
     <path d="M 6.59375 0 
L 6.59375 51.859375 
L 14.5 51.859375 
L 14.5 44.484375 
Q 20.21875 53.03125 31 53.03125 
Q 35.6875 53.03125 39.625 51.34375 
Q 43.5625 49.65625 45.515625 46.921875 
Q 47.46875 44.1875 48.25 40.4375 
Q 48.734375 37.984375 48.734375 31.890625 
L 48.734375 0 
L 39.9375 0 
L 39.9375 31.546875 
Q 39.9375 36.921875 38.90625 39.578125 
Q 37.890625 42.234375 35.28125 43.8125 
Q 32.671875 45.40625 29.15625 45.40625 
Q 23.53125 45.40625 19.453125 41.84375 
Q 15.375 38.28125 15.375 28.328125 
L 15.375 0 
z
" id="ArialMT-110"/>
     <path d="M 25.78125 7.859375 
L 27.046875 0.09375 
Q 23.34375 -0.6875 20.40625 -0.6875 
Q 15.625 -0.6875 12.984375 0.828125 
Q 10.359375 2.34375 9.28125 4.8125 
Q 8.203125 7.28125 8.203125 15.1875 
L 8.203125 45.015625 
L 1.765625 45.015625 
L 1.765625 51.859375 
L 8.203125 51.859375 
L 8.203125 64.703125 
L 16.9375 69.96875 
L 16.9375 51.859375 
L 25.78125 51.859375 
L 25.78125 45.015625 
L 16.9375 45.015625 
L 16.9375 14.703125 
Q 16.9375 10.9375 17.40625 9.859375 
Q 17.875 8.796875 18.921875 8.15625 
Q 19.96875 7.515625 21.921875 7.515625 
Q 23.390625 7.515625 25.78125 7.859375 
z
" id="ArialMT-116"/>
     <path d="M 40.4375 6.390625 
Q 35.546875 2.25 31.03125 0.53125 
Q 26.515625 -1.171875 21.34375 -1.171875 
Q 12.796875 -1.171875 8.203125 3 
Q 3.609375 7.171875 3.609375 13.671875 
Q 3.609375 17.484375 5.34375 20.625 
Q 7.078125 23.78125 9.890625 25.6875 
Q 12.703125 27.59375 16.21875 28.5625 
Q 18.796875 29.25 24.03125 29.890625 
Q 34.671875 31.15625 39.703125 32.90625 
Q 39.75 34.71875 39.75 35.203125 
Q 39.75 40.578125 37.25 42.78125 
Q 33.890625 45.75 27.25 45.75 
Q 21.046875 45.75 18.09375 43.578125 
Q 15.140625 41.40625 13.71875 35.890625 
L 5.125 37.0625 
Q 6.296875 42.578125 8.984375 45.96875 
Q 11.671875 49.359375 16.75 51.1875 
Q 21.828125 53.03125 28.515625 53.03125 
Q 35.15625 53.03125 39.296875 51.46875 
Q 43.453125 49.90625 45.40625 47.53125 
Q 47.359375 45.171875 48.140625 41.546875 
Q 48.578125 39.3125 48.578125 33.453125 
L 48.578125 21.734375 
Q 48.578125 9.46875 49.140625 6.21875 
Q 49.703125 2.984375 51.375 0 
L 42.1875 0 
Q 40.828125 2.734375 40.4375 6.390625 
z
M 39.703125 26.03125 
Q 34.90625 24.078125 25.34375 22.703125 
Q 19.921875 21.921875 17.671875 20.9375 
Q 15.4375 19.96875 14.203125 18.09375 
Q 12.984375 16.21875 12.984375 13.921875 
Q 12.984375 10.40625 15.640625 8.0625 
Q 18.3125 5.71875 23.4375 5.71875 
Q 28.515625 5.71875 32.46875 7.9375 
Q 36.421875 10.15625 38.28125 14.015625 
Q 39.703125 17 39.703125 22.796875 
z
" id="ArialMT-97"/>
     <path d="M -0.140625 0 
L 27.34375 71.578125 
L 37.546875 71.578125 
L 66.84375 0 
L 56.0625 0 
L 47.703125 21.6875 
L 17.78125 21.6875 
L 9.90625 0 
z
M 20.515625 29.390625 
L 44.78125 29.390625 
L 37.3125 49.21875 
Q 33.890625 58.25 32.234375 64.0625 
Q 30.859375 57.171875 28.375 50.390625 
z
" id="ArialMT-65"/>
     <path d="M 4.984375 -4.296875 
L 13.53125 -5.5625 
Q 14.0625 -9.515625 16.5 -11.328125 
Q 19.78125 -13.765625 25.4375 -13.765625 
Q 31.546875 -13.765625 34.859375 -11.328125 
Q 38.1875 -8.890625 39.359375 -4.5 
Q 40.046875 -1.8125 39.984375 6.78125 
Q 34.234375 0 25.640625 0 
Q 14.9375 0 9.078125 7.71875 
Q 3.21875 15.4375 3.21875 26.21875 
Q 3.21875 33.640625 5.90625 39.90625 
Q 8.59375 46.1875 13.6875 49.609375 
Q 18.796875 53.03125 25.6875 53.03125 
Q 34.859375 53.03125 40.828125 45.609375 
L 40.828125 51.859375 
L 48.921875 51.859375 
L 48.921875 7.03125 
Q 48.921875 -5.078125 46.453125 -10.125 
Q 44 -15.1875 38.640625 -18.109375 
Q 33.296875 -21.046875 25.484375 -21.046875 
Q 16.21875 -21.046875 10.5 -16.875 
Q 4.78125 -12.703125 4.984375 -4.296875 
z
M 12.25 26.859375 
Q 12.25 16.65625 16.296875 11.96875 
Q 20.359375 7.28125 26.46875 7.28125 
Q 32.515625 7.28125 36.609375 11.9375 
Q 40.71875 16.609375 40.71875 26.5625 
Q 40.71875 36.078125 36.5 40.90625 
Q 32.28125 45.75 26.3125 45.75 
Q 20.453125 45.75 16.34375 40.984375 
Q 12.25 36.234375 12.25 26.859375 
z
" id="ArialMT-103"/>
     <path d="M 6.390625 0 
L 6.390625 71.578125 
L 15.1875 71.578125 
L 15.1875 0 
z
" id="ArialMT-108"/>
     <path d="M 52.828125 42.09375 
L 5.5625 42.09375 
L 5.5625 50.296875 
L 52.828125 50.296875 
z
M 52.828125 20.359375 
L 5.5625 20.359375 
L 5.5625 28.5625 
L 52.828125 28.5625 
z
" id="ArialMT-61"/>
     <path d="M 6.25 59.28125 
Q 6.25 64.890625 10.21875 68.84375 
Q 14.203125 72.796875 19.78125 72.796875 
Q 25.4375 72.796875 29.390625 68.84375 
Q 33.34375 64.890625 33.34375 59.28125 
Q 33.34375 53.65625 29.359375 49.671875 
Q 25.390625 45.703125 19.78125 45.703125 
Q 14.203125 45.703125 10.21875 49.65625 
Q 6.25 53.609375 6.25 59.28125 
z
M 11.578125 59.28125 
Q 11.578125 55.859375 13.984375 53.4375 
Q 16.40625 51.03125 19.828125 51.03125 
Q 23.1875 51.03125 25.609375 53.4375 
Q 28.03125 55.859375 28.03125 59.28125 
Q 28.03125 62.703125 25.609375 65.109375 
Q 23.1875 67.53125 19.828125 67.53125 
Q 16.40625 67.53125 13.984375 65.109375 
Q 11.578125 62.703125 11.578125 59.28125 
z
" id="ArialMT-176"/>
    </defs>
    <g style="fill:#262626;" transform="translate(270.918181 19.6533)scale(0.18 -0.18)">
     <use xlink:href="#ArialMT-67"/>
     <use x="72.216797" xlink:href="#ArialMT-111"/>
     <use x="127.832031" xlink:href="#ArialMT-110"/>
     <use x="183.447266" xlink:href="#ArialMT-116"/>
     <use x="211.230469" xlink:href="#ArialMT-97"/>
     <use x="266.845703" xlink:href="#ArialMT-99"/>
     <use x="316.845703" xlink:href="#ArialMT-116"/>
     <use x="344.628906" xlink:href="#ArialMT-32"/>
     <use x="372.333984" xlink:href="#ArialMT-65"/>
     <use x="439.033203" xlink:href="#ArialMT-110"/>
     <use x="494.648438" xlink:href="#ArialMT-103"/>
     <use x="550.263672" xlink:href="#ArialMT-108"/>
     <use x="572.480469" xlink:href="#ArialMT-101"/>
     <use x="628.095703" xlink:href="#ArialMT-32"/>
     <use x="655.878906" xlink:href="#ArialMT-61"/>
     <use x="714.277344" xlink:href="#ArialMT-32"/>
     <use x="742.060547" xlink:href="#ArialMT-50"/>
     <use x="797.675781" xlink:href="#ArialMT-52"/>
     <use x="853.291016" xlink:href="#ArialMT-176"/>
    </g>
   </g>
  </g>
  <g id="axes_2">
   <g id="patch_5">
    <path d="M 600.610619 323.643876 
L 1037.454498 323.643876 
L 1037.454498 25.6533 
L 600.610619 25.6533 
z
" style="fill:none;"/>
   </g>
   <g id="line2d_24">
    <path clip-path="url(#pb4ee3cb866)" d="M 600.610619 75.032763 
L 1037.454498 75.032763 
" style="fill:none;stroke:#b2b2b2;stroke-dasharray:4.5,2.25;stroke-dashoffset:0;stroke-width:2.25;"/>
   </g>
   <g id="matplotlib.axis_3">
    <g id="xtick_6">
     <g id="line2d_25">
      <g>
       <use style="fill:#262626;stroke:#262626;stroke-width:1.875;" x="620.467159" xlink:href="#m78a81bc190" y="323.643876"/>
      </g>
     </g>
     <g id="text_18">
      <!-- 30 -->
      <g style="fill:#262626;" transform="translate(612.419305 347.559381)scale(0.165 -0.165)">
       <use xlink:href="#ArialMT-51"/>
       <use x="55.615234" xlink:href="#ArialMT-48"/>
      </g>
     </g>
    </g>
    <g id="xtick_7">
     <g id="line2d_26">
      <g>
       <use style="fill:#262626;stroke:#262626;stroke-width:1.875;" x="719.749859" xlink:href="#m78a81bc190" y="323.643876"/>
      </g>
     </g>
     <g id="text_19">
      <!-- 40 -->
      <g style="fill:#262626;" transform="translate(711.702005 347.559381)scale(0.165 -0.165)">
       <use xlink:href="#ArialMT-52"/>
       <use x="55.615234" xlink:href="#ArialMT-48"/>
      </g>
     </g>
    </g>
    <g id="xtick_8">
     <g id="line2d_27">
      <g>
       <use style="fill:#262626;stroke:#262626;stroke-width:1.875;" x="819.032559" xlink:href="#m78a81bc190" y="323.643876"/>
      </g>
     </g>
     <g id="text_20">
      <!-- 50 -->
      <g style="fill:#262626;" transform="translate(810.984705 347.559381)scale(0.165 -0.165)">
       <use xlink:href="#ArialMT-53"/>
       <use x="55.615234" xlink:href="#ArialMT-48"/>
      </g>
     </g>
    </g>
    <g id="xtick_9">
     <g id="line2d_28">
      <g>
       <use style="fill:#262626;stroke:#262626;stroke-width:1.875;" x="918.315258" xlink:href="#m78a81bc190" y="323.643876"/>
      </g>
     </g>
     <g id="text_21">
      <!-- 60 -->
      <g style="fill:#262626;" transform="translate(910.267404 347.559381)scale(0.165 -0.165)">
       <use xlink:href="#ArialMT-54"/>
       <use x="55.615234" xlink:href="#ArialMT-48"/>
      </g>
     </g>
    </g>
    <g id="xtick_10">
     <g id="line2d_29">
      <g>
       <use style="fill:#262626;stroke:#262626;stroke-width:1.875;" x="1017.597958" xlink:href="#m78a81bc190" y="323.643876"/>
      </g>
     </g>
     <g id="text_22">
      <!-- 70 -->
      <g style="fill:#262626;" transform="translate(1009.550104 347.559381)scale(0.165 -0.165)">
       <use xlink:href="#ArialMT-55"/>
       <use x="55.615234" xlink:href="#ArialMT-48"/>
      </g>
     </g>
    </g>
    <g id="text_23">
     <!-- $D_p/D_h$ -->
     <g style="fill:#262626;" transform="translate(794.220118 369.968177)scale(0.18 -0.18)">
      <use transform="translate(0 0.09375)" xlink:href="#DejaVuSans-Oblique-68"/>
      <use transform="translate(77.001953 -16.3125)scale(0.7)" xlink:href="#DejaVuSans-Oblique-112"/>
      <use transform="translate(124.169922 0.09375)" xlink:href="#DejaVuSans-47"/>
      <use transform="translate(157.861328 0.09375)" xlink:href="#DejaVuSans-Oblique-68"/>
      <use transform="translate(234.863281 -16.3125)scale(0.7)" xlink:href="#DejaVuSans-Oblique-104"/>
     </g>
    </g>
   </g>
   <g id="matplotlib.axis_4">
    <g id="ytick_10">
     <g id="line2d_30">
      <g>
       <use style="fill:#262626;stroke:#262626;stroke-width:1.875;" x="600.610619" xlink:href="#mbe2a70db17" y="323.798024"/>
      </g>
     </g>
    </g>
    <g id="ytick_11">
     <g id="line2d_31">
      <g>
       <use style="fill:#262626;stroke:#262626;stroke-width:1.875;" x="600.610619" xlink:href="#mbe2a70db17" y="288.26013"/>
      </g>
     </g>
    </g>
    <g id="ytick_12">
     <g id="line2d_32">
      <g>
       <use style="fill:#262626;stroke:#262626;stroke-width:1.875;" x="600.610619" xlink:href="#mbe2a70db17" y="252.722236"/>
      </g>
     </g>
    </g>
    <g id="ytick_13">
     <g id="line2d_33">
      <g>
       <use style="fill:#262626;stroke:#262626;stroke-width:1.875;" x="600.610619" xlink:href="#mbe2a70db17" y="217.184341"/>
      </g>
     </g>
    </g>
    <g id="ytick_14">
     <g id="line2d_34">
      <g>
       <use style="fill:#262626;stroke:#262626;stroke-width:1.875;" x="600.610619" xlink:href="#mbe2a70db17" y="181.646447"/>
      </g>
     </g>
    </g>
    <g id="ytick_15">
     <g id="line2d_35">
      <g>
       <use style="fill:#262626;stroke:#262626;stroke-width:1.875;" x="600.610619" xlink:href="#mbe2a70db17" y="146.108552"/>
      </g>
     </g>
    </g>
    <g id="ytick_16">
     <g id="line2d_36">
      <g>
       <use style="fill:#262626;stroke:#262626;stroke-width:1.875;" x="600.610619" xlink:href="#mbe2a70db17" y="110.570658"/>
      </g>
     </g>
    </g>
    <g id="ytick_17">
     <g id="line2d_37">
      <g>
       <use style="fill:#262626;stroke:#262626;stroke-width:1.875;" x="600.610619" xlink:href="#mbe2a70db17" y="75.032763"/>
      </g>
     </g>
    </g>
    <g id="ytick_18">
     <g id="line2d_38">
      <g>
       <use style="fill:#262626;stroke:#262626;stroke-width:1.875;" x="600.610619" xlink:href="#mbe2a70db17" y="39.494869"/>
      </g>
     </g>
    </g>
   </g>
   <g id="line2d_39">
    <path clip-path="url(#pb4ee3cb866)" d="M 620.467159 91.530446 
L 719.749859 104.361977 
L 819.032559 120.85966 
L 918.315258 141.023495 
L 1017.597958 164.853482 
" style="fill:none;stroke:#55a868;stroke-dasharray:2.25,0;stroke-dashoffset:0;stroke-opacity:0.8;stroke-width:2.25;"/>
    <g clip-path="url(#pb4ee3cb866)">
     <use style="fill:#55a868;fill-opacity:0.8;stroke:#ffffff;stroke-opacity:0.8;stroke-width:0.75;" x="620.467159" xlink:href="#m97efbb0afc" y="91.530446"/>
     <use style="fill:#55a868;fill-opacity:0.8;stroke:#ffffff;stroke-opacity:0.8;stroke-width:0.75;" x="719.749859" xlink:href="#m97efbb0afc" y="104.361977"/>
     <use style="fill:#55a868;fill-opacity:0.8;stroke:#ffffff;stroke-opacity:0.8;stroke-width:0.75;" x="819.032559" xlink:href="#m97efbb0afc" y="120.85966"/>
     <use style="fill:#55a868;fill-opacity:0.8;stroke:#ffffff;stroke-opacity:0.8;stroke-width:0.75;" x="918.315258" xlink:href="#m97efbb0afc" y="141.023495"/>
     <use style="fill:#55a868;fill-opacity:0.8;stroke:#ffffff;stroke-opacity:0.8;stroke-width:0.75;" x="1017.597958" xlink:href="#m97efbb0afc" y="164.853482"/>
    </g>
   </g>
   <g id="line2d_40">
    <path clip-path="url(#pb4ee3cb866)" d="M 620.467159 118.208167 
L 719.749859 151.789036 
L 819.032559 194.96444 
L 918.315258 247.734378 
L 1017.597958 310.09885 
" style="fill:none;stroke:#4c72b0;stroke-dasharray:2.25,0;stroke-dashoffset:0;stroke-opacity:0.8;stroke-width:2.25;"/>
    <g clip-path="url(#pb4ee3cb866)">
     <use style="fill:#4c72b0;fill-opacity:0.8;stroke:#ffffff;stroke-linejoin:miter;stroke-opacity:0.8;stroke-width:0.75;" x="620.467159" xlink:href="#m630ae89296" y="118.208167"/>
     <use style="fill:#4c72b0;fill-opacity:0.8;stroke:#ffffff;stroke-linejoin:miter;stroke-opacity:0.8;stroke-width:0.75;" x="719.749859" xlink:href="#m630ae89296" y="151.789036"/>
     <use style="fill:#4c72b0;fill-opacity:0.8;stroke:#ffffff;stroke-linejoin:miter;stroke-opacity:0.8;stroke-width:0.75;" x="819.032559" xlink:href="#m630ae89296" y="194.96444"/>
     <use style="fill:#4c72b0;fill-opacity:0.8;stroke:#ffffff;stroke-linejoin:miter;stroke-opacity:0.8;stroke-width:0.75;" x="918.315258" xlink:href="#m630ae89296" y="247.734378"/>
     <use style="fill:#4c72b0;fill-opacity:0.8;stroke:#ffffff;stroke-linejoin:miter;stroke-opacity:0.8;stroke-width:0.75;" x="1017.597958" xlink:href="#m630ae89296" y="310.09885"/>
    </g>
   </g>
   <g id="line2d_41">
    <path clip-path="url(#pb4ee3cb866)" d="M 620.467159 106.387861 
L 719.749859 120.081331 
L 819.032559 130.789609 
L 918.315258 146.182309 
L 1017.597958 160.633228 
" style="fill:none;stroke:#c44e52;stroke-dasharray:2.25,0;stroke-dashoffset:0;stroke-opacity:0.8;stroke-width:2.25;"/>
    <g clip-path="url(#pb4ee3cb866)">
     <use style="fill:#c44e52;fill-opacity:0.8;stroke:#ffffff;stroke-linejoin:miter;stroke-opacity:0.8;stroke-width:0.75;" x="620.467159" xlink:href="#me59a24f05d" y="106.387861"/>
     <use style="fill:#c44e52;fill-opacity:0.8;stroke:#ffffff;stroke-linejoin:miter;stroke-opacity:0.8;stroke-width:0.75;" x="719.749859" xlink:href="#me59a24f05d" y="120.081331"/>
     <use style="fill:#c44e52;fill-opacity:0.8;stroke:#ffffff;stroke-linejoin:miter;stroke-opacity:0.8;stroke-width:0.75;" x="819.032559" xlink:href="#me59a24f05d" y="130.789609"/>
     <use style="fill:#c44e52;fill-opacity:0.8;stroke:#ffffff;stroke-linejoin:miter;stroke-opacity:0.8;stroke-width:0.75;" x="918.315258" xlink:href="#me59a24f05d" y="146.182309"/>
     <use style="fill:#c44e52;fill-opacity:0.8;stroke:#ffffff;stroke-linejoin:miter;stroke-opacity:0.8;stroke-width:0.75;" x="1017.597958" xlink:href="#me59a24f05d" y="160.633228"/>
    </g>
   </g>
   <g id="line2d_42">
    <path clip-path="url(#pb4ee3cb866)" d="M 620.467159 78.710631 
L 719.749859 82.435869 
L 819.032559 85.167702 
L 918.315258 81.407105 
L 1017.597958 72.109282 
" style="fill:none;stroke:#c44e52;stroke-dasharray:2.25,2.25;stroke-dashoffset:0;stroke-opacity:0.8;stroke-width:2.25;"/>
    <g clip-path="url(#pb4ee3cb866)">
     <use style="fill:#c44e52;fill-opacity:0.8;stroke:#ffffff;stroke-linejoin:miter;stroke-opacity:0.8;stroke-width:0.75;" x="620.467159" xlink:href="#m8330ef6c1f" y="78.710631"/>
     <use style="fill:#c44e52;fill-opacity:0.8;stroke:#ffffff;stroke-linejoin:miter;stroke-opacity:0.8;stroke-width:0.75;" x="719.749859" xlink:href="#m8330ef6c1f" y="82.435869"/>
     <use style="fill:#c44e52;fill-opacity:0.8;stroke:#ffffff;stroke-linejoin:miter;stroke-opacity:0.8;stroke-width:0.75;" x="819.032559" xlink:href="#m8330ef6c1f" y="85.167702"/>
     <use style="fill:#c44e52;fill-opacity:0.8;stroke:#ffffff;stroke-linejoin:miter;stroke-opacity:0.8;stroke-width:0.75;" x="918.315258" xlink:href="#m8330ef6c1f" y="81.407105"/>
     <use style="fill:#c44e52;fill-opacity:0.8;stroke:#ffffff;stroke-linejoin:miter;stroke-opacity:0.8;stroke-width:0.75;" x="1017.597958" xlink:href="#m8330ef6c1f" y="72.109282"/>
    </g>
   </g>
   <g id="patch_6">
    <path d="M 600.610619 323.643876 
L 600.610619 25.6533 
" style="fill:none;stroke:#262626;stroke-linecap:square;stroke-linejoin:miter;stroke-width:1.875;"/>
   </g>
   <g id="patch_7">
    <path d="M 600.610619 323.643876 
L 1037.454498 323.643876 
" style="fill:none;stroke:#262626;stroke-linecap:square;stroke-linejoin:miter;stroke-width:1.875;"/>
   </g>
   <g id="text_24">
    <!-- Contact Angle = 120° -->
    <g style="fill:#262626;" transform="translate(740.978011 19.6533)scale(0.18 -0.18)">
     <use xlink:href="#ArialMT-67"/>
     <use x="72.216797" xlink:href="#ArialMT-111"/>
     <use x="127.832031" xlink:href="#ArialMT-110"/>
     <use x="183.447266" xlink:href="#ArialMT-116"/>
     <use x="211.230469" xlink:href="#ArialMT-97"/>
     <use x="266.845703" xlink:href="#ArialMT-99"/>
     <use x="316.845703" xlink:href="#ArialMT-116"/>
     <use x="344.628906" xlink:href="#ArialMT-32"/>
     <use x="372.333984" xlink:href="#ArialMT-65"/>
     <use x="439.033203" xlink:href="#ArialMT-110"/>
     <use x="494.648438" xlink:href="#ArialMT-103"/>
     <use x="550.263672" xlink:href="#ArialMT-108"/>
     <use x="572.480469" xlink:href="#ArialMT-101"/>
     <use x="628.095703" xlink:href="#ArialMT-32"/>
     <use x="655.878906" xlink:href="#ArialMT-61"/>
     <use x="714.277344" xlink:href="#ArialMT-32"/>
     <use x="742.060547" xlink:href="#ArialMT-49"/>
     <use x="797.675781" xlink:href="#ArialMT-50"/>
     <use x="853.291016" xlink:href="#ArialMT-48"/>
     <use x="908.90625" xlink:href="#ArialMT-176"/>
    </g>
   </g>
   <g id="legend_1">
    <g id="patch_8">
     <path d="M 341.435241 462.20766 
L 724.164759 462.20766 
Q 727.464759 462.20766 727.464759 458.90766 
L 727.464759 414.565007 
Q 727.464759 411.265007 724.164759 411.265007 
L 341.435241 411.265007 
Q 338.135241 411.265007 338.135241 414.565007 
L 338.135241 458.90766 
Q 338.135241 462.20766 341.435241 462.20766 
z
" style="fill:none;opacity:0;"/>
    </g>
    <g id="line2d_43">
     <path d="M 344.735241 423.640007 
L 377.735241 423.640007 
" style="fill:none;stroke:#55a868;stroke-dasharray:2.25,0;stroke-dashoffset:0;stroke-width:2.25;"/>
    </g>
    <g id="line2d_44">
     <defs>
      <path d="M 0 4.5 
C 1.193414 4.5 2.338109 4.025852 3.181981 3.181981 
C 4.025852 2.338109 4.5 1.193414 4.5 0 
C 4.5 -1.193414 4.025852 -2.338109 3.181981 -3.181981 
C 2.338109 -4.025852 1.193414 -4.5 0 -4.5 
C -1.193414 -4.5 -2.338109 -4.025852 -3.181981 -3.181981 
C -4.025852 -2.338109 -4.5 -1.193414 -4.5 0 
C -4.5 1.193414 -4.025852 2.338109 -3.181981 3.181981 
C -2.338109 4.025852 -1.193414 4.5 0 4.5 
z
" id="m810adc296c" style="stroke:#55a868;"/>
     </defs>
     <g>
      <use style="fill:#55a868;stroke:#55a868;" x="361.235241" xlink:href="#m810adc296c" y="423.640007"/>
     </g>
    </g>
    <g id="text_25">
     <!-- Air -->
     <defs>
      <path d="M 6.640625 61.46875 
L 6.640625 71.578125 
L 15.4375 71.578125 
L 15.4375 61.46875 
z
M 6.640625 0 
L 6.640625 51.859375 
L 15.4375 51.859375 
L 15.4375 0 
z
" id="ArialMT-105"/>
     </defs>
     <g style="fill:#262626;" transform="translate(390.935241 429.415007)scale(0.165 -0.165)">
      <use xlink:href="#ArialMT-65"/>
      <use x="66.699219" xlink:href="#ArialMT-105"/>
      <use x="88.916016" xlink:href="#ArialMT-114"/>
     </g>
    </g>
    <g id="line2d_45">
     <path d="M 344.735241 446.636333 
L 377.735241 446.636333 
" style="fill:none;stroke:#4c72b0;stroke-dasharray:2.25,0;stroke-dashoffset:0;stroke-width:2.25;"/>
    </g>
    <g id="line2d_46">
     <defs>
      <path d="M -2.25 4.5 
L 0 2.25 
L 2.25 4.5 
L 4.5 2.25 
L 2.25 0 
L 4.5 -2.25 
L 2.25 -4.5 
L 0 -2.25 
L -2.25 -4.5 
L -4.5 -2.25 
L -2.25 0 
L -4.5 2.25 
z
" id="m9d54686c35" style="stroke:#4c72b0;stroke-linejoin:miter;"/>
     </defs>
     <g>
      <use style="fill:#4c72b0;stroke:#4c72b0;stroke-linejoin:miter;" x="361.235241" xlink:href="#m9d54686c35" y="446.636333"/>
     </g>
    </g>
    <g id="text_26">
     <!-- Underwater: Wet -->
     <defs>
      <path d="M 54.6875 71.578125 
L 64.15625 71.578125 
L 64.15625 30.21875 
Q 64.15625 19.4375 61.71875 13.078125 
Q 59.28125 6.734375 52.90625 2.75 
Q 46.53125 -1.21875 36.1875 -1.21875 
Q 26.125 -1.21875 19.71875 2.25 
Q 13.328125 5.71875 10.59375 12.28125 
Q 7.859375 18.84375 7.859375 30.21875 
L 7.859375 71.578125 
L 17.328125 71.578125 
L 17.328125 30.28125 
Q 17.328125 20.953125 19.0625 16.53125 
Q 20.796875 12.109375 25.015625 9.71875 
Q 29.25 7.328125 35.359375 7.328125 
Q 45.796875 7.328125 50.234375 12.0625 
Q 54.6875 16.796875 54.6875 30.28125 
z
" id="ArialMT-85"/>
      <path d="M 40.234375 0 
L 40.234375 6.546875 
Q 35.296875 -1.171875 25.734375 -1.171875 
Q 19.53125 -1.171875 14.328125 2.25 
Q 9.125 5.671875 6.265625 11.796875 
Q 3.421875 17.921875 3.421875 25.875 
Q 3.421875 33.640625 6 39.96875 
Q 8.59375 46.296875 13.765625 49.65625 
Q 18.953125 53.03125 25.34375 53.03125 
Q 30.03125 53.03125 33.6875 51.046875 
Q 37.359375 49.078125 39.65625 45.90625 
L 39.65625 71.578125 
L 48.390625 71.578125 
L 48.390625 0 
z
M 12.453125 25.875 
Q 12.453125 15.921875 16.640625 10.984375 
Q 20.84375 6.0625 26.5625 6.0625 
Q 32.328125 6.0625 36.34375 10.765625 
Q 40.375 15.484375 40.375 25.140625 
Q 40.375 35.796875 36.265625 40.765625 
Q 32.171875 45.75 26.171875 45.75 
Q 20.3125 45.75 16.375 40.96875 
Q 12.453125 36.1875 12.453125 25.875 
z
" id="ArialMT-100"/>
      <path d="M 16.15625 0 
L 0.296875 51.859375 
L 9.375 51.859375 
L 17.625 21.921875 
L 20.703125 10.796875 
Q 20.90625 11.625 23.390625 21.484375 
L 31.640625 51.859375 
L 40.671875 51.859375 
L 48.4375 21.78125 
L 51.03125 11.859375 
L 54 21.875 
L 62.890625 51.859375 
L 71.4375 51.859375 
L 55.21875 0 
L 46.09375 0 
L 37.84375 31.0625 
L 35.84375 39.890625 
L 25.34375 0 
z
" id="ArialMT-119"/>
      <path d="M 9.03125 41.84375 
L 9.03125 51.859375 
L 19.046875 51.859375 
L 19.046875 41.84375 
z
M 9.03125 0 
L 9.03125 10.015625 
L 19.046875 10.015625 
L 19.046875 0 
z
" id="ArialMT-58"/>
      <path d="M 20.21875 0 
L 1.21875 71.578125 
L 10.9375 71.578125 
L 21.828125 24.65625 
Q 23.578125 17.28125 24.859375 10.015625 
Q 27.59375 21.484375 28.078125 23.25 
L 41.703125 71.578125 
L 53.125 71.578125 
L 63.375 35.359375 
Q 67.234375 21.875 68.953125 10.015625 
Q 70.3125 16.796875 72.515625 25.59375 
L 83.734375 71.578125 
L 93.265625 71.578125 
L 73.640625 0 
L 64.5 0 
L 49.421875 54.546875 
Q 47.515625 61.375 47.171875 62.9375 
Q 46.046875 58.015625 45.0625 54.546875 
L 29.890625 0 
z
" id="ArialMT-87"/>
     </defs>
     <g style="fill:#262626;" transform="translate(390.935241 452.411333)scale(0.165 -0.165)">
      <use xlink:href="#ArialMT-85"/>
      <use x="72.216797" xlink:href="#ArialMT-110"/>
      <use x="127.832031" xlink:href="#ArialMT-100"/>
      <use x="183.447266" xlink:href="#ArialMT-101"/>
      <use x="239.0625" xlink:href="#ArialMT-114"/>
      <use x="272.363281" xlink:href="#ArialMT-119"/>
      <use x="344.580078" xlink:href="#ArialMT-97"/>
      <use x="400.195312" xlink:href="#ArialMT-116"/>
      <use x="427.978516" xlink:href="#ArialMT-101"/>
      <use x="483.59375" xlink:href="#ArialMT-114"/>
      <use x="516.894531" xlink:href="#ArialMT-58"/>
      <use x="544.677734" xlink:href="#ArialMT-32"/>
      <use x="572.460938" xlink:href="#ArialMT-87"/>
      <use x="666.830078" xlink:href="#ArialMT-101"/>
      <use x="722.445312" xlink:href="#ArialMT-116"/>
     </g>
    </g>
    <g id="line2d_47">
     <path d="M 539.915613 423.640007 
L 572.915613 423.640007 
" style="fill:none;stroke:#c44e52;stroke-dasharray:2.25,0;stroke-dashoffset:0;stroke-width:2.25;"/>
    </g>
    <g id="line2d_48">
     <defs>
      <path d="M -3.181981 -3.181981 
L -3.181981 3.181981 
L 3.181981 3.181981 
L 3.181981 -3.181981 
z
" id="m24582e899e" style="stroke:#c44e52;stroke-linejoin:miter;"/>
     </defs>
     <g>
      <use style="fill:#c44e52;stroke:#c44e52;stroke-linejoin:miter;" x="556.415613" xlink:href="#m24582e899e" y="423.640007"/>
     </g>
    </g>
    <g id="text_27">
     <!-- Underwater: Bubble -->
     <defs>
      <path d="M 7.328125 0 
L 7.328125 71.578125 
L 34.1875 71.578125 
Q 42.390625 71.578125 47.34375 69.40625 
Q 52.296875 67.234375 55.09375 62.71875 
Q 57.90625 58.203125 57.90625 53.265625 
Q 57.90625 48.6875 55.421875 44.625 
Q 52.9375 40.578125 47.90625 38.09375 
Q 54.390625 36.1875 57.875 31.59375 
Q 61.375 27 61.375 20.75 
Q 61.375 15.71875 59.25 11.390625 
Q 57.125 7.078125 54 4.734375 
Q 50.875 2.390625 46.15625 1.1875 
Q 41.453125 0 34.625 0 
z
M 16.796875 41.5 
L 32.28125 41.5 
Q 38.578125 41.5 41.3125 42.328125 
Q 44.921875 43.40625 46.75 45.890625 
Q 48.578125 48.390625 48.578125 52.15625 
Q 48.578125 55.71875 46.875 58.421875 
Q 45.171875 61.140625 41.984375 62.140625 
Q 38.8125 63.140625 31.109375 63.140625 
L 16.796875 63.140625 
z
M 16.796875 8.453125 
L 34.625 8.453125 
Q 39.203125 8.453125 41.0625 8.796875 
Q 44.34375 9.375 46.53125 10.734375 
Q 48.734375 12.109375 50.140625 14.71875 
Q 51.5625 17.328125 51.5625 20.75 
Q 51.5625 24.75 49.515625 27.703125 
Q 47.46875 30.671875 43.828125 31.859375 
Q 40.1875 33.0625 33.34375 33.0625 
L 16.796875 33.0625 
z
" id="ArialMT-66"/>
      <path d="M 40.578125 0 
L 40.578125 7.625 
Q 34.515625 -1.171875 24.125 -1.171875 
Q 19.53125 -1.171875 15.546875 0.578125 
Q 11.578125 2.34375 9.640625 5 
Q 7.71875 7.671875 6.9375 11.53125 
Q 6.390625 14.109375 6.390625 19.734375 
L 6.390625 51.859375 
L 15.1875 51.859375 
L 15.1875 23.09375 
Q 15.1875 16.21875 15.71875 13.8125 
Q 16.546875 10.359375 19.234375 8.375 
Q 21.921875 6.390625 25.875 6.390625 
Q 29.828125 6.390625 33.296875 8.421875 
Q 36.765625 10.453125 38.203125 13.9375 
Q 39.65625 17.4375 39.65625 24.078125 
L 39.65625 51.859375 
L 48.4375 51.859375 
L 48.4375 0 
z
" id="ArialMT-117"/>
      <path d="M 14.703125 0 
L 6.546875 0 
L 6.546875 71.578125 
L 15.328125 71.578125 
L 15.328125 46.046875 
Q 20.90625 53.03125 29.546875 53.03125 
Q 34.328125 53.03125 38.59375 51.09375 
Q 42.875 49.171875 45.625 45.671875 
Q 48.390625 42.1875 49.953125 37.25 
Q 51.515625 32.328125 51.515625 26.703125 
Q 51.515625 13.375 44.921875 6.09375 
Q 38.328125 -1.171875 29.109375 -1.171875 
Q 19.921875 -1.171875 14.703125 6.5 
z
M 14.59375 26.3125 
Q 14.59375 17 17.140625 12.84375 
Q 21.296875 6.0625 28.375 6.0625 
Q 34.125 6.0625 38.328125 11.0625 
Q 42.53125 16.0625 42.53125 25.984375 
Q 42.53125 36.140625 38.5 40.96875 
Q 34.46875 45.796875 28.765625 45.796875 
Q 23 45.796875 18.796875 40.796875 
Q 14.59375 35.796875 14.59375 26.3125 
z
" id="ArialMT-98"/>
     </defs>
     <g style="fill:#262626;" transform="translate(586.115613 429.415007)scale(0.165 -0.165)">
      <use xlink:href="#ArialMT-85"/>
      <use x="72.216797" xlink:href="#ArialMT-110"/>
      <use x="127.832031" xlink:href="#ArialMT-100"/>
      <use x="183.447266" xlink:href="#ArialMT-101"/>
      <use x="239.0625" xlink:href="#ArialMT-114"/>
      <use x="272.363281" xlink:href="#ArialMT-119"/>
      <use x="344.580078" xlink:href="#ArialMT-97"/>
      <use x="400.195312" xlink:href="#ArialMT-116"/>
      <use x="427.978516" xlink:href="#ArialMT-101"/>
      <use x="483.59375" xlink:href="#ArialMT-114"/>
      <use x="516.894531" xlink:href="#ArialMT-58"/>
      <use x="544.677734" xlink:href="#ArialMT-32"/>
      <use x="572.460938" xlink:href="#ArialMT-66"/>
      <use x="639.160156" xlink:href="#ArialMT-117"/>
      <use x="694.775391" xlink:href="#ArialMT-98"/>
      <use x="750.390625" xlink:href="#ArialMT-98"/>
      <use x="806.005859" xlink:href="#ArialMT-108"/>
      <use x="828.222656" xlink:href="#ArialMT-101"/>
     </g>
    </g>
    <g id="line2d_49">
     <path d="M 539.915613 446.636333 
L 572.915613 446.636333 
" style="fill:none;stroke:#c44e52;stroke-dasharray:2.25,2.25;stroke-dashoffset:0;stroke-width:2.25;"/>
    </g>
    <g id="line2d_50">
     <defs>
      <path d="M -1.5 4.5 
L 1.5 4.5 
L 1.5 1.5 
L 4.5 1.5 
L 4.5 -1.5 
L 1.5 -1.5 
L 1.5 -4.5 
L -1.5 -4.5 
L -1.5 -1.5 
L -4.5 -1.5 
L -4.5 1.5 
L -1.5 1.5 
z
" id="mb52e54f516" style="stroke:#c44e52;stroke-linejoin:miter;"/>
     </defs>
     <g>
      <use style="fill:#c44e52;stroke:#c44e52;stroke-linejoin:miter;" x="556.415613" xlink:href="#mb52e54f516" y="446.636333"/>
     </g>
    </g>
    <g id="text_28">
     <!-- Bubble only -->
     <defs>
      <path d="M 6.203125 -19.96875 
L 5.21875 -11.71875 
Q 8.109375 -12.5 10.25 -12.5 
Q 13.1875 -12.5 14.9375 -11.515625 
Q 16.703125 -10.546875 17.828125 -8.796875 
Q 18.65625 -7.46875 20.515625 -2.25 
Q 20.75 -1.515625 21.296875 -0.09375 
L 1.609375 51.859375 
L 11.078125 51.859375 
L 21.875 21.828125 
Q 23.96875 16.109375 25.640625 9.8125 
Q 27.15625 15.875 29.25 21.625 
L 40.328125 51.859375 
L 49.125 51.859375 
L 29.390625 -0.875 
Q 26.21875 -9.421875 24.46875 -12.640625 
Q 22.125 -17 19.09375 -19.015625 
Q 16.0625 -21.046875 11.859375 -21.046875 
Q 9.328125 -21.046875 6.203125 -19.96875 
z
" id="ArialMT-121"/>
     </defs>
     <g style="fill:#262626;" transform="translate(586.115613 452.411333)scale(0.165 -0.165)">
      <use xlink:href="#ArialMT-66"/>
      <use x="66.699219" xlink:href="#ArialMT-117"/>
      <use x="122.314453" xlink:href="#ArialMT-98"/>
      <use x="177.929688" xlink:href="#ArialMT-98"/>
      <use x="233.544922" xlink:href="#ArialMT-108"/>
      <use x="255.761719" xlink:href="#ArialMT-101"/>
      <use x="311.376953" xlink:href="#ArialMT-32"/>
      <use x="339.160156" xlink:href="#ArialMT-111"/>
      <use x="394.775391" xlink:href="#ArialMT-110"/>
      <use x="450.390625" xlink:href="#ArialMT-108"/>
      <use x="472.607422" xlink:href="#ArialMT-121"/>
     </g>
    </g>
   </g>
  </g>
  <g id="patch_9">
   <path d="M 7.2 461.45766 
L 94.834967 461.45766 
L 94.834967 430.470083 
L 7.2 430.470083 
z
" style="fill:#ffffff;stroke:#1a1a1a;stroke-linejoin:miter;stroke-width:1.5;"/>
  </g>
  <g id="text_29">
   <!-- \begin{eqnarray*}\phi_b&amp;=&amp;1.5\end{eqnarray*} -->
   <defs>
    <path d="M 27.90625 -0.46875 
C 40.203125 1.234375 49 12.46875 49 26.59375 
C 49 40.328125 40.59375 50.25 27.90625 51.15625 
L 27.90625 59.171875 
C 27.90625 62.890625 28 64.796875 28.203125 67.09375 
L 23.5 69 
C 23.703125 66.59375 23.796875 64.09375 23.796875 60.078125 
L 23.796875 51.15625 
C 11.796875 49.75 2.703125 38.328125 2.703125 24.5 
C 2.703125 10.5625 11.296875 0.34375 23.796875 -0.65625 
L 23.796875 -10.78125 
C 23.796875 -15.296875 23.703125 -18.109375 23.5 -20.90625 
L 28.203125 -22.015625 
C 28 -18.703125 28 -18.40625 27.90625 -14 
L 27.90625 -11.28125 
z
M 23.796875 3.546875 
C 21 4.65625 19 6.25 17.5 8.5625 
C 14.296875 13.46875 12.40625 21.09375 12.40625 29 
C 12.40625 40.328125 16.703125 47.34375 23.796875 47.65625 
z
M 27.90625 46.953125 
C 35 44.34375 39.296875 34.828125 39.296875 22.09375 
C 39.296875 10.265625 35.203125 3.453125 27.90625 3.046875 
z
" id="Standard_Symbols_L-102"/>
    <path d="M 11 64.1875 
C 16.90625 64 17.5 63.6875 17.5 61.5 
C 17.5 60.59375 17.203125 59.390625 16.59375 57.1875 
C 16.40625 56.5 16.203125 55.796875 16.09375 55.296875 
L 15.90625 54.59375 
L 2.296875 4.671875 
L 2.296875 4.28125 
C 2.296875 1.984375 10 -1 15.59375 -1 
C 30.703125 -1 47.296875 16.40625 47.296875 32.03125 
C 47.296875 39 42.40625 44 35.703125 44 
C 28.703125 44 23.5 39.890625 16.40625 28.953125 
C 21.59375 47.890625 22.296875 50.59375 26.796875 67.6875 
L 26.296875 68.1875 
C 21.296875 67.296875 17.703125 66.6875 11 65.890625 
z
M 31.796875 39.09375 
C 36.09375 39.09375 38.796875 35.8125 38.796875 30.53125 
C 38.796875 23.96875 33.703125 13.328125 27.796875 7.15625 
C 24.09375 3.375 19.796875 1.296875 15.5 1.296875 
C 12.40625 1.296875 10.90625 2.390625 10.90625 4.671875 
C 10.90625 10.640625 13.90625 20.296875 18.09375 27.65625 
C 22.5 35.3125 27 39.09375 31.796875 39.09375 
z
" id="Nimbus_Roman_No9_L_Regular_Italic-98"/>
    <path d="M 68.703125 32.984375 
C 70.203125 32.984375 72.09375 32.984375 72.09375 34.984375 
C 72.09375 37 70.203125 37 68.796875 37 
L 8.90625 37 
C 7.5 37 5.59375 37 5.59375 34.984375 
C 5.59375 32.984375 7.5 32.984375 9 32.984375 
z
M 68.796875 13 
C 70.203125 13 72.09375 13 72.09375 15 
C 72.09375 17 70.203125 17 68.703125 17 
L 9 17 
C 7.5 17 5.59375 17 5.59375 15 
C 5.59375 13 7.5 13 8.90625 13 
z
" id="CMR10-61"/>
    <path d="M 29.09375 68 
L 11.09375 59 
L 11.09375 57.59375 
C 12.296875 58.09375 13.40625 58.484375 13.796875 58.6875 
C 15.59375 59.390625 17.296875 59.78125 18.296875 59.78125 
C 20.40625 59.78125 21.296875 58.296875 21.296875 55.078125 
L 21.296875 9.359375 
C 21.296875 6.03125 20.5 3.71875 18.90625 2.796875 
C 17.40625 1.890625 16 1.59375 11.796875 1.5 
L 11.796875 0 
L 39.40625 0 
L 39.40625 1.5 
C 31.5 1.59375 29.90625 2.609375 29.90625 7.453125 
L 29.90625 67.796875 
z
" id="Nimbus_Roman_No9_L_Regular-49"/>
    <path d="M 19.203125 5.296875 
C 19.203125 8.1875 16.796875 10.59375 13.90625 10.59375 
C 11 10.59375 8.59375 8.1875 8.59375 5.296875 
C 8.59375 2.390625 11 0 13.90625 0 
C 16.796875 0 19.203125 2.390625 19.203125 5.296875 
z
" id="CMMI10-58"/>
    <path d="M 18.09375 58.09375 
L 37.703125 58.09375 
C 39.296875 58.09375 39.703125 58.296875 40 58.984375 
L 43.796875 67.890625 
L 42.90625 68.59375 
C 41.40625 66.5 40.40625 66 38.296875 66 
L 17.40625 66 
L 6.5 42.453125 
C 6.40625 42.265625 6.40625 42.15625 6.40625 41.96875 
C 6.40625 41.46875 6.796875 41.171875 7.59375 41.171875 
C 10.796875 41.171875 14.796875 40.484375 18.90625 39.1875 
C 30.40625 35.53125 35.703125 29.40625 35.703125 19.609375 
C 35.703125 10.109375 29.59375 2.6875 21.796875 2.6875 
C 19.796875 2.6875 18.09375 3.390625 15.09375 5.5625 
C 11.90625 7.84375 9.59375 8.828125 7.5 8.828125 
C 4.59375 8.828125 3.203125 7.640625 3.203125 5.171875 
C 3.203125 1.390625 7.90625 -1 15.40625 -1 
C 23.796875 -1 31 1.6875 36 6.75 
C 40.59375 11.203125 42.703125 16.84375 42.703125 24.359375 
C 42.703125 31.484375 40.796875 36.03125 35.796875 40.96875 
C 31.40625 45.328125 25.703125 47.609375 13.90625 49.6875 
z
" id="Nimbus_Roman_No9_L_Regular-53"/>
   </defs>
   <g style="fill:#262626;" transform="translate(14.4 450.769596)scale(0.18 -0.18)">
    <use transform="translate(0 16.487732)scale(0.996264)" xlink:href="#Standard_Symbols_L-102"/>
    <use transform="translate(51.904966 0)scale(0.737241)" xlink:href="#Nimbus_Roman_No9_L_Regular_Italic-98"/>
    <use transform="translate(99.22778 16.487732)scale(0.996264)" xlink:href="#CMR10-61"/>
    <use transform="translate(186.599127 16.487732)scale(0.996264)" xlink:href="#Nimbus_Roman_No9_L_Regular-49"/>
    <use transform="translate(236.412328 16.487732)scale(0.996264)" xlink:href="#CMMI10-58"/>
    <use transform="translate(264.007834 16.487732)scale(0.996264)" xlink:href="#Nimbus_Roman_No9_L_Regular-53"/>
   </g>
  </g>
 </g>
 <defs>
  <clipPath id="p323f620664">
   <rect height="297.990576" width="436.843878" x="126.334863" y="25.6533"/>
  </clipPath>
  <clipPath id="pb4ee3cb866">
   <rect height="297.990576" width="436.843878" x="600.610619" y="25.6533"/>
  </clipPath>
 </defs>
</svg>
